<svg height="75" viewBox="0 0 272 75" width="272" xmlns="http://www.w3.org/2000/svg" xmlns:xlink="http://www.w3.org/1999/xlink"><mask id="a" fill="#fff"><path d="m0 .5336v33.795h33.2187v-33.795z" fill="none"/></mask><mask id="b" fill="#fff"><path d="m28.773 34.3281v-33.795h-28.3697v33.795z" fill="none"/></mask><mask id="c" fill="#fff"><path d="m.5601 36h30.915v-35.8106h-30.915z" fill="none"/></mask><g fill="#0a0b09" fill-rule="evenodd"><path d="m14.5937 10.5186-1.393 6.913h2.689zm.191 23.81v-9.168h.865c1.152 0 1.824-.672 1.632-1.584l-.432-1.969h-4.656s-.384 1.103-.336 1.824c.048 1.393 1.2 1.775 1.872 1.729v9.168h-13.73v-9.217c1.729 0 2.929-1.393 3.505-3.6l5.568-20.978h15.698l5.472 20.689c.48 1.824.96 3.889 2.976 3.938v9.168z" mask="url(#a)" transform="translate(0 .8105)"/><path d="m48.9121 35.7148c-10.417 0-14.978-7.92-14.978-16.705 0-10.609 4.945-18.961 13.346-18.961 4.8 0 6.288 2.207 7.008 2.543l.336-1.584h8.401v15.842h-11.425v-1.729c0-1.968-.288-4.847-1.92-4.847-1.92 0-2.4 4.031-2.4 8.304 0 3.073 0 7.44 2.304 7.489 1.104 0 2.016-1.584 2.016-4.321v-2.832h11.617v1.344c0 8.353-3.648 15.457-14.305 15.457"/><path d="m65.375 35.1386v-9.168c2.256 0 2.784-.721 2.784-2.016v-11.234c0-2.304-2.064-2.111-2.784-2.111v-9.266h28.467v14.834h-8.257l-.192-3.121c-.096-1.344-.768-2.447-3.264-2.447h-1.248v4.8c.672 0 1.056-.768 1.056-1.777v-1.248h2.496v11.137h-2.544v-1.727c0-1.105-.481-1.345-.912-1.392v5.568h1.728c1.968 0 3.072-2.496 3.072-4.514v-2.351h8.16v16.033z"/><path d="m141.7441 12.9609v11.041c0 .961.864 1.969 2.112 1.969v9.168h-17.185v-9.168c1.728-.289 2.112-1.201 2.112-2.209v-3.168h-4.513v3.648c0 .721 1.009 1.729 1.825 1.729v9.168h-16.994v-9.168c1.584 0 2.305-1.057 2.305-2.209v-11.617c0-.913-.768-1.536-2.209-1.536v-9.265h17.042v9.265c-1.44 0-1.969 1.056-1.969 1.92v2.544h4.513v-2.832c0-.672-.528-1.632-1.968-1.632v-9.265h17.138v9.217c-.721.144-2.209-.144-2.209 2.4"/><path d="m161.7109 10.4169c-2.496 0-2.593 3.648-2.593 7.969 0 2.975-.336 7.249 2.257 7.249 2.64 0 2.736-4.225 2.736-7.873 0-4.609-.192-7.345-2.4-7.345m-.433 25.394c-8.784 0-15.169-6.385-15.169-16.706 0-11.136 5.857-19.105 15.554-19.105 8.977 0 15.361 6.336 15.361 17.09 0 9.217-4.464 18.721-15.746 18.721"/><path d="m202.9424 16.8974v-4.513c0-1.727-1.439-1.632-1.439-1.632v13.009c0 .768.864 2.209 2.975 2.209v9.168h-19.393v-9.168c2.736 0 3.457-1.248 3.457-3.072v-12.146s-1.873-.479-1.873 2.113v4.032h-7.489v-15.554h31.347v15.554z"/><path d="m212.6836 35.1386v-9.168c2.256 0 2.784-.721 2.784-2.016v-11.234c0-2.304-2.064-2.111-2.784-2.111v-9.266h28.467v14.834h-8.257l-.192-3.121c-.096-1.344-.768-2.447-3.264-2.447h-1.248v4.8c.672 0 1.056-.768 1.056-1.777v-1.248h2.496v11.137h-2.544v-1.727c0-1.105-.481-1.345-.912-1.392v5.568h1.728c1.968 0 3.072-2.496 3.072-4.514v-2.351h8.16v16.033z"/><path d="m.4033 34.3281v-9.168c2.16.047 2.736-.816 2.736-1.873v-11.424c0-1.633-.912-2.113-2.496-2.113v-9.217h19.394v9.266c-2.208-.096-3.889.287-3.889 2.783v12.529c2.017.385 2.833-1.967 2.833-3.935v-2.786h9.792v15.938z" mask="url(#b)" transform="translate(243 .8105)"/><path d="m16.9453 49.6093h-1.151v5.424h1.584c1.391 0 2.015-.817 2.015-2.832 0-1.488-.479-2.592-2.448-2.592m5.28 10.801h-6.48v2.496c0 1.439 1.009 2.064 3.121 2.064v9.168h-18.866v-9.121c2.016 0 2.784-.863 2.784-2.351v-10.752c0-1.778-1.2-2.305-2.592-2.305v-9.266h23.762c3.456 0 8.449 3.409 8.449 9.698 0 7.056-4.513 10.369-10.178 10.369"/><path d="m16.1621 10.6074c-2.496 0-2.593 3.646-2.593 7.967 0 2.976-.336 7.25 2.257 7.25 2.64 0 2.736-4.225 2.736-7.873 0-4.61-.192-7.344-2.4-7.344m-.433 25.393c-8.784 0-15.169-6.385-15.169-16.705 0-11.137 5.857-19.106 15.554-19.106 8.977 0 15.361 6.336 15.361 17.09 0 9.217-4.464 18.721-15.746 18.721" mask="url(#c)" transform="translate(34 38.8105)"/><path d="m83.9541 49.6093h-1.056v4.896h1.632c1.2 0 1.969-.912 1.969-2.449 0-2.351-1.249-2.447-2.545-2.447m9.505 25.105c-7.681 0-7.776-5.279-7.776-8.351v-4.609c0-1.297-.865-1.729-1.969-1.729h-.912v3.457c0 1.535 1.104 1.488 2.209 1.488v9.168h-17.378v-9.168c1.968 0 2.304-1.343 2.304-2.304v-10.946c0-1.584-.768-2.111-2.112-2.111v-9.266h15.121c5.328 0 9.697.049 12.433 1.584 2.976 1.682 4.177 5.041 4.177 7.969 0 6.721-5.521 7.826-8.305 7.922 3.024.096 7.104 1.104 7.104 5.184v1.824c0 .527-.095.625.241.625.383 0 .24-.336.24-.721v-5.904h2.975v2.928c0 6.048-.239 12.96-8.352 12.96"/><path d="m125.8076 55.8984v-4.514c0-1.728-1.439-1.631-1.439-1.631v13.008c0 .768.864 2.209 2.975 2.209v9.168h-19.393v-9.168c2.736 0 3.457-1.248 3.457-3.072v-12.145s-1.873-.48-1.873 2.112v4.033h-7.489v-15.555h31.347v15.555z"/><path d="m135.5498 74.1386v-9.168c2.16.047 2.736-.816 2.736-1.873v-11.424c0-1.633-.912-2.113-2.496-2.113v-9.217h19.394v9.266c-2.208-.096-3.889.287-3.889 2.783v12.529c2.017.385 2.833-1.967 2.833-3.935v-2.786h9.792v15.938z"/><path d="m180.6719 50.33-1.393 6.912h2.689zm.191 23.809v-9.168h.865c1.152 0 1.824-.672 1.632-1.584l-.432-1.969h-4.656s-.384 1.103-.336 1.824c.048 1.393 1.2 1.776 1.872 1.729v9.168h-13.73v-9.217c1.729 0 2.929-1.393 3.505-3.6l5.568-20.978h15.698l5.472 20.689c.48 1.824.96 3.889 2.976 3.938v9.168z"/><path d="m230.0166 52.6816v21.457h-11.809l-5.52-13.393c-.817-1.968-1.248-4.609-1.345-5.281v5.377c0 3.168 1.248 4.08 2.689 4.08v9.217h-12.577v-9.168c1.776.096 2.64-.768 2.64-3.312v-9.745c0-1.728-1.152-2.304-2.64-2.304v-9.266h15.361l4.801 12.338c.719 1.824.912 2.783 1.103 3.455v-3.551c0-2.736-1.248-3.217-2.208-3.265v-8.977h12.577v9.266c-1.776-.049-3.072.672-3.072 3.072"/><path d="m255.5029 55.2734c0-2.4-.24-5.664-2.4-5.664h-1.632v15.361h1.488c2.689 0 2.544-3.984 2.544-6.816zm-2.592 18.865h-17.666v-9.168h1.008c1.488 0 2.16-.576 2.16-2.015v-11.33c0-1.536-1.103-2.016-2.16-2.016h-1.008v-9.266h19.394c11.137 0 14.113 8.641 14.113 17.235 0 8.304-2.976 16.56-15.841 16.56z"/></g></svg>