<?xml version="1.0" encoding="utf-8"?>
<!-- Generator: Adobe Illustrator 22.1.0, SVG Export Plug-In . SVG Version: 6.00 Build 0)  -->
<svg version="1.1" id="Layer_1" xmlns="http://www.w3.org/2000/svg" xmlns:xlink="http://www.w3.org/1999/xlink" x="0px" y="0px"
	 viewBox="0 0 423.6 68.2" style="enable-background:new 0 0 423.6 68.2;" xml:space="preserve">
<style type="text/css">
	.st0{fill:#282828;}
	.st1{fill:#9A0CE3;}
</style>
<g>
	<path class="st0" d="M332.8,52c-3.3,0-5.7-0.5-7.3-1.4c-1.6-0.9-2.3-2.1-2.3-3.7c0-1.1,0.3-2,1-2.8c0.7-0.8,1.6-1.4,2.8-1.9
		c-1.2-0.5-1.8-1.4-1.8-2.6c0-0.6,0.2-1.2,0.7-1.7c0.4-0.5,1-1,1.8-1.4c-1-0.6-1.7-1.4-2.3-2.4c-0.5-1-0.8-2.1-0.8-3.4
		c0-1.1,0.2-2.1,0.6-3s1-1.7,1.7-2.3c0.7-0.6,1.5-1.1,2.5-1.5c1-0.4,2-0.5,3.2-0.5c1.2,0,2.3,0.2,3.2,0.5c1,0.4,1.8,0.9,2.5,1.5
		c0.6-0.4,1.3-0.8,2.2-1.2c0.9-0.3,1.7-0.6,2.5-0.7v2.5c-0.6,0-1.2,0.1-1.8,0.2c-0.6,0.1-1.3,0.3-1.8,0.5c0.8,1.1,1.2,2.4,1.2,3.9
		c0,1.1-0.2,2.1-0.6,3c-0.4,0.9-1,1.6-1.7,2.3c-0.7,0.6-1.5,1.1-2.5,1.4c-1,0.3-2,0.5-3.2,0.5c-1.2,0-2.3-0.2-3.3-0.6
		c-0.5,0.2-0.9,0.4-1.2,0.7s-0.4,0.6-0.4,1c0,0.4,0.2,0.8,0.6,1s1.2,0.4,2.4,0.5l4.4,0.3c2.4,0.2,4.1,0.7,5.3,1.5
		c1.2,0.8,1.8,2,1.8,3.6c0,0.9-0.2,1.7-0.7,2.5c-0.5,0.7-1.1,1.3-1.9,1.8c-0.8,0.5-1.8,0.8-3,1.1C335.5,51.9,334.2,52,332.8,52z
		 M333.1,49.9c2.1,0,3.7-0.3,4.9-0.9c1.2-0.6,1.8-1.5,1.8-2.5c0-1-0.4-1.7-1.3-2.2c-0.8-0.5-2.3-0.8-4.3-1l-4-0.3l-1-0.1
		c-1.2,0.4-2,0.9-2.6,1.5c-0.6,0.7-0.8,1.4-0.8,2.2c0,1.1,0.6,1.9,1.8,2.5S330.5,49.9,333.1,49.9z M332.6,36c1.7,0,3-0.5,4-1.4
		s1.5-2.2,1.5-3.7c0-1.6-0.5-2.9-1.4-3.8c-0.9-0.9-2.3-1.4-4-1.4c-1.7,0-3,0.5-4,1.4c-1,0.9-1.4,2.2-1.4,3.8c0,1.6,0.5,2.8,1.5,3.7
		S330.9,36,332.6,36z"/>
	<path class="st0" d="M347.1,24h2.7v4h0.1c0.8-1.3,1.8-2.3,3.1-3.1c1.3-0.8,2.9-1.3,4.9-1.3h0.5l-0.3,2.5c-0.2,0-0.3,0-0.4,0h-0.4
		c-1.7,0-3.1,0.4-4.4,1.3c-1.3,0.9-2.3,2.1-3.1,3.7v13.2h-2.7V24z"/>
	<path class="st0" d="M369.3,44.7c-1.2,0-2.4-0.2-3.5-0.7c-1.1-0.5-2.1-1.1-2.9-2c-0.8-0.9-1.5-2-2-3.3s-0.7-2.8-0.7-4.5
		c0-1.7,0.2-3.2,0.7-4.5s1.1-2.4,2-3.3c0.8-0.9,1.8-1.6,2.9-2c1.1-0.5,2.3-0.7,3.6-0.7c1.2,0,2.4,0.2,3.5,0.7c1.1,0.5,2.1,1.1,2.9,2
		c0.8,0.9,1.5,2,2,3.3c0.5,1.3,0.7,2.8,0.7,4.5c0,1.7-0.2,3.2-0.7,4.5c-0.5,1.3-1.1,2.4-2,3.3c-0.8,0.9-1.8,1.6-2.9,2
		C371.7,44.4,370.6,44.7,369.3,44.7z M369.3,42.4c1,0,1.9-0.2,2.8-0.6c0.8-0.4,1.5-1,2-1.7c0.6-0.7,1-1.6,1.3-2.6
		c0.3-1,0.4-2.1,0.4-3.4c0-1.1-0.1-2.2-0.4-3.2c-0.3-1-0.7-1.9-1.2-2.6c-0.5-0.7-1.2-1.3-2-1.8c-0.8-0.4-1.8-0.7-2.8-0.7
		c-1,0-1.9,0.2-2.8,0.6c-0.8,0.4-1.5,1-2.1,1.7c-0.6,0.7-1,1.6-1.3,2.6c-0.3,1-0.4,2.1-0.4,3.3c0,1.1,0.1,2.2,0.4,3.2
		c0.3,1,0.7,1.9,1.2,2.6c0.6,0.8,1.2,1.4,2.1,1.8C367.3,42.2,368.3,42.4,369.3,42.4z"/>
	<path class="st0" d="M389.4,44.7c-2,0-3.5-0.5-4.6-1.6c-1-1.1-1.5-2.5-1.5-4.4V24h2.7v14.2c0,1.4,0.3,2.5,1,3.2
		c0.6,0.7,1.7,1,3.1,1c1.3,0,2.5-0.3,3.6-1c1.1-0.6,2.3-1.5,3.4-2.6V24h2.7v20.3h-2.7V41c-1,1-2.1,1.8-3.4,2.5
		C392.4,44.3,391,44.7,389.4,44.7z"/>
	<path class="st0" d="M405.8,24h2.7v2.9c0.8-0.9,1.8-1.6,2.8-2.3c1.1-0.7,2.4-1,3.9-1c1.2,0,2.2,0.2,3.3,0.7c1,0.4,1.9,1.1,2.7,1.9
		c0.7,0.9,1.3,1.9,1.8,3.3c0.4,1.3,0.7,2.9,0.7,4.6c0,1.8-0.2,3.3-0.7,4.6c-0.4,1.3-1,2.4-1.8,3.3c-0.8,0.9-1.7,1.5-2.7,1.9
		c-1.1,0.4-2.2,0.7-3.4,0.7c-1.3,0-2.5-0.3-3.6-0.9s-2.1-1.3-3-2.3v10.5h-2.7V24z M414.8,42.3c0.9,0,1.7-0.2,2.5-0.5
		c0.8-0.3,1.4-0.8,1.9-1.5c0.5-0.7,1-1.5,1.3-2.6s0.5-2.3,0.5-3.7c0-1.4-0.2-2.6-0.5-3.7c-0.3-1-0.8-1.9-1.3-2.6
		c-0.6-0.7-1.2-1.2-2-1.5c-0.7-0.3-1.5-0.5-2.4-0.5c-1.3,0-2.4,0.3-3.4,0.9c-1,0.6-2,1.4-2.9,2.4V39c1,1.1,2,1.9,3,2.5
		C412.5,42,413.6,42.3,414.8,42.3z"/>
</g>
<g>
	<path class="st0" d="M112.4,50.6h-7.5V46h-0.1c-2.5,3.5-7.3,5.7-11.6,5.7c-5.3,0-9.6-2.2-12.6-5.7c-2.7-3.3-4.2-7.7-4.2-12.4
		c0-4.7,1.2-8.7,4.4-12.2c3.4-4,7.7-5.9,12.7-5.9c4.7,0,8.7,2.1,11.5,5.9v-4.8h7.5V50.6L112.4,50.6z M94.8,23.4
		c-6-0.1-10.2,4.5-10.2,10.5c0,5.6,4.6,9.9,10.1,9.8c5.9,0.1,10-4.4,10-10.2C104.6,27.8,100.5,23.3,94.8,23.4L94.8,23.4z"/>
	<polygon class="st0" points="114.9,16.5 124,16.5 132,38.9 139.8,16.5 148.9,16.5 135.1,50.6 128.7,50.6 114.9,16.5 	"/>
	<polygon class="st0" points="151.4,16.5 159.6,16.5 159.6,50.6 151.4,50.6 151.4,16.5 	"/>
	<path class="st0" d="M165,16.5h7.6v3.1h0.1c2-2.8,5.7-4.2,9.3-4.2c3.6,0,7.3,1.6,9.7,4.2c0.3,0.3,0.6,0.6,0.9,1
		c2.6,3.7,2.7,7.9,2.7,12.3v17.7h-8.2V34.5c0-2.7,0-6-1.4-8.3c-1.2-1.8-3.3-2.8-5.4-2.8c-2.2,0-4.6,1.2-5.7,3
		c-1.5,2.3-1.4,6-1.4,8.7v15.4H165V16.5L165,16.5z"/>
	<path class="st0" d="M234.2,33.6c0,10.1-8.2,18.1-18.2,18.1c-9.8,0-18-8.2-18-18.1c0-10.2,8.2-18.2,18.4-18.2
		C226.4,15.4,234.2,23.7,234.2,33.6L234.2,33.6z M209,26.5c-1.9,1.9-2.8,4.4-2.8,7.1c0,5.5,4.2,10.1,9.8,10.1c5.8,0,10-4.4,10-10.1
		c0-5.6-4.4-10.2-10-10.2C213.5,23.4,210.7,24.7,209,26.5L209,26.5z"/>
	<path class="st0" d="M272,50.6h-7.5V46h-0.1c-2.4,3.8-6.9,5.7-11.3,5.7c-5,0-9.3-2.3-12.3-5.7c-2.9-3.3-4.6-7.8-4.6-12.3
		c0-4.6,1.5-9.1,4.6-12.5c3.1-3.4,7.9-5.8,12.6-5.8c3.9,0,7.9,1.6,10.5,4.6V5.1h8.2V50.6L272,50.6z M254.2,23.4
		c-5.2,0-9.9,4.7-9.9,9.9c0,5.7,4.2,10.4,10,10.4c5.7,0,10.1-4.6,10.1-10.2C264.4,27.8,259.8,23.4,254.2,23.4L254.2,23.4z"/>
	<path class="st0" d="M284.2,37.2c1.2,3.9,4.9,6.5,9,6.5c3.1,0,6-1.2,7.6-3h9c-2.1,6.1-9.2,11-16.4,11c-9.9,0-18-8-18-17.9
		c0-10.1,7.9-18.4,18.1-18.4c9.7,0,17.5,8.4,17.5,17.9c0,1.3-0.2,2.6-0.4,3.9H284.2L284.2,37.2z M302.8,29.9
		c-1.4-4.1-5.1-6.5-9.3-6.5c-4.1,0-8.2,2.6-9.5,6.5H302.8L302.8,29.9z"/>
</g>
<g>
	<g>
		<polygon class="st1" points="19.1,13.2 21.4,15.5 67.5,3.2 68.4,0 		"/>
		<polygon class="st1" points="23.7,17.8 26.1,20.1 65.8,9.5 66.7,6.3 		"/>
		<polygon class="st1" points="28.4,22.5 30.7,24.8 64.1,15.8 65,12.7 		"/>
		<polygon class="st1" points="36.1,54.3 36.9,51.1 3.2,17.4 0,18.2 		"/>
		<polygon class="st1" points="37.8,48 38.6,44.8 9.5,15.7 6.3,16.5 		"/>
		<polygon class="st1" points="39.5,41.6 40.3,38.4 15.8,14 12.7,14.8 		"/>
		<polygon class="st1" points="63.4,19 60.2,19.9 47.7,65.9 50,68.2 		"/>
		<polygon class="st1" points="57,20.7 53.8,21.5 43.1,61.3 45.4,63.6 		"/>
		<polygon class="st1" points="50.7,22.3 47.5,23.2 38.5,56.6 40.8,58.9 		"/>
	</g>
</g>
</svg>
