<?xml version="1.0" encoding="utf-8"?>
<!-- Generator: Adobe Illustrator 16.0.4, SVG Export Plug-In . SVG Version: 6.00 Build 0)  -->
<!DOCTYPE svg PUBLIC "-//W3C//DTD SVG 1.1//EN" "http://www.w3.org/Graphics/SVG/1.1/DTD/svg11.dtd">
<svg version="1.1" id="Layer_1" xmlns="http://www.w3.org/2000/svg" xmlns:xlink="http://www.w3.org/1999/xlink" x="0px" y="0px"
	 width="1200px" height="272px" viewBox="0 452.5 1200 272" enable-background="new 0 452.5 1200 272" xml:space="preserve">
<path d="M600.738,528.185c-30.831,0-52.984,22.523-52.984,53.538c0,31.016,22.338,53.539,52.984,53.539
	c30.831,0,52.984-22.523,52.984-53.539C653.908,550.708,631.569,528.185,600.738,528.185z M600.738,614.4
	c-17.538,0-29.723-13.478-29.723-32.678c0-19.568,12-32.677,29.723-32.677c17.539,0,29.724,13.478,29.724,32.677
	C630.646,600.923,618.277,614.4,600.738,614.4z"/>
<polygon points="727.569,568.062 702.831,528.554 673.846,528.554 673.846,631.938 697.846,631.938 697.846,564.554 728.308,607.2 
	758.77,564.554 758.77,631.938 780.923,631.938 780.923,528.554 752.492,528.554 "/>
<path d="M851.631,528.554h-46.708v103.385h22.154v-33.23h24.554c20.492,0,34.893-15.323,34.893-35.077
	C886.708,543.877,872.308,528.554,851.631,528.554L851.631,528.554z M849.415,578.4h-22.338v-27.692h22.338
	c8.308,0,14.031,6.276,14.031,13.846S857.723,578.4,849.415,578.4z M952.8,528.185c-30.831,0-52.984,22.523-52.984,53.538
	c0,31.016,22.339,53.539,52.984,53.539c30.831,0,52.985-22.523,52.985-53.539C1005.969,550.708,983.631,528.185,952.8,528.185z
	 M952.8,614.4c-17.538,0-29.723-13.478-29.723-32.678c0-19.568,12-32.677,29.723-32.677c17.538,0,29.724,13.478,29.724,32.677
	C982.523,600.923,970.338,614.4,952.8,614.4z M1065.046,568.984c-12-2.953-19.2-5.169-19.2-10.153c0-5.724,5.354-9.416,13.847-9.416
	c10.339,0,19.754,3.692,26.399,10.339l2.216,2.216l13.292-17.354l-1.846-1.661c-9.97-9.601-23.077-14.4-38.77-14.4
	c-22.338,0-38.584,13.292-38.584,31.385c0,22.708,20.308,27.877,36.738,32.123c12.738,3.323,20.492,5.723,20.492,11.815
	c0,4.8-4.431,10.523-16.984,10.523c-14.954,0-24.555-7.938-28.985-12.555l-2.399-2.399l-12.924,17.907l1.662,1.662
	c10.154,10.707,24.554,16.431,41.908,16.431c30.092,0,40.8-17.169,40.8-33.046C1103.077,578.585,1081.107,573.046,1065.046,568.984
	L1065.046,568.984z"/>
<polygon points="1200,550.708 1200,528.554 1122.462,528.554 1122.462,631.938 1200,631.938 1200,611.631 1144.615,611.631 
	1144.615,589.477 1192.615,589.477 1192.615,569.169 1144.615,569.169 1144.615,550.708 "/>
<path d="M439.385,582.277c0,31.015,21.969,53.538,53.538,53.538c16.431,0,30.277-6.646,40.062-19.754l-14.769-14.77
	c-4.431,7.385-15.323,13.662-24.37,13.662c-18.092,0-31.015-14.031-31.015-32.861c0-18.831,13.107-32.862,31.2-32.862
	c9.046,0,20.123,6.277,24.554,13.662l14.953-14.77c-9.784-13.107-24-19.754-40.431-19.754
	C461.354,528.738,439.385,551.262,439.385,582.277L439.385,582.277z M700.062,686.4h-13.846l6.83-18.277L700.062,686.4z
	 M712.431,699.692l-15.139-38.4H688.8l-15.139,38.4h7.569l2.77-7.385h17.538l2.77,7.385H712.431L712.431,699.692z"/>
<polygon points="752.677,699.692 752.677,661.292 746.031,661.292 746.031,687.877 726.462,661.292 719.446,661.292 
	719.446,699.692 726.277,699.692 726.277,672.185 746.215,699.692 "/>
<rect x="781.477" y="661.292" width="6.646" height="38.4"/>
<path d="M817.107,693.6h-11.076v-10.707h11.076c3.877,0,5.908,2.399,5.908,5.354C823.016,691.754,820.8,693.6,817.107,693.6z
	 M816.738,677.169h-10.707V667.2h10.707c3.508,0,5.354,2.215,5.354,4.984S820.246,677.169,816.738,677.169z M818.585,699.692
	c7.2,0,11.077-4.431,11.077-10.339c0-4.8-3.323-8.861-7.385-9.415c3.508-0.738,6.646-4.062,6.646-8.861
	c0-5.354-3.877-9.785-10.892-9.785H799.2v38.4H818.585z"/>
<polygon points="879.323,699.692 879.323,661.292 869.908,661.292 859.385,686.4 848.861,661.292 839.446,661.292 839.446,699.692 
	846.092,699.692 846.092,671.077 857.908,699.692 860.861,699.692 872.677,671.077 872.677,699.692 "/>
<path d="M926.4,700.246c7.754,0,12.554-4.062,15.508-8.677l-5.724-2.954c-1.847,3.139-5.538,5.539-9.601,5.539
	c-7.568,0-13.292-5.724-13.292-13.847s5.724-13.846,13.292-13.846c4.062,0,7.754,2.399,9.601,5.538l5.724-2.954
	c-2.954-4.615-7.57-8.677-15.508-8.677c-11.262,0-20.123,8.123-20.123,19.938C906.277,692.308,915.139,700.246,926.4,700.246
	L926.4,700.246z M968.123,694.339c-7.754,0-12.738-5.908-12.738-13.847s4.984-13.846,12.738-13.846s12.738,5.907,12.738,13.846
	C980.861,688.246,975.877,694.339,968.123,694.339z M968.123,700.246c11.446,0,19.569-8.492,19.569-19.938
	s-8.123-19.938-19.569-19.938s-19.569,8.492-19.569,19.938S956.492,700.246,968.123,700.246z"/>
<polygon points="1036.984,699.692 1036.984,661.292 1027.569,661.292 1017.046,686.4 1006.523,661.292 997.107,661.292 
	997.107,699.692 1003.754,699.692 1003.754,671.077 1015.569,699.692 1018.523,699.692 1030.338,671.077 1030.338,699.692 "/>
<path d="M1063.938,679.385h-9.23V667.2h9.23c3.877,0,6.646,2.399,6.646,6.092S1067.815,679.385,1063.938,679.385z M1054.708,699.692
	v-14.4h10.153c7.938,0,12.554-5.538,12.554-12c0-6.461-4.431-12-12.554-12h-16.8v38.4H1054.708z M1103.815,686.4h-13.847
	l6.831-18.277L1103.815,686.4z M1116.185,699.692l-15.139-38.4h-8.492l-15.139,38.4h7.569l2.77-7.385h17.538l2.77,7.385H1116.185z"
	/>
<polygon points="1156.431,699.692 1156.431,661.292 1149.784,661.292 1149.784,687.877 1130.031,661.292 1123.2,661.292 
	1123.2,699.692 1130.031,699.692 1130.031,672.185 1149.969,699.692 "/>
<polygon points="1185.23,699.692 1185.23,683.631 1200,661.292 1192.246,661.292 1181.723,677.723 1171.2,661.292 1163.446,661.292 
	1178.4,683.631 1178.4,699.692 "/>
<path d="M291.877,518.031h-0.185l-71.631-41.724l-70.708,41.169L76.8,475.385L0,520.062v81.23l148.246,86.4l70.893-40.984
	l72.738,42.092l77.354-44.677v-81.23L291.877,518.031L291.877,518.031z M291.508,601.292l-60.739-35.261l61.292-35.815l60.738,35.63
	L291.508,601.292z M147.692,529.661l61.292,35.446l-60.554,35.262l-61.107-35.631L147.692,529.661z M280.984,524.123l-60,34.893
	l-61.107-35.446l60.185-35.077L280.984,524.123z M137.908,523.016l-12.369,7.2l-50.031,28.246l-59.631-35.446l61.108-35.446
	L137.908,523.016z M10.708,531.877l60,36.185v63.877l-60-36.554V531.877z M82.708,574.339l60,35.63v63.692l-60-35.63V574.339
	L82.708,574.339z M225.416,575.077l61.107,36v63.139l-61.107-36.37V575.077z"/>
<g opacity="0.5">
	<polygon points="82.708,638.216 142.708,673.477 142.708,609.97 82.708,574.339 	"/>
	<polygon points="10.708,595.2 70.708,631.754 70.708,568.062 10.708,531.877 	"/>
	<polygon points="225.416,638.031 286.523,674.4 286.523,611.077 225.416,575.077 	"/>
</g>
</svg>
