<svg xmlns="http://www.w3.org/2000/svg" width="1615" height="626" viewBox="0 0 1615 626">
  <g fill="#E82C2A">
    <polygon points="1099.2 64.3 1099.2 485.4 1225.6 485.4 1225.6 421.1 1183.8 421.1 1183.8 .2 1099.1 .2"/>
    <path d="M.9 421.1L43.9 421.1 43.9 217.9.9 217.9.9 162 43.9 154.9 43.9 98.3C43.9 29.8 58.8.1 146.2.1 165.1.1 187.4 2.9 207 6.4L195.4 75.3C182.1 73.2 175.6 72.8 167.2 72.8 136.4 72.8 128.6 75.9 128.6 105.9L128.6 155 192.5 155 192.5 217.9 128.6 217.9 128.6 421 171.1 421 171.1 485.3.9 485.3.9 421.1zM1056.1 400.7C1042.9 403.5 1031.3 403.2 1022.9 403.4 988.1 404.3 991.1 392.8 991.1 359.9L991.1 217.9 1057.4 217.9 1057.4 155 991 155 991 .2 906.3.2 906.3 377.5C906.3 451.6 924.6 485.4 1004.3 485.4 1023.2 485.4 1049.1 480.5 1068.7 476.4L1056.1 400.7zM1582.2 421.4C1600 421.4 1614.4 435.5 1614.4 453.4 1614.4 471.2 1600 485.3 1582.2 485.3 1564.4 485.3 1550.1 471.2 1550.1 453.4 1550.1 435.6 1564.4 421.4 1582.2 421.4zM1582.2 480.3C1597 480.3 1609 468.2 1609 453.4 1609 438.6 1597 426.8 1582.2 426.8 1567.4 426.8 1555.5 438.6 1555.5 453.4 1555.5 468.2 1567.4 480.3 1582.2 480.3zM1588.1 469.1L1581.6 459.6 1577.1 459.6 1577.1 469.1 1569.9 469.1 1569.9 437.7 1583 437.7C1590.8 437.7 1595.6 441.6 1595.6 448.6 1595.6 453.7 1593 457.2 1589 458.4L1596.8 469.2 1588.1 469.2 1588.1 469.1zM1577.2 453.3L1582.9 453.3C1586.2 453.3 1588.4 452 1588.4 448.6 1588.4 445.3 1586.2 444 1583.1 444L1577.2 444 1577.2 453.3zM800.6 217.8L800.6 206.5C775 201.8 749.5 201.8 735.7 201.8 696.3 201.8 691.5 222.7 691.5 234 691.5 250 697 258.7 739.7 268 802.1 282 864.8 296.6 864.8 374 864.8 447.4 827 485.3 747.5 485.3 694.3 485.3 642.7 473.9 603.3 463.9L603.3 400.7 667.4 400.7 667.4 411.9C695 417.2 723.9 416.7 739 416.7 781 416.7 787.8 394.1 787.8 382.1 787.8 365.4 775.7 357.4 736.3 349.4 662.1 336.7 603.1 311.4 603.1 235.9 603.1 164.5 650.8 136.5 730.4 136.5 784.3 136.5 825.2 144.9 864.6 154.9L864.6 217.7 800.6 217.7 800.6 217.8zM410.9 273.4L404.5 267 371.8 295.5C370.1 294.9 368.4 294.6 366.5 294.6 357.7 294.6 350.5 302 350.5 311 350.5 320.1 357.7 327.4 366.5 327.4 375.3 327.4 382.5 320 382.5 311 382.5 309.3 382.2 307.6 381.8 306.1L410.9 273.4z"/>
    <path d="M540.6 400.7L540.5 137.1 455.8 137.1 455.8 161.8C438.4 151.3 418.9 143.9 398.2 140L398.7 140 398.7 110.8 409 110.8 409 89.3 323.7 89.3 323.7 110.8 334 110.8 334 140 334.6 140C253.6 154.9 192.2 225.8 192.2 311.2 192.2 407.4 270.1 485.3 366.3 485.3 399.1 485.3 429.8 476.2 456 460.4L471.3 485.3 560.8 485.3 560.8 400.6 540.6 400.6 540.6 400.7zM371.5 400.6L371.5 390.6 361.4 390.6 361.4 400.5C315.9 397.9 279.6 361.3 277.2 315.8L287.3 315.8 287.3 305.7 277.3 305.7C280 260.5 316.2 224.3 361.4 221.7L361.4 231.7 371.5 231.7 371.5 221.7C416.1 224.1 452 259.1 455.9 303.2L455.9 306.1 445.7 306.1 445.7 316.2 455.9 316.2 455.9 319C452.1 363.2 416.1 398.2 371.5 400.6zM1440 155L1614.7 155 1614.7 217.9 1572.9 217.9 1465.8 481.5C1435.1 555.5 1384.7 625.2 1307.9 625.2 1289 625.2 1263.9 623.1 1246.4 618.9L1254.1 542C1265.3 544.1 1279.9 545.5 1287.6 545.5 1323.2 545.5 1363.4 523.4 1376 485L1267.4 217.9 1225.6 217.9 1225.6 155 1400.4 155 1400.4 217.9 1358.7 217.9 1420.2 369.2 1481.7 217.9 1440 217.9 1440 155z"/>
  </g>
</svg>
