<svg enable-background="new 0 0 431.9 151.4" viewBox="0 0 431.9 151.4" xmlns="http://www.w3.org/2000/svg"><g><path d="m102.2 41.4c-21 0-38.1 17.1-38.1 38.1s17.1 38.1 38.1 38.1 38.1-17.1 38.1-38.1c0-21-17.1-38.1-38.1-38.1zm0 57.1c-10.5 0-19-8.5-19-19s8.5-19 19-19 19 8.5 19 19c.1 10.5-8.4 19-19 19 .1.1 0 .1 0 0z"/><path d="m169.1 92.3c0-1.9 1.5-3.4 3.4-3.4.9 0 1.8.4 2.4 1 9.5 9.7 25.3 26.3 25.4 26.4.4.5.8.8 1.4.9l1.6.2h17.2c1.8 0 3.3-1.4 3.4-3.2 0-.8-.3-1.5-.8-2.2l-28.6-29.2-1.5-1.5c-3.2-3.9-2.9-5.4.8-9.3l22.6-25.1c1.1-1.4.8-3.5-.6-4.6-.6-.4-1.3-.7-2-.7h-17c-.6.2-1.1.5-1.5.9l-20.3 21.9c-1.3 1.4-3.4 1.5-4.8.2-.7-.6-1.1-1.5-1.1-2.5v-43.2c0-1.7-1.3-3-3-3-.1 0-.2 0-.3 0h-12.7c-2.2 0-3.3 1.5-3.3 2.8v95.8c0 2.2 1.8 2.8 3.3 2.8h12.7c1.7.1 3.2-1.2 3.3-2.9z"/><path d="m273 114-1.4-12.8c-.2-1.7-1.7-2.9-3.4-2.7 0 0 0 0-.1 0l-2.9.2c-10.1 0-18.5-7.9-19-18 0-.3 0-.7 0-1v-15.5c-.1-2 1.5-3.6 3.5-3.7h17c1.7-.1 3.1-1.5 3-3.2v-.1-12c0-2.3-1.5-3.6-2.8-3.6h-17.1c-1.9.1-3.5-1.5-3.6-3.4v-19.3c-.1-1.7-1.5-3.1-3.2-3h-.1-12.7c-1.6-.1-3 1.1-3.1 2.7v.2 62c.5 21 17.9 37.6 38.9 37 1.4 0 2.9-.2 4.3-.3 1.7-.3 2.9-1.8 2.7-3.5z"/><path d="m364.7 98c-10.8 0-12.4-3.8-12.4-18.3v-34.9c0-1.8-1.4-3.2-3.2-3.2h-.1-12.8c-1.8 0-3.2 1.4-3.3 3.2v1.6c-18.3-10.4-41.6-3.9-51.9 14.4-10.4 18.3-3.9 41.6 14.4 51.9 14 7.9 31.4 6.2 43.5-4.2 3.6 5.5 9.3 9.1 18.3 9.1 1.5 0 9.7.3 9.7-3.5v-13.6c.1-1.3-.9-2.4-2.2-2.5zm-50.5.6c-10.5 0-19-8.5-19-19s8.5-19 19-19 19 8.5 19 19c0 10.5-8.5 19-19 19z"/><path d="m19.4 74c2.2-1.9 4.1-4.1 5.7-6.6 3.5-5.3 5.4-11.5 5.2-17.9v-22.5c0-4.9.9-8.4 2.7-10.5s4.8-3 9.2-3h12.6c1.2 0 2.1-.9 2.2-2.1v-9.2c0-1.2-1-2.2-2.2-2.2h-13.3c-7.8 0-12.9 2.1-18 7.6s-7.1 12.3-7.1 21.7v14.2c0 2.2-.1 4-.2 5.7v2.2c-.5 3.2-1.8 6.2-3.6 8.9-3.2 4.4-7.5 10.6-11.7 13.7l-.3.3-.2.3h-.2v.3c-.1.3-.1.7 0 1v.3h.1l.2.3.3.3c4.2 3.1 8.5 9.3 11.3 13.7 1.8 2.7 3.1 5.7 3.6 8.9v2.2c.1 1.6.2 3.5.2 5.7v14.3c0 9.4 2.4 16.7 7.1 21.7s10.2 7.6 18 7.6h13.8c1.2 0 2.2-1 2.2-2.2v-8.7c0-1.2-1-2.2-2.2-2.2h-12.6c-4.4 0-7.5-1-9.2-3s-2.7-5.6-2.7-10.5v-22.4c.2-6.4-1.7-12.6-5.2-17.9-1.6-2.5-3.5-4.7-5.7-6.6-.9-.7-1.1-2-.4-2.9.2-.2.3-.3.4-.5z"/><path d="m412.5 74c-2.2-1.9-4.1-4.1-5.7-6.6-3.5-5.3-5.4-11.5-5.2-17.9v-22.5c0-4.9-.9-8.4-2.7-10.5s-4.8-3-9.2-3h-12.6c-1.2 0-2.2-1-2.2-2.2v-9.1c0-1.2 1-2.2 2.2-2.2h13.4c7.8 0 12.9 2.1 18 7.6s7.1 12.3 7.1 21.7v14.2c0 2.2.1 4 .2 5.7v2.2c.5 3.2 1.8 6.2 3.6 8.9 2.8 4.5 7.1 10.7 11.3 13.7l.3.3.2.3h.1v.3c.1.3.1.7 0 1v.3h-.1l-.2.3-.3.3c-4.2 3.1-8.5 9.3-11.3 13.7-1.8 2.7-3.1 5.7-3.6 8.9v2.2c-.1 1.6-.2 3.5-.2 5.7v14.3c0 9.4-2.4 16.7-7.1 21.7s-10.2 7.6-18 7.6h-13.4c-1.2 0-2.2-1-2.2-2.2v-8.7c0-1.2 1-2.2 2.2-2.2h12.7c4.4 0 7.5-1 9.2-3s2.7-5.6 2.7-10.5v-22.4c-.2-6.3 1.6-12.6 5.1-17.9 1.6-2.5 3.5-4.7 5.7-6.6.9-.7 1.1-2 .4-2.9-.2-.2-.3-.3-.4-.5z"/></g></svg>
