<svg height="230" preserveAspectRatio="xMidYMid" viewBox="0 0 223 230" width="223" xmlns="http://www.w3.org/2000/svg"><g fill-rule="evenodd"><path d="m211.241 115.09c9.643-8.634 13.846-22.426 9.591-35.513-4.168-12.821-16.115-21.659-28.681-23.272 0 0-142.713-4.492-142.713-4.492s-20.193 89.123-20.193 89.123 1.538 32.529 1.235 32.529c-2.471 12.487 1.957 26.549 12.957 34.53 11.155 8.092 25.603 8.382 36.824 1.914 5.252 11.818 17.103 20.068 30.897 20.076 13.795.005 25.656-8.232 30.92-20.042 11.212 6.479 25.661 6.204 36.826-1.876 11.164-8.082 15.905-21.7 13.204-34.344 12.889-1.331 24.419-10.024 28.688-23.108 4.269-13.085.08-26.882-9.555-35.525z" fill="#1696c2"/><path d="m192.146 56.296c2.345-12.429-2.233-26.349-13.144-34.283-11.154-8.109-25.598-8.399-36.812-1.919-5.251-11.836-17.098-20.101-30.888-20.108-13.787-.006-25.644 8.244-30.908 20.077-11.208-6.493-25.652-6.218-36.813 1.88-11.159 8.095-15.898 21.736-13.199 34.4-12.885 1.334-24.41 10.043-28.678 23.15-4.267 13.106-.08 26.926 9.552 35.586-9.642 8.65-13.843 22.466-9.587 35.577 4.186 12.905 16.225 21.452 28.863 23.005 0 0 51.248-89.417 51.248-89.417s110.366-27.948 110.366-27.948z" fill="#71d6ea"/><path d="m175.156 145.281h-105s-5.17 28.013-5.17 28.013-33.331 0-34.812 0c0 0 22.365-116.994 22.365-116.994h139.613s-16.996 88.981-16.996 88.981zm-92-60s-6 29-6 29h69s6-29 6-29z" fill="#fff"/></g></svg>