<?xml version="1.0" encoding="utf-8"?>
<!-- Generator: Adobe Illustrator 16.0.4, SVG Export Plug-In . SVG Version: 6.00 Build 0)  -->
<!DOCTYPE svg PUBLIC "-//W3C//DTD SVG 1.1//EN" "http://www.w3.org/Graphics/SVG/1.1/DTD/svg11.dtd">
<svg version="1.1" id="Layer_1" xmlns="http://www.w3.org/2000/svg" xmlns:xlink="http://www.w3.org/1999/xlink" x="0px" y="0px"
	 width="578.229px" height="484.477px" viewBox="0 0 578.229 484.477" enable-background="new 0 0 578.229 484.477"
	 xml:space="preserve">
<ellipse fill="#FBDD90" cx="297.768" cy="246.938" rx="245.889" ry="240.538"/>
<path fill="#A09F9F" d="M374.502,291.914c6.369,0.66,66.398,27.445,117.226,6.646c50.828-20.8,35.438-63.216,42.404-81.964
	c6.967-18.747,16.399-18.869,28.778-12.562c12.378,6.306,14.783,11.894,24.153-1.267c9.371-13.161-6.854-21.75-6.854-21.75
	c-15.083-10.512-44.643-1.013-55.036,6.86c-10.393,7.874-21.746,23.498-25.827,52.279c-4.08,28.781-30.635,41.104-46.978,39.725
	c-16.343-1.378-41.76-7.622-41.76-7.622"/>
<path fill="#1E416B" d="M414.216,262.387l0.033,0.008l0.114,0.027c0.1,0.025,0.255,0.062,0.457,0.112
	c0.407,0.099,1.009,0.241,1.773,0.419c1.528,0.359,3.723,0.863,6.347,1.441c5.245,1.15,12.229,2.592,19.06,3.727
	c4.55,0.759,9.038,1.381,12.818,1.698c2.797,0.242,6.384-0.072,10.16-1.091c3.782-1.014,7.758-2.713,11.463-5.099
	c4.216-2.713,8.079-6.29,11.107-10.752c3.028-4.471,5.257-9.825,6.191-16.365c2.146-15.156,6.259-27.156,11.392-36.528
	c5.128-9.373,11.276-16.095,17.331-20.674c0.751-0.569,1.543-1.118,2.376-1.653c2.319-1.492,4.964-2.893,7.885-4.201
	c2.918-1.305,6.108-2.514,9.478-3.559c6.743-2.084,14.193-3.541,21.637-3.621c4.961-0.044,9.942,0.523,14.695,2.123
	c2.712,0.917,5.349,2.18,7.781,3.876l-4.289,6.153l3.509-6.63c0.265,0.142,1.798,0.963,3.818,2.504
	c2.01,1.551,4.545,3.795,6.676,7.081c1.318,2.051,2.47,4.554,2.984,7.477c0.524,2.914,0.332,6.217-0.768,9.42
	c-0.725,2.138-1.823,4.229-3.258,6.245c-1.381,1.938-2.686,3.599-4.029,5.058c-1.347,1.456-2.744,2.729-4.381,3.786
	c-1.407,0.91-3.029,1.642-4.763,2.019c-1.731,0.384-3.514,0.383-5.073,0.125c-1.045-0.171-2.002-0.438-2.881-0.75
	c-1.173-0.416-2.213-0.906-3.201-1.416c-1.318-0.683-2.549-1.409-3.826-2.155c-1.699-0.992-3.477-2.03-5.514-3.067
	c-1.852-0.946-3.532-1.672-4.979-2.153c-1.448-0.482-2.651-0.712-3.575-0.761c-0.621-0.035-1.116,0.005-1.547,0.09
	c-0.576,0.119-1.051,0.302-1.642,0.674c-0.773,0.498-1.779,1.409-2.938,3.121c-1.157,1.703-2.424,4.183-3.661,7.521
	c-0.565,1.501-1.028,3.693-1.329,6.391c-0.308,2.699-0.474,5.883-0.639,9.389c-0.341,7.019-0.666,15.309-2.622,24.019
	c-1.306,5.803-3.365,11.806-6.686,17.641c-4.412,7.788-11.099,15.188-20.675,21.327c-4.288,2.757-9.146,5.275-14.643,7.526
	c-16.035,6.558-32.694,8.659-48.292,8.441c-15.606-0.224-30.201-2.763-42.297-5.667c-8.061-1.94-15.017-4.048-20.368-5.752
	c-3.052-0.973-5.59-1.815-7.435-2.399c-0.981-0.313-1.772-0.55-2.256-0.677c-0.246-0.065-0.415-0.104-0.427-0.104l0.062-0.314
	l-0.058,0.315l-0.005-0.001l0.062-0.314l-0.058,0.315l0.539-2.983l-0.312,3.016c-0.147-0.016-0.211-0.028-0.229-0.031l0.54-2.984
	l-0.312,3.016l1.545-14.921c0.519,0.055,0.914,0.129,1.291,0.205c0.377,0.081,0.726,0.163,1.079,0.257
	c0.701,0.186,1.423,0.398,2.227,0.647c1.601,0.495,3.513,1.127,5.771,1.856c4.507,1.46,10.373,3.316,17.247,5.118
	c13.74,3.603,31.48,6.936,49.741,6.358c12.179-0.384,24.558-2.487,36.257-7.274c4.736-1.938,8.767-4.046,12.211-6.261
	c5.049-3.249,8.836-6.718,11.778-10.326c2.938-3.608,5.042-7.374,6.607-11.295c3.132-7.825,4.04-16.367,4.493-24.719
	c0.314-5.57,0.42-11.015,1.09-16.234c0.394-2.985,0.969-5.92,2.035-8.8c1.55-4.159,3.265-7.688,5.298-10.701
	c2.027-3.001,4.417-5.509,7.25-7.331c1.586-1.022,3.302-1.812,5.062-2.334c1.763-0.525,3.561-0.783,5.32-0.82
	c3.528-0.075,6.85,0.682,10.022,1.809c2.119,0.757,4.19,1.692,6.258,2.745c2.204,1.123,4.09,2.209,5.675,3.134
	c1.581,0.926,2.872,1.685,3.805,2.162c0.622,0.321,1.079,0.512,1.32,0.591c0.14,0.048,0.208,0.06,0.208,0.06l-0.101,0.552
	l0.048-0.558l0.053,0.006l-0.101,0.552l0.048-0.558l-0.134,1.562l-0.255-1.544c0.149-0.025,0.31-0.025,0.386-0.021l-0.134,1.563
	l-0.254-1.544l0.192,1.174l-0.519-1.083c0.007-0.004,0.152-0.062,0.326-0.088l0.193,1.176l-0.519-1.084l0.02-0.01l0.073-0.045
	c0.198-0.123,0.726-0.531,1.471-1.343c0.748-0.807,1.706-1.999,2.835-3.585c1.041-1.471,1.358-2.472,1.474-3.161
	c0.104-0.693,0.046-1.174-0.156-1.806c-0.139-0.412-0.363-0.874-0.677-1.362c-0.692-1.099-1.886-2.28-2.957-3.114
	c-1.065-0.841-1.979-1.352-1.984-1.353l1.659-3.023l-1.614,3.046l-0.047-0.026l1.659-3.023l-1.613,3.047l-0.403-0.213l-0.375-0.262
	c-1.688-1.178-3.851-2.08-6.473-2.642c-2.611-0.562-5.653-0.767-8.882-0.621c-6.459,0.279-13.632,1.984-19.621,4.229
	c-3.99,1.484-7.48,3.217-9.812,4.724c-0.548,0.353-1.029,0.688-1.433,0.993c-4.34,3.292-9.063,8.321-13.23,15.924
	c-4.164,7.601-7.768,17.805-9.699,31.429c-1.239,8.771-4.357,16.396-8.63,22.681c-4.271,6.292-9.654,11.248-15.405,14.947
	c-5.066,3.256-10.424,5.553-15.691,6.97c-5.272,1.408-10.456,1.951-15.312,1.548c-4.388-0.373-9.207-1.047-14.02-1.847
	c-4.807-0.803-9.604-1.728-13.872-2.609c-8.534-1.762-14.963-3.343-15.022-3.357L414.216,262.387z"/>
<path fill="#A09F9F" d="M368.226,403.145c13.687,0,26.724-2.772,38.58-7.788c6.939-2.937,3.134,14.415,9.812,22.633
	c7.256,8.928,24.904,8.69,30.108,2.522c14.56-17.252,20.613-92.139,20.613-116.479c0-28.959-12.42-55.019-32.225-73.141
	c-17.629-16.131-41.109-25.972-66.889-25.972c-21.99,0-42.308,7.16-58.746,19.276c-24.483,18.047-40.369,47.086-40.369,79.836
	c0,16.328-1.38,99.897,5.613,113.479c4.049,7.861,22.642,12.056,29.89,1.478c7.246-10.576,3.146-35.924,10.578-31.209
	C330.532,397.51,348.72,403.145,368.226,403.145z"/>
<path fill="#1E416B" d="M368.226,403.145v7.5c14.699,0.003,28.742-2.981,41.503-8.383l-1.509-3.561v3.822
	c0.873-0.007,1.369-0.205,1.509-0.263l-1.509-3.562v3.824V397.1l-2.209,4.943c0.729,0.334,1.564,0.486,2.209,0.48V397.1
	l-2.209,4.943l2.166-4.846l-3.77,3.748c0.356,0.362,0.916,0.793,1.604,1.098l2.166-4.846l-3.77,3.748l2.908-2.896l-3.535,2.101
	c0.1,0.17,0.285,0.448,0.627,0.795l2.908-2.896l-3.535,2.101l2.008-1.191l-2.104,1.018l0.097,0.175l2.008-1.191l-2.104,1.018
	l1.029-0.497l-1.047,0.463l0.018,0.035l1.029-0.498l-1.047,0.463l0.213-0.095l-0.215,0.087l0.002,0.008l0.213-0.095l-0.215,0.087
	c0.01,0.021,0.115,0.323,0.223,0.803c0.195,0.842,0.41,2.197,0.644,3.795c0.354,2.408,0.764,5.363,1.604,8.502
	c0.424,1.572,0.961,3.195,1.701,4.834c0.742,1.635,1.691,3.289,2.961,4.85c1.486,1.832,3.217,3.355,5.055,4.599
	c2.765,1.864,5.767,3.123,8.804,3.938c3.041,0.812,6.129,1.188,9.147,1.189c3.457-0.006,6.824-0.482,9.988-1.535
	c1.582-0.531,3.119-1.209,4.584-2.105c1.463-0.895,2.865-2.012,4.084-3.455c1.299-1.54,2.412-3.227,3.438-5.047
	c1.911-3.409,3.516-7.311,4.979-11.653c2.547-7.595,4.633-16.552,6.396-26.129c2.637-14.355,4.518-30.084,5.75-44.171
	c0.616-7.04,1.069-13.668,1.37-19.506c0.302-5.842,0.447-10.881,0.447-14.811c0.002-15.555-3.34-30.371-9.346-43.713
	c-6.006-13.344-14.668-25.219-25.314-34.961c-18.94-17.342-44.248-27.943-71.953-27.939c-23.627-0.003-45.522,7.708-63.193,20.74
	c-13.164,9.703-24.013,22.356-31.579,36.999c-7.566,14.642-11.841,31.282-11.839,48.875c0,2.256-0.027,5.918-0.055,10.535
	c-0.028,4.619-0.055,10.207-0.055,16.367c0,15.62,0.176,34.911,0.99,51.67c0.409,8.387,0.973,16.131,1.782,22.582
	c0.407,3.229,0.872,6.137,1.445,8.715c0.288,1.293,0.603,2.504,0.972,3.66c0.373,1.157,0.791,2.262,1.366,3.385
	c1.129,2.184,2.662,3.936,4.353,5.387c2.549,2.17,5.494,3.717,8.662,4.808c3.17,1.077,6.578,1.682,10.09,1.686
	c3.476-0.004,7.077-0.598,10.533-2.107c1.724-0.756,3.401-1.746,4.952-2.996c1.551-1.247,2.966-2.758,4.152-4.491
	c1.276-1.865,2.196-3.82,2.926-5.785c1.267-3.438,1.965-6.943,2.486-10.308c0.387-2.52,0.658-4.954,0.906-7.151
	c0.184-1.648,0.355-3.164,0.535-4.445c0.135-0.959,0.273-1.787,0.408-2.408c0.1-0.465,0.196-0.811,0.256-0.979l0.039-0.111
	l0.002-0.002l-1.91-0.824l1.742,1.123c0.125-0.196,0.164-0.293,0.168-0.299l-1.91-0.824l1.742,1.123l-3.582-2.305l3.113,2.9
	c0.229-0.246,0.375-0.451,0.471-0.599l-3.584-2.305l3.115,2.901l-4.01-3.733l2.346,4.938c0.768-0.362,1.324-0.838,1.664-1.205
	l-4.01-3.733l2.346,4.938l-2.502-5.271v5.838c0.797,0.008,1.744-0.197,2.502-0.566l-2.502-5.271v5.838v-5.182l-1.715,4.899
	c0.385,0.138,0.977,0.281,1.715,0.281v-5.182l-1.715,4.899l1.061-3.028l-1.727,2.721c0.073,0.047,0.274,0.17,0.666,0.309
	l1.061-3.026l-1.727,2.721c16.487,10.467,36.092,16.535,57.049,16.531v-7.502v-7.5c-18.058-0.004-34.832-5.203-49.013-14.197
	c-0.696-0.441-1.479-0.855-2.413-1.184c-0.931-0.326-2.027-0.562-3.242-0.562c-0.826-0.002-1.697,0.115-2.528,0.354
	c-1.628,0.46-3.007,1.38-3.95,2.314c-0.898,0.883-1.486,1.768-1.934,2.58c-0.824,1.529-1.219,2.869-1.558,4.201
	c-0.284,1.162-0.489,2.317-0.671,3.504c-0.312,2.063-0.542,4.225-0.79,6.414c-0.366,3.274-0.78,6.625-1.416,9.471
	c-0.313,1.42-0.681,2.707-1.08,3.771c-0.396,1.063-0.827,1.896-1.202,2.438c-0.357,0.521-0.746,0.93-1.193,1.293
	c-0.67,0.539-1.498,0.979-2.529,1.293c-1.025,0.314-2.245,0.49-3.543,0.49c-2.324,0.012-4.886-0.596-6.773-1.498
	c-0.945-0.443-1.716-0.953-2.223-1.391c-0.514-0.437-0.741-0.787-0.772-0.857c-0.052-0.096-0.227-0.49-0.415-1.088
	c-0.364-1.125-0.788-2.939-1.167-5.182c-0.672-3.937-1.243-9.203-1.688-15.195c-0.672-9.002-1.082-19.674-1.318-30.453
	c-0.237-10.785-0.304-21.689-0.304-31.227c0-6.115,0.027-11.673,0.055-16.277c0.027-4.611,0.055-8.262,0.055-10.625
	c0.002-15.16,3.669-29.41,10.166-41.99c6.497-12.574,15.833-23.467,27.151-31.809c15.209-11.203,33.944-17.812,54.295-17.814
	c23.854,0.004,45.512,9.086,61.825,24.004c9.158,8.38,16.607,18.597,21.765,30.052c5.153,11.459,8.022,24.148,8.022,37.558
	c0.002,5.791-0.367,14.926-1.151,25.486c-1.175,15.854-3.289,35.028-6.41,51.586c-1.558,8.271-3.371,15.895-5.371,22.008
	c-0.996,3.055-2.039,5.729-3.07,7.877c-1.022,2.147-2.053,3.764-2.84,4.686l-0.002,0.002c-0.019,0.021-0.188,0.188-0.543,0.392
	c-0.529,0.311-1.459,0.69-2.627,0.953c-1.166,0.268-2.562,0.426-4.021,0.426c-2.34,0.004-4.83-0.416-6.864-1.193
	c-1.021-0.385-1.929-0.852-2.683-1.36c-0.756-0.513-1.354-1.062-1.817-1.632c-0.293-0.356-0.613-0.87-0.927-1.553
	c-0.549-1.188-1.032-2.889-1.401-4.803c-0.281-1.437-0.508-2.982-0.738-4.557c-0.174-1.183-0.35-2.375-0.574-3.589
	c-0.174-0.911-0.373-1.834-0.656-2.805c-0.215-0.729-0.477-1.486-0.852-2.301c-0.283-0.609-0.635-1.256-1.105-1.928
	c-0.354-0.503-0.782-1.021-1.307-1.521c-0.781-0.754-1.807-1.473-2.988-1.959c-1.178-0.492-2.479-0.729-3.666-0.723
	c-1.702,0.006-3.135,0.418-4.338,0.924c-10.954,4.633-22.985,7.195-35.655,7.195v7.502h-0.006V403.145z"/>
<path fill="#A09F9F" d="M371.116,59.356c-13.686,0-26.723,2.773-38.578,7.789c-14.482,6.125-29.926-37.001-39.922-25.156
	c-14.558,17.252-20.613,92.139-20.613,116.479c0,28.96,12.42,55.019,32.225,73.14c17.629,16.131,41.109,25.973,66.892,25.973
	c21.987,0,42.305-7.16,58.744-19.275c24.483-18.047,40.369-47.087,40.369-79.837c0-16.328,1.379-99.899-5.613-113.48
	c-8.101-15.725-25.607,39.163-40.471,29.732C408.812,64.99,390.622,59.356,371.116,59.356z"/>
<path fill="#1E416B" d="M371.116,59.356l0.094-7.5h-0.098c-14.697-0.001-28.738,2.983-41.496,8.381l-0.029,0.011l0.029,0.096
	l-0.016-0.099l-0.017,0.003l0.028,0.096l-0.016-0.099l0.021,0.12v-0.122l-0.021,0.002l0.021,0.12v-0.122
	c-0.005,0-0.063,0.001-0.232-0.044c-0.311-0.079-0.993-0.369-1.889-0.994c-0.783-0.541-1.718-1.316-2.711-2.273
	c-1.75-1.674-3.687-3.889-5.658-6.281c-1.481-1.795-2.994-3.69-4.528-5.556c-2.318-2.802-4.637-5.526-7.287-7.869
	c-1.338-1.169-2.771-2.26-4.5-3.167c-0.865-0.451-1.812-0.853-2.867-1.152c-1.051-0.298-2.213-0.49-3.446-0.49
	c-1.831-0.011-3.793,0.461-5.461,1.341c-1.68,0.875-3.049,2.081-4.154,3.392c-1.298,1.541-2.413,3.227-3.437,5.047
	c-1.912,3.411-3.516,7.312-4.979,11.656c-2.547,7.593-4.633,16.549-6.396,26.127c-2.637,14.357-4.517,30.084-5.751,44.169
	c-0.616,7.042-1.07,13.669-1.37,19.507c-0.3,5.84-0.448,10.879-0.449,14.811c-0.001,15.554,3.34,30.371,9.346,43.712
	c6.006,13.344,14.669,25.219,25.315,34.962c18.942,17.341,44.247,27.941,71.952,27.938c23.627,0.004,45.522-7.709,63.194-20.74
	c13.164-9.701,24.015-22.354,31.578-36.999c7.566-14.64,11.843-31.284,11.84-48.875c0-2.256,0.027-5.918,0.056-10.535
	c0.026-4.62,0.057-10.207,0.057-16.369c-0.002-15.62-0.176-34.911-0.99-51.669c-0.407-8.387-0.973-16.131-1.78-22.582
	c-0.408-3.23-0.873-6.136-1.445-8.715c-0.287-1.291-0.604-2.502-0.973-3.66c-0.373-1.159-0.791-2.261-1.365-3.384
	c-0.424-0.821-0.908-1.621-1.502-2.399c-0.883-1.159-2.039-2.301-3.564-3.167c-0.756-0.43-1.598-0.78-2.473-1.01
	c-0.873-0.232-1.773-0.342-2.635-0.341c-1.812,0.001-3.392,0.464-4.67,1.04c-1.207,0.547-2.197,1.201-3.093,1.888
	c-1.661,1.294-3.014,2.731-4.338,4.285c-2.293,2.715-4.455,5.832-6.658,9.036c-1.645,2.398-3.295,4.835-4.926,7.107
	c-2.43,3.405-4.869,6.448-6.867,8.295c-0.987,0.927-1.852,1.537-2.377,1.811c-0.264,0.14-0.438,0.2-0.504,0.218l-0.03,0.008
	l0.004,0.017l-0.002-0.017h-0.002l0.004,0.017l-0.002-0.017l0.108,0.665v-0.672l-0.108,0.007l0.108,0.665v-0.672v1.154l0.33-1.104
	c-0.094-0.03-0.236-0.05-0.33-0.048v1.154l0.33-1.105l-0.207,0.689l0.303-0.654l-0.096-0.035l-0.207,0.689l0.303-0.654l-0.041,0.087
	l0.048-0.084l-0.007-0.002l-0.041,0.087l0.048-0.084l-0.025-0.017c-16.49-10.467-36.095-16.535-57.049-16.532L371.116,59.356
	l0.095-7.5L371.116,59.356v7.5c18.057,0.003,34.83,5.204,49.012,14.197c1.129,0.717,2.367,1.297,3.668,1.685
	c1.299,0.39,2.65,0.582,3.965,0.58c1.629,0,3.183-0.288,4.586-0.744c2.644-0.868,4.787-2.255,6.707-3.801
	c1.679-1.362,3.191-2.881,4.636-4.494c2.516-2.822,4.815-5.948,7.004-9.058c1.637-2.33,3.2-4.649,4.676-6.787
	c1.104-1.603,2.162-3.104,3.143-4.416c1.455-1.965,2.795-3.515,3.617-4.247c0.201-0.183,0.363-0.313,0.467-0.389l0.117-0.081
	l-0.953-1.627l0.572,1.785c0.264-0.085,0.377-0.155,0.381-0.157l-0.953-1.627l0.572,1.785l-1.219-3.805v3.984
	c0.533,0,0.957-0.096,1.219-0.18l-1.219-3.805v3.984v-4.691l-1.592,4.412c0.51,0.187,1.094,0.282,1.592,0.279v-4.691l-1.592,4.412
	l1.334-3.698l-2.859,2.75c0.211,0.226,0.748,0.671,1.525,0.948l1.334-3.698l-2.859,2.75l1.047-1.007l-1.201,0.825
	c0,0,0.045,0.066,0.154,0.182l1.047-1.007l-1.201,0.825c0,0,0.041,0.063,0.109,0.194c0.051,0.095,0.227,0.491,0.414,1.086
	c0.363,1.125,0.787,2.94,1.166,5.181c0.674,3.937,1.244,9.204,1.688,15.198c0.672,9.001,1.082,19.672,1.318,30.453
	c0.236,10.784,0.305,21.688,0.305,31.224c0,6.117-0.026,11.672-0.055,16.279c-0.029,4.61-0.057,8.26-0.057,10.625
	c-0.003,15.159-3.671,29.41-10.166,41.989c-6.496,12.576-15.832,23.467-27.152,31.81c-15.207,11.203-33.943,17.811-54.295,17.814
	c-23.854-0.004-45.511-9.088-61.826-24.006c-9.158-8.38-16.606-18.595-21.763-30.051c-5.155-11.458-8.023-24.151-8.025-37.557
	c-0.001-5.792,0.368-14.926,1.153-25.488c1.174-15.853,3.29-35.029,6.411-51.586c1.556-8.272,3.372-15.894,5.372-22.008
	c0.998-3.054,2.041-5.728,3.069-7.876c1.023-2.148,2.056-3.764,2.841-4.686l0.041-0.046l-0.771-0.767l0.627,0.882
	c0.097-0.069,0.144-0.115,0.144-0.115l-0.771-0.767l0.627,0.882l-1.588-2.233l0.848,2.595c0.329-0.106,0.599-0.258,0.74-0.362
	l-1.588-2.233l0.848,2.595l-1.007-3.081v3.243c0.303,0.002,0.682-0.053,1.007-0.162l-1.007-3.081v3.243v-2.12l-0.696,2.025
	c0.056,0.02,0.308,0.096,0.696,0.095v-2.12l-0.696,2.025l0.148-0.43l-0.162,0.425l0.015,0.005l0.147-0.43l-0.162,0.425l0.017,0.006
	c0.109,0.039,0.735,0.403,1.543,1.116c1.438,1.238,3.411,3.441,5.522,6.011c1.594,1.93,3.294,4.071,5.084,6.226
	c2.699,3.235,5.554,6.502,8.89,9.258c1.676,1.374,3.485,2.632,5.584,3.619c2.084,0.979,4.518,1.689,7.188,1.689
	c1.944,0.005,3.978-0.397,5.84-1.191c10.957-4.633,22.985-7.195,35.653-7.196v-7.208l-0.09,7.208h0.09v-7.208l-0.09,7.208h0.047
	h0.048L371.116,59.356L371.116,59.356z"/>
<circle fill="#EFEFEF" cx="326.2" cy="122.003" r="11.795"/>
<path fill="#1E416B" d="M326.2,110.208v7.5c0.613,0.001,1.16,0.12,1.67,0.334c0.762,0.32,1.432,0.875,1.896,1.564
	c0.465,0.695,0.727,1.481,0.729,2.396c0,0.614-0.119,1.16-0.334,1.669c-0.32,0.761-0.875,1.432-1.564,1.896
	c-0.693,0.464-1.479,0.726-2.395,0.729c-0.613-0.001-1.16-0.12-1.67-0.334c-0.762-0.32-1.434-0.875-1.896-1.564
	c-0.465-0.695-0.727-1.481-0.729-2.396c0.002-0.614,0.119-1.16,0.334-1.669c0.32-0.761,0.875-1.432,1.564-1.896
	c0.694-0.464,1.479-0.726,2.396-0.729L326.2,110.208l0.001-7.5c-2.646-0.001-5.199,0.54-7.515,1.52
	c-3.471,1.47-6.401,3.907-8.48,6.982c-2.08,3.07-3.305,6.823-3.3,10.793c-0.001,2.644,0.54,5.2,1.52,7.513
	c1.472,3.473,3.907,6.403,6.982,8.482c3.069,2.08,6.821,3.303,10.793,3.3c2.646,0.001,5.198-0.54,7.514-1.52
	c3.474-1.47,6.402-3.907,8.482-6.982c2.077-3.07,3.303-6.823,3.299-10.793c0.002-2.643-0.539-5.2-1.521-7.513
	c-1.471-3.472-3.906-6.403-6.981-8.482c-3.07-2.08-6.822-3.303-10.793-3.3L326.2,110.208L326.2,110.208L326.2,110.208z"/>
<circle fill="#EFEFEF" cx="408.435" cy="122.691" r="11.795"/>
<path fill="#1E416B" d="M408.435,110.896v7.5c0.613,0.001,1.158,0.12,1.668,0.334c0.765,0.32,1.435,0.875,1.896,1.564
	c0.465,0.695,0.727,1.48,0.729,2.396c0,0.614-0.118,1.16-0.334,1.669c-0.317,0.761-0.875,1.432-1.563,1.896
	c-0.693,0.464-1.48,0.726-2.396,0.729c-0.612-0.001-1.157-0.12-1.668-0.334c-0.762-0.32-1.434-0.875-1.896-1.564
	c-0.465-0.695-0.728-1.481-0.729-2.396c0-0.614,0.119-1.16,0.334-1.669c0.32-0.761,0.875-1.432,1.564-1.896
	c0.693-0.464,1.479-0.726,2.396-0.729V110.896v-7.5c-2.645-0.001-5.2,0.54-7.514,1.52c-3.471,1.47-6.402,3.907-8.482,6.982
	c-2.078,3.07-3.303,6.823-3.299,10.793c-0.002,2.644,0.539,5.201,1.521,7.513c1.471,3.473,3.905,6.403,6.981,8.482
	c3.07,2.08,6.822,3.303,10.793,3.3c2.646,0.001,5.199-0.54,7.513-1.52c3.473-1.47,6.403-3.907,8.481-6.982
	c2.08-3.07,3.304-6.823,3.301-10.793c0-2.644-0.54-5.201-1.52-7.513c-1.473-3.473-3.908-6.403-6.982-8.482
	c-3.069-2.08-6.823-3.303-10.793-3.3V110.896L408.435,110.896z"/>
<path fill="#E9E8E9" d="M372.616,179.488h50.965l20.268,20.268c0.979,0.977,2.562,0.977,3.535,0c0.979-0.976,0.979-2.559,0-3.535
	l-21.731-21.732h-53.033c-1.384,0-2.5,1.119-2.5,2.5C370.118,178.37,371.235,179.488,372.616,179.488z"/>
<path fill="#E9E8E9" d="M336.616,171.488h-42.225l-17.384,14.585c-1.058,0.887-1.196,2.464-0.308,3.522
	c0.887,1.058,2.464,1.196,3.522,0.308l15.988-13.415h40.405c1.381,0,2.5-1.119,2.5-2.5
	C339.116,172.607,337.997,171.488,336.616,171.488z"/>
<polyline fill="#1E416B" points="350.249,168.244 350.249,219.988 359.665,219.988 359.665,168.244 "/>
<path fill="#E788B2" d="M356.411,144.193c6.514,0,15.205,3.281,15.205,9.795c0,6.514-10.486,20-17,20s-15-13.486-15-20
	C339.616,147.474,349.897,144.193,356.411,144.193z"/>
<path fill="#707179" d="M458.616,61.988c0,0-8,30-14,31s4-1,11,7S458.616,61.988,458.616,61.988z"/>
<path fill="#707179" d="M297.914,47.988c0,0,8,30,14,31c6.001,1-4-1-11,7S297.914,47.988,297.914,47.988z"/>
<path fill="#E9E8E9" d="M371.116,196.488h45.869l18.25,22.092c0.881,1.064,2.455,1.215,3.521,0.336
	c1.062-0.88,1.215-2.456,0.336-3.52l-19.75-23.908h-48.227c-1.382,0-2.5,1.119-2.5,2.5
	C368.616,195.369,369.735,196.488,371.116,196.488z"/>
<path fill="#E9E8E9" d="M340.616,186.988h-36.936l-15.128,22.087c-0.78,1.139-0.489,2.695,0.65,3.475
	c1.139,0.78,2.694,0.489,3.476-0.65l13.639-19.913h34.3c1.381,0,2.5-1.119,2.5-2.5C343.116,188.106,341.997,186.988,340.616,186.988
	z"/>
<path fill="#E9E8E9" d="M322.284,334.657c-6.809,17.799-10.168,41.332,6.666,49.332c6.881,3.27,9.166,5.5,24.166,8.5
	c9.887,1.977,18.527,1.256,27.834-0.832c34.166-7.668,30.959-34.498,25.666-55.668c-4-16-3.896-37.818-41-40
	C340.116,294.489,329.616,315.489,322.284,334.657z"/>
<path fill="#1E416B" d="M401.001,206.988c-0.004,0.472-0.086,0.927-0.32,1.497c-0.203,0.494-0.534,1.069-1.043,1.706
	c-0.883,1.113-2.325,2.394-4.299,3.614c-2.951,1.839-7.059,3.525-11.896,4.697c-4.84,1.18-10.407,1.865-16.323,1.864
	c-5.15,0-10.037-0.519-14.412-1.433c-3.278-0.685-6.271-1.592-8.854-2.645c-3.881-1.57-6.819-3.507-8.508-5.254
	c-0.85-0.87-1.389-1.672-1.697-2.334c-0.309-0.67-0.41-1.184-0.414-1.713c0-3.654-2.963-6.617-6.614-6.617
	c-3.654,0-6.617,2.963-6.617,6.617c-0.004,2.289,0.479,4.53,1.326,6.563c0.737,1.784,1.743,3.416,2.93,4.897
	c2.078,2.595,4.687,4.751,7.66,6.601c4.47,2.766,9.795,4.855,15.746,6.311c5.948,1.448,12.522,2.239,19.455,2.239
	c6.032,0,11.799-0.602,17.114-1.711c3.988-0.833,7.726-1.952,11.144-3.344c5.119-2.098,9.549-4.768,12.982-8.266
	c1.709-1.752,3.166-3.732,4.215-5.972c1.049-2.232,1.664-4.742,1.658-7.318c0-3.654-2.962-6.617-6.615-6.617
	C403.963,200.37,401.001,203.334,401.001,206.988z"/>
<path fill="none" d="M369.116,663.118c-0.2,0.082-0.402,0.162-0.608,0.244c-0.118,0.045-0.234,0.092-0.355,0.139h0.965
	L369.116,663.118"/>
<g>
	<g>
		<defs>
			<rect id="SVGID_1_" x="368.051" y="663.024" width="1.134" height="0.566"/>
		</defs>
		<clipPath id="SVGID_2_">
			<use xlink:href="#SVGID_1_"  overflow="visible"/>
		</clipPath>
		<g clip-path="url(#SVGID_2_)">
			<g>
				<defs>
					<rect id="SVGID_3_" x="368.051" y="663.024" width="1.134" height="0.566"/>
				</defs>
				<clipPath id="SVGID_4_">
					<use xlink:href="#SVGID_3_"  overflow="visible"/>
				</clipPath>
				<g transform="matrix(1 0 0 1 -3.051758e-05 0)" clip-path="url(#SVGID_4_)">
					
						<image overflow="visible" enable-background="new    " width="46" height="23" xlink:href="F9992124F487F5E6.jpg"  transform="matrix(0.0246 0 0 0.0246 368.0479 663.0225)">
					</image>
				</g>
			</g>
		</g>
	</g>
</g>
<g>
	<path fill="#A09F9F" d="M215.167,310.121c-10.661,12.367-12.977,12.17-16.547,27.023c-2.066,8.599,9.278,23.915,21.675,20.635
		c12.395-3.278,25.839-25.154,28.39-16.731"/>
	<path fill="#1E416B" d="M233.027,338.788c-2.433,2.227-10.952,9.349-13.318,11.065c-1.179,0.858-2.312,1.581-3.326,2.11
		c-1.012,0.533-1.901,0.864-2.555,1.018c-0.625,0.146-1.205,0.189-1.801,0.155c-0.887-0.054-1.837-0.292-2.868-0.766
		c-1.026-0.47-2.118-1.178-3.156-2.073c-1.869-1.595-3.522-3.823-4.444-5.808c-0.466-0.988-0.75-1.905-0.871-2.588
		c-0.127-0.685-0.079-1.106-0.058-1.182c0.02-0.108,0.138-0.527,0.378-1.11c0.443-1.103,1.289-2.77,2.451-4.729
		c2.032-3.444,13.359-22.901,13.359-22.901s-3.531-17.347-10.038-11.074c-6.507,6.273-16.925,23.589-18.15,25.937
		c-0.612,1.179-1.151,2.313-1.61,3.443c-0.458,1.134-0.844,2.259-1.118,3.506c-0.522,2.433-0.439,4.817-0.032,7.084
		c0.623,3.402,1.971,6.606,3.795,9.618c1.833,3.004,4.167,5.813,6.976,8.239c2.784,2.395,6.055,4.43,9.807,5.672
		c1.874,0.617,3.864,1.024,5.921,1.147c2.056,0.124,4.174-0.043,6.257-0.537c2.239-0.531,4.251-1.378,6.118-2.362
		c3.258-1.731,6.106-3.903,8.72-6.092c1.955-1.642,5.351-6.83,6.983-8.322"/>
</g>
<path fill="none" stroke="#FFFFFF" stroke-width="10" stroke-linecap="round" stroke-linejoin="round" stroke-miterlimit="10" d="
	M265.614,92.738c8.722-23.258,187-8,196,0s1.333,60.667-3,65s-56,10-69-1s-28-27-36-27s-18.667,14.333-28,20s-46,9.667-53,3
	S259.614,108.738,265.614,92.738z"/>
<path fill="#FFFFFF" d="M286.614,229.738c0,0,35,28,42,29s12,33,12,33l-10,122l-80-36l9-47l-18,22l-38-50L286.614,229.738z"/>
<polyline fill="none" stroke="#D8D4D9" stroke-width="4" stroke-linecap="round" stroke-linejoin="round" stroke-miterlimit="10" points="
	284.614,233.738 298.614,267.738 309.614,270.738 303.614,280.738 331.614,312.738 334.614,324.738 332.614,347.738 
	326.614,409.738 "/>
<polygon fill="none" stroke="#D8D4D9" stroke-width="4" stroke-linecap="round" stroke-linejoin="round" stroke-miterlimit="10" points="
	278.614,336.738 314.614,347.738 307.081,382.375 269.614,371.738 "/>
<g>
	<path fill="#A09F9F" d="M508.389,310.121c10.661,12.367,12.977,12.17,16.547,27.023c2.066,8.599-9.278,23.915-21.675,20.635
		c-12.395-3.278-25.84-25.154-28.39-16.731"/>
	<path fill="#1E416B" d="M490.528,338.788c2.433,2.227,10.952,9.349,13.318,11.065c1.179,0.858,2.312,1.581,3.326,2.11
		c1.012,0.533,1.9,0.864,2.555,1.018c0.625,0.146,1.205,0.189,1.801,0.155c0.887-0.054,1.837-0.292,2.867-0.766
		c1.027-0.47,2.118-1.178,3.156-2.073c1.869-1.595,3.523-3.823,4.444-5.808c0.466-0.988,0.75-1.905,0.87-2.588
		c0.127-0.685,0.08-1.106,0.059-1.182c-0.02-0.108-0.139-0.527-0.378-1.11c-0.443-1.103-1.289-2.77-2.45-4.729
		c-2.032-3.444-13.359-22.901-13.359-22.901s3.531-17.347,10.037-11.074c6.508,6.273,16.926,23.589,18.15,25.937
		c0.612,1.179,1.151,2.313,1.61,3.443c0.458,1.134,0.845,2.259,1.118,3.506c0.521,2.433,0.438,4.817,0.031,7.084
		c-0.623,3.402-1.971,6.606-3.795,9.618c-1.834,3.004-4.167,5.813-6.976,8.239c-2.784,2.395-6.056,4.43-9.807,5.672
		c-1.874,0.617-3.864,1.024-5.921,1.147c-2.056,0.124-4.174-0.043-6.258-0.537c-2.238-0.531-4.25-1.378-6.117-2.362
		c-3.258-1.731-6.106-3.903-8.721-6.092c-1.955-1.642-5.351-6.83-6.982-8.322"/>
</g>
<path fill="#FFFFFF" d="M450.947,229.405c0,0-37.333,31.333-44.333,32.333s-12,33-12,33l10,122l80-36l-9.666-44l13.333,23.333
	l38.333-49L450.947,229.405z"/>
<polyline fill="none" stroke="#D8D4D9" stroke-width="4" stroke-linecap="round" stroke-linejoin="round" stroke-miterlimit="10" points="
	452.614,236.738 438.614,270.738 427.614,273.738 433.614,283.738 405.614,315.738 402.614,327.738 404.614,350.738 
	410.614,412.738 "/>
<polygon fill="none" stroke="#D8D4D9" stroke-width="4" stroke-linecap="round" stroke-linejoin="round" stroke-miterlimit="10" points="
	459.614,337.738 423.614,348.738 431.147,383.375 468.614,372.738 "/>
<g>
	
		<path fill="#5B00E9" stroke="#5B00E9" stroke-width="5.6681" stroke-linecap="round" stroke-linejoin="round" stroke-miterlimit="10" d="
		M175.631,239.306c15.653,12.002-167.459-159.017,14.306-5.721"/>
	
		<path fill="#0E75FF" stroke="#0E75FF" stroke-width="4.9666" stroke-linecap="round" stroke-linejoin="round" stroke-miterlimit="10" d="
		M180.958,243.856c13.502,10.684-144.439-141.552,12.341-5.093"/>
	<path fill="#79FFFF" stroke="#79FFFF" stroke-width="4.1901" stroke-miterlimit="10" d="M178.91,239.806
		c7.697,6.141-82.335-81.341,7.035-2.925"/>
	
		<path fill="#FFFFFF" stroke="#FFFFFF" stroke-width="3.3111" stroke-linecap="round" stroke-linejoin="round" stroke-miterlimit="10" d="
		M176.521,238.166c9.672,7.938-36.983-37.984,7.112-3.401"/>
</g>
<polyline fill="#1E416B" points="220.114,283.738 220.282,268.739 200.282,249.406 200.114,239.988 185.864,225.238 
	171.614,240.488 187.364,253.238 195.448,253.905 212.948,270.738 213.281,284.071 "/>
<rect x="204.949" y="284.739" fill="#CC3300" stroke="#D13300" stroke-width="5" stroke-linecap="round" stroke-linejoin="round" stroke-miterlimit="10" width="26" height="92"/>
<path fill="#5C0F00" d="M227.281,289.738c0,0,1.052,75.816-0.333,80.667c-2,7-10.333,5-12.333,6s-10,0.667-8,1.333
	s12,0.667,16,0.667s8.667-0.333,8.667-0.333c3,5.666-0.262-88.175,0.667-94.667C232.281,281.072,229.948,289.738,227.281,289.738z"
	/>
<g>
	
		<image overflow="visible" width="1" height="1" id="D9PcSC_1_" xlink:href="48A427ADF8B71EEE.png"  transform="matrix(1 0 0 1 162.9995 402)">
	</image>
</g>
<g>
	
		<rect x="122.022" y="264.568" transform="matrix(0.9479 -0.3186 0.3186 0.9479 -85.2473 60.7289)" fill="#008043" stroke="#D8D4D9" stroke-width="2.2685" stroke-linecap="round" stroke-linejoin="round" stroke-miterlimit="10" width="41.968" height="52.743"/>
	<g>
		
			<polyline fill="none" stroke="#D8D4D9" stroke-width="2.2685" stroke-linecap="round" stroke-linejoin="round" stroke-miterlimit="10" points="
			129.109,267.988 131.639,275.515 130.273,279.165 133.026,280.533 134.292,284.595 133.164,287.767 121.696,291.621 
			124.768,300.761 135.878,297.026 137.793,297.977 139.676,297.942 141.543,303.497 139.129,306.104 127.661,309.959 
			129.831,317.008 168.536,303.998 166.608,298.264 157.14,300.947 154.821,300.206 153,294.86 154.639,292.913 154.336,291.419 
			163.117,288.468 160.105,279.509 151.115,282.431 149.707,281.208 147.254,280.438 145.869,276.316 147.624,272.785 
			156.807,269.697 		"/>
		
			<circle fill="#00374D" stroke="#D8D4D9" stroke-width="2.2685" stroke-linecap="round" stroke-linejoin="round" stroke-miterlimit="10" cx="131.945" cy="278.503" r="2.174"/>
		
			<circle fill="#00374D" stroke="#D8D4D9" stroke-width="2.2685" stroke-linecap="round" stroke-linejoin="round" stroke-miterlimit="10" cx="146.341" cy="273.864" r="2.174"/>
		
			<circle fill="#00374D" stroke="#D8D4D9" stroke-width="2.2685" stroke-linecap="round" stroke-linejoin="round" stroke-miterlimit="10" cx="134.836" cy="287.104" r="2.174"/>
		
			<circle fill="#00374D" stroke="#D8D4D9" stroke-width="2.2685" stroke-linecap="round" stroke-linejoin="round" stroke-miterlimit="10" cx="149.054" cy="283.124" r="2.174"/>
		
			<circle fill="#00374D" stroke="#D8D4D9" stroke-width="2.2685" stroke-linecap="round" stroke-linejoin="round" stroke-miterlimit="10" cx="138.983" cy="295.882" r="2.174"/>
		
			<circle fill="#00374D" stroke="#D8D4D9" stroke-width="2.2685" stroke-linecap="round" stroke-linejoin="round" stroke-miterlimit="10" cx="152.307" cy="292.8" r="2.174"/>
		
			<circle fill="#00374D" stroke="#D8D4D9" stroke-width="2.2685" stroke-linecap="round" stroke-linejoin="round" stroke-miterlimit="10" cx="142.236" cy="305.558" r="2.174"/>
		
			<circle fill="#00374D" stroke="#D8D4D9" stroke-width="2.2685" stroke-linecap="round" stroke-linejoin="round" stroke-miterlimit="10" cx="155.08" cy="301.64" r="2.174"/>
	</g>
</g>
<g>
	
		<rect x="24.487" y="202.89" transform="matrix(0.9479 -0.3186 0.3186 0.9479 -76.2567 32.5888)" fill="#008043" stroke="#D8D4D9" stroke-width="4" stroke-linecap="round" stroke-linejoin="round" stroke-miterlimit="10" width="74" height="93"/>
	<g>
		
			<polyline fill="none" stroke="#D8D4D9" stroke-width="4" stroke-linecap="round" stroke-linejoin="round" stroke-miterlimit="10" points="
			36.982,208.922 41.443,222.192 39.035,228.629 43.89,231.041 46.122,238.203 44.133,243.796 23.912,250.593 29.328,266.707 
			48.917,260.122 52.294,261.799 55.614,261.738 58.907,271.532 54.65,276.13 34.429,282.927 38.255,295.355 106.502,272.415 
			103.104,262.304 86.409,267.037 82.32,265.729 79.108,256.304 81.998,252.87 81.464,250.236 96.947,245.032 91.636,229.234 
			75.785,234.387 73.302,232.231 68.977,230.872 66.535,223.605 69.628,217.379 85.822,211.936 		"/>
		
			<circle fill="#00374D" stroke="#D8D4D9" stroke-width="4" stroke-linecap="round" stroke-linejoin="round" stroke-miterlimit="10" cx="41.983" cy="227.462" r="3.834"/>
		
			<circle fill="#00374D" stroke="#D8D4D9" stroke-width="4" stroke-linecap="round" stroke-linejoin="round" stroke-miterlimit="10" cx="67.366" cy="219.282" r="3.833"/>
		
			<circle fill="#00374D" stroke="#D8D4D9" stroke-width="4" stroke-linecap="round" stroke-linejoin="round" stroke-miterlimit="10" cx="47.081" cy="242.628" r="3.834"/>
		
			<circle fill="#00374D" stroke="#D8D4D9" stroke-width="4" stroke-linecap="round" stroke-linejoin="round" stroke-miterlimit="10" cx="72.151" cy="235.608" r="3.834"/>
		
			<circle fill="#00374D" stroke="#D8D4D9" stroke-width="4" stroke-linecap="round" stroke-linejoin="round" stroke-miterlimit="10" cx="54.393" cy="258.105" r="3.834"/>
		
			<circle fill="#00374D" stroke="#D8D4D9" stroke-width="4" stroke-linecap="round" stroke-linejoin="round" stroke-miterlimit="10" cx="77.886" cy="252.67" r="3.833"/>
		
			<circle fill="#00374D" stroke="#D8D4D9" stroke-width="4" stroke-linecap="round" stroke-linejoin="round" stroke-miterlimit="10" cx="60.129" cy="275.167" r="3.834"/>
		
			<circle fill="#00374D" stroke="#D8D4D9" stroke-width="4" stroke-linecap="round" stroke-linejoin="round" stroke-miterlimit="10" cx="82.775" cy="268.259" r="3.833"/>
	</g>
</g>
<g>
	<g>
		<path fill="#E1E6E8" d="M241.306,423.977c1.092-16-16.062-26-35.879-26c-10.416,0-9.203,15.5-0.029,15.5
			c8.5,0,21.846,1.5,21.5,11.5c-0.348,9.994-18.5,12-26.5,12c-8.441,0-4.879,13,5.029,13
			C225.243,449.977,240.329,438.3,241.306,423.977z"/>
		<path fill="#132B3F" d="M241.306,423.977l3.971,0.27c0.039-0.571,0.059-1.143,0.059-1.707c0.01-4.522-1.271-8.735-3.508-12.33
			c-1.672-2.698-3.861-5.061-6.408-7.075c-3.822-3.023-8.447-5.289-13.545-6.818c-5.098-1.527-10.676-2.316-16.445-2.318
			c-1.738,0-3.393,0.32-4.859,0.955c-2.211,0.945-3.928,2.605-4.973,4.478c-1.059,1.875-1.514,3.934-1.516,5.95
			c0,1.433,0.23,2.854,0.689,4.22c0.689,2.039,1.902,3.979,3.725,5.461c0.908,0.735,1.967,1.348,3.137,1.764
			c1.172,0.418,2.447,0.637,3.768,0.637c1.98,0,4.229,0.089,6.428,0.353c1.65,0.197,3.273,0.492,4.725,0.901
			c1.088,0.308,2.08,0.679,2.912,1.095c1.26,0.629,2.125,1.342,2.643,2.057c0.264,0.363,0.453,0.73,0.594,1.162
			c0.137,0.434,0.227,0.936,0.229,1.576l-0.006,0.242v-0.002c-0.025,0.647-0.17,1.129-0.436,1.635
			c-0.236,0.438-0.588,0.891-1.1,1.358c-0.885,0.82-2.268,1.65-3.965,2.345c-2.547,1.047-5.758,1.782-8.846,2.221
			c-3.088,0.443-6.068,0.6-8.178,0.598c-1.211,0-2.389,0.183-3.492,0.586c-0.826,0.306-1.605,0.738-2.287,1.285
			c-1.023,0.82-1.797,1.896-2.266,3.021c-0.477,1.127-0.67,2.295-0.67,3.422c0.004,1.594,0.377,3.127,1.016,4.567
			c0.965,2.156,2.549,4.14,4.713,5.636c2.158,1.491,4.932,2.45,8.016,2.444c10.689-0.004,20.232-3.137,27.371-8.405
			c3.564-2.64,6.531-5.816,8.691-9.425c2.158-3.602,3.5-7.639,3.787-11.879L241.306,423.977l-3.971-0.271
			c-0.201,2.92-1.111,5.715-2.678,8.332c-2.34,3.918-6.191,7.418-11.211,9.931c-5.014,2.514-11.176,4.028-18.021,4.026
			c-0.982,0-1.799-0.188-2.514-0.498c-1.061-0.455-1.914-1.207-2.479-2.035c-0.574-0.819-0.805-1.707-0.791-2.153
			c0-0.189,0.029-0.295,0.041-0.32l0.002-0.008l-0.199-0.09l0.162,0.145l0.037-0.055l-0.199-0.09l0.162,0.145l-0.199-0.178
			l0.152,0.221l0.047-0.043l-0.199-0.178l0.152,0.221l-0.016-0.02l0.014,0.02l-0.016-0.02l0.014,0.02
			c0.008-0.004,0.209-0.117,0.799-0.119c2.164-0.002,4.934-0.133,7.947-0.5c2.258-0.272,4.646-0.68,7.012-1.271
			c3.545-0.902,7.045-2.185,9.998-4.328c1.469-1.076,2.809-2.4,3.814-4.047c1.01-1.642,1.641-3.613,1.705-5.695v-0.002
			c0.008-0.172,0.01-0.344,0.01-0.514c0.002-1.656-0.287-3.25-0.852-4.695c-0.49-1.264-1.186-2.402-2.006-3.385
			c-1.443-1.726-3.238-2.965-5.123-3.896c-2.838-1.387-5.934-2.123-8.963-2.565c-3.029-0.438-6-0.562-8.545-0.562
			c-0.604-0.002-1.02-0.119-1.381-0.295c-0.531-0.262-1.004-0.717-1.381-1.406c-0.373-0.68-0.6-1.569-0.596-2.416
			c0-0.53,0.084-1.034,0.23-1.459c0.223-0.643,0.539-1.069,0.957-1.377c0.424-0.301,1.018-0.573,2.201-0.584
			c4.479-0.002,8.797,0.55,12.711,1.574c5.877,1.535,10.814,4.156,14.129,7.414c1.662,1.631,2.928,3.41,3.787,5.324
			c0.854,1.916,1.316,3.975,1.318,6.268c0,0.383-0.012,0.771-0.039,1.168L241.306,423.977"/>
		<path fill="#E9E8E9" d="M118.897,389.477l5.5,69c0,0,12.5,10.5,38.5,10.5s40.5-11,40.5-11l7-68L118.897,389.477"/>
		<path fill="#132B3F" d="M115.409,389.755l5.5,68.998c0.074,0.935,0.521,1.802,1.238,2.402c0.227,0.191,3.654,3.021,10.418,5.807
			c6.76,2.785,16.859,5.517,30.332,5.515c13.496,0.002,24.074-2.857,31.301-5.75c7.229-2.894,11.115-5.812,11.314-5.961
			c0.775-0.59,1.268-1.461,1.365-2.433l7-67.998l-6.963-0.719l-7,68l3.48,0.359l-2.113-2.788l0.934,1.229l-0.926-1.235l-0.008,0.006
			l0.934,1.229l-0.926-1.235c-0.02,0.016-3.482,2.6-10,5.168c-6.521,2.565-16.084,5.125-28.393,5.127
			c-12.527-0.002-21.678-2.523-27.666-4.986c-2.994-1.231-5.195-2.453-6.621-3.344c-0.713-0.443-1.232-0.805-1.559-1.045
			c-0.164-0.119-0.277-0.207-0.348-0.26l-0.062-0.054l-0.006-0.004l-1.287,1.56l1.301-1.55l-0.014-0.01l-1.287,1.56l1.301-1.55
			l-2.252,2.683l3.488-0.279l-5.5-69L115.409,389.755"/>
		<ellipse fill="#E1E6E8" cx="164.763" cy="385.049" rx="46.75" ry="15.427"/>
		<path fill="#132B3F" d="M164.763,400.477v3.5c13.229-0.008,25.201-1.748,34.156-4.695c4.48-1.486,8.219-3.252,11.074-5.469
			c1.424-1.113,2.639-2.353,3.545-3.812c0.906-1.446,1.48-3.162,1.477-4.953c0.004-1.791-0.57-3.506-1.477-4.952
			c-0.793-1.275-1.824-2.384-3.02-3.388c-2.102-1.75-4.727-3.207-7.811-4.489c-4.623-1.914-10.297-3.418-16.73-4.47
			c-6.436-1.047-13.621-1.629-21.213-1.629c-13.23,0.008-25.203,1.748-34.158,4.695c-4.48,1.486-8.223,3.252-11.076,5.467
			c-1.424,1.113-2.639,2.354-3.545,3.812c-0.906,1.446-1.48,3.162-1.479,4.953c-0.004,1.79,0.57,3.506,1.479,4.952
			c0.793,1.275,1.824,2.386,3.02,3.39c2.1,1.75,4.725,3.205,7.809,4.487c4.625,1.916,10.299,3.421,16.732,4.47
			c6.436,1.047,13.623,1.629,21.215,1.629v-3.499v-3.5c-12.592,0.006-23.994-1.705-31.963-4.345
			c-3.979-1.305-7.086-2.86-8.965-4.338c-0.939-0.731-1.562-1.432-1.9-1.979c-0.342-0.562-0.418-0.926-0.426-1.267
			c0.008-0.338,0.084-0.702,0.426-1.266c0.297-0.479,0.809-1.074,1.564-1.707c1.318-1.109,3.371-2.307,5.998-3.393
			c3.939-1.638,9.156-3.047,15.176-4.025c6.023-0.979,12.857-1.537,20.09-1.537c12.594-0.006,23.994,1.705,31.963,4.344
			c3.979,1.306,7.086,2.861,8.963,4.341c0.941,0.729,1.562,1.43,1.9,1.979c0.342,0.562,0.42,0.928,0.424,1.267
			c-0.004,0.34-0.08,0.702-0.424,1.266c-0.297,0.479-0.807,1.076-1.562,1.707c-1.318,1.108-3.371,2.307-5.998,3.393
			c-3.939,1.638-9.156,3.049-15.174,4.025c-6.023,0.979-12.855,1.537-20.092,1.537v3.499H164.763z"/>
		<path fill="#584339" d="M201.515,398.05c0-8.521-15.781-15.428-35.252-15.428s-35.254,6.906-35.254,15.428"/>
		<path fill="#132B3F" d="M165.263,399.977v3.5c13.229-0.008,25.201-1.748,34.156-4.695c4.48-1.486,8.219-3.252,11.074-5.469
			c1.424-1.113,2.639-2.353,3.545-3.812c0.906-1.446,1.48-3.162,1.477-4.953c0.004-1.791-0.57-3.506-1.477-4.952
			c-0.793-1.275-1.824-2.384-3.02-3.388c-2.102-1.75-4.727-3.207-7.811-4.489c-4.623-1.914-10.297-3.418-16.73-4.47
			c-6.436-1.047-13.621-1.629-21.213-1.629c-13.23,0.008-25.203,1.748-34.158,4.695c-4.48,1.486-8.223,3.252-11.076,5.467
			c-1.424,1.113-2.639,2.354-3.545,3.812c-0.906,1.446-1.48,3.162-1.479,4.953c-0.004,1.79,0.57,3.506,1.479,4.952
			c0.793,1.275,1.824,2.386,3.02,3.39c2.1,1.75,4.725,3.205,7.809,4.487c4.625,1.916,10.299,3.421,16.732,4.47
			c6.436,1.047,13.623,1.629,21.215,1.629v-3.499v-3.5c-12.592,0.006-23.994-1.705-31.963-4.345
			c-3.979-1.305-7.086-2.86-8.965-4.338c-0.939-0.731-1.562-1.432-1.9-1.979c-0.342-0.562-0.418-0.926-0.426-1.267
			c0.008-0.338,0.084-0.702,0.426-1.266c0.297-0.479,0.809-1.074,1.564-1.707c1.318-1.109,3.371-2.307,5.998-3.393
			c3.939-1.638,9.156-3.047,15.176-4.025c6.023-0.979,12.857-1.537,20.09-1.537c12.594-0.006,23.994,1.705,31.963,4.344
			c3.979,1.306,7.086,2.861,8.963,4.341c0.941,0.729,1.562,1.43,1.9,1.979c0.342,0.562,0.42,0.928,0.424,1.267
			c-0.004,0.34-0.08,0.702-0.424,1.266c-0.297,0.479-0.807,1.076-1.562,1.707c-1.318,1.108-3.371,2.307-5.998,3.393
			c-3.939,1.638-9.156,3.049-15.174,4.025c-6.023,0.979-12.855,1.537-20.092,1.537v3.499H165.263z"/>
		<path fill="#FFFFFF" d="M155.972,345.979c-0.021-0.002-0.17-0.008-0.418-0.008c-0.992,0.006-3.564,0.088-6.104,1.217
			c-1.264,0.569-2.537,1.426-3.498,2.723c-0.965,1.293-1.562,3.015-1.557,5.066c0,1.168,0.201,2.186,0.633,3.047
			c0.373,0.754,0.926,1.358,1.541,1.789c1.084,0.752,2.279,1.021,3.404,1.215c0.846,0.141,1.672,0.227,2.414,0.346
			c1.121,0.174,2.014,0.443,2.523,0.853c0.262,0.205,0.459,0.434,0.633,0.787c0.17,0.354,0.311,0.848,0.355,1.559
			c0.01,0.172,0.016,0.338,0.016,0.494c-0.002,0.899-0.164,1.529-0.402,2.01c-0.211,0.42-0.482,0.746-0.852,1.045
			c-0.635,0.521-1.594,0.924-2.729,1.244c-0.852,0.242-1.783,0.445-2.729,0.674c-1.412,0.353-2.855,0.729-4.119,1.603
			c-0.627,0.436-1.201,1.021-1.596,1.77c-0.398,0.746-0.598,1.623-0.596,2.57c-0.004,0.965,0.26,1.873,0.697,2.629
			c0.775,1.334,1.975,2.215,3.219,2.951c1.877,1.094,3.988,1.899,5.51,2.807c0.758,0.445,1.35,0.906,1.697,1.336
			c0.35,0.441,0.488,0.785,0.496,1.301c0,0.183-0.021,0.392-0.08,0.634c-0.189,0.807,0.311,1.614,1.117,1.805
			c0.807,0.189,1.615-0.312,1.805-1.117c0.104-0.445,0.158-0.889,0.158-1.32c0.004-0.94-0.271-1.828-0.717-2.557
			c-0.791-1.279-1.979-2.105-3.219-2.814c-1.863-1.051-3.961-1.856-5.469-2.788c-0.752-0.46-1.34-0.938-1.693-1.398
			c-0.354-0.469-0.514-0.873-0.521-1.463c0.004-0.637,0.135-0.998,0.318-1.291c0.166-0.256,0.406-0.484,0.773-0.711
			c0.635-0.396,1.656-0.719,2.834-1.002c1.771-0.445,3.871-0.795,5.734-1.849c0.928-0.528,1.803-1.274,2.416-2.307
			c0.617-1.027,0.943-2.299,0.939-3.756c0-0.223-0.006-0.449-0.02-0.682c-0.074-1.175-0.35-2.189-0.836-3.033
			c-0.426-0.738-1.01-1.318-1.643-1.734c-1.117-0.729-2.332-0.998-3.467-1.188c-0.855-0.14-1.68-0.228-2.41-0.347
			c-0.547-0.088-1.041-0.192-1.439-0.33c-0.611-0.213-0.973-0.455-1.225-0.797c-0.25-0.344-0.475-0.896-0.479-1.977
			c0.006-1.502,0.396-2.498,0.967-3.279c0.434-0.584,0.994-1.051,1.646-1.428c0.973-0.566,2.141-0.906,3.178-1.088
			c1.037-0.183,1.938-0.211,2.367-0.211c0.096,0,0.168,0.002,0.213,0.002l0.049,0.002h0.008l0.021-0.48l-0.023,0.48h0.002
			l0.021-0.48l-0.023,0.48c0.828,0.041,1.531-0.597,1.572-1.422C157.435,346.727,156.8,346.02,155.972,345.979z"/>
		<path fill="#FFFFFF" d="M169.972,346.979c-0.021-0.002-0.17-0.008-0.418-0.008c-0.992,0.006-3.564,0.088-6.104,1.217
			c-1.264,0.569-2.537,1.426-3.498,2.723c-0.965,1.293-1.562,3.015-1.557,5.066c0,1.168,0.201,2.186,0.633,3.047
			c0.373,0.754,0.926,1.358,1.541,1.789c1.084,0.752,2.279,1.021,3.404,1.215c0.846,0.141,1.672,0.227,2.414,0.346
			c1.121,0.174,2.014,0.443,2.523,0.853c0.262,0.205,0.459,0.434,0.633,0.787c0.17,0.354,0.311,0.848,0.355,1.559
			c0.01,0.172,0.016,0.338,0.016,0.494c-0.002,0.899-0.164,1.529-0.402,2.01c-0.211,0.42-0.482,0.746-0.852,1.045
			c-0.635,0.521-1.594,0.924-2.729,1.244c-0.852,0.242-1.783,0.445-2.729,0.674c-1.412,0.353-2.855,0.729-4.119,1.603
			c-0.627,0.436-1.201,1.021-1.596,1.77c-0.398,0.746-0.598,1.623-0.596,2.57c-0.004,0.965,0.26,1.873,0.697,2.629
			c0.775,1.334,1.975,2.215,3.219,2.951c1.877,1.094,3.988,1.899,5.51,2.807c0.758,0.445,1.35,0.906,1.697,1.336
			c0.35,0.441,0.488,0.785,0.496,1.301c0,0.183-0.021,0.392-0.08,0.634c-0.189,0.807,0.311,1.614,1.117,1.805
			c0.807,0.189,1.615-0.312,1.805-1.117c0.104-0.445,0.158-0.889,0.158-1.32c0.004-0.94-0.271-1.828-0.717-2.557
			c-0.791-1.279-1.979-2.105-3.219-2.814c-1.863-1.051-3.961-1.856-5.469-2.788c-0.752-0.46-1.34-0.938-1.693-1.398
			c-0.354-0.469-0.514-0.873-0.521-1.463c0.004-0.637,0.135-0.998,0.318-1.291c0.166-0.256,0.406-0.484,0.773-0.711
			c0.635-0.396,1.656-0.719,2.834-1.002c1.771-0.445,3.871-0.795,5.734-1.849c0.928-0.528,1.803-1.274,2.416-2.307
			c0.617-1.027,0.943-2.299,0.939-3.756c0-0.223-0.006-0.449-0.02-0.682c-0.074-1.175-0.35-2.189-0.836-3.033
			c-0.426-0.738-1.01-1.318-1.643-1.734c-1.117-0.729-2.332-0.998-3.467-1.188c-0.855-0.14-1.68-0.228-2.41-0.347
			c-0.547-0.088-1.041-0.192-1.439-0.33c-0.611-0.213-0.973-0.455-1.225-0.797c-0.25-0.344-0.475-0.896-0.479-1.977
			c0.006-1.502,0.396-2.498,0.967-3.279c0.434-0.584,0.994-1.051,1.646-1.428c0.973-0.566,2.141-0.906,3.178-1.088
			c1.037-0.183,1.938-0.211,2.367-0.211c0.096,0,0.168,0.002,0.213,0.002l0.049,0.002h0.008l0.021-0.48l-0.023,0.48h0.002
			l0.021-0.48l-0.023,0.48c0.828,0.041,1.531-0.597,1.572-1.422C171.435,347.727,170.8,347.02,169.972,346.979z"/>
	</g>
	<g>
		<path fill="#D5E1E7" d="M162.304,407.5c13.928,0.391,25.872,13.074,26.678,28.333c0.807,15.257-9.832,27.31-23.759,26.919
			c-13.928-0.391-25.872-13.074-26.679-28.333C137.739,419.162,148.377,407.111,162.304,407.5z"/>
		<path fill="#1E416B" d="M162.304,407.5l-0.098,3.499c2.963,0.083,5.834,0.817,8.515,2.104c4.019,1.924,7.593,5.104,10.214,9.088
			c2.623,3.983,4.284,8.752,4.551,13.828c0.025,0.482,0.039,0.962,0.039,1.436c-0.002,6.3-2.213,11.768-5.742,15.638
			c-1.768,1.936-3.862,3.474-6.199,4.53c-2.338,1.058-4.92,1.64-7.705,1.641c-0.186,0-0.371-0.002-0.559-0.009
			c-2.963-0.083-5.834-0.817-8.515-2.103c-4.019-1.925-7.594-5.104-10.214-9.089c-2.623-3.984-4.284-8.752-4.553-13.827
			c-0.024-0.482-0.037-0.961-0.037-1.434c0.002-6.302,2.212-11.769,5.742-15.639c1.768-1.937,3.862-3.475,6.199-4.532
			c2.34-1.057,4.92-1.639,7.705-1.64c0.186,0,0.371,0.002,0.559,0.008L162.304,407.5l0.098-3.499
			c-0.252-0.007-0.502-0.01-0.754-0.01c-3.771-0.002-7.359,0.8-10.591,2.263c-4.851,2.193-8.88,5.861-11.678,10.458
			c-2.802,4.599-4.378,10.131-4.378,16.09c0,0.597,0.016,1.197,0.048,1.803c0.453,8.493,3.983,16.235,9.366,21.956
			c2.693,2.86,5.859,5.221,9.363,6.901c3.502,1.681,7.346,2.678,11.346,2.789c0.253,0.007,0.504,0.011,0.755,0.011
			c3.771,0.002,7.36-0.801,10.59-2.263c4.851-2.192,8.88-5.86,11.678-10.458c2.802-4.598,4.378-10.13,4.378-16.088
			c0-0.598-0.017-1.199-0.049-1.805c-0.453-8.493-3.982-16.236-9.365-21.957c-2.693-2.861-5.859-5.221-9.363-6.901
			c-3.5-1.681-7.346-2.678-11.346-2.789L162.304,407.5z"/>
		<path fill="#E9E8E9" d="M162.829,410.653c3.432,0.096,6.787,11.019,7.494,24.396c0.707,13.379-1.504,24.145-4.936,24.047
			c-3.432-0.097-6.789-11.018-7.495-24.396S159.396,410.558,162.829,410.653z"/>
		<path fill="#1E416B" d="M162.829,410.653l-0.014,0.5c0.293,0.008,0.617,0.132,0.981,0.419c0.636,0.499,1.335,1.495,1.987,2.891
			c1.972,4.189,3.582,11.884,4.039,20.612c0.088,1.674,0.131,3.307,0.131,4.882c0,5.442-0.512,10.196-1.379,13.55
			c-0.433,1.677-0.957,3-1.521,3.865c-0.281,0.435-0.568,0.748-0.842,0.944c-0.275,0.196-0.523,0.277-0.778,0.279l-0.032-0.002
			c-0.295-0.008-0.619-0.132-0.982-0.419c-0.637-0.499-1.336-1.494-1.987-2.89c-1.972-4.188-3.583-11.883-4.04-20.612
			c-0.088-1.673-0.131-3.306-0.131-4.879c0-5.443,0.512-10.198,1.379-13.553c0.432-1.676,0.958-3.001,1.521-3.866
			c0.281-0.433,0.57-0.748,0.844-0.943c0.275-0.196,0.523-0.277,0.777-0.279l0.031,0.001L162.829,410.653l0.014-0.5l-0.061-0.001
			c-0.488-0.001-0.957,0.174-1.362,0.468c-0.714,0.52-1.284,1.378-1.789,2.515c-1.497,3.402-2.366,9.428-2.371,16.66
			c0,1.593,0.043,3.241,0.132,4.933c0.355,6.725,1.374,12.829,2.747,17.299c0.688,2.235,1.461,4.062,2.31,5.371
			c0.424,0.654,0.869,1.182,1.35,1.562c0.479,0.38,1.011,0.619,1.574,0.636l0.062,0.001c0.489,0.001,0.956-0.175,1.362-0.469
			c0.713-0.519,1.283-1.378,1.789-2.513c1.496-3.402,2.365-9.427,2.369-16.658c0-1.593-0.043-3.243-0.131-4.935
			c-0.355-6.724-1.375-12.829-2.746-17.299c-0.688-2.235-1.461-4.062-2.309-5.371c-0.425-0.654-0.869-1.183-1.35-1.564
			c-0.479-0.38-1.012-0.619-1.575-0.635L162.829,410.653z"/>
		<path fill="#E9E8E9" d="M148.911,451.816c-2.565-2.729,1.947-12.41,10.082-21.627c8.137-9.217,16.812-14.479,19.379-11.753
			c2.568,2.728-1.946,12.41-10.082,21.628C160.157,449.279,151.481,454.54,148.911,451.816z"/>
		<path fill="#1E416B" d="M148.911,451.816l0.365-0.343c-0.369-0.391-0.584-1.021-0.584-1.916c-0.009-1.904,1.008-4.846,2.866-8.193
			c1.854-3.354,4.537-7.137,7.81-10.844c3.318-3.76,6.728-6.854,9.75-8.998c1.512-1.071,2.926-1.904,4.174-2.465
			c1.25-0.562,2.334-0.843,3.156-0.84c0.722,0.003,1.213,0.195,1.561,0.562c0.369,0.39,0.584,1.021,0.584,1.916
			c0.008,1.904-1.01,4.845-2.868,8.193c-1.854,3.354-4.537,7.138-7.81,10.845c-3.317,3.759-6.727,6.854-9.75,8.997
			c-1.51,1.071-2.926,1.904-4.174,2.464c-1.25,0.562-2.334,0.843-3.156,0.841c-0.721-0.004-1.213-0.196-1.561-0.562l0,0
			L148.911,451.816l-0.363,0.343c0.57,0.608,1.387,0.88,2.287,0.876c1.042-0.002,2.234-0.334,3.564-0.928
			c3.979-1.788,9.217-5.997,14.266-11.712c3.316-3.758,6.035-7.592,7.935-11.022c1.896-3.437,2.985-6.447,2.993-8.678
			c0-1.044-0.25-1.954-0.855-2.602c-0.572-0.608-1.388-0.881-2.289-0.877c-1.041,0.003-2.234,0.333-3.563,0.929
			c-3.979,1.788-9.215,5.997-14.267,11.713c-3.315,3.758-6.035,7.592-7.935,11.021c-1.896,3.438-2.983,6.447-2.991,8.678
			c0,1.044,0.248,1.954,0.854,2.602l0,0L148.911,451.816z"/>
		<path fill="#E9E8E9" d="M180.651,452.44c-2.287,2.591-11.545-3.173-20.681-12.875c-9.133-9.7-14.685-19.664-12.397-22.256
			c2.285-2.593,11.543,3.174,20.678,12.875C177.386,439.887,182.938,449.851,180.651,452.44z"/>
		<path fill="#1E416B" d="M180.651,452.44l-0.375-0.331c-0.254,0.285-0.637,0.447-1.255,0.451c-0.792,0.003-1.911-0.306-3.231-0.919
			c-3.975-1.838-9.748-6.354-15.454-12.419c-3.853-4.091-7.062-8.229-9.3-11.818c-1.119-1.795-1.996-3.452-2.586-4.89
			c-0.592-1.438-0.895-2.657-0.892-3.537c0-0.636,0.149-1.066,0.39-1.337c0.254-0.286,0.637-0.447,1.254-0.451
			c0.793-0.004,1.91,0.305,3.23,0.919c3.975,1.838,9.749,6.354,15.455,12.419c3.854,4.091,7.062,8.229,9.303,11.82
			c1.118,1.795,1.994,3.451,2.586,4.89c0.592,1.438,0.894,2.656,0.891,3.536c0,0.635-0.149,1.064-0.389,1.336L180.651,452.44
			l0.375,0.331c0.457-0.519,0.641-1.216,0.639-1.998c-0.002-1.095-0.348-2.407-0.965-3.916c-1.861-4.516-6.246-10.811-12.084-17.016
			c-3.849-4.087-7.719-7.479-11.103-9.862c-1.692-1.191-3.265-2.131-4.66-2.778c-1.397-0.646-2.616-1.009-3.651-1.012
			c-0.793-0.004-1.518,0.234-2.004,0.789c-0.455,0.519-0.64,1.217-0.64,1.999c0.002,1.096,0.349,2.408,0.966,3.917
			c1.86,4.516,6.244,10.809,12.082,17.014c3.848,4.087,7.719,7.479,11.102,9.862c1.693,1.19,3.265,2.131,4.662,2.778
			c1.397,0.646,2.617,1.009,3.65,1.012c0.795,0.004,1.52-0.235,2.006-0.789L180.651,452.44z"/>
		<path fill="#1E416B" d="M163.495,427.798l-0.014,0.5c6.064,0.17,11.596,1.082,15.598,2.406c2,0.66,3.619,1.426,4.716,2.228
			c0.549,0.397,0.966,0.806,1.241,1.196c0.275,0.395,0.412,0.765,0.431,1.123l0.002,0.087c-0.001,0.333-0.099,0.656-0.313,0.998
			c-0.373,0.596-1.127,1.217-2.218,1.777c-3.272,1.697-9.448,2.834-16.69,2.828c-0.664,0-1.336-0.009-2.018-0.028
			c-6.064-0.169-11.595-1.083-15.598-2.407c-2-0.659-3.619-1.426-4.717-2.227c-0.549-0.398-0.965-0.805-1.241-1.197
			c-0.276-0.394-0.412-0.764-0.431-1.123l-0.002-0.086c0-0.333,0.099-0.657,0.312-0.998c0.373-0.595,1.127-1.216,2.218-1.776
			c3.273-1.697,9.448-2.834,16.692-2.828c0.664,0,1.337,0.009,2.018,0.027L163.495,427.798l0.015-0.5
			c-0.69-0.02-1.373-0.027-2.046-0.027c-5.602,0.001-10.57,0.653-14.18,1.764c-1.807,0.558-3.274,1.226-4.326,2.013
			c-0.526,0.396-0.949,0.822-1.25,1.295c-0.299,0.471-0.469,0.991-0.469,1.532l0.004,0.14c0.031,0.581,0.252,1.137,0.613,1.646
			c0.631,0.893,1.674,1.676,3.043,2.392c4.104,2.131,11.229,3.634,19.301,3.863c0.689,0.021,1.371,0.028,2.045,0.028
			c5.601-0.001,10.568-0.654,14.179-1.764c1.806-0.558,3.274-1.226,4.325-2.014c0.525-0.396,0.949-0.821,1.25-1.295
			c0.299-0.47,0.47-0.992,0.469-1.532l-0.003-0.14c-0.03-0.581-0.253-1.137-0.612-1.646c-0.632-0.893-1.675-1.676-3.043-2.392
			c-4.104-2.13-11.229-3.633-19.3-3.863L163.495,427.798z"/>
		<path fill="#231F20" d="M156.368,432.958c0,0,1.384-15.917,6.643-15.853c5.572,0.067,7.742,17.04,7.742,17.04
			s4.396,1.866,4.529,14.941c0.006,0.523-3.01,0.265-3.01,0.265s-1.25-7.095-1.302-6.572c-1.183,1.709-4.942,2.825-4.942,2.825
			l-0.293,3.477l-2.545,0.019l-1.164-3.955c0,0-3-1.044-4.414-2.216c-0.42-0.446-0.486,5.823-0.486,5.823l-3.512-0.184
			C153.612,448.569,151.911,434.402,156.368,432.958z"/>
	</g>
</g>
</svg>
