<?xml version="1.0" encoding="utf-8"?>
<!-- Generator: Adobe Illustrator 16.0.4, SVG Export Plug-In . SVG Version: 6.00 Build 0)  -->
<!DOCTYPE svg PUBLIC "-//W3C//DTD SVG 1.1//EN" "http://www.w3.org/Graphics/SVG/1.1/DTD/svg11.dtd">
<svg version="1.1" id="Layer_1" xmlns="http://www.w3.org/2000/svg" xmlns:xlink="http://www.w3.org/1999/xlink" x="0px" y="0px"
	 width="578.229px" height="484.477px" viewBox="0 0 578.229 484.477" enable-background="new 0 0 578.229 484.477"
	 xml:space="preserve">
<g>
	<ellipse fill="#F8CACD" cx="325.06" cy="240.537" rx="245.888" ry="240.538"/>
	<path fill="#E1E6E8" d="M555.524,405.989c1.091-16-16.063-26-35.879-26c-10.416,0-9.203,15.5-0.03,15.5c8.5,0,21.846,1.5,21.5,11.5
		c-0.347,9.994-18.5,12-26.5,12c-8.441,0-4.878,13,5.03,13C539.461,431.989,554.547,420.313,555.524,405.989z"/>
	<path fill="#132B3F" d="M555.524,405.989l3.971,0.27c0.039-0.572,0.059-1.143,0.059-1.707c0.008-4.523-1.273-8.736-3.508-12.33
		c-1.673-2.699-3.861-5.061-6.408-7.076c-3.824-3.023-8.449-5.289-13.546-6.818c-5.098-1.527-10.676-2.316-16.446-2.318
		c-1.738,0-3.392,0.32-4.858,0.955c-2.212,0.945-3.929,2.605-4.974,4.477c-1.057,1.875-1.513,3.934-1.515,5.951
		c0,1.432,0.231,2.854,0.69,4.219c0.689,2.039,1.902,3.98,3.724,5.461c0.908,0.736,1.968,1.348,3.138,1.764
		c1.17,0.418,2.447,0.637,3.767,0.637c1.981,0,4.228,0.088,6.428,0.352c1.649,0.197,3.272,0.492,4.724,0.902
		c1.088,0.307,2.08,0.678,2.912,1.094c1.26,0.629,2.125,1.342,2.643,2.057c0.263,0.363,0.453,0.73,0.593,1.162
		c0.138,0.434,0.226,0.936,0.228,1.576l-0.004,0.242v-0.002c-0.027,0.648-0.17,1.129-0.437,1.635
		c-0.236,0.438-0.587,0.891-1.099,1.359c-0.885,0.82-2.267,1.65-3.965,2.344c-2.546,1.047-5.758,1.783-8.846,2.221
		c-3.088,0.443-6.068,0.6-8.178,0.598c-1.211,0-2.389,0.182-3.492,0.586c-0.826,0.305-1.605,0.738-2.286,1.285
		c-1.024,0.82-1.797,1.896-2.267,3.02c-0.475,1.127-0.67,2.295-0.67,3.422c0.004,1.594,0.377,3.127,1.017,4.568
		c0.964,2.156,2.548,4.139,4.713,5.635c2.158,1.492,4.931,2.451,8.015,2.445c10.689-0.004,20.232-3.137,27.371-8.406
		c3.565-2.639,6.532-5.816,8.691-9.424c2.159-3.602,3.5-7.639,3.788-11.879L555.524,405.989l-3.971-0.271
		c-0.201,2.92-1.111,5.715-2.677,8.332c-2.341,3.918-6.192,7.418-11.211,9.93c-5.015,2.514-11.176,4.029-18.021,4.027
		c-0.984,0-1.799-0.189-2.514-0.498c-1.062-0.455-1.914-1.207-2.48-2.035c-0.574-0.82-0.803-1.707-0.791-2.154
		c0-0.189,0.031-0.295,0.041-0.32l0.002-0.008l-0.199-0.09l0.162,0.145l0.037-0.055l-0.199-0.09l0.162,0.145l-0.199-0.178
		l0.152,0.221l0.047-0.043l-0.199-0.178l0.152,0.221l-0.014-0.02l0.012,0.02l-0.014-0.02l0.012,0.02
		c0.009-0.004,0.209-0.117,0.799-0.119c2.164-0.002,4.935-0.133,7.947-0.5c2.258-0.273,4.647-0.68,7.013-1.271
		c3.545-0.902,7.045-2.184,9.997-4.328c1.47-1.076,2.81-2.4,3.816-4.047c1.008-1.641,1.639-3.613,1.704-5.695v-0.002
		c0.007-0.172,0.009-0.344,0.009-0.514c0.002-1.656-0.287-3.25-0.851-4.695c-0.49-1.264-1.185-2.402-2.006-3.385
		c-1.443-1.725-3.238-2.965-5.123-3.895c-2.838-1.387-5.933-2.123-8.963-2.566c-3.029-0.438-6-0.562-8.544-0.562
		c-0.604-0.002-1.02-0.119-1.381-0.295c-0.532-0.262-1.004-0.717-1.381-1.406c-0.373-0.68-0.599-1.57-0.595-2.416
		c0-0.531,0.084-1.035,0.229-1.459c0.224-0.643,0.539-1.07,0.957-1.377c0.425-0.301,1.018-0.574,2.201-0.584
		c4.479-0.002,8.797,0.549,12.711,1.574c5.877,1.535,10.815,4.156,14.129,7.414c1.662,1.631,2.928,3.41,3.787,5.324
		c0.855,1.916,1.317,3.975,1.32,6.268c0,0.383-0.013,0.771-0.039,1.168L555.524,405.989"/>
	<path fill="#A09F9F" d="M272.009,360.989c-4-5-59-41-69-95c-10-54.001,34-64.001,46-80.001s7-24-5-31s-18-6-12-21s22-6,22-6
		c17,7,25,37,24,50s-8,31-30,50.001c-22,19-18,48-8,61s29,31,29,31"/>
	<path fill="#1E416B" d="M274.161,314.536l-0.025-0.023l-0.084-0.082c-0.076-0.07-0.191-0.18-0.342-0.324
		c-0.303-0.289-0.748-0.717-1.312-1.264c-1.129-1.092-2.74-2.664-4.645-4.559c-3.805-3.789-8.795-8.883-13.445-14.014
		c-3.098-3.416-6.049-6.855-8.361-9.863c-1.717-2.221-3.393-5.408-4.58-9.135c-1.193-3.73-1.914-7.992-1.912-12.4
		c0.002-5.012,0.92-10.197,3.035-15.158c2.123-4.965,5.42-9.736,10.416-14.059c11.586-10.004,19.455-19.954,24.561-29.341
		c5.109-9.383,7.438-18.19,8.014-25.759c0.072-0.94,0.105-1.903,0.105-2.893c0-2.758-0.252-5.74-0.732-8.904
		c-0.48-3.161-1.189-6.497-2.133-9.897c-1.895-6.798-4.699-13.852-8.658-20.156c-2.646-4.196-5.818-8.079-9.734-11.212
		c-2.238-1.785-4.727-3.319-7.469-4.448l-2.855,6.935l3.678-6.537c-0.262-0.145-1.783-0.991-4.172-1.856
		c-2.391-0.853-5.65-1.771-9.566-1.785c-2.438,0-5.166,0.385-7.904,1.534c-2.734,1.135-5.408,3.084-7.508,5.741
		c-1.406,1.767-2.57,3.821-3.49,6.118c-0.883,2.21-1.574,4.205-2.074,6.126c-0.496,1.92-0.811,3.782-0.814,5.732
		c-0.004,1.676,0.258,3.436,0.879,5.098c0.613,1.663,1.578,3.161,2.639,4.333c0.709,0.788,1.451,1.447,2.189,2.018
		c0.984,0.761,1.959,1.371,2.922,1.927c1.287,0.739,2.564,1.382,3.883,2.052c1.754,0.892,3.588,1.825,5.562,2.978
		c1.797,1.046,3.316,2.066,4.504,3.024c1.189,0.957,2.033,1.844,2.574,2.595c0.365,0.503,0.6,0.942,0.762,1.35
		c0.211,0.548,0.314,1.046,0.32,1.745c0,0.92-0.223,2.258-1.035,4.16c-0.807,1.893-2.207,4.301-4.346,7.148
		c-0.957,1.287-2.551,2.862-4.656,4.574c-2.104,1.718-4.691,3.581-7.551,5.616c-5.719,4.083-12.516,8.841-18.783,15.197
		c-4.174,4.238-8.109,9.217-11.221,15.165c-4.164,7.924-6.77,17.551-6.754,28.926c0,5.098,0.51,10.545,1.59,16.387
		c3.158,17.033,10.402,32.182,19.023,45.182c8.629,13.006,18.66,23.908,27.645,32.51c5.992,5.73,11.527,10.441,15.855,14.02
		c2.469,2.041,4.551,3.719,6.041,4.955c0.793,0.656,1.42,1.193,1.789,1.531c0.189,0.172,0.311,0.293,0.318,0.303l0.232-0.223
		l-0.234,0.219l0.002,0.004l0.232-0.223l-0.234,0.219l2.217-2.068l-2.367,1.895c0.092,0.115,0.137,0.162,0.15,0.176l2.217-2.07
		l-2.367,1.895l11.713-9.371c-0.326-0.406-0.602-0.699-0.871-0.975c-0.271-0.273-0.529-0.521-0.799-0.768
		c-0.535-0.49-1.105-0.982-1.748-1.523c-1.283-1.078-2.848-2.344-4.684-3.85c-3.666-3-8.4-6.93-13.633-11.738
		c-10.463-9.607-22.863-22.725-32.254-38.396c-6.266-10.451-11.193-22-13.494-34.43c-0.932-5.031-1.34-9.561-1.34-13.656
		c0.002-6.004,0.871-11.066,2.314-15.492c1.445-4.424,3.475-8.229,5.926-11.667c4.887-6.867,11.58-12.251,18.359-17.15
		c4.516-3.278,9.037-6.311,13.064-9.699c2.299-1.945,4.455-4.017,6.301-6.471c2.66-3.553,4.701-6.905,6.135-10.244
		c1.428-3.33,2.244-6.695,2.244-10.064c0.002-1.887-0.262-3.757-0.775-5.521c-0.512-1.766-1.268-3.418-2.188-4.918
		c-1.846-3.008-4.279-5.392-6.943-7.451c-1.783-1.373-3.689-2.609-5.693-3.779c-2.137-1.246-4.07-2.244-5.705-3.077
		c-1.635-0.83-2.971-1.504-3.877-2.031c-0.607-0.349-1.014-0.63-1.211-0.791c-0.115-0.092-0.162-0.142-0.162-0.142l-0.41,0.383
		l0.443-0.342l-0.033-0.041l-0.41,0.383l0.443-0.342l-1.242,0.958l1.436-0.621c-0.059-0.14-0.145-0.275-0.191-0.336l-1.242,0.958
		l1.436-0.621l-1.092,0.473l1.191-0.15c0-0.008-0.029-0.162-0.102-0.322l-1.092,0.473l1.191-0.15l-0.002-0.021l-0.002-0.086
		c-0.004-0.234,0.055-0.899,0.334-1.964c0.273-1.065,0.758-2.516,1.482-4.324c0.674-1.672,1.344-2.479,1.861-2.949
		c0.527-0.462,0.963-0.673,1.604-0.845c0.422-0.107,0.932-0.169,1.512-0.169c1.299-0.011,2.938,0.353,4.219,0.804
		c1.283,0.441,2.207,0.932,2.211,0.937l1.645-3.031l-1.689,3.005l0.047,0.026l1.645-3.031l-1.689,3.005l0.396,0.224l0.424,0.174
		c1.904,0.783,3.832,2.113,5.723,4.014c1.885,1.893,3.703,4.341,5.326,7.136c3.26,5.584,5.705,12.539,7.057,18.79
		c0.91,4.158,1.34,8.031,1.334,10.808c0,0.651-0.023,1.238-0.061,1.742c-0.422,5.431-2.096,12.124-6.236,19.741
		c-4.141,7.613-10.775,16.165-21.188,25.159c-6.707,5.786-11.434,12.534-14.408,19.526c-2.982,6.996-4.238,14.205-4.238,21.043
		c0.002,6.023,0.967,11.771,2.625,16.967c1.668,5.197,4.014,9.85,6.98,13.715c2.688,3.49,5.861,7.178,9.137,10.793
		c3.275,3.609,6.648,7.143,9.699,10.256c6.098,6.225,10.904,10.777,10.949,10.82L274.161,314.536z"/>
	<path fill="#A09F9F" d="M368.226,403.145c13.686,0,26.723-2.773,38.58-7.789c6.939-2.936,3.133,14.416,9.811,22.633
		c7.256,8.928,24.904,8.691,30.109,2.523c14.559-17.252,20.613-92.139,20.613-116.48c0-28.959-12.42-55.018-32.225-73.141
		c-17.629-16.131-41.109-25.972-66.889-25.972c-21.99,0-42.307,7.16-58.746,19.276c-24.483,18.047-40.368,47.086-40.368,79.836
		c0,16.328-1.38,99.898,5.613,113.48c4.049,7.861,22.642,12.055,29.89,1.477c7.247-10.576,3.147-35.924,10.579-31.209
		C330.532,397.51,348.72,403.145,368.226,403.145z"/>
	<path fill="#1E416B" d="M368.226,403.145v7.5c14.699,0.002,28.742-2.982,41.502-8.383l-1.508-3.561v3.822
		c0.873-0.006,1.369-0.205,1.508-0.262l-1.508-3.562v3.824V397.1l-2.209,4.943c0.729,0.334,1.564,0.486,2.209,0.48V397.1
		l-2.209,4.943l2.166-4.846l-3.77,3.748c0.357,0.363,0.916,0.793,1.604,1.098l2.166-4.846l-3.77,3.748l2.908-2.895l-3.535,2.1
		c0.1,0.17,0.285,0.449,0.627,0.795l2.908-2.895l-3.535,2.1l2.008-1.191l-2.104,1.018l0.096,0.174l2.008-1.191l-2.104,1.018
		l1.029-0.498l-1.047,0.463l0.018,0.035l1.029-0.498l-1.047,0.463l0.213-0.094l-0.215,0.086l0.002,0.008l0.213-0.094l-0.215,0.086
		c0.01,0.021,0.115,0.324,0.223,0.803c0.195,0.842,0.41,2.197,0.643,3.795c0.355,2.408,0.764,5.363,1.604,8.502
		c0.424,1.572,0.961,3.195,1.701,4.834c0.742,1.635,1.691,3.289,2.961,4.85c1.486,1.832,3.217,3.355,5.055,4.598
		c2.764,1.865,5.766,3.123,8.803,3.939c3.041,0.812,6.129,1.188,9.148,1.189c3.457-0.006,6.824-0.482,9.988-1.535
		c1.582-0.531,3.119-1.209,4.584-2.105c1.463-0.895,2.865-2.012,4.084-3.455c1.299-1.541,2.412-3.227,3.438-5.047
		c1.912-3.41,3.516-7.311,4.979-11.654c2.547-7.594,4.633-16.551,6.396-26.129c2.637-14.355,4.518-30.084,5.75-44.17
		c0.617-7.041,1.07-13.668,1.371-19.506c0.301-5.842,0.447-10.881,0.447-14.811c0.002-15.555-3.34-30.371-9.346-43.713
		c-6.006-13.344-14.668-25.219-25.314-34.961c-18.941-17.342-44.248-27.943-71.953-27.939c-23.627-0.003-45.523,7.708-63.194,20.74
		c-13.164,9.703-24.013,22.356-31.579,36.999c-7.566,14.641-11.841,31.283-11.839,48.875c0,2.256-0.027,5.918-0.055,10.535
		c-0.028,4.619-0.055,10.207-0.055,16.367c0,15.621,0.176,34.912,0.99,51.67c0.409,8.387,0.973,16.131,1.782,22.582
		c0.407,3.23,0.872,6.137,1.445,8.715c0.288,1.293,0.603,2.504,0.972,3.66c0.373,1.158,0.791,2.262,1.366,3.385
		c1.129,2.184,2.662,3.936,4.353,5.387c2.549,2.17,5.494,3.717,8.662,4.807c3.17,1.078,6.578,1.682,10.09,1.686
		c3.475-0.004,7.077-0.598,10.533-2.107c1.724-0.756,3.402-1.746,4.953-2.996c1.55-1.248,2.965-2.758,4.152-4.492
		c1.276-1.865,2.196-3.82,2.926-5.785c1.266-3.438,1.965-6.943,2.486-10.307c0.387-2.52,0.658-4.955,0.906-7.152
		c0.184-1.648,0.355-3.164,0.535-4.445c0.135-0.959,0.273-1.787,0.408-2.408c0.1-0.465,0.197-0.811,0.256-0.98l0.039-0.111
		l0.002-0.002l-1.91-0.824l1.742,1.123c0.125-0.197,0.164-0.293,0.168-0.299l-1.91-0.824l1.742,1.123l-3.582-2.305l3.113,2.9
		c0.23-0.246,0.375-0.451,0.471-0.598l-3.584-2.305l3.115,2.902l-4.009-3.734l2.345,4.939c0.768-0.363,1.324-0.838,1.664-1.205
		l-4.009-3.734l2.345,4.939l-2.502-5.271v5.838c0.797,0.008,1.744-0.197,2.502-0.566l-2.502-5.271v5.838v-5.182l-1.715,4.9
		c0.385,0.137,0.977,0.281,1.715,0.281v-5.182l-1.715,4.9l1.061-3.029l-1.727,2.721c0.074,0.047,0.275,0.17,0.666,0.309l1.061-3.027
		l-1.727,2.721c16.488,10.467,36.092,16.535,57.049,16.531v-7.502v-7.5c-18.057-0.004-34.832-5.203-49.012-14.197
		c-0.697-0.441-1.48-0.855-2.414-1.184c-0.93-0.326-2.027-0.562-3.242-0.562c-0.826-0.002-1.697,0.115-2.528,0.354
		c-1.628,0.459-3.007,1.379-3.95,2.314c-0.898,0.883-1.486,1.768-1.934,2.58c-0.824,1.529-1.219,2.869-1.557,4.201
		c-0.285,1.162-0.49,2.318-0.671,3.504c-0.312,2.064-0.542,4.225-0.79,6.414c-0.367,3.275-0.781,6.625-1.416,9.471
		c-0.314,1.42-0.681,2.707-1.08,3.77c-0.396,1.064-0.828,1.896-1.203,2.439c-0.357,0.52-0.746,0.93-1.193,1.293
		c-0.67,0.539-1.498,0.979-2.529,1.293c-1.025,0.314-2.245,0.49-3.543,0.49c-2.324,0.012-4.886-0.596-6.773-1.498
		c-0.945-0.443-1.716-0.953-2.223-1.391c-0.514-0.436-0.741-0.787-0.772-0.857c-0.052-0.096-0.227-0.49-0.415-1.088
		c-0.364-1.125-0.788-2.939-1.167-5.182c-0.672-3.936-1.243-9.203-1.688-15.195c-0.672-9.002-1.082-19.674-1.318-30.453
		c-0.237-10.785-0.304-21.689-0.304-31.227c0-6.115,0.027-11.672,0.055-16.277c0.027-4.611,0.055-8.262,0.055-10.625
		c0.002-15.16,3.669-29.41,10.166-41.99c6.497-12.574,15.833-23.467,27.151-31.809c15.209-11.203,33.945-17.812,54.295-17.814
		c23.855,0.004,45.512,9.086,61.826,24.004c9.158,8.381,16.607,18.598,21.764,30.053c5.154,11.459,8.023,24.148,8.023,37.557
		c0.002,5.791-0.367,14.926-1.152,25.486c-1.174,15.854-3.289,35.029-6.41,51.586c-1.557,8.271-3.371,15.895-5.371,22.008
		c-0.996,3.055-2.039,5.729-3.07,7.877c-1.023,2.148-2.053,3.764-2.84,4.686l-0.002,0.002c-0.018,0.021-0.188,0.188-0.543,0.391
		c-0.529,0.311-1.459,0.691-2.627,0.953c-1.166,0.268-2.562,0.426-4.021,0.426c-2.34,0.004-4.83-0.416-6.865-1.193
		c-1.02-0.385-1.928-0.852-2.682-1.361c-0.756-0.512-1.354-1.061-1.818-1.631c-0.293-0.357-0.613-0.871-0.926-1.553
		c-0.549-1.189-1.033-2.889-1.402-4.803c-0.281-1.436-0.508-2.982-0.738-4.557c-0.174-1.182-0.35-2.375-0.574-3.588
		c-0.174-0.912-0.373-1.834-0.656-2.805c-0.215-0.729-0.477-1.486-0.852-2.301c-0.283-0.609-0.635-1.256-1.105-1.928
		c-0.355-0.502-0.783-1.02-1.307-1.521c-0.781-0.754-1.807-1.473-2.988-1.959c-1.178-0.492-2.479-0.729-3.666-0.723
		c-1.703,0.006-3.135,0.418-4.338,0.924c-10.955,4.633-22.986,7.195-35.656,7.195v7.502H368.226z"/>
	<path fill="#A09F9F" d="M371.116,59.356c-13.686,0-26.723,2.773-38.578,7.789c-14.482,6.125-29.926-37.001-39.922-25.156
		c-14.558,17.252-20.613,92.139-20.613,116.48c0,28.96,12.42,55.019,32.225,73.14c17.629,16.131,41.109,25.973,66.891,25.973
		c21.988,0,42.305-7.16,58.744-19.275c24.484-18.047,40.369-47.087,40.369-79.837c0-16.328,1.379-99.899-5.613-113.48
		c-8.1-15.725-25.607,39.163-40.471,29.732C408.812,64.99,390.622,59.356,371.116,59.356z"/>
	<path fill="#1E416B" d="M371.116,59.356l0.094-7.5h-0.098c-14.697-0.001-28.738,2.983-41.496,8.381l-0.029,0.011l0.029,0.096
		l-0.016-0.099l-0.016,0.003l0.029,0.096l-0.016-0.099l0.02,0.12v-0.122l-0.02,0.002l0.02,0.12v-0.122
		c-0.004,0-0.064,0.001-0.232-0.044c-0.311-0.079-0.994-0.369-1.889-0.994c-0.783-0.541-1.717-1.316-2.711-2.273
		c-1.75-1.674-3.686-3.889-5.658-6.281c-1.482-1.795-2.994-3.69-4.529-5.556c-2.318-2.802-4.636-5.526-7.287-7.869
		c-1.338-1.169-2.77-2.26-4.5-3.167c-0.865-0.451-1.812-0.853-2.867-1.152c-1.051-0.298-2.213-0.49-3.446-0.49
		c-1.831-0.011-3.793,0.461-5.461,1.341c-1.68,0.875-3.049,2.081-4.154,3.392c-1.298,1.541-2.413,3.227-3.437,5.047
		c-1.912,3.411-3.516,7.312-4.979,11.656c-2.547,7.593-4.633,16.549-6.396,26.127c-2.637,14.357-4.517,30.084-5.751,44.169
		c-0.616,7.042-1.07,13.669-1.37,19.507c-0.3,5.84-0.448,10.879-0.449,14.811c-0.001,15.554,3.34,30.371,9.346,43.712
		c6.006,13.344,14.669,25.219,25.315,34.962c18.942,17.342,44.247,27.941,71.952,27.938c23.627,0.004,45.523-7.709,63.195-20.74
		c13.164-9.701,24.014-22.354,31.578-36.999c7.566-14.64,11.842-31.284,11.84-48.875c0-2.256,0.027-5.918,0.055-10.535
		c0.027-4.62,0.057-10.207,0.057-16.369c-0.002-15.62-0.176-34.911-0.99-51.669c-0.408-8.387-0.973-16.131-1.781-22.582
		c-0.408-3.23-0.873-6.136-1.445-8.715c-0.287-1.291-0.604-2.502-0.973-3.66c-0.373-1.159-0.791-2.261-1.365-3.384
		c-0.424-0.821-0.908-1.621-1.502-2.399c-0.883-1.159-2.039-2.301-3.564-3.167c-0.756-0.43-1.598-0.78-2.473-1.01
		c-0.873-0.232-1.773-0.342-2.635-0.341c-1.812,0.001-3.391,0.464-4.67,1.04c-1.207,0.547-2.197,1.201-3.092,1.888
		c-1.662,1.294-3.014,2.731-4.338,4.285c-2.293,2.715-4.455,5.832-6.658,9.036c-1.645,2.398-3.295,4.835-4.926,7.107
		c-2.43,3.405-4.869,6.448-6.867,8.295c-0.988,0.927-1.852,1.537-2.377,1.811c-0.264,0.14-0.438,0.2-0.504,0.218l-0.031,0.008
		l0.004,0.017l-0.002-0.017h-0.002l0.004,0.017l-0.002-0.017l0.109,0.665v-0.672l-0.109,0.007l0.109,0.665v-0.672v1.154l0.33-1.105
		c-0.094-0.03-0.236-0.05-0.33-0.048v1.154l0.33-1.105l-0.207,0.689l0.303-0.654l-0.096-0.035l-0.207,0.689l0.303-0.654
		l-0.041,0.087l0.047-0.084l-0.006-0.002l-0.041,0.087l0.047-0.084l-0.025-0.017c-16.49-10.467-36.094-16.535-57.049-16.532V59.356
		l0.094-7.5L371.116,59.356v7.5c18.057,0.003,34.83,5.204,49.012,14.197c1.129,0.717,2.367,1.297,3.668,1.685
		c1.299,0.39,2.65,0.582,3.965,0.58c1.629,0,3.182-0.288,4.586-0.744c2.643-0.868,4.787-2.255,6.707-3.801
		c1.678-1.362,3.191-2.881,4.635-4.494c2.516-2.822,4.816-5.948,7.004-9.058c1.637-2.33,3.201-4.649,4.676-6.787
		c1.105-1.603,2.162-3.104,3.143-4.416c1.455-1.965,2.795-3.515,3.617-4.247c0.201-0.183,0.363-0.313,0.467-0.389l0.117-0.081
		l-0.953-1.627l0.572,1.785c0.264-0.085,0.377-0.155,0.381-0.157l-0.953-1.627l0.572,1.785l-1.219-3.805v3.984
		c0.533,0,0.957-0.096,1.219-0.18l-1.219-3.805v3.984v-4.691l-1.592,4.412c0.51,0.187,1.094,0.282,1.592,0.279v-4.691l-1.592,4.412
		l1.334-3.698l-2.859,2.75c0.211,0.226,0.748,0.671,1.525,0.948l1.334-3.698l-2.859,2.75l1.047-1.007l-1.201,0.825
		c0,0,0.045,0.066,0.154,0.182l1.047-1.007l-1.201,0.825c0,0,0.041,0.063,0.109,0.194c0.051,0.095,0.227,0.491,0.414,1.086
		c0.363,1.125,0.787,2.94,1.166,5.181c0.674,3.937,1.244,9.204,1.688,15.198c0.672,9.001,1.082,19.672,1.318,30.453
		c0.236,10.784,0.305,21.688,0.305,31.224c0,6.117-0.027,11.672-0.055,16.279c-0.029,4.61-0.057,8.26-0.057,10.625
		c-0.002,15.159-3.67,29.41-10.166,41.989c-6.496,12.576-15.832,23.467-27.152,31.81c-15.207,11.203-33.943,17.811-54.295,17.814
		c-23.854-0.004-45.51-9.088-61.826-24.006c-9.158-8.38-16.607-18.595-21.763-30.051c-5.155-11.458-8.023-24.151-8.025-37.557
		c-0.001-5.792,0.368-14.926,1.153-25.488c1.174-15.853,3.29-35.029,6.411-51.586c1.556-8.272,3.371-15.894,5.371-22.008
		c0.998-3.054,2.041-5.728,3.07-7.876c1.023-2.148,2.055-3.764,2.84-4.686l0.041-0.046l-0.77-0.767l0.627,0.882
		c0.097-0.069,0.143-0.115,0.143-0.115l-0.77-0.767l0.627,0.882l-1.588-2.233l0.848,2.595c0.329-0.106,0.598-0.258,0.74-0.362
		l-1.588-2.233l0.848,2.595l-1.007-3.081v3.243c0.303,0.002,0.681-0.053,1.007-0.162l-1.007-3.081v3.243v-2.12l-0.696,2.025
		c0.055,0.02,0.307,0.096,0.696,0.095v-2.12l-0.696,2.025l0.148-0.43l-0.162,0.425l0.014,0.005l0.148-0.43l-0.162,0.425l0.016,0.006
		c0.11,0.039,0.736,0.403,1.543,1.116c1.439,1.238,3.412,3.441,5.523,6.011c1.594,1.93,3.294,4.071,5.084,6.226
		c2.699,3.235,5.554,6.502,8.889,9.258c1.676,1.374,3.486,2.632,5.584,3.619c2.084,0.979,4.518,1.689,7.189,1.689
		c1.945,0.005,3.977-0.397,5.84-1.191c10.957-4.633,22.986-7.195,35.654-7.196v-7.208l-0.09,7.208h0.09v-7.208l-0.09,7.208h0.047
		h0.047v-7.499H371.116z"/>
	<circle fill="#EFEFEF" cx="326.2" cy="122.003" r="11.795"/>
	<path fill="#1E416B" d="M326.2,110.208v7.5c0.613,0.001,1.16,0.12,1.67,0.334c0.762,0.32,1.432,0.875,1.896,1.564
		c0.465,0.695,0.727,1.481,0.729,2.396c0,0.614-0.119,1.16-0.334,1.669c-0.32,0.761-0.875,1.432-1.564,1.896
		c-0.693,0.464-1.479,0.726-2.395,0.729c-0.613-0.001-1.16-0.12-1.67-0.334c-0.762-0.32-1.434-0.875-1.896-1.564
		c-0.465-0.695-0.727-1.481-0.729-2.396c0.002-0.614,0.119-1.16,0.334-1.669c0.32-0.761,0.875-1.432,1.564-1.896
		c0.695-0.464,1.48-0.726,2.396-0.729v-7.5v-7.5c-2.645-0.001-5.199,0.54-7.514,1.52c-3.471,1.47-6.402,3.907-8.481,6.982
		c-2.08,3.07-3.304,6.823-3.3,10.793c-0.001,2.644,0.54,5.2,1.52,7.513c1.471,3.473,3.907,6.403,6.982,8.482
		c3.07,2.08,6.822,3.303,10.793,3.3c2.645,0.001,5.199-0.54,7.514-1.52c3.473-1.47,6.402-3.907,8.482-6.982
		c2.078-3.07,3.303-6.823,3.299-10.793c0.002-2.643-0.539-5.2-1.52-7.513c-1.471-3.472-3.906-6.403-6.982-8.482
		c-3.07-2.08-6.822-3.303-10.793-3.3v7.5H326.2z"/>
	<circle fill="#EFEFEF" cx="408.435" cy="122.691" r="11.795"/>
	<path fill="#1E416B" d="M408.435,110.896v7.5c0.613,0.001,1.158,0.12,1.668,0.334c0.764,0.32,1.434,0.875,1.896,1.564
		c0.465,0.695,0.727,1.48,0.729,2.396c0,0.614-0.119,1.16-0.334,1.669c-0.318,0.761-0.875,1.432-1.564,1.896
		c-0.693,0.464-1.48,0.726-2.396,0.729c-0.613-0.001-1.158-0.12-1.668-0.334c-0.762-0.32-1.434-0.875-1.896-1.564
		c-0.465-0.695-0.727-1.481-0.729-2.396c0-0.614,0.119-1.16,0.334-1.669c0.32-0.761,0.875-1.432,1.564-1.896
		c0.693-0.464,1.48-0.726,2.396-0.729V110.896v-7.5c-2.645-0.001-5.201,0.54-7.514,1.52c-3.471,1.47-6.402,3.907-8.482,6.982
		c-2.078,3.07-3.303,6.823-3.299,10.793c-0.002,2.644,0.539,5.201,1.52,7.513c1.471,3.473,3.906,6.403,6.982,8.482
		c3.07,2.08,6.822,3.303,10.793,3.3c2.645,0.001,5.199-0.54,7.512-1.52c3.473-1.47,6.404-3.907,8.482-6.982
		c2.08-3.07,3.303-6.823,3.301-10.793c0-2.644-0.541-5.201-1.52-7.513c-1.473-3.473-3.908-6.403-6.982-8.482
		c-3.07-2.08-6.824-3.303-10.793-3.3V110.896z"/>
	<path fill="#E9E8E9" d="M372.616,179.488h50.965l20.268,20.268c0.979,0.977,2.561,0.977,3.535,0c0.979-0.976,0.979-2.559,0-3.535
		l-21.732-21.732h-53.033c-1.383,0-2.5,1.119-2.5,2.5C370.118,178.37,371.235,179.488,372.616,179.488z"/>
	<path fill="#E9E8E9" d="M336.616,171.488h-42.225l-17.383,14.585c-1.058,0.887-1.196,2.464-0.308,3.522
		c0.887,1.058,2.464,1.196,3.522,0.308l15.988-13.415h40.405c1.381,0,2.5-1.119,2.5-2.5
		C339.116,172.607,337.997,171.488,336.616,171.488z"/>
	<polyline fill="#1E416B" points="350.249,168.244 350.249,219.988 359.665,219.988 359.665,168.244 	"/>
	<path fill="#E788B2" d="M356.411,144.193c6.514,0,15.205,3.281,15.205,9.795c0,6.514-10.486,20-17,20s-15-13.486-15-20
		C339.616,147.474,349.897,144.193,356.411,144.193z"/>
	<path fill="#707179" d="M458.616,61.988c0,0-8,30-14,31s4-1,11,7S458.616,61.988,458.616,61.988z"/>
	<path fill="#707179" d="M297.914,47.988c0,0,8,30,14,31c6.001,1-4-1-11,7S297.914,47.988,297.914,47.988z"/>
	<path fill="#E9E8E9" d="M371.116,196.488h45.869l18.25,22.092c0.881,1.064,2.455,1.215,3.521,0.336
		c1.062-0.88,1.215-2.456,0.336-3.52l-19.75-23.908h-48.227c-1.381,0-2.5,1.119-2.5,2.5
		C368.616,195.369,369.735,196.488,371.116,196.488z"/>
	<path fill="#E9E8E9" d="M340.616,186.988h-36.936l-15.127,22.087c-0.78,1.139-0.489,2.695,0.65,3.475
		c1.139,0.78,2.694,0.489,3.476-0.65l13.639-19.913h34.299c1.381,0,2.5-1.119,2.5-2.5
		C343.116,188.106,341.997,186.988,340.616,186.988z"/>
	<path fill="#E9E8E9" d="M322.284,334.657c-6.809,17.799-10.168,41.332,6.666,49.332c6.881,3.27,9.166,5.5,24.166,8.5
		c9.887,1.977,18.527,1.256,27.834-0.832c34.166-7.668,30.959-34.498,25.666-55.668c-4-16-3.896-37.818-41-40
		C340.116,294.489,329.616,315.489,322.284,334.657z"/>
	<path fill="#1E416B" d="M401.001,206.988c-0.004,0.472-0.086,0.927-0.32,1.497c-0.203,0.494-0.535,1.069-1.043,1.706
		c-0.883,1.113-2.326,2.394-4.299,3.614c-2.951,1.839-7.059,3.525-11.896,4.697c-4.84,1.18-10.408,1.865-16.324,1.864
		c-5.15,0-10.037-0.519-14.412-1.433c-3.279-0.685-6.27-1.592-8.854-2.645c-3.881-1.57-6.82-3.507-8.508-5.254
		c-0.85-0.87-1.389-1.672-1.697-2.334c-0.309-0.67-0.41-1.184-0.414-1.713c0-3.654-2.963-6.617-6.615-6.617
		c-3.654,0-6.617,2.963-6.617,6.617c-0.004,2.289,0.479,4.53,1.326,6.563c0.738,1.784,1.744,3.416,2.93,4.897
		c2.078,2.595,4.686,4.751,7.66,6.601c4.469,2.766,9.795,4.855,15.746,6.311c5.949,1.448,12.523,2.239,19.455,2.239
		c6.033,0,11.799-0.602,17.115-1.711c3.988-0.833,7.725-1.952,11.143-3.344c5.119-2.098,9.549-4.768,12.982-8.266
		c1.709-1.752,3.166-3.732,4.215-5.972c1.049-2.232,1.664-4.742,1.658-7.318c0-3.654-2.961-6.617-6.615-6.617
		S401.001,203.334,401.001,206.988z"/>
	<path fill="#E9E8E9" d="M433.116,371.489l5.5,69c0,0,12.5,10.5,38.5,10.5s40.5-11,40.5-11l7-68L433.116,371.489"/>
	<path fill="#132B3F" d="M429.627,371.768l5.5,68.998c0.075,0.934,0.522,1.801,1.238,2.402c0.228,0.191,3.655,3.021,10.418,5.807
		c6.76,2.785,16.86,5.516,30.333,5.514c13.496,0.002,24.074-2.857,31.3-5.75c7.229-2.893,11.115-5.811,11.315-5.961
		c0.775-0.59,1.267-1.461,1.365-2.432l7-67.998l-6.963-0.719l-7,68l3.481,0.359L515.5,437.2l0.935,1.23l-0.926-1.236L515.5,437.2
		l0.935,1.23l-0.926-1.236c-0.021,0.016-3.484,2.6-10.001,5.168c-6.521,2.566-16.083,5.125-28.392,5.127
		c-12.527-0.002-21.678-2.523-27.667-4.986c-2.994-1.232-5.195-2.453-6.621-3.344c-0.713-0.443-1.231-0.805-1.558-1.045
		c-0.164-0.119-0.278-0.207-0.347-0.26l-0.063-0.053l-0.006-0.004l-1.287,1.559l1.3-1.549l-0.013-0.01l-1.287,1.559l1.3-1.549
		l-2.251,2.682l3.488-0.279l-5.5-69L429.627,371.768"/>
	<ellipse fill="#E1E6E8" cx="478.981" cy="367.062" rx="46.75" ry="15.427"/>
	<path fill="#132B3F" d="M478.981,382.489v3.5c13.229-0.008,25.201-1.748,34.156-4.695c4.481-1.486,8.219-3.252,11.074-5.469
		c1.424-1.113,2.639-2.352,3.546-3.811c0.905-1.447,1.479-3.162,1.476-4.953c0.004-1.791-0.57-3.506-1.476-4.953
		c-0.793-1.275-1.825-2.383-3.021-3.387c-2.1-1.75-4.725-3.207-7.809-4.49c-4.623-1.914-10.298-3.418-16.732-4.469
		c-6.434-1.047-13.62-1.629-21.213-1.629c-13.229,0.008-25.203,1.748-34.157,4.695c-4.481,1.486-8.222,3.252-11.076,5.467
		c-1.424,1.113-2.64,2.354-3.546,3.812c-0.905,1.447-1.48,3.162-1.477,4.953c-0.004,1.791,0.57,3.506,1.477,4.953
		c0.793,1.275,1.824,2.385,3.021,3.389c2.099,1.75,4.724,3.205,7.808,4.488c4.625,1.916,10.299,3.42,16.733,4.469
		c6.435,1.047,13.623,1.629,21.215,1.629V382.489v-3.5c-12.592,0.006-23.996-1.705-31.963-4.344
		c-3.979-1.305-7.086-2.861-8.965-4.338c-0.941-0.732-1.563-1.432-1.902-1.98c-0.34-0.562-0.418-0.926-0.424-1.266
		c0.006-0.338,0.084-0.703,0.424-1.266c0.298-0.48,0.809-1.074,1.565-1.707c1.319-1.109,3.371-2.307,5.998-3.393
		c3.94-1.637,9.157-3.047,15.177-4.025c6.022-0.979,12.856-1.537,20.09-1.537c12.592-0.006,23.994,1.705,31.961,4.344
		c3.979,1.305,7.086,2.861,8.963,4.34c0.943,0.73,1.564,1.43,1.902,1.979c0.342,0.562,0.42,0.928,0.424,1.266
		c-0.004,0.34-0.082,0.703-0.424,1.266c-0.297,0.48-0.808,1.076-1.563,1.707c-1.319,1.109-3.371,2.307-5.998,3.393
		c-3.94,1.637-9.156,3.049-15.175,4.025c-6.022,0.98-12.855,1.537-20.09,1.537V382.489z"/>
	<path fill="#584339" d="M515.733,380.063c0-8.521-15.782-15.428-35.252-15.428c-19.471,0-35.254,6.906-35.254,15.428"/>
	<path fill="#132B3F" d="M479.481,381.989v3.5c13.229-0.008,25.201-1.748,34.156-4.695c4.481-1.486,8.219-3.252,11.074-5.469
		c1.424-1.113,2.639-2.352,3.546-3.811c0.905-1.447,1.479-3.162,1.476-4.953c0.004-1.791-0.57-3.506-1.476-4.953
		c-0.793-1.275-1.825-2.383-3.021-3.387c-2.1-1.75-4.725-3.207-7.809-4.49c-4.623-1.914-10.298-3.418-16.732-4.469
		c-6.434-1.047-13.62-1.629-21.213-1.629c-13.229,0.008-25.203,1.748-34.157,4.695c-4.481,1.486-8.222,3.252-11.076,5.467
		c-1.424,1.113-2.64,2.354-3.546,3.812c-0.905,1.447-1.48,3.162-1.477,4.953c-0.004,1.791,0.57,3.506,1.477,4.953
		c0.793,1.275,1.824,2.385,3.021,3.389c2.099,1.75,4.724,3.205,7.808,4.488c4.625,1.916,10.299,3.42,16.733,4.469
		c6.435,1.047,13.623,1.629,21.215,1.629V381.989v-3.5c-12.592,0.006-23.996-1.705-31.963-4.344
		c-3.979-1.305-7.086-2.861-8.965-4.338c-0.941-0.732-1.563-1.432-1.902-1.98c-0.34-0.562-0.418-0.926-0.424-1.266
		c0.006-0.338,0.084-0.703,0.424-1.266c0.298-0.48,0.809-1.074,1.565-1.707c1.319-1.109,3.371-2.307,5.998-3.393
		c3.94-1.637,9.157-3.047,15.177-4.025c6.022-0.979,12.856-1.537,20.09-1.537c12.592-0.006,23.994,1.705,31.961,4.344
		c3.979,1.305,7.086,2.861,8.963,4.34c0.943,0.73,1.564,1.43,1.902,1.979c0.342,0.562,0.42,0.928,0.424,1.266
		c-0.004,0.34-0.082,0.703-0.424,1.266c-0.297,0.48-0.808,1.076-1.563,1.707c-1.319,1.109-3.371,2.307-5.998,3.393
		c-3.94,1.637-9.156,3.049-15.175,4.025c-6.022,0.98-12.855,1.537-20.09,1.537V381.989z"/>
	<path fill="#FFFFFF" d="M470.19,327.991c-0.022-0.002-0.17-0.008-0.418-0.008c-0.992,0.006-3.565,0.088-6.103,1.217
		c-1.265,0.57-2.537,1.426-3.498,2.723c-0.965,1.293-1.563,3.014-1.557,5.066c0,1.168,0.2,2.186,0.632,3.047
		c0.374,0.754,0.926,1.359,1.541,1.789c1.085,0.752,2.279,1.021,3.404,1.215c0.847,0.141,1.672,0.227,2.414,0.346
		c1.123,0.174,2.014,0.443,2.524,0.852c0.263,0.205,0.46,0.434,0.634,0.787c0.17,0.354,0.31,0.848,0.354,1.559
		c0.011,0.172,0.016,0.338,0.016,0.494c-0.001,0.9-0.164,1.529-0.402,2.01c-0.211,0.42-0.483,0.746-0.852,1.045
		c-0.635,0.521-1.594,0.924-2.729,1.244c-0.85,0.242-1.783,0.445-2.727,0.674c-1.412,0.352-2.857,0.729-4.119,1.602
		c-0.627,0.436-1.201,1.021-1.597,1.77c-0.397,0.746-0.597,1.623-0.595,2.57c-0.004,0.965,0.26,1.873,0.697,2.629
		c0.776,1.334,1.974,2.215,3.219,2.951c1.876,1.094,3.988,1.9,5.509,2.807c0.759,0.445,1.351,0.906,1.698,1.336
		c0.349,0.441,0.488,0.785,0.496,1.301c0,0.182-0.021,0.391-0.08,0.633c-0.189,0.807,0.311,1.615,1.117,1.805
		s1.615-0.311,1.804-1.117c0.104-0.445,0.159-0.889,0.159-1.32c0.004-0.941-0.271-1.828-0.717-2.557
		c-0.791-1.279-1.979-2.105-3.218-2.814c-1.864-1.051-3.962-1.857-5.469-2.789c-0.753-0.459-1.34-0.938-1.694-1.398
		c-0.354-0.469-0.513-0.873-0.521-1.463c0.004-0.637,0.135-0.998,0.319-1.291c0.166-0.256,0.405-0.484,0.772-0.711
		c0.636-0.395,1.656-0.719,2.835-1.002c1.771-0.445,3.871-0.795,5.734-1.848c0.927-0.529,1.802-1.275,2.416-2.307
		c0.617-1.027,0.943-2.299,0.94-3.756c0-0.223-0.007-0.449-0.021-0.682c-0.073-1.174-0.348-2.189-0.836-3.033
		c-0.424-0.738-1.008-1.318-1.641-1.734c-1.117-0.729-2.332-0.998-3.468-1.189c-0.854-0.139-1.679-0.227-2.41-0.346
		c-0.547-0.088-1.04-0.193-1.44-0.33c-0.61-0.213-0.971-0.455-1.223-0.797c-0.25-0.344-0.476-0.896-0.479-1.977
		c0.006-1.502,0.396-2.498,0.967-3.279c0.433-0.584,0.994-1.051,1.646-1.428c0.972-0.566,2.141-0.906,3.178-1.088
		s1.937-0.211,2.367-0.211c0.096,0,0.168,0.002,0.213,0.002l0.049,0.002h0.008l0.021-0.48l-0.024,0.48h0.003l0.021-0.48l-0.024,0.48
		c0.828,0.041,1.532-0.596,1.573-1.422C471.653,328.739,471.019,328.032,470.19,327.991z"/>
	<path fill="#FFFFFF" d="M484.19,328.991c-0.022-0.002-0.17-0.008-0.418-0.008c-0.992,0.006-3.565,0.088-6.103,1.217
		c-1.265,0.57-2.537,1.426-3.498,2.723c-0.965,1.293-1.563,3.014-1.557,5.066c0,1.168,0.2,2.186,0.632,3.047
		c0.374,0.754,0.926,1.359,1.541,1.789c1.085,0.752,2.279,1.021,3.404,1.215c0.847,0.141,1.672,0.227,2.414,0.346
		c1.123,0.174,2.014,0.443,2.524,0.852c0.263,0.205,0.46,0.434,0.634,0.787c0.17,0.354,0.31,0.848,0.354,1.559
		c0.011,0.172,0.016,0.338,0.016,0.494c-0.001,0.9-0.164,1.529-0.402,2.01c-0.211,0.42-0.483,0.746-0.852,1.045
		c-0.635,0.521-1.594,0.924-2.729,1.244c-0.85,0.242-1.783,0.445-2.727,0.674c-1.412,0.352-2.857,0.729-4.119,1.602
		c-0.627,0.436-1.201,1.021-1.597,1.77c-0.397,0.746-0.597,1.623-0.595,2.57c-0.004,0.965,0.26,1.873,0.697,2.629
		c0.776,1.334,1.974,2.215,3.219,2.951c1.876,1.094,3.988,1.9,5.509,2.807c0.759,0.445,1.351,0.906,1.698,1.336
		c0.349,0.441,0.488,0.785,0.496,1.301c0,0.182-0.021,0.391-0.08,0.633c-0.189,0.807,0.311,1.615,1.117,1.805
		s1.615-0.311,1.804-1.117c0.104-0.445,0.159-0.889,0.159-1.32c0.004-0.941-0.271-1.828-0.717-2.557
		c-0.791-1.279-1.979-2.105-3.218-2.814c-1.864-1.051-3.962-1.857-5.469-2.789c-0.753-0.459-1.34-0.938-1.694-1.398
		c-0.354-0.469-0.513-0.873-0.521-1.463c0.004-0.637,0.135-0.998,0.319-1.291c0.166-0.256,0.405-0.484,0.772-0.711
		c0.636-0.395,1.656-0.719,2.835-1.002c1.771-0.445,3.871-0.795,5.734-1.848c0.927-0.529,1.802-1.275,2.416-2.307
		c0.617-1.027,0.943-2.299,0.94-3.756c0-0.223-0.007-0.449-0.021-0.682c-0.073-1.174-0.348-2.189-0.836-3.033
		c-0.424-0.738-1.008-1.318-1.641-1.734c-1.117-0.729-2.332-0.998-3.468-1.189c-0.854-0.139-1.679-0.227-2.41-0.346
		c-0.547-0.088-1.04-0.193-1.44-0.33c-0.61-0.213-0.971-0.455-1.223-0.797c-0.25-0.344-0.476-0.896-0.479-1.977
		c0.006-1.502,0.396-2.498,0.967-3.279c0.433-0.584,0.994-1.051,1.646-1.428c0.972-0.566,2.141-0.906,3.178-1.088
		s1.937-0.211,2.367-0.211c0.096,0,0.168,0.002,0.213,0.002l0.049,0.002h0.008l0.021-0.48l-0.024,0.48h0.003l0.021-0.48l-0.024,0.48
		c0.828,0.041,1.532-0.596,1.573-1.422C485.653,329.739,485.019,329.032,484.19,328.991z"/>
	<g>
		<defs>
			<path id="SVGID_1_" d="M506.116,442.118c-0.2,0.082-0.402,0.162-0.608,0.244c-0.118,0.045-0.235,0.092-0.356,0.139h0.965V442.118
				"/>
		</defs>
		<clipPath id="SVGID_2_">
			<use xlink:href="#SVGID_1_"  overflow="visible"/>
		</clipPath>
		<g clip-path="url(#SVGID_2_)">
			<defs>
				<rect id="SVGID_3_" x="505.051" y="442.024" width="1.134" height="0.567"/>
			</defs>
			<clipPath id="SVGID_4_">
				<use xlink:href="#SVGID_3_"  overflow="visible"/>
			</clipPath>
			<g clip-path="url(#SVGID_4_)">
				<defs>
					<rect id="SVGID_5_" x="505.051" y="442.024" width="1.134" height="0.567"/>
				</defs>
				<clipPath id="SVGID_6_">
					<use xlink:href="#SVGID_5_"  overflow="visible"/>
				</clipPath>
				<g transform="matrix(1 0 0 1 -3.051758e-05 0)" clip-path="url(#SVGID_6_)">
					
						<image overflow="visible" width="26" height="13" xlink:href="F9992124F487F5E6.jpg"  transform="matrix(0.0436 0 0 0.0436 505.0508 442.0239)">
					</image>
				</g>
			</g>
		</g>
	</g>
	
		<linearGradient id="SVGID_7_" gradientUnits="userSpaceOnUse" x1="-11.3857" y1="290.7388" x2="-10.3857" y2="290.7388" gradientTransform="matrix(219.0069 59.5385 59.5385 -219.0069 -14712.9746 64740.2852)">
		<stop  offset="0" style="stop-color:#FFFFFF"/>
		<stop  offset="1" style="stop-color:#231F20"/>
	</linearGradient>
	<path fill="url(#SVGID_7_)" d="M263.051,458.701c-4.021,2.211-12.788,2.506-19.58,0.659l-140.414-38.173
		c-6.792-1.847-9.039-5.135-5.018-7.346l64.918-35.676c4.021-2.21,12.788-2.505,19.58-0.658l140.414,38.173
		c6.792,1.847,9.038,5.135,5.018,7.345L263.051,458.701z"/>
	<path fill="#BAC3C7" d="M263.051,458.701l-1.686-3.067c-0.63,0.355-1.813,0.762-3.276,1.023c-1.465,0.269-3.214,0.417-5.047,0.416
		c-2.898,0.003-6.019-0.371-8.653-1.09L103.976,417.81c-1.978-0.531-3.406-1.207-4.1-1.707c-0.173-0.122-0.3-0.229-0.381-0.307
		l-0.107-0.113l-0.004-0.007l-0.976,0.666h1.136c0.002-0.4-0.154-0.666-0.16-0.666l-0.976,0.666h1.136h-1.605l1.505,0.562
		c0.059-0.153,0.101-0.363,0.1-0.562h-1.605l1.505,0.562l-1.116-0.416l0.989,0.669c0.034-0.05,0.083-0.136,0.127-0.253l-1.116-0.416
		l0.989,0.669l-0.402-0.272l0.358,0.331l0.044-0.059l-0.402-0.272l0.358,0.331l0.103-0.086c0.074-0.056,0.19-0.133,0.351-0.221
		l64.917-35.676c0.63-0.354,1.813-0.762,3.276-1.022c1.465-0.269,3.213-0.417,5.046-0.416c2.899-0.003,6.019,0.371,8.653,1.09
		l140.415,38.173c1.978,0.531,3.405,1.207,4.1,1.707c0.173,0.122,0.3,0.229,0.38,0.307l0.107,0.113l0.004,0.007l0.977-0.666h-1.137
		c-0.002,0.4,0.154,0.665,0.16,0.666l0.977-0.666h-1.137h1.605l-1.506-0.562c-0.059,0.154-0.101,0.364-0.1,0.562h1.605l-1.506-0.562
		l1.116,0.417l-0.989-0.669c-0.033,0.05-0.083,0.136-0.127,0.252l1.116,0.417l-0.989-0.669l0.403,0.272l-0.358-0.331l-0.045,0.059
		l0.403,0.272l-0.358-0.331l-0.103,0.085c-0.074,0.056-0.19,0.133-0.351,0.221l-64.917,35.676L263.051,458.701l1.686,3.067
		l64.918-35.676c0.969-0.537,1.849-1.186,2.573-2.102c0.359-0.458,0.673-0.986,0.894-1.579c0.222-0.59,0.345-1.242,0.343-1.887
		c0.003-1.286-0.472-2.443-1.084-3.319c-0.463-0.666-1.008-1.214-1.603-1.699c-0.894-0.726-1.909-1.316-3.057-1.842
		c-1.147-0.523-2.429-0.975-3.852-1.361L183.456,374.13c-3.362-0.911-7.008-1.333-10.49-1.336c-2.203,0.001-4.335,0.171-6.304,0.529
		c-1.971,0.366-3.774,0.895-5.39,1.774l-64.918,35.676h0c-0.969,0.537-1.849,1.187-2.573,2.103
		c-0.359,0.457-0.673,0.986-0.894,1.578c-0.222,0.591-0.344,1.243-0.343,1.888c-0.002,1.286,0.472,2.443,1.084,3.319
		c0.463,0.666,1.008,1.214,1.602,1.699c0.894,0.726,1.91,1.316,3.057,1.842c1.148,0.523,2.43,0.975,3.852,1.361l140.414,38.173
		c3.362,0.911,7.008,1.333,10.489,1.336c2.203-0.001,4.336-0.171,6.305-0.53c1.971-0.365,3.774-0.895,5.391-1.774L263.051,458.701z"
		/>
	
		<linearGradient id="SVGID_8_" gradientUnits="userSpaceOnUse" x1="-11.3867" y1="290.7388" x2="-10.3867" y2="290.7388" gradientTransform="matrix(234.823 63.8382 63.8382 -234.823 -15850.2402 69340.3438)">
		<stop  offset="0" style="stop-color:#FFFFFF"/>
		<stop  offset="1" style="stop-color:#231F20"/>
	</linearGradient>
	<path fill="url(#SVGID_8_)" d="M257.276,449.829c2.147,6.741-1.862,10.732-8.957,8.914l-146.65-37.597
		c-7.094-1.817-14.586-8.758-16.735-15.5L50.258,296.797c-2.147-6.74,1.861-10.731,8.956-8.914l146.651,37.597
		c7.095,1.817,14.586,8.758,16.735,15.5L257.276,449.829z"/>
	<path fill="#BFC4C6" d="M257.276,449.829l-3.812,1.214c0.288,0.902,0.392,1.643,0.391,2.188c0,0.489-0.079,0.817-0.161,1.027
		c-0.063,0.159-0.126,0.258-0.196,0.342c-0.106,0.12-0.233,0.231-0.528,0.354c-0.292,0.118-0.759,0.229-1.431,0.229
		c-0.596,0-1.347-0.088-2.227-0.314L102.621,417.26l0.041,0.011c-1.345-0.343-2.822-0.967-4.282-1.82
		c-2.194-1.276-4.345-3.07-6.06-5.044c-1.722-1.968-2.991-4.122-3.574-5.976L54.069,295.583l0,0
		c-0.288-0.902-0.391-1.643-0.39-2.188c0-0.489,0.078-0.817,0.161-1.027c0.063-0.159,0.126-0.258,0.196-0.341
		c0.106-0.121,0.233-0.232,0.528-0.354c0.292-0.119,0.759-0.229,1.432-0.229c0.595,0,1.346,0.089,2.226,0.314l146.667,37.601
		l-0.017-0.004c1.345,0.343,2.822,0.967,4.283,1.82c2.194,1.276,4.345,3.07,6.06,5.044c1.722,1.968,2.991,4.122,3.574,5.976
		l34.676,108.848L257.276,449.829l3.811-1.214l-34.676-108.849v-0.001c-0.683-2.137-1.737-4.16-3.036-6.058
		c-1.952-2.842-4.458-5.406-7.273-7.509c-2.819-2.097-5.943-3.741-9.245-4.594h0L60.207,284.008h0
		c-1.44-0.368-2.844-0.563-4.211-0.564c-1.366,0.001-2.699,0.197-3.958,0.635c-1.885,0.645-3.6,1.9-4.72,3.593
		c-1.131,1.688-1.643,3.703-1.638,5.725c0.001,1.515,0.271,3.055,0.768,4.615l0,0L81.123,406.86
		c0.683,2.138,1.737,4.161,3.035,6.059c1.952,2.842,4.458,5.406,7.273,7.509c2.819,2.096,5.943,3.741,9.245,4.594h0l146.65,37.597
		c1.44,0.368,2.845,0.563,4.213,0.564c1.365,0,2.699-0.196,3.958-0.635c1.885-0.645,3.6-1.9,4.72-3.593
		c1.131-1.688,1.643-3.703,1.638-5.725c-0.001-1.515-0.271-3.054-0.768-4.615L257.276,449.829z"/>
	<path fill="#D5E1E7" d="M146.688,349.346c13.928,0.39,25.872,13.074,26.678,28.333c0.806,15.257-9.832,27.309-23.759,26.919
		c-13.928-0.391-25.872-13.075-26.679-28.333C122.123,361.008,132.761,348.957,146.688,349.346z"/>
	<path fill="#1E416B" d="M146.688,349.346l-0.098,3.499c2.963,0.083,5.834,0.817,8.515,2.103c4.018,1.924,7.593,5.104,10.214,9.088
		c2.623,3.984,4.284,8.752,4.551,13.828c0.025,0.483,0.038,0.962,0.038,1.436c-0.001,6.3-2.212,11.767-5.742,15.637
		c-1.767,1.936-3.862,3.474-6.199,4.531c-2.338,1.057-4.92,1.639-7.705,1.64c-0.186,0-0.371-0.002-0.558-0.008
		c-2.963-0.083-5.834-0.818-8.515-2.103c-4.018-1.925-7.594-5.104-10.214-9.089c-2.623-3.984-4.284-8.752-4.552-13.827
		c-0.025-0.482-0.038-0.961-0.038-1.434c0.002-6.301,2.212-11.768,5.743-15.638c1.767-1.937,3.862-3.475,6.199-4.532
		c2.339-1.057,4.92-1.639,7.705-1.64c0.185,0,0.371,0.002,0.558,0.008L146.688,349.346l0.098-3.499
		c-0.252-0.007-0.503-0.01-0.754-0.01c-3.771-0.002-7.36,0.8-10.591,2.263c-4.85,2.193-8.88,5.861-11.678,10.458
		c-2.801,4.598-4.378,10.13-4.378,16.089c0,0.597,0.016,1.198,0.048,1.803c0.453,8.493,3.983,16.236,9.366,21.956
		c2.694,2.861,5.86,5.221,9.364,6.902c3.501,1.68,7.346,2.677,11.346,2.789c0.252,0.007,0.503,0.01,0.754,0.01
		c3.771,0.002,7.36-0.8,10.59-2.262c4.85-2.193,8.88-5.861,11.678-10.458c2.801-4.598,4.378-10.13,4.377-16.088
		c0-0.598-0.016-1.199-0.048-1.805c-0.453-8.493-3.982-16.236-9.365-21.957c-2.694-2.861-5.86-5.221-9.363-6.901
		c-3.501-1.681-7.346-2.678-11.347-2.789L146.688,349.346z"/>
	<path fill="#E9E8E9" d="M147.213,352.499c3.432,0.096,6.788,11.019,7.494,24.396c0.707,13.378-1.503,24.144-4.935,24.046
		c-3.432-0.096-6.789-11.017-7.495-24.395C141.571,363.168,143.78,352.403,147.213,352.499z"/>
	<path fill="#1E416B" d="M147.213,352.499l-0.014,0.5c0.294,0.008,0.618,0.132,0.982,0.419c0.636,0.499,1.335,1.495,1.987,2.891
		c1.972,4.189,3.583,11.883,4.039,20.612c0.089,1.674,0.131,3.307,0.131,4.882c0,5.442-0.511,10.196-1.379,13.55
		c-0.432,1.676-0.957,3-1.521,3.865c-0.281,0.434-0.569,0.748-0.842,0.944c-0.275,0.196-0.523,0.277-0.778,0.279l-0.033-0.001
		c-0.294-0.008-0.618-0.132-0.982-0.419c-0.636-0.499-1.335-1.495-1.987-2.89c-1.972-4.189-3.583-11.883-4.04-20.612
		c-0.088-1.673-0.131-3.306-0.131-4.879c0-5.444,0.511-10.199,1.379-13.553c0.432-1.676,0.958-3.001,1.522-3.866
		c0.281-0.433,0.57-0.748,0.843-0.944c0.275-0.196,0.523-0.277,0.778-0.279l0.031,0.001L147.213,352.499l0.014-0.5l-0.06-0.001
		c-0.489-0.001-0.957,0.174-1.363,0.468c-0.713,0.519-1.284,1.378-1.789,2.514c-1.497,3.403-2.366,9.428-2.371,16.661
		c0,1.592,0.043,3.241,0.132,4.932c0.355,6.725,1.374,12.829,2.747,17.299c0.688,2.235,1.461,4.062,2.309,5.371
		c0.425,0.654,0.869,1.182,1.35,1.563c0.479,0.38,1.011,0.619,1.575,0.635l0.061,0.001c0.489,0.001,0.956-0.174,1.362-0.468
		c0.713-0.519,1.284-1.378,1.789-2.513c1.497-3.402,2.365-9.427,2.37-16.658c0-1.593-0.043-3.243-0.132-4.935
		c-0.355-6.724-1.374-12.829-2.746-17.299c-0.688-2.235-1.46-4.062-2.308-5.371c-0.425-0.654-0.869-1.182-1.35-1.564
		c-0.479-0.38-1.011-0.619-1.575-0.635L147.213,352.499z"/>
	<path fill="#E9E8E9" d="M133.296,393.662c-2.566-2.729,1.946-12.41,10.082-21.627s16.811-14.479,19.378-11.753
		c2.568,2.728-1.946,12.41-10.082,21.628C144.541,391.125,135.865,396.386,133.296,393.662z"/>
	<path fill="#1E416B" d="M133.296,393.662l0.364-0.343c-0.369-0.39-0.584-1.02-0.584-1.916c-0.008-1.904,1.009-4.845,2.867-8.193
		c1.855-3.354,4.537-7.137,7.81-10.844c3.318-3.76,6.727-6.854,9.75-8.998c1.511-1.071,2.925-1.904,4.174-2.465
		c1.249-0.561,2.333-0.842,3.156-0.84c0.721,0.003,1.212,0.196,1.56,0.562c0.369,0.39,0.584,1.02,0.584,1.916
		c0.008,1.904-1.009,4.845-2.868,8.193c-1.855,3.354-4.537,7.138-7.81,10.845c-3.317,3.759-6.726,6.854-9.749,8.997
		c-1.511,1.071-2.926,1.904-4.175,2.464c-1.249,0.562-2.333,0.843-3.156,0.841c-0.721-0.004-1.212-0.196-1.56-0.562h0
		L133.296,393.662l-0.364,0.343c0.571,0.608,1.387,0.88,2.287,0.876c1.042-0.002,2.235-0.334,3.565-0.928
		c3.979-1.788,9.216-5.997,14.265-11.712c3.316-3.758,6.036-7.592,7.935-11.022c1.896-3.437,2.985-6.447,2.993-8.678
		c0-1.044-0.25-1.954-0.856-2.602c-0.571-0.608-1.387-0.88-2.288-0.876c-1.041,0.002-2.235,0.333-3.564,0.928
		c-3.979,1.788-9.215,5.997-14.266,11.713c-3.316,3.758-6.036,7.592-7.935,11.022c-1.895,3.437-2.984,6.447-2.992,8.677
		c0,1.044,0.249,1.954,0.855,2.602h0L133.296,393.662z"/>
	<path fill="#E9E8E9" d="M165.036,394.286c-2.287,2.591-11.546-3.173-20.681-12.875c-9.133-9.7-14.685-19.664-12.398-22.256
		c2.285-2.592,11.543,3.174,20.678,12.875C161.77,381.732,167.322,391.696,165.036,394.286z"/>
	<path fill="#1E416B" d="M165.036,394.286l-0.375-0.331c-0.254,0.285-0.637,0.447-1.255,0.451c-0.792,0.003-1.911-0.305-3.231-0.919
		c-3.975-1.838-9.749-6.354-15.455-12.419c-3.852-4.09-7.062-8.229-9.3-11.818c-1.119-1.795-1.995-3.452-2.586-4.89
		c-0.592-1.437-0.894-2.657-0.891-3.537c0-0.635,0.149-1.066,0.39-1.337c0.254-0.286,0.636-0.447,1.254-0.451
		c0.792-0.004,1.91,0.305,3.23,0.919c3.974,1.838,9.749,6.354,15.455,12.419c3.853,4.091,7.063,8.229,9.302,11.82
		c1.119,1.795,1.995,3.452,2.586,4.89c0.593,1.437,0.894,2.656,0.891,3.536c0,0.635-0.149,1.065-0.389,1.336L165.036,394.286
		l0.375,0.331c0.456-0.518,0.64-1.216,0.639-1.998c-0.002-1.095-0.348-2.407-0.966-3.916c-1.861-4.516-6.245-10.81-12.084-17.016
		c-3.848-4.086-7.718-7.479-11.102-9.862c-1.693-1.191-3.264-2.131-4.66-2.778c-1.398-0.646-2.617-1.009-3.651-1.012
		c-0.794-0.004-1.518,0.235-2.004,0.789c-0.456,0.519-0.64,1.217-0.64,1.999c0.002,1.096,0.348,2.408,0.966,3.917
		c1.86,4.516,6.244,10.809,12.082,17.014c3.848,4.087,7.718,7.479,11.102,9.862c1.693,1.191,3.264,2.131,4.661,2.778
		c1.398,0.646,2.617,1.009,3.651,1.012c0.794,0.004,1.519-0.235,2.005-0.789L165.036,394.286z"/>
	<path fill="#1E416B" d="M147.88,369.644l-0.014,0.5c6.064,0.169,11.595,1.082,15.598,2.406c2,0.66,3.618,1.426,4.715,2.227
		c0.549,0.398,0.966,0.806,1.241,1.197c0.276,0.394,0.412,0.764,0.431,1.123l0.002,0.087c-0.001,0.333-0.099,0.656-0.313,0.998
		c-0.373,0.595-1.127,1.216-2.218,1.777c-3.273,1.697-9.448,2.834-16.691,2.828c-0.664,0-1.336-0.009-2.017-0.028
		c-6.064-0.169-11.595-1.083-15.598-2.407c-2-0.66-3.619-1.426-4.716-2.227c-0.549-0.398-0.966-0.805-1.242-1.197
		c-0.276-0.394-0.412-0.764-0.431-1.123l-0.002-0.086c0.001-0.333,0.099-0.657,0.313-0.998c0.373-0.595,1.127-1.216,2.218-1.777
		c3.273-1.697,9.448-2.834,16.692-2.828c0.664,0,1.337,0.009,2.018,0.028L147.88,369.644l0.014-0.5
		c-0.69-0.02-1.373-0.028-2.046-0.028c-5.602,0.001-10.57,0.654-14.18,1.764c-1.806,0.557-3.274,1.225-4.326,2.013
		c-0.526,0.395-0.949,0.822-1.249,1.294c-0.299,0.471-0.47,0.992-0.469,1.533l0.003,0.139c0.031,0.581,0.253,1.137,0.613,1.646
		c0.632,0.892,1.675,1.676,3.044,2.391c4.103,2.131,11.228,3.634,19.3,3.864c0.69,0.02,1.372,0.028,2.045,0.028
		c5.601-0.001,10.569-0.654,14.179-1.764c1.806-0.557,3.274-1.225,4.326-2.013c0.525-0.396,0.949-0.822,1.249-1.295
		c0.299-0.47,0.47-0.992,0.469-1.532l-0.003-0.14c-0.03-0.581-0.253-1.137-0.612-1.646c-0.632-0.892-1.675-1.675-3.043-2.391
		c-4.103-2.13-11.228-3.633-19.3-3.863L147.88,369.644z"/>
	<path fill="#231F20" d="M140.753,374.804c0,0,1.383-15.917,6.642-15.853c5.572,0.068,7.742,17.04,7.742,17.04
		s4.396,1.866,4.53,14.942c0.005,0.523-3.01,0.264-3.01,0.264s-1.25-7.094-1.302-6.572c-1.182,1.709-4.942,2.825-4.942,2.825
		l-0.293,3.477l-2.546,0.018l-1.164-3.955c0,0-3-1.044-4.413-2.216c-0.421-0.446-0.487,5.824-0.487,5.824l-3.512-0.184
		C137.997,390.415,136.295,376.248,140.753,374.804z"/>
	<path fill="#A09F9F" d="M266.614,378.239c0,16.328-1.883,17.691,5.111,31.273c4.049,7.861,22.642,12.055,29.89,1.477
		c7.247-10.576,3.147-35.924,10.579-31.209"/>
	<path fill="#B84B67" d="M272.043,444.284c-1.272,1.962-3.62,3.037-5.243,2.397l-3.245-1.274c-1.624-0.638-1.909-2.746-0.637-4.709
		c1.273-1.961,3.621-3.036,5.245-2.396l3.244,1.274C273.03,440.212,273.315,442.321,272.043,444.284z"/>
	<path fill="#B84B67" d="M282.793,437.534c-1.272,1.962-3.62,3.037-5.243,2.397l-3.245-1.274c-1.624-0.638-1.909-2.746-0.637-4.709
		c1.273-1.961,3.621-3.036,5.245-2.396l3.244,1.274C283.78,433.462,284.065,435.571,282.793,437.534z"/>
	<path fill="#B84B67" d="M292.677,430.781c-1.272,1.962-3.62,3.037-5.244,2.397l-3.245-1.274c-1.624-0.638-1.909-2.746-0.637-4.709
		c1.273-1.961,3.621-3.036,5.245-2.396l3.244,1.274C293.663,426.709,293.948,428.818,292.677,430.781z"/>
	<path fill="#B84B67" d="M304.427,425.281c-1.272,1.962-3.62,3.037-5.244,2.397l-3.244-1.274c-1.624-0.638-1.909-2.746-0.637-4.709
		c1.272-1.961,3.62-3.036,5.244-2.396l3.244,1.274C305.413,421.209,305.698,423.318,304.427,425.281z"/>
	<path fill="#A06EAF" d="M259.293,440.534c-1.272,1.962-3.62,3.037-5.243,2.397l-3.245-1.274c-1.624-0.638-1.909-2.746-0.637-4.709
		c1.273-1.961,3.621-3.036,5.245-2.396l3.244,1.274C260.28,436.462,260.565,438.571,259.293,440.534z"/>
	<path fill="#A06EAF" d="M270.043,433.784c-1.272,1.962-3.62,3.037-5.243,2.397l-3.245-1.274c-1.624-0.638-1.909-2.746-0.637-4.709
		c1.273-1.961,3.621-3.036,5.245-2.396l3.244,1.274C271.03,429.712,271.315,431.821,270.043,433.784z"/>
	<path fill="#A06EAF" d="M279.927,427.031c-1.272,1.962-3.62,3.037-5.244,2.397l-3.245-1.274c-1.624-0.638-1.909-2.746-0.637-4.709
		c1.273-1.961,3.621-3.036,5.245-2.396l3.244,1.274C280.913,422.959,281.198,425.068,279.927,427.031z"/>
	<path fill="#4D7ABD" d="M258.293,428.284c-1.272,1.962-3.62,3.037-5.243,2.397l-3.245-1.274c-1.624-0.638-1.909-2.746-0.637-4.709
		c1.273-1.961,3.621-3.036,5.245-2.396l3.244,1.274C259.28,424.212,259.565,426.321,258.293,428.284z"/>
	<path fill="#4D7ABD" d="M268.177,421.531c-1.272,1.962-3.62,3.037-5.244,2.397l-3.245-1.274c-1.624-0.638-1.909-2.746-0.637-4.709
		c1.273-1.961,3.621-3.036,5.245-2.396l3.244,1.274C269.163,417.459,269.448,419.568,268.177,421.531z"/>
	<path fill="#62BB46" d="M254.927,416.031c-1.272,1.962-3.62,3.037-5.244,2.397l-3.245-1.274c-1.624-0.638-1.909-2.746-0.637-4.709
		c1.273-1.961,3.621-3.036,5.245-2.396l3.244,1.274C255.913,411.959,256.198,414.068,254.927,416.031z"/>
	<path fill="#62BB46" d="M266.677,410.531c-1.272,1.962-3.62,3.037-5.244,2.397l-3.244-1.274c-1.624-0.638-1.909-2.746-0.637-4.709
		c1.272-1.961,3.62-3.036,5.244-2.396l3.244,1.274C267.663,406.459,267.948,408.568,266.677,410.531z"/>
	<path fill="#DAE12D" d="M252.56,406.278c-1.272,1.962-3.62,3.037-5.244,2.397l-3.244-1.274c-1.624-0.638-1.909-2.746-0.637-4.709
		c1.272-1.961,3.62-3.036,5.244-2.396l3.244,1.274C253.546,402.207,253.832,404.315,252.56,406.278z"/>
	<path fill="#BFC4C6" d="M204.357,328.91c1.367,0.349,2.867,0.981,4.351,1.848c2.229,1.296,4.414,3.114,6.156,5.115
		c1.749,1.995,3.038,4.178,3.63,6.056l35.256,110.296c0.682,2.134,2.965,3.311,5.099,2.628c2.134-0.682,3.311-2.965,2.629-5.099
		l-35.256-110.296c-0.694-2.166-1.766-4.217-3.084-6.14c-1.982-2.88-4.527-5.479-7.384-7.609c-2.862-2.125-6.032-3.793-9.382-4.658
		c-2.17-0.556-4.38,0.753-4.936,2.923S202.188,328.353,204.357,328.91z"/>
	<path fill="#1E416B" d="M306.614,395.572c-0.389,3.275-1.91,6.788-2.581,9.634c-0.332,1.42-0.719,2.707-1.141,3.77
		c-0.419,1.064-0.875,1.896-1.271,2.439c-0.378,0.52-0.789,0.93-1.262,1.293c-0.708,0.539-1.583,0.979-2.673,1.293
		c-1.083,0.314-2.372,0.49-3.744,0.49c-2.456,0.012-5.164-0.596-7.158-1.498c-0.998-0.443-1.812-0.953-2.349-1.391
		c-0.543-0.436-0.782-0.787-0.815-0.857c-0.056-0.096-0.24-0.49-0.439-1.088c-0.384-1.125-0.832-2.939-1.232-5.182
		c-0.71-3.936-4.834-26.069-4.834-26.069s-14-10.834-14.833-1.834s2.582,28.917,3.187,31.495c0.306,1.293,0.638,2.504,1.028,3.66
		c0.394,1.158,0.836,2.262,1.443,3.385c1.193,2.184,2.813,3.936,4.601,5.387c2.693,2.17,5.806,3.717,9.154,4.807
		c3.35,1.078,6.952,1.682,10.663,1.686c3.672-0.004,7.479-0.598,11.131-2.107c1.822-0.756,3.596-1.746,5.234-2.996
		c1.638-1.248,3.134-2.758,4.389-4.492c1.349-1.865,2.32-3.82,3.092-5.785c1.337-3.438,2.076-6.943,2.627-10.307
		c0.409-2.52,0.696-4.955,0.958-7.152"/>
</g>
</svg>
