<?xml version="1.0" encoding="utf-8"?>
<!-- Generator: Adobe Illustrator 16.0.4, SVG Export Plug-In . SVG Version: 6.00 Build 0)  -->
<!DOCTYPE svg PUBLIC "-//W3C//DTD SVG 1.1//EN" "http://www.w3.org/Graphics/SVG/1.1/DTD/svg11.dtd">
<svg version="1.1" id="Layer_1" xmlns="http://www.w3.org/2000/svg" xmlns:xlink="http://www.w3.org/1999/xlink" x="0px" y="0px"
	 width="405.208px" height="418.75px" viewBox="0 0 405.208 418.75" enable-background="new 0 0 405.208 418.75"
	 xml:space="preserve">
<circle fill="#4084F2" stroke="#4084F2" stroke-width="15" stroke-linecap="round" stroke-miterlimit="10" cx="242.144" cy="146.236" r="127.493"/>
<path fill="#EFCC9A" stroke="#1E416B" stroke-width="15" stroke-miterlimit="10" d="M242.144,47.123
	c-54.739,0-99.113,44.373-99.113,99.113c0,54.738,44.374,99.113,99.113,99.113s99.113-44.375,99.113-99.113
	C341.257,91.496,296.883,47.123,242.144,47.123z M242.144,176.029c-16.456,0-29.796-13.338-29.796-29.793
	c0-16.457,13.34-29.795,29.796-29.795s29.796,13.338,29.796,29.795C271.939,162.691,258.6,176.029,242.144,176.029z"/>
<g>
	<path fill="#F288A9" d="M180.324,92.459c-4.679,5.119-14.973,7.153-17.645,14.008c-2.498,6.408,3.52,15.376,2.566,22.63
		c-0.914,6.953-9.127,13.804-8.804,20.95c0.325,7.195,9.146,13.358,10.543,20.167c1.501,7.317-4.051,16.561-1.53,22.733
		c3.014,7.377,13.361,9.5,17.479,14.106c5.248,5.87,8.371,16.75,17.097,19.829c7.547,2.662,17.687-3.457,26.583-2.793
		c8.312,0.62,17.154,8.346,25.664,7.293c8.583-1.062,15.23-10.71,23.046-13.404c8.492-2.929,19.942,0.186,26.33-4.585
		c7.279-5.436,6.637-16.615,9.45-24.317c2.271-6.215,11.936-10.36,13.575-16.962c1.628-6.551-4.982-14.621-4.252-21.264
		c0.747-6.801,8.915-13.433,8.428-20.026c-0.506-6.839-9.527-11.888-11.688-18.165c-2.182-6.341,1.646-16.065-2.563-21.478
		c-3.937-5.06-14.189-3.839-20.187-7.788c-5.805-3.822-8.812-14.055-15.744-16.432c-6.637-2.276-15.472,3.87-22.655,2.951
		c-7.057-0.903-13.998-9.104-21.125-8.669c-7.198,0.44-13.03,9.425-19.836,11.262c-7.032,1.897-16.727-2.804-22.833,0.617
		C185.889,76.67,185.099,87.235,180.324,92.459z"/>
</g>
<line fill="none" stroke="#F8CACD" stroke-width="13" stroke-linecap="round" stroke-miterlimit="10" x1="179.24" y1="157.441" x2="171.258" y2="142.562"/>
<line fill="none" stroke="#1ACFE2" stroke-width="13" stroke-linecap="round" stroke-miterlimit="10" x1="233.199" y1="75.025" x2="218.146" y2="82.671"/>
<line fill="none" stroke="#FFFFFF" stroke-width="13" stroke-linecap="round" stroke-miterlimit="10" x1="296.516" y1="117.858" x2="307.99" y2="105.471"/>
<line fill="none" stroke="#B7E5CF" stroke-width="13" stroke-linecap="round" stroke-miterlimit="10" x1="225.99" y1="212.435" x2="241.953" y2="217.935"/>
<line fill="none" stroke="#EFE578" stroke-width="13" stroke-linecap="round" stroke-miterlimit="10" x1="276.683" y1="190.441" x2="269.236" y2="205.593"/>
<line fill="none" stroke="#FFFFFF" stroke-width="13" stroke-linecap="round" stroke-miterlimit="10" x1="194.617" y1="197.25" x2="205.404" y2="184.261"/>
<line fill="none" stroke="#B7E5CF" stroke-width="13" stroke-linecap="round" stroke-miterlimit="10" x1="182.696" y1="112.018" x2="194.898" y2="116.764"/>
<line fill="none" stroke="#B7E5CF" stroke-width="13" stroke-linecap="round" stroke-miterlimit="10" x1="265.74" y1="79.036" x2="277.942" y2="83.782"/>
<line fill="none" stroke="#F8CACD" stroke-width="13" stroke-linecap="round" stroke-miterlimit="10" x1="300.604" y1="155.615" x2="312.964" y2="167.117"/>
<path fill="#EFEFEF" stroke="#1E416B" stroke-width="15" stroke-miterlimit="10" d="M277.583,157.773
	c0,17.814-14.442,32.255-32.258,32.255s-32.258-14.44-32.258-32.255c0,0,14.139-1.003,31.954-1.003
	C262.838,156.77,277.583,157.773,277.583,157.773z"/>
<circle fill="#EFEFEF" stroke="#1E416B" stroke-width="15" stroke-miterlimit="10" cx="221.583" cy="118.514" r="11.795"/>
<circle fill="#EFEFEF" stroke="#1E416B" stroke-width="15" stroke-miterlimit="10" cx="263.462" cy="116.458" r="11.795"/>
<path fill="none" stroke="#1E416B" stroke-width="15" stroke-miterlimit="10" d="M142.459,160.329
	c-40.526,20.567-48.826-15.672-86.843-90.577"/>
<path fill="none" stroke="#1E416B" stroke-width="15" stroke-miterlimit="10" d="M336.512,180.237
	c45.447,0,36.447,36.072,36.447,120.072"/>
<line fill="none" stroke="#1E416B" stroke-width="15" stroke-miterlimit="10" x1="209.983" y1="240.01" x2="209.983" y2="371.308"/>
<line fill="none" stroke="#1E416B" stroke-width="15" stroke-miterlimit="10" x1="266.101" y1="242.427" x2="266.101" y2="369.308"/>
<g>
	<path fill="#FFFFFF" d="M168.502,408.243c-13.078,0-23.717-10.64-23.717-23.717s10.639-23.717,23.717-23.717h20.555l0.233-11.878
		c0.08-4.085,3.414-7.354,7.499-7.354h24.891c1.995,0,3.909,0.795,5.316,2.21c1.407,1.414,2.193,3.332,2.184,5.327l-0.096,19.231
		v32.396c0,4.143-3.357,7.5-7.5,7.5H168.502z"/>
	<path fill="#1E416B" d="M221.679,349.078l-0.096,19.231v32.434h-53.081c-8.957,0-16.217-7.26-16.217-16.217
		s7.26-16.217,16.217-16.217h27.909l0.377-19.231H221.679 M221.679,334.078h-24.891c-8.17,0-14.837,6.538-14.997,14.706
		l-0.089,4.525h-13.2c-17.213,0-31.217,14.004-31.217,31.217s14.004,31.217,31.217,31.217h53.081c8.284,0,15-6.716,15-15v-32.396
		l0.096-19.195c0.02-3.99-1.552-7.825-4.367-10.654S225.67,334.078,221.679,334.078L221.679,334.078z"/>
</g>
<g>
	<path fill="#EFCC9A" d="M39.901,84.193c-2.655,0-5.227-1.413-6.589-3.906L11.54,40.425c-5.65-10.346-1.83-23.359,8.514-29.008
		c3.137-1.713,6.676-2.619,10.235-2.619c7.829,0,15.022,4.267,18.772,11.134l4.739,8.678c2.799-3.496,7.094-5.651,11.715-5.651
		c1.776,0,3.525,0.313,5.198,0.933c3.754,1.389,6.744,4.156,8.417,7.792c1.673,3.637,1.83,7.708,0.441,11.463l-7.906,21.379
		c-0.344,2.23-1.686,4.281-3.819,5.446L43.49,83.274C42.348,83.897,41.116,84.193,39.901,84.193z"/>
	<path fill="#1E416B" d="M30.29,16.297c4.911,0,9.67,2.614,12.19,7.229l8.686,15.902l3.471,6.354l3.857-10.432
		c1.118-3.022,3.979-4.893,7.023-4.893c0.862,0,1.74,0.15,2.596,0.467c3.879,1.435,5.86,5.74,4.426,9.619l-3.392,9.17L64.155,63.21
		l0.097,0.178L39.895,76.692L18.122,36.83c-3.674-6.728-1.199-15.157,5.527-18.831C25.762,16.845,28.042,16.297,30.29,16.297
		 M30.291,1.297C30.29,1.297,30.29,1.297,30.291,1.297c-4.812,0-9.595,1.223-13.831,3.537C2.486,12.466-2.674,30.044,4.957,44.019
		L26.73,83.882c2.724,4.987,7.869,7.812,13.178,7.812c2.43,0,4.894-0.592,7.177-1.838l24.357-13.304
		c3.985-2.177,6.59-5.899,7.476-10.017l4.297-11.62l3.391-9.169c4.301-11.63-1.661-24.59-13.291-28.892
		c-2.508-0.928-5.132-1.398-7.799-1.398c-3.252,0-6.398,0.712-9.254,2.009l-0.618-1.131C50.579,7.061,40.864,1.298,30.291,1.297
		L30.291,1.297L30.291,1.297z"/>
</g>
<g>
	<path fill="#EFCC9A" d="M370.381,336.185c-11.787,0-21.377-9.59-21.377-21.377v-9.881c-1.822,0.767-3.793,1.17-5.801,1.17
		c-0.001,0-0.001,0-0.001,0c-4.337-0.001-8.456-1.875-11.303-5.144c-2.63-3.018-3.927-6.879-3.652-10.873
		c0.275-3.993,2.089-7.641,5.107-10.271l17.188-14.974c1.37-1.793,3.531-2.949,5.962-2.949h27.754c4.143,0,7.5,3.357,7.5,7.5v45.421
		C391.758,326.595,382.168,336.185,370.381,336.185z"/>
	<path fill="#1E416B" d="M384.258,269.387v45.421c0,7.665-6.213,13.877-13.877,13.877c-7.665,0-13.877-6.212-13.877-13.877v-18.12
		v-7.239l-8.386,7.306c-1.419,1.236-3.171,1.843-4.916,1.843c-2.089,0-4.168-0.87-5.647-2.569
		c-2.717-3.118-2.392-7.847,0.727-10.563l7.372-6.422l10.851-9.453v-0.202H384.258 M384.258,254.387h-27.754
		c-4.542,0-8.612,2.019-11.362,5.207l-9.342,8.139l-7.371,6.421c-4.53,3.947-7.251,9.42-7.663,15.412s1.533,11.787,5.479,16.315
		c3.896,4.474,9.385,7.208,15.259,7.651v1.275c0,15.923,12.954,28.877,28.877,28.877s28.877-12.954,28.877-28.877v-45.421
		C399.258,261.103,392.542,254.387,384.258,254.387L384.258,254.387z"/>
</g>
<circle fill="#F288A9" cx="205.583" cy="377.308" r="7.798"/>
<line fill="#FFFFFF" stroke="#D8D6D6" stroke-width="15" stroke-linejoin="round" stroke-miterlimit="10" x1="225.083" y1="397.308" x2="147.583" y2="397.308"/>
<g>
	<path fill="#1E416B" d="M221.679,349.078l-0.096,19.231v32.434h-53.081c-8.957,0-16.217-7.26-16.217-16.217
		s7.26-16.217,16.217-16.217h27.909l0.377-19.231H221.679 M221.679,334.078h-24.891c-8.17,0-14.837,6.538-14.997,14.706
		l-0.089,4.525h-13.2c-17.213,0-31.217,14.004-31.217,31.217s14.004,31.217,31.217,31.217h53.081c8.284,0,15-6.716,15-15v-32.396
		l0.096-19.195c0.02-3.99-1.552-7.825-4.367-10.654S225.67,334.078,221.679,334.078L221.679,334.078z"/>
</g>
<g>
	<path fill="#FFFFFF" d="M254.583,408.243c-4.143,0-7.5-3.357-7.5-7.5v-32.434l-0.096-19.194c-0.01-1.995,0.776-3.913,2.184-5.327
		c1.407-1.415,3.321-2.21,5.316-2.21h24.891c4.085,0,7.419,3.269,7.499,7.354l0.232,11.878h20.555
		c13.077,0,23.717,10.64,23.717,23.717s-10.64,23.717-23.717,23.717H254.583z"/>
	<path fill="#1E416B" d="M279.378,349.078l0.377,19.231h27.909c8.957,0,16.217,7.26,16.217,16.217s-7.26,16.217-16.217,16.217
		h-53.081v-32.434l-0.096-19.231H279.378 M279.378,334.078h-24.891c-3.991,0-7.817,1.591-10.633,4.42s-4.387,6.664-4.367,10.654
		l0.096,19.195v32.396c0,8.284,6.716,15,15,15h53.081c17.213,0,31.217-14.004,31.217-31.217s-14.004-31.217-31.217-31.217h-13.2
		l-0.089-4.525C294.215,340.616,287.548,334.078,279.378,334.078L279.378,334.078z"/>
</g>
<circle fill="#F288A9" cx="270.583" cy="377.308" r="7.798"/>
<line fill="#FFFFFF" stroke="#D8D6D6" stroke-width="15" stroke-linejoin="round" stroke-miterlimit="10" x1="251.083" y1="397.308" x2="328.583" y2="397.308"/>
<g>
	<path fill="#1E416B" d="M279.378,349.078l0.377,19.231h27.909c8.957,0,16.217,7.26,16.217,16.217s-7.26,16.217-16.217,16.217
		h-53.081v-32.434l-0.096-19.231H279.378 M279.378,334.078h-24.891c-3.991,0-7.817,1.591-10.633,4.42s-4.387,6.664-4.367,10.654
		l0.096,19.195v32.396c0,8.284,6.716,15,15,15h53.081c17.213,0,31.217-14.004,31.217-31.217s-14.004-31.217-31.217-31.217h-13.2
		l-0.089-4.525C294.215,340.616,287.548,334.078,279.378,334.078L279.378,334.078z"/>
</g>
</svg>
