<?xml version="1.0" encoding="utf-8"?>
<!-- Generator: Adobe Illustrator 16.0.4, SVG Export Plug-In . SVG Version: 6.00 Build 0)  -->
<!DOCTYPE svg PUBLIC "-//W3C//DTD SVG 1.1//EN" "http://www.w3.org/Graphics/SVG/1.1/DTD/svg11.dtd">
<svg version="1.1" id="Layer_1" xmlns="http://www.w3.org/2000/svg" xmlns:xlink="http://www.w3.org/1999/xlink" x="0px" y="0px"
	 width="530.231px" height="476.977px" viewBox="0 0 530.231 476.977" enable-background="new 0 0 530.231 476.977"
	 xml:space="preserve">
<ellipse fill="#B7E5CF" cx="265.06" cy="252.232" rx="231.888" ry="226.843"/>
<path fill="#A09F9F" stroke="#1E416B" stroke-width="15" stroke-miterlimit="10" d="M416.616,345.988c0,0,19-18,29-31s14-42-8-61
	s-29-37-30-50s7-43,24-50c0,0,16-9,22,6s0,14-12,21s-17,15-5,31s56,26,46,80s-65,90-69,95"/>
<path fill="#A09F9F" stroke="#1E416B" stroke-width="15" stroke-miterlimit="10" d="M319.226,424.145
	c13.685,0,26.722-2.773,38.579-7.789c6.94-2.936,3.134,14.416,9.811,22.633c7.255,8.928,24.905,8.692,30.11,2.523
	c14.558-17.252,20.613-92.139,20.613-116.48c0-28.96-12.42-55.018-32.225-73.141c-17.629-16.131-41.109-25.972-66.889-25.972
	c-21.989,0-42.306,7.16-58.745,19.277c-24.484,18.047-40.368,47.086-40.368,79.836c0,16.328-1.38,99.899,5.613,113.48
	c4.049,7.862,22.642,12.055,29.89,1.477c7.248-10.577,3.148-35.924,10.58-31.209C281.531,418.51,299.72,424.145,319.226,424.145z"/>
<path fill="#E1E6E8" stroke="#132B3F" stroke-width="7.9608" stroke-miterlimit="10" d="M226.524,322.988
	c1.091-16-16.063-26-35.879-26c-10.415,0-9.203,15.5-0.03,15.5c8.5,0,21.846,1.5,21.5,11.5c-0.346,9.995-18.5,12-26.5,12
	c-8.441,0-4.877,13,5.03,13C210.461,348.988,225.547,337.313,226.524,322.988z"/>
<g>
	<g>
		<path fill="none" stroke="#F7F7F7" stroke-miterlimit="10" d="M-1188.341-240.854"/>
	</g>
</g>
<g>
	<g>
		<path fill="none" stroke="#FFFFFF" stroke-miterlimit="10" d="M-1190.091-205.604"/>
	</g>
</g>
<g>
	<g>
		<path fill="none" stroke="#FFFFFF" stroke-miterlimit="10" d="M-1218.841-194.354"/>
	</g>
</g>
<g>
	<g>
		<path fill="none" stroke="#FFFFFF" stroke-miterlimit="10" d="M-1179.591-219.104"/>
	</g>
</g>
<g>
	<g>
		<path fill="none" stroke="#FFFFFF" stroke-width="7" stroke-miterlimit="10" d="M-1194.841-226.104"/>
	</g>
</g>
<g>
	<g>
		<path fill="none" stroke="#FFFFFF" stroke-width="7" stroke-miterlimit="10" d="M-1194.841-226.104"/>
	</g>
</g>
<g>
	<g>
		<path fill="none" stroke="#FFFFFF" stroke-width="7" stroke-miterlimit="10" d="M-1194.841-226.104"/>
	</g>
</g>
<g>
	<g>
		<path fill="none" stroke="#FFFFFF" stroke-width="7" stroke-miterlimit="10" d="M-1194.841-226.104"/>
	</g>
</g>
<g>
	<g>
		<path fill="#FFFFFF" d="M-1177.841-188.354c3.225,0,3.225-5,0-5C-1181.066-193.354-1181.065-188.354-1177.841-188.354
			L-1177.841-188.354z"/>
	</g>
</g>
<g>
	<path fill="#6D5D47" stroke="#132B3F" stroke-width="7.2806" stroke-miterlimit="10" d="M84.748,105.018
		c-19.13,0-34.638,15.507-34.638,34.638s15.507,34.639,34.638,34.639c19.13,0,34.639-15.508,34.639-34.639
		S103.879,105.018,84.748,105.018z M84.748,150.068c-5.751,0-10.414-4.661-10.414-10.413c0-5.751,4.662-10.413,10.414-10.413
		c5.751,0,10.414,4.662,10.414,10.413C95.162,145.407,90.499,150.068,84.748,150.068z"/>
	<g>
		<g>
			<path fill="#FFFFFF" d="M70.225,117.862c1.197,0,1.197-1.855,0-1.855C69.029,116.007,69.03,117.862,70.225,117.862
				L70.225,117.862z"/>
		</g>
	</g>
	<g>
		<g>
			<path fill="#FFFFFF" d="M69.236,124.541c1.196,0,1.196-1.854,0-1.854C68.039,122.686,68.04,124.541,69.236,124.541
				L69.236,124.541z"/>
		</g>
	</g>
	<g>
		<g>
			<path fill="#FFFFFF" d="M88.033,119.347c1.196,0,1.196-1.854,0-1.854C86.836,117.493,86.838,119.347,88.033,119.347
				L88.033,119.347z"/>
		</g>
	</g>
	<g>
		<g>
			<path fill="#FFFFFF" d="M76.409,124.045c1.196,0,1.196-1.855,0-1.855S75.213,124.045,76.409,124.045L76.409,124.045z"/>
		</g>
	</g>
	<g>
		<g>
			<path fill="#FFFFFF" d="M76.409,118.852c1.196,0,1.196-1.854,0-1.854C75.213,116.997,75.213,118.852,76.409,118.852
				L76.409,118.852z"/>
		</g>
	</g>
	<g>
		<g>
			<path fill="#FFFFFF" d="M84.571,112.174c1.197,0,1.197-1.854,0-1.854C83.374,110.319,83.375,112.174,84.571,112.174
				L84.571,112.174z"/>
		</g>
	</g>
	<g>
		<g>
			<path fill="#FFFFFF" d="M78.882,112.42c1.196,0,1.196-1.855,0-1.855C77.685,110.565,77.686,112.42,78.882,112.42L78.882,112.42z"
				/>
		</g>
	</g>
	<g>
		<g>
			<path fill="#FFFFFF" d="M83.333,116.625c1.197,0,1.197-1.855,0-1.855C82.139,114.771,82.139,116.625,83.333,116.625
				L83.333,116.625z"/>
		</g>
	</g>
	<g>
		<g>
			<path fill="#FFFFFF" d="M82.592,122.314c1.196,0,1.196-1.854,0-1.854C81.396,120.46,81.396,122.314,82.592,122.314
				L82.592,122.314z"/>
		</g>
	</g>
	<g>
		<g>
			<path fill="#FFFFFF" d="M65.527,121.326c1.196,0,1.196-1.855,0-1.855C64.33,119.47,64.33,121.326,65.527,121.326L65.527,121.326z
				"/>
		</g>
	</g>
	<g>
		<g>
			<path fill="#FFFFFF" d="M62.805,129.239c1.197,0,1.197-1.854,0-1.854C61.609,127.385,61.609,129.239,62.805,129.239
				L62.805,129.239z"/>
		</g>
	</g>
	<g>
		<g>
			<path fill="#FFFFFF" d="M68.493,131.712c1.197,0,1.197-1.855,0-1.855C67.298,129.857,67.298,131.712,68.493,131.712
				L68.493,131.712z"/>
		</g>
	</g>
	<g>
		<g>
			<path fill="#FFFFFF" d="M58.353,138.392c1.197,0,1.197-1.854,0-1.854C57.157,136.537,57.158,138.392,58.353,138.392
				L58.353,138.392z"/>
		</g>
	</g>
	<g>
		<g>
			<path fill="#FFFFFF" d="M63.053,136.165c1.196,0,1.196-1.854,0-1.854C61.856,134.311,61.855,136.165,63.053,136.165
				L63.053,136.165z"/>
		</g>
	</g>
	<g>
		<g>
			<path fill="#FFFFFF" d="M58.105,132.703c1.196,0,1.196-1.854,0-1.854C56.909,130.849,56.91,132.703,58.105,132.703
				L58.105,132.703z"/>
		</g>
	</g>
	<g>
		<g>
			<path fill="#FFFFFF" d="M61.815,125.035c1.196,0,1.196-1.854,0-1.854C60.62,123.18,60.619,125.035,61.815,125.035L61.815,125.035
				z"/>
		</g>
	</g>
	<g>
		<g>
			<path fill="#FFFFFF" d="M67.999,138.638c1.196,0,1.196-1.854,0-1.854C66.803,136.785,66.804,138.638,67.999,138.638
				L67.999,138.638z"/>
		</g>
	</g>
	<g>
		<g>
			<path fill="#FFFFFF" d="M65.031,144.574c1.197,0,1.197-1.854,0-1.854C63.834,142.72,63.835,144.574,65.031,144.574
				L65.031,144.574z"/>
		</g>
	</g>
	<g>
		<g>
			<path fill="#FFFFFF" d="M59.589,143.337c1.197,0,1.197-1.854,0-1.854C58.393,141.482,58.393,143.337,59.589,143.337
				L59.589,143.337z"/>
		</g>
	</g>
	<g>
		<g>
			<path fill="#FFFFFF" d="M58.848,150.263c1.197,0,1.197-1.854,0-1.854S57.652,150.263,58.848,150.263L58.848,150.263z"/>
		</g>
	</g>
	<g>
		<g>
			<path fill="#FFFFFF" d="M63.3,150.263c1.197,0,1.197-1.854,0-1.854C62.104,148.408,62.104,150.263,63.3,150.263L63.3,150.263z"/>
		</g>
	</g>
	<g>
		<g>
			<path fill="#FFFFFF" d="M69.73,150.263c1.197,0,1.197-1.854,0-1.854C68.535,148.408,68.535,150.263,69.73,150.263L69.73,150.263z
				"/>
		</g>
	</g>
	<g>
		<g>
			<path fill="#FFFFFF" d="M68.247,146.058c1.196,0,1.196-1.854,0-1.854C67.051,144.204,67.051,146.058,68.247,146.058
				L68.247,146.058z"/>
		</g>
	</g>
	<g>
		<g>
			<path fill="#FFFFFF" d="M66.515,157.437c1.196,0,1.196-1.854,0-1.854C65.319,155.581,65.32,157.437,66.515,157.437
				L66.515,157.437z"/>
		</g>
	</g>
	<g>
		<g>
			<path fill="#FFFFFF" d="M61.569,156.445c1.196,0,1.196-1.854,0-1.854C60.372,154.591,60.372,156.445,61.569,156.445
				L61.569,156.445z"/>
		</g>
	</g>
	<g>
		<g>
			<path fill="#FFFFFF" d="M65.527,152.983c1.196,0,1.196-1.854,0-1.854C64.33,151.13,64.33,152.983,65.527,152.983L65.527,152.983z
				"/>
		</g>
	</g>
	<g>
		<g>
			<path fill="#FFFFFF" d="M70.968,155.21c1.196,0,1.196-1.854,0-1.854C69.771,153.355,69.771,155.21,70.968,155.21L70.968,155.21z"
				/>
		</g>
	</g>
	<g>
		<g>
			<path fill="#FFFFFF" d="M73.439,153.727c1.196,0,1.196-1.854,0-1.854C72.244,151.872,72.244,153.727,73.439,153.727
				L73.439,153.727z"/>
		</g>
	</g>
	<g>
		<g>
			<path fill="#FFFFFF" d="M76.656,157.931c1.197,0,1.197-1.854,0-1.854C75.459,156.075,75.459,157.931,76.656,157.931
				L76.656,157.931z"/>
		</g>
	</g>
	<g>
		<g>
			<path fill="#FFFFFF" d="M73.439,165.103c1.196,0,1.196-1.854,0-1.854C72.244,163.249,72.244,165.103,73.439,165.103
				L73.439,165.103z"/>
		</g>
	</g>
	<g>
		<g>
			<path fill="#FFFFFF" d="M72.946,160.403c1.196,0,1.196-1.855,0-1.855C71.75,158.548,71.75,160.403,72.946,160.403L72.946,160.403
				z"/>
		</g>
	</g>
	<g>
		<g>
			<path fill="#FFFFFF" d="M67.75,161.888c1.196,0,1.196-1.854,0-1.854C66.555,160.033,66.556,161.888,67.75,161.888L67.75,161.888z
				"/>
		</g>
	</g>
	<g>
		<g>
			<path fill="#FFFFFF" d="M77.396,167.824c1.196,0,1.196-1.854,0-1.854C76.202,165.97,76.202,167.824,77.396,167.824
				L77.396,167.824z"/>
		</g>
	</g>
	<g>
		<g>
			<path fill="#FFFFFF" d="M77.396,164.113c1.196,0,1.196-1.854,0-1.854C76.202,162.259,76.202,164.113,77.396,164.113
				L77.396,164.113z"/>
		</g>
	</g>
	<g>
		<g>
			<path fill="#FFFFFF" d="M83.581,163.866c1.196,0,1.196-1.854,0-1.854C82.385,162.013,82.385,163.866,83.581,163.866
				L83.581,163.866z"/>
		</g>
	</g>
	<g>
		<g>
			<path fill="#FFFFFF" d="M80.614,162.134c1.196,0,1.196-1.854,0-1.854C79.417,160.28,79.417,162.134,80.614,162.134
				L80.614,162.134z"/>
		</g>
	</g>
	<g>
		<g>
			<path fill="#FFFFFF" d="M83.829,159.663c1.196,0,1.196-1.855,0-1.855C82.633,157.808,82.633,159.663,83.829,159.663
				L83.829,159.663z"/>
		</g>
	</g>
	<g>
		<g>
			<path fill="#FFFFFF" d="M89.27,162.876c1.196,0,1.196-1.854,0-1.854C88.074,161.022,88.074,162.876,89.27,162.876L89.27,162.876z
				"/>
		</g>
	</g>
	<g>
		<g>
			<path fill="#FFFFFF" d="M86.797,167.824c1.197,0,1.197-1.854,0-1.854C85.6,165.97,85.601,167.824,86.797,167.824L86.797,167.824z
				"/>
		</g>
	</g>
	<g>
		<g>
			<path fill="#FFFFFF" d="M81.603,168.318c1.196,0,1.196-1.854,0-1.854C80.406,166.464,80.407,168.318,81.603,168.318
				L81.603,168.318z"/>
		</g>
	</g>
	<g>
		<g>
			<path fill="#FFFFFF" d="M88.033,159.167c1.196,0,1.196-1.854,0-1.854C86.836,157.312,86.838,159.167,88.033,159.167
				L88.033,159.167z"/>
		</g>
	</g>
	<g>
		<g>
			<path fill="#FFFFFF" d="M94.217,159.167c1.196,0,1.196-1.854,0-1.854C93.021,157.312,93.021,159.167,94.217,159.167
				L94.217,159.167z"/>
		</g>
	</g>
	<g>
		<g>
			<path fill="#FFFFFF" d="M94.217,163.866c1.196,0,1.196-1.854,0-1.854C93.021,162.013,93.021,163.866,94.217,163.866
				L94.217,163.866z"/>
		</g>
	</g>
	<g>
		<g>
			<path fill="#FFFFFF" d="M91.496,168.565c1.196,0,1.196-1.855,0-1.855C90.3,166.71,90.3,168.565,91.496,168.565L91.496,168.565z"
				/>
		</g>
	</g>
	<g>
		<g>
			<path fill="#FFFFFF" d="M96.938,166.835c1.196,0,1.196-1.855,0-1.855C95.742,164.979,95.742,166.835,96.938,166.835
				L96.938,166.835z"/>
		</g>
	</g>
	<g>
		<g>
			<path fill="#FFFFFF" d="M100.153,164.608c1.197,0,1.197-1.854,0-1.854C98.956,162.753,98.956,164.608,100.153,164.608
				L100.153,164.608z"/>
		</g>
	</g>
	<g>
		<g>
			<path fill="#FFFFFF" d="M97.927,161.394c1.196,0,1.196-1.854,0-1.854C96.73,159.538,96.731,161.394,97.927,161.394
				L97.927,161.394z"/>
		</g>
	</g>
	<g>
		<g>
			<path fill="#FFFFFF" d="M97.432,157.437c1.196,0,1.196-1.854,0-1.854S96.236,157.437,97.432,157.437L97.432,157.437z"/>
		</g>
	</g>
	<g>
		<g>
			<path fill="#FFFFFF" d="M97.927,154.468c1.196,0,1.196-1.854,0-1.854C96.73,152.613,96.731,154.468,97.927,154.468
				L97.927,154.468z"/>
		</g>
	</g>
	<g>
		<g>
			<path fill="#FFFFFF" d="M94.958,154.962c1.197,0,1.197-1.854,0-1.854C93.763,153.107,93.764,154.962,94.958,154.962
				L94.958,154.962z"/>
		</g>
	</g>
	<g>
		<g>
			<path fill="#FFFFFF" d="M90.506,156.693c1.197,0,1.197-1.854,0-1.854C89.311,154.839,89.311,156.693,90.506,156.693
				L90.506,156.693z"/>
		</g>
	</g>
	<g>
		<g>
			<path fill="#FFFFFF" d="M80.861,157.188c1.196,0,1.196-1.854,0-1.854C79.665,155.335,79.664,157.188,80.861,157.188
				L80.861,157.188z"/>
		</g>
	</g>
	<g>
		<g>
			<path fill="#FFFFFF" d="M73.194,129.982c1.196,0,1.196-1.855,0-1.855C71.997,128.127,71.998,129.982,73.194,129.982
				L73.194,129.982z"/>
		</g>
	</g>
	<g>
		<g>
			<path fill="#FFFFFF" d="M73.936,122.314c1.196,0,1.196-1.854,0-1.854C72.739,120.459,72.739,122.314,73.936,122.314
				L73.936,122.314z"/>
		</g>
	</g>
	<g>
		<g>
			<path fill="#FFFFFF" d="M74.183,115.142c1.196,0,1.196-1.854,0-1.854C72.987,113.288,72.987,115.142,74.183,115.142
				L74.183,115.142z"/>
		</g>
	</g>
	<g>
		<g>
			<path fill="#FFFFFF" d="M101.143,138.144c1.196,0,1.196-1.855,0-1.855C99.946,136.289,99.946,138.144,101.143,138.144
				L101.143,138.144z"/>
		</g>
	</g>
	<g>
		<g>
			<path fill="#FFFFFF" d="M99.906,131.712c1.196,0,1.196-1.855,0-1.855C98.709,129.857,98.709,131.712,99.906,131.712
				L99.906,131.712z"/>
		</g>
	</g>
	<g>
		<g>
			<path fill="#FFFFFF" d="M95.702,128.498c1.196,0,1.196-1.855,0-1.855S94.506,128.498,95.702,128.498L95.702,128.498z"/>
		</g>
	</g>
	<g>
		<g>
			<path fill="#FFFFFF" d="M91,126.024c1.197,0,1.197-1.855,0-1.855C89.806,124.169,89.806,126.024,91,126.024L91,126.024z"/>
		</g>
	</g>
	<g>
		<g>
			<path fill="#FFFFFF" d="M91,122.067c1.197,0,1.197-1.855,0-1.855C89.806,120.212,89.806,122.067,91,122.067L91,122.067z"/>
		</g>
	</g>
	<g>
		<g>
			<path fill="#FFFFFF" d="M87.539,124.788c1.196,0,1.196-1.854,0-1.854C86.344,122.934,86.344,124.788,87.539,124.788
				L87.539,124.788z"/>
		</g>
	</g>
	<g>
		<g>
			<path fill="#FFFFFF" d="M90.012,113.657c1.196,0,1.196-1.855,0-1.855C88.815,111.802,88.814,113.657,90.012,113.657
				L90.012,113.657z"/>
		</g>
	</g>
	<g>
		<g>
			<path fill="#FFFFFF" d="M91.991,117.614c1.196,0,1.196-1.854,0-1.854C90.793,115.759,90.793,117.614,91.991,117.614
				L91.991,117.614z"/>
		</g>
	</g>
	<g>
		<g>
			<path fill="#FFFFFF" d="M94.217,114.647c1.196,0,1.196-1.854,0-1.854C93.021,112.793,93.021,114.647,94.217,114.647
				L94.217,114.647z"/>
		</g>
	</g>
	<g>
		<g>
			<path fill="#FFFFFF" d="M98.421,116.13c1.197,0,1.197-1.854,0-1.854C97.225,114.276,97.225,116.13,98.421,116.13L98.421,116.13z"
				/>
		</g>
	</g>
	<g>
		<g>
			<path fill="#FFFFFF" d="M103.863,162.134c1.196,0,1.196-1.854,0-1.854C102.667,160.28,102.667,162.134,103.863,162.134
				L103.863,162.134z"/>
		</g>
	</g>
	<g>
		<g>
			<path fill="#FFFFFF" d="M103.616,158.919c1.196,0,1.196-1.854,0-1.854C102.418,157.064,102.418,158.919,103.616,158.919
				L103.616,158.919z"/>
		</g>
	</g>
	<g>
		<g>
			<path fill="#FFFFFF" d="M103.616,152.488c1.196,0,1.196-1.854,0-1.854C102.418,150.634,102.418,152.488,103.616,152.488
				L103.616,152.488z"/>
		</g>
	</g>
	<g>
		<g>
			<path fill="#FFFFFF" d="M101.143,156.445c1.196,0,1.196-1.854,0-1.854C99.946,154.591,99.946,156.445,101.143,156.445
				L101.143,156.445z"/>
		</g>
	</g>
	<g>
		<g>
			<path fill="#FFFFFF" d="M101.143,151.501c1.196,0,1.196-1.855,0-1.855C99.946,149.646,99.946,151.501,101.143,151.501
				L101.143,151.501z"/>
		</g>
	</g>
	<g>
		<g>
			<path fill="#FFFFFF" d="M101.143,146.8c1.196,0,1.196-1.854,0-1.854C99.946,144.945,99.946,146.8,101.143,146.8L101.143,146.8z"
				/>
		</g>
	</g>
	<g>
		<g>
			<path fill="#FFFFFF" d="M97.68,150.263c1.196,0,1.196-1.854,0-1.854C96.482,148.408,96.484,150.263,97.68,150.263L97.68,150.263z
				"/>
		</g>
	</g>
	<g>
		<g>
			<path fill="#FFFFFF" d="M85.312,156.445c1.196,0,1.196-1.854,0-1.854C84.117,154.591,84.117,156.445,85.312,156.445
				L85.312,156.445z"/>
		</g>
	</g>
	<g>
		<g>
			<path fill="#FFFFFF" d="M76.904,154.714c1.197,0,1.197-1.854,0-1.854C75.707,152.86,75.707,154.714,76.904,154.714
				L76.904,154.714z"/>
		</g>
	</g>
	<g>
		<g>
			<path fill="#FFFFFF" d="M67.01,128.25c1.196,0,1.196-1.855,0-1.855C65.813,126.396,65.813,128.25,67.01,128.25L67.01,128.25z"/>
		</g>
	</g>
	<g>
		<g>
			<path fill="#FFFFFF" d="M62.805,140.864c1.197,0,1.197-1.855,0-1.855C61.609,139.009,61.609,140.864,62.805,140.864
				L62.805,140.864z"/>
		</g>
	</g>
	<g>
		<g>
			<path fill="#FFFFFF" d="M61.322,147.542c1.196,0,1.196-1.854,0-1.854C60.125,145.688,60.125,147.542,61.322,147.542
				L61.322,147.542z"/>
		</g>
	</g>
	<g>
		<g>
			<path fill="#FFFFFF" d="M56.127,146.8c1.196,0,1.196-1.854,0-1.854C54.931,144.945,54.932,146.8,56.127,146.8L56.127,146.8z"/>
		</g>
	</g>
	<g>
		<g>
			<path fill="#FFFFFF" d="M56.127,141.111c1.196,0,1.196-1.854,0-1.854C54.931,139.256,54.932,141.111,56.127,141.111
				L56.127,141.111z"/>
		</g>
	</g>
	<g>
		<g>
			<path fill="#FFFFFF" d="M107.82,156.693c1.197,0,1.197-1.854,0-1.854C106.624,154.839,106.624,156.693,107.82,156.693
				L107.82,156.693z"/>
		</g>
	</g>
	<g>
		<g>
			<path fill="#FFFFFF" d="M107.82,153.973c1.197,0,1.197-1.854,0-1.854C106.624,152.118,106.624,153.973,107.82,153.973
				L107.82,153.973z"/>
		</g>
	</g>
	<g>
		<g>
			<path fill="#FFFFFF" d="M107.325,149.769c1.196,0,1.196-1.855,0-1.855S106.129,149.769,107.325,149.769L107.325,149.769z"/>
		</g>
	</g>
	<g>
		<g>
			<path fill="#FFFFFF" d="M104.11,148.778c1.196,0,1.196-1.854,0-1.854C102.914,146.923,102.914,148.778,104.11,148.778
				L104.11,148.778z"/>
		</g>
	</g>
	<g>
		<g>
			<path fill="#FFFFFF" d="M104.11,143.833c1.196,0,1.196-1.854,0-1.854C102.914,141.979,102.914,143.833,104.11,143.833
				L104.11,143.833z"/>
		</g>
	</g>
	<g>
		<g>
			<path fill="#FFFFFF" d="M101.143,141.606c1.196,0,1.196-1.855,0-1.855C99.946,139.751,99.946,141.606,101.143,141.606
				L101.143,141.606z"/>
		</g>
	</g>
	<g>
		<g>
			<path fill="#FFFFFF" d="M104.604,141.606c1.197,0,1.197-1.855,0-1.855C103.409,139.751,103.409,141.606,104.604,141.606
				L104.604,141.606z"/>
		</g>
	</g>
	<g>
		<g>
			<path fill="#FFFFFF" d="M104.604,136.413c1.197,0,1.197-1.854,0-1.854C103.409,134.559,103.409,136.413,104.604,136.413
				L104.604,136.413z"/>
		</g>
	</g>
	<g>
		<g>
			<path fill="#FFFFFF" d="M102.874,134.187c1.196,0,1.196-1.854,0-1.854C101.677,132.333,101.677,134.187,102.874,134.187
				L102.874,134.187z"/>
		</g>
	</g>
	<g>
		<g>
			<path fill="#FFFFFF" d="M100.153,128.746c1.197,0,1.197-1.855,0-1.855C98.956,126.891,98.956,128.746,100.153,128.746
				L100.153,128.746z"/>
		</g>
	</g>
	<g>
		<g>
			<path fill="#FFFFFF" d="M98.667,125.777c1.197,0,1.197-1.855,0-1.855C97.473,123.922,97.473,125.777,98.667,125.777
				L98.667,125.777z"/>
		</g>
	</g>
	<g>
		<g>
			<path fill="#FFFFFF" d="M94.711,123.798c1.197,0,1.197-1.854,0-1.854C93.515,121.944,93.515,123.798,94.711,123.798
				L94.711,123.798z"/>
		</g>
	</g>
	<g>
		<g>
			<path fill="#FFFFFF" d="M94.958,120.83c1.197,0,1.197-1.854,0-1.854C93.763,118.976,93.764,120.83,94.958,120.83L94.958,120.83z"
				/>
		</g>
	</g>
	<g>
		<g>
			<path fill="#FFFFFF" d="M98.667,120.83c1.197,0,1.197-1.854,0-1.854C97.473,118.976,97.473,120.83,98.667,120.83L98.667,120.83z"
				/>
		</g>
	</g>
	<g>
		<g>
			<path fill="#FFFFFF" d="M102.377,121.078c1.197,0,1.197-1.855,0-1.855C101.182,119.222,101.183,121.078,102.377,121.078
				L102.377,121.078z"/>
		</g>
	</g>
	<g>
		<g>
			<path fill="#FFFFFF" d="M102.377,117.368c1.197,0,1.197-1.854,0-1.854C101.182,115.513,101.183,117.368,102.377,117.368
				L102.377,117.368z"/>
		</g>
	</g>
	<g>
		<g>
			<path fill="#FFFFFF" d="M110.788,151.995c1.197,0,1.197-1.854,0-1.854C109.592,150.141,109.592,151.995,110.788,151.995
				L110.788,151.995z"/>
		</g>
	</g>
	<g>
		<g>
			<path fill="#FFFFFF" d="M111.036,148.532c1.196,0,1.196-1.855,0-1.855S109.84,148.532,111.036,148.532L111.036,148.532z"/>
		</g>
	</g>
	<g>
		<g>
			<path fill="#FFFFFF" d="M108.068,146.306c1.196,0,1.196-1.854,0-1.854C106.871,144.45,106.871,146.306,108.068,146.306
				L108.068,146.306z"/>
		</g>
	</g>
	<g>
		<g>
			<path fill="#FFFFFF" d="M108.068,141.854c1.196,0,1.196-1.854,0-1.854C106.871,140,106.871,141.854,108.068,141.854
				L108.068,141.854z"/>
		</g>
	</g>
	<g>
		<g>
			<path fill="#FFFFFF" d="M111.531,144.327c1.196,0,1.196-1.854,0-1.854C110.333,142.473,110.333,144.327,111.531,144.327
				L111.531,144.327z"/>
		</g>
	</g>
	<g>
		<g>
			<path fill="#FFFFFF" d="M113.262,140.123c1.195,0,1.195-1.854,0-1.854C112.065,138.268,112.065,140.123,113.262,140.123
				L113.262,140.123z"/>
		</g>
	</g>
	<g>
		<g>
			<path fill="#FFFFFF" d="M110.292,138.392c1.196,0,1.196-1.854,0-1.854C109.098,136.537,109.098,138.392,110.292,138.392
				L110.292,138.392z"/>
		</g>
	</g>
	<g>
		<g>
			<path fill="#FFFFFF" d="M106.832,138.144c1.196,0,1.196-1.855,0-1.855C105.636,136.289,105.636,138.144,106.832,138.144
				L106.832,138.144z"/>
		</g>
	</g>
	<g>
		<g>
			<path fill="#FFFFFF" d="M106.583,133.196c1.196,0,1.196-1.854,0-1.854C105.388,131.342,105.388,133.196,106.583,133.196
				L106.583,133.196z"/>
		</g>
	</g>
	<g>
		<g>
			<path fill="#FFFFFF" d="M103.616,130.724c1.196,0,1.196-1.854,0-1.854C102.418,128.87,102.418,130.724,103.616,130.724
				L103.616,130.724z"/>
		</g>
	</g>
	<g>
		<g>
			<path fill="#FFFFFF" d="M103.121,127.508c1.196,0,1.196-1.854,0-1.854C101.925,125.654,101.925,127.508,103.121,127.508
				L103.121,127.508z"/>
		</g>
	</g>
	<g>
		<g>
			<path fill="#FFFFFF" d="M102.377,125.035c1.197,0,1.197-1.854,0-1.854C101.182,123.18,101.183,125.035,102.377,125.035
				L102.377,125.035z"/>
		</g>
	</g>
	<g>
		<g>
			<path fill="#FFFFFF" d="M105.348,123.55c1.196,0,1.196-1.854,0-1.854C104.151,121.696,104.151,123.55,105.348,123.55
				L105.348,123.55z"/>
		</g>
	</g>
	<g>
		<g>
			<path fill="#FFFFFF" d="M113.262,135.67c1.195,0,1.195-1.855,0-1.855C112.065,133.815,112.065,135.67,113.262,135.67
				L113.262,135.67z"/>
		</g>
	</g>
	<g>
		<g>
			<path fill="#FFFFFF" d="M112.52,132.456c1.196,0,1.196-1.855,0-1.855C111.324,130.601,111.324,132.456,112.52,132.456
				L112.52,132.456z"/>
		</g>
	</g>
	<g>
		<g>
			<path fill="#FFFFFF" d="M111.036,128.746c1.196,0,1.196-1.855,0-1.855S109.84,128.746,111.036,128.746L111.036,128.746z"/>
		</g>
	</g>
	<g>
		<g>
			<path fill="#FFFFFF" d="M109.304,125.529c1.197,0,1.197-1.854,0-1.854C108.107,123.674,108.107,125.529,109.304,125.529
				L109.304,125.529z"/>
		</g>
	</g>
	<g>
		<g>
			<path fill="#FFFFFF" d="M106.832,127.755c1.196,0,1.196-1.854,0-1.854C105.636,125.9,105.636,127.755,106.832,127.755
				L106.832,127.755z"/>
		</g>
	</g>
	<g>
		<g>
			<path fill="#FFFFFF" d="M109.799,134.928c1.197,0,1.197-1.855,0-1.855C108.603,133.073,108.603,134.928,109.799,134.928
				L109.799,134.928z"/>
		</g>
	</g>
	<g>
		<g>
			<path fill="#FFFFFF" d="M109.057,131.465c1.196,0,1.196-1.854,0-1.854C107.859,129.611,107.862,131.465,109.057,131.465
				L109.057,131.465z"/>
		</g>
	</g>
	<g>
		<g>
			<path fill="#FFFFFF" d="M79.871,126.024c1.196,0,1.196-1.855,0-1.855C78.676,124.169,78.676,126.024,79.871,126.024
				L79.871,126.024z"/>
		</g>
	</g>
	<g>
		<g>
			<path fill="#FFFFFF" d="M79.624,120.83c1.196,0,1.196-1.854,0-1.854C78.428,118.976,78.428,120.83,79.624,120.83L79.624,120.83z"
				/>
		</g>
	</g>
	<g>
		<g>
			<path fill="#FFFFFF" d="M79.376,116.874c1.197,0,1.197-1.855,0-1.855C78.181,115.019,78.181,116.874,79.376,116.874
				L79.376,116.874z"/>
		</g>
	</g>
	<g>
		<g>
			<path fill="#FFFFFF" d="M72.452,128.003c1.196,0,1.196-1.854,0-1.854S71.255,128.003,72.452,128.003L72.452,128.003z"/>
		</g>
	</g>
	<g>
		<g>
			<path fill="#FFFFFF" d="M69.236,135.67c1.196,0,1.196-1.855,0-1.855C68.039,133.815,68.04,135.67,69.236,135.67L69.236,135.67z"
				/>
		</g>
	</g>
	<g>
		<g>
			<path fill="#FFFFFF" d="M64.784,133.939c1.196,0,1.196-1.854,0-1.854S63.589,133.939,64.784,133.939L64.784,133.939z"/>
		</g>
	</g>
	<g>
		<g>
			<path fill="#FFFFFF" d="M60.332,131.96c1.196,0,1.196-1.854,0-1.854C59.135,130.106,59.135,131.96,60.332,131.96L60.332,131.96z"
				/>
		</g>
	</g>
	<g>
		<g>
			<path fill="#FFFFFF" d="M64.29,161.394c1.196,0,1.196-1.854,0-1.854C63.094,159.54,63.094,161.394,64.29,161.394L64.29,161.394z"
				/>
		</g>
	</g>
	<g>
		<g>
			<path fill="#FFFFFF" d="M69.977,165.35c1.197,0,1.197-1.854,0-1.854C68.782,163.497,68.782,165.35,69.977,165.35L69.977,165.35z"
				/>
		</g>
	</g>
	<g>
		<g>
			<path fill="#FFFFFF" d="M69.977,158.673c1.197,0,1.197-1.854,0-1.854C68.782,156.818,68.782,158.673,69.977,158.673
				L69.977,158.673z"/>
		</g>
	</g>
	<g>
		<g>
			<path fill="#FFFFFF" d="M65.772,149.274c1.196,0,1.196-1.854,0-1.854C64.577,147.419,64.577,149.274,65.772,149.274
				L65.772,149.274z"/>
		</g>
	</g>
	<g>
		<g>
			<path fill="#FFFFFF" d="M67.257,141.854c1.197,0,1.197-1.854,0-1.854C66.062,140,66.062,141.854,67.257,141.854L67.257,141.854z"
				/>
		</g>
	</g>
	<g>
		<g>
			<path fill="#FFFFFF" d="M56.127,135.918c1.196,0,1.196-1.854,0-1.854C54.931,134.063,54.932,135.918,56.127,135.918
				L56.127,135.918z"/>
		</g>
	</g>
	<g>
		<g>
			<path fill="#FFFFFF" d="M69.977,122.314c1.197,0,1.197-1.854,0-1.854C68.782,120.459,68.782,122.314,69.977,122.314
				L69.977,122.314z"/>
		</g>
	</g>
	<g>
		<g>
			<path fill="#FFFFFF" d="M64.537,125.529c1.196,0,1.196-1.854,0-1.854C63.34,123.674,63.34,125.529,64.537,125.529L64.537,125.529
				z"/>
		</g>
	</g>
	<g>
		<g>
			<path fill="#FFFFFF" d="M58.601,128.746c1.196,0,1.196-1.855,0-1.855C57.405,126.891,57.405,128.746,58.601,128.746
				L58.601,128.746z"/>
		</g>
	</g>
	<g>
		<g>
			<path fill="#FFFFFF" d="M87.043,115.883c1.195,0,1.195-1.854,0-1.854C85.848,114.029,85.848,115.883,87.043,115.883
				L87.043,115.883z"/>
		</g>
	</g>
	<g>
		<g>
			<path fill="#FFFFFF" d="M85.559,122.809c1.196,0,1.196-1.854,0-1.854C84.363,120.955,84.364,122.809,85.559,122.809
				L85.559,122.809z"/>
		</g>
	</g>
</g>
<g>
	<path fill="#BFA27F" stroke="#132B3F" stroke-width="7.1997" stroke-miterlimit="10" d="M181.325,7.156
		c-18.917,0-34.253,15.335-34.253,34.253c0,18.917,15.336,34.253,34.253,34.253s34.253-15.336,34.253-34.253
		C215.578,22.491,200.242,7.156,181.325,7.156z"/>
	<ellipse fill="#EFE578" cx="203.285" cy="41.932" rx="4.131" ry="10.272"/>
</g>
<g>
	<path fill="#6D5D47" stroke="#132B3F" stroke-width="7.4682" stroke-miterlimit="10" d="M76.781,205.814
		c-19.622,0-35.529,15.908-35.529,35.532c0,19.622,15.906,35.529,35.529,35.529c19.623,0,35.531-15.907,35.531-35.529
		C112.312,221.722,96.404,205.814,76.781,205.814z M76.781,252.025c-5.899,0-10.681-4.781-10.681-10.68
		c0-5.9,4.781-10.682,10.681-10.682c5.9,0,10.681,4.781,10.681,10.682C87.462,247.244,82.68,252.025,76.781,252.025z"/>
	<g>
		<path fill="#FFFFFF" d="M104.075,264.091c1.566-1.878,2.942-3.92,4.098-6.097c-4.189,1.686-8.968,2.393-13.231,3.207
			c-7.381,1.41-14.81,2.57-22.114,4.359c-5.282,1.295-10.68,2.932-15.546,5.486c1.607,1.059,3.306,1.99,5.081,2.778
			c4.045-1.747,8.351-2.941,12.614-3.97c7.424-1.793,14.984-2.929,22.476-4.385C99.611,265.052,101.853,264.628,104.075,264.091z"/>
		<path fill="#FFFFFF" d="M97.52,247.175c-11.248,2.998-22.097,7.341-33.164,10.915c-4.688,1.516-9.447,2.979-14.32,3.78
			c-0.677,0.11-1.186,0.179-2.083,0.246c1.098,1.521,2.311,2.948,3.628,4.274c2.653-0.455,5.28-1.181,7.814-1.894
			c11.195-3.153,22.02-7.495,33.112-10.976c4.514-1.416,9.849-2.965,14.108-3.533c1.547-0.206,3.125-0.32,4.685-0.204
			c0.375-1.542,0.652-3.122,0.82-4.734C107.244,244.414,101.094,246.225,97.52,247.175z"/>
		<path fill="#FFFFFF" d="M85.884,206.995c-7.285,0.945-14.326,3.537-21.167,6.104c-5.311,1.992-10.56,4.139-15.829,6.237
			c-1.632,2.065-3.039,4.314-4.184,6.714c11.535-4.368,22.755-9.625,34.672-12.926c2.935-0.814,5.94-1.517,8.99-1.684
			c1.077-0.06,2.257-0.022,3.07,0.129c0.477,0.088,0.94,0.23,1.394,0.397c-0.333-0.123,0.824,0.575,0.694,0.431
			c0.126,0.11,0.246,0.232,0.359,0.354c0.01,0.011,0.016,0.016,0.024,0.025c0.062,0.092,0.119,0.187,0.174,0.284
			c-0.03,0.036-0.169,0.331-0.259,0.483c-0.005,0.005-0.007,0.007-0.013,0.013c-0.097,0.116-0.204,0.223-0.311,0.331
			c-0.206,0.211-0.43,0.404-0.657,0.592c0.155-0.139-0.658,0.469-0.831,0.581c-3.771,2.48-8.014,3.882-12.254,5.37
			c-5.698,2-11.479,3.763-17.232,5.601c-5.625,1.796-11.253,3.627-16.729,5.85c-1.212,0.491-2.442,0.999-3.659,1.544
			c-0.415,1.827-0.689,3.708-0.811,5.632c0.128-0.07,0.256-0.141,0.385-0.208c2.109-1.117,4.31-2.057,6.529-2.935
			c5.557-2.197,11.264-4.012,16.956-5.823c5.7-1.814,11.419-3.576,17.053-5.587c4.238-1.513,8.696-3.089,12.454-5.62
			c2.04-1.375,3.818-3.253,3.979-5.517C94.947,210.437,90.609,208.242,85.884,206.995z"/>
		<path fill="#FFFFFF" d="M74.516,232.684c-10.312,3.262-20.519,7.07-31.035,9.642c-0.729,0.178-1.462,0.34-2.197,0.494
			c0.064,1.588,0.233,3.147,0.499,4.676c3.746-0.691,7.427-1.82,11.061-2.923c5.393-1.64,10.742-3.429,16.101-5.179
			c10.13-3.305,21.089-7.162,31.335-8.519c1.89-0.25,3.802-0.395,5.708-0.302c0.324,0.016,0.65,0.045,0.974,0.081
			c-0.177-0.013,0.618,0.111,0.767,0.143c0.317,0.069,0.626,0.161,0.934,0.263c0.033,0.011,0.089,0.032,0.143,0.053
			c0.126,0.06,0.252,0.121,0.374,0.187c0.119,0.065,0.233,0.14,0.346,0.214c0.107,0.102,0.286,0.303,0.359,0.378
			c0.04,0.065,0.082,0.13,0.117,0.198c-0.038-0.046,0.064,0.234,0.141,0.472c0.007,0.071,0.016,0.173,0.023,0.272
			c-0.016,0.114-0.042,0.281-0.071,0.393c-0.051,0.1-0.106,0.197-0.164,0.293c-0.058,0.095-0.091,0.156-0.112,0.195
			c-0.03,0.022-0.09,0.079-0.208,0.206c-0.21,0.225-0.44,0.428-0.675,0.626c-0.008,0.005-0.012,0.008-0.018,0.014
			c-0.011,0.008-0.021,0.015-0.034,0.025c-0.141,0.104-0.286,0.201-0.431,0.297c-0.703,0.47-1.457,0.862-2.217,1.228
			c-1.458,0.699-3.431,1.374-5.367,1.964c-5.018,1.529-10.182,2.576-15.322,3.595c-11.046,2.19-22.319,3.813-33.094,7.172
			c-2.589,0.808-6.31,2.087-9.298,4.005c0.517,1.514,1.134,2.979,1.842,4.393c0.068-0.047,0.134-0.098,0.202-0.145
			c0.33-0.229,0.675-0.439,1.02-0.646c0.836-0.497,1.714-0.921,2.598-1.318c1.561-0.7,4.003-1.518,5.99-2.112
			c10.877-3.264,22.221-4.871,33.335-7.103c5.04-1.012,10.093-2.088,14.997-3.646c3.076-0.979,6.494-2.166,9.009-4.322
			c-0.393-4.142-1.497-8.075-3.188-11.679c-1.473-0.337-3.033-0.416-4.427-0.405c-4.582,0.037-9.19,1.045-13.625,2.113
			C85.38,229.306,79.934,230.97,74.516,232.684z"/>
	</g>
	<path fill="none" stroke="#132B3F" stroke-width="7.4682" stroke-miterlimit="10" d="M76.781,205.814
		c-19.622,0-35.529,15.908-35.529,35.532c0,19.622,15.906,35.529,35.529,35.529c19.623,0,35.531-15.907,35.531-35.529
		C112.312,221.722,96.404,205.814,76.781,205.814z"/>
	<circle fill="none" stroke="#132B3F" stroke-width="7.4682" stroke-miterlimit="10" cx="76.781" cy="241.344" r="10.681"/>
	<circle fill="#132B3F" cx="76.781" cy="241.344" r="10.681"/>
</g>
<g>
	<path fill="#BFA27F" stroke="#132B3F" stroke-width="7.4099" stroke-miterlimit="10" d="M151.982,239.643
		c19.469,0,35.251-15.784,35.251-35.253c0-19.471-15.782-35.254-35.251-35.254c-19.471,0-35.254,15.782-35.254,35.254
		C116.728,223.859,132.511,239.643,151.982,239.643z"/>
	<g>
		<g>
			<path fill="#EFE578" d="M140.634,189.482c-1.22,1.333-2.162,2.945-2.859,4.731c-0.65,1.67-1.085,3.493-1.334,5.382
				c-0.238,1.812-0.305,3.687-0.219,5.55c0.084,1.875,0.32,3.738,0.685,5.513c0.392,1.907,0.931,3.712,1.588,5.321
				c0.786,1.922,1.74,3.563,2.812,4.763c1.368,1.53,3.306,2.688,5.581,3.49c1.966,0.694,4.184,1.122,6.502,1.294
				c2.166,0.162,4.421,0.102,6.638-0.173c2.238-0.277,4.438-0.77,6.475-1.474c2.212-0.764,4.233-1.773,5.897-3.016
				c1.897-1.417,3.333-3.138,4.065-5.145c0.592-1.62,1.119-3.308,1.548-5.03c0.424-1.707,0.75-3.445,0.939-5.175
				c0.195-1.772,0.248-3.538,0.12-5.256c-0.132-1.782-0.458-3.515-1.02-5.15c-0.569-1.652-1.38-3.208-2.477-4.618
				c-1.025-1.318-2.301-2.511-3.864-3.541c-1.513-0.996-3.208-1.807-5.015-2.425c-1.729-0.594-3.561-1.013-5.434-1.252
				c-1.838-0.236-3.716-0.298-5.574-0.184c-1.876,0.115-3.731,0.409-5.505,0.887c-1.833,0.495-3.577,1.186-5.169,2.078
				C143.363,186.979,141.878,188.12,140.634,189.482z"/>
		</g>
	</g>
	<ellipse fill="#FFFFFF" cx="129.381" cy="203.849" rx="4.251" ry="10.573"/>
</g>
<g>
	<path fill="#EFCC9A" stroke="#132B3F" stroke-width="6.7794" stroke-miterlimit="10" d="M164.521,86.891
		c-17.813,0-32.253,14.44-32.253,32.254c0,17.813,14.44,32.253,32.253,32.253s32.253-14.44,32.253-32.253
		C196.773,101.331,182.334,86.891,164.521,86.891z M164.521,128.841c-5.355,0-9.696-4.341-9.696-9.696s4.341-9.696,9.696-9.696
		c5.356,0,9.696,4.34,9.696,9.696C174.217,124.5,169.877,128.841,164.521,128.841z"/>
	<path fill="#6D5D47" stroke="#132B3F" stroke-width="6.7794" stroke-miterlimit="10" d="M164.521,86.891
		c-17.813,0-32.253,14.44-32.253,32.254c0,17.813,14.44,32.253,32.253,32.253s32.253-14.44,32.253-32.253
		C196.773,101.331,182.334,86.891,164.521,86.891z"/>
	<g opacity="0.3">
		<g>
			<path fill="#FFFFFF" d="M181.056,98.536c-1.822-1.199-3.245-3.436-5.421-4.181c-2.083-0.714-4.608,0.152-6.861-0.137
				c-2.216-0.283-4.43-1.766-6.668-1.63c-2.259,0.139-4.266,1.883-6.402,2.458c-2.207,0.597-4.839,0.128-6.755,1.202
				c-1.989,1.114-2.909,3.581-4.408,5.221c-1.468,1.607-3.784,2.814-4.622,4.965c-0.785,2.011,0.05,4.555-0.249,6.832
				c-0.287,2.183-1.773,4.379-1.672,6.623c0.102,2.258,1.786,4.327,2.225,6.463c0.471,2.297-0.227,4.882,0.564,6.82
				c0.946,2.314,3.277,3.553,4.569,4.998c1.647,1.843,3.218,4.375,5.957,5.34c2.369,0.835,5.328-0.021,8.12,0.188
				c2.61,0.195,5.358,1.528,8.028,1.198c2.694-0.333,5.026-2.299,7.479-3.145c2.666-0.919,5.752-0.899,7.756-2.396
				c2.286-1.705,2.926-4.587,3.81-7.004c0.712-1.951,2.699-3.572,3.213-5.643c0.512-2.056-0.487-4.397-0.258-6.482
				c0.234-2.134,1.707-4.236,1.553-6.305c-0.158-2.146-1.925-3.95-2.603-5.919c-0.685-1.99-0.435-4.527-1.755-6.226
				C185.423,100.187,182.938,99.775,181.056,98.536z M164.521,127.472c-0.681,0-1.158-1.479-1.787-1.649
				c-0.649-0.174-1.803,0.862-2.373,0.532c-0.576-0.334-0.251-1.853-0.72-2.322c-0.469-0.468-1.989-0.143-2.323-0.719
				c-0.33-0.57,0.707-1.723,0.533-2.373c-0.169-0.628-1.649-1.105-1.649-1.787c0-0.681,1.48-1.159,1.649-1.787
				c0.174-0.649-0.862-1.803-0.533-2.372c0.334-0.577,1.854-0.251,2.323-0.72c0.469-0.468,0.144-1.989,0.72-2.323
				c0.57-0.33,1.724,0.707,2.373,0.533c0.629-0.169,1.106-1.65,1.787-1.65s1.159,1.481,1.787,1.65
				c0.649,0.174,1.802-0.862,2.372-0.533c0.576,0.335,0.251,1.854,0.72,2.323c0.468,0.469,1.988,0.144,2.322,0.72
				c0.33,0.569-0.707,1.724-0.532,2.372c0.168,0.628,1.648,1.106,1.648,1.787c0,0.681-1.48,1.159-1.648,1.787
				c-0.175,0.65,0.862,1.802,0.532,2.373c-0.334,0.576-1.854,0.251-2.322,0.719c-0.469,0.469-0.144,1.988-0.72,2.322
				c-0.57,0.33-1.723-0.707-2.373-0.532C165.678,125.992,165.201,127.472,164.521,127.472z"/>
		</g>
	</g>
	<circle fill="#1A3F6D" stroke="#132B3F" stroke-width="6.7794" stroke-miterlimit="10" cx="164.521" cy="119.145" r="9.696"/>
</g>
<path fill="#A09F9F" stroke="#1E416B" stroke-width="15" stroke-miterlimit="10" d="M322.116,80.356
	c-13.685,0-26.722,2.773-38.579,7.789c-14.482,6.125-29.925-37.001-39.921-25.156c-14.558,17.252-20.613,92.139-20.613,116.48
	c0,28.96,12.42,55.019,32.225,73.141c17.629,16.131,41.109,25.973,66.889,25.973c21.989,0,42.306-7.16,58.745-19.277
	c24.484-18.046,40.368-47.086,40.368-79.836c0-16.328,1.38-99.899-5.613-113.48c-8.098-15.725-25.606,39.163-40.47,29.732
	C359.811,85.99,341.622,80.356,322.116,80.356z"/>
<circle fill="#EFEFEF" stroke="#1E416B" stroke-width="15" stroke-miterlimit="10" cx="277.2" cy="143.003" r="11.795"/>
<circle fill="#EFEFEF" stroke="#1E416B" stroke-width="15" stroke-miterlimit="10" cx="359.434" cy="143.691" r="11.795"/>
<polyline fill="none" stroke="#E9E8E9" stroke-width="5" stroke-linecap="round" stroke-miterlimit="10" points="323.616,197.988 
	375.616,197.988 396.616,218.988 "/>
<polyline fill="none" stroke="#E9E8E9" stroke-width="5" stroke-linecap="round" stroke-miterlimit="10" points="287.616,194.988 
	246.301,194.988 229.616,208.988 "/>
<line fill="none" stroke="#1E416B" stroke-width="9.4166" stroke-miterlimit="10" x1="305.956" y1="189.244" x2="305.956" y2="240.988"/>
<path fill="#E788B2" d="M307.411,165.193c6.514,0,15.205,3.281,15.205,9.795s-10.486,20-17,20s-15-13.486-15-20
	S300.897,165.193,307.411,165.193z"/>
<path fill="#707179" d="M409.616,82.988c0,0-8,30-14,31s4-1,11,7S409.616,82.988,409.616,82.988z"/>
<path fill="#707179" d="M248.914,68.988c0,0,8,30,14,31s-4-1-11,7S248.914,68.988,248.914,68.988z"/>
<polyline fill="none" stroke="#E9E8E9" stroke-width="5" stroke-linecap="round" stroke-miterlimit="10" points="322.116,214.988 
	369.164,214.988 388.164,237.988 "/>
<polyline fill="none" stroke="#E9E8E9" stroke-width="5" stroke-linecap="round" stroke-miterlimit="10" points="291.616,210.488 
	255.999,210.488 241.616,231.488 "/>
<path fill="#E9E8E9" d="M273.284,355.656c-6.809,17.8-10.168,41.332,6.666,49.333c6.88,3.27,9.166,5.499,24.166,8.499
	c9.886,1.978,18.527,1.257,27.834-0.832c34.166-7.668,30.959-34.498,25.666-55.668c-4-16-3.896-37.817-41-40
	C291.116,315.488,280.616,336.488,273.284,355.656z"/>
<path fill="#E788B2" d="M322.319,223.423c4.871-4.325,13.549-7.642,17.874-2.771c4.324,4.871,5.437,21.918,0.566,26.242
	c-4.871,4.325-20.171-0.125-24.496-4.996C311.938,237.027,317.449,227.748,322.319,223.423z"/>
<path fill="none" stroke="#1E416B" stroke-width="13.2332" stroke-linecap="round" stroke-miterlimit="10" d="M358.616,227.988
	c0,11.043-18.131,19.994-40.499,19.994c-22.367,0-40.501-8.95-40.501-19.994"/>
<path fill="#E9E8E9" stroke="#132B3F" stroke-width="7" stroke-linejoin="round" stroke-miterlimit="10" d="M104.116,288.488l5.5,69
	c0,0,12.5,10.5,38.5,10.5s40.5-11,40.5-11l7-68"/>
<path fill="#E1E6E8" stroke="#132B3F" stroke-width="7" stroke-miterlimit="10" d="M149.982,299.488
	c25.82,0,46.75-6.907,46.75-15.427s-20.93-15.427-46.75-15.427c-25.822,0-46.754,6.906-46.754,15.427
	C103.228,292.581,124.16,299.488,149.982,299.488z"/>
<path fill="#584339" d="M186.733,297.062c0-8.52-15.782-15.427-35.251-15.427c-19.471,0-35.254,6.906-35.254,15.427"/>
<path fill="none" stroke="#132B3F" stroke-width="7" stroke-miterlimit="10" d="M150.482,298.988c25.82,0,46.75-6.907,46.75-15.427
	s-20.93-15.427-46.75-15.427c-25.822,0-46.754,6.906-46.754,15.427C103.728,292.081,124.66,298.988,150.482,298.988z"/>
<path fill="none" stroke="#FFFFFF" stroke-width="3" stroke-linecap="round" stroke-linejoin="round" stroke-miterlimit="10" d="
	M141.116,246.488c0,0-10-0.5-10,7.5s11,1.5,11.5,9.5c0.593,9.481-13,4.412-13,11.5c0,6,12.993,5.654,11.5,12"/>
<path fill="none" stroke="#FFFFFF" stroke-width="3" stroke-linecap="round" stroke-linejoin="round" stroke-miterlimit="10" d="
	M155.116,247.488c0,0-10-0.5-10,7.5s11,1.5,11.5,9.5c0.593,9.481-13,4.412-13,11.5c0,6,12.993,5.654,11.5,12"/>
<image overflow="visible" width="700" height="700" xlink:href="logo.png"  transform="matrix(0.0766 0 0 0.0766 123.5005 305.8848)">
</image>
</svg>
