<?xml version="1.0" encoding="utf-8"?>
<!-- Generator: Adobe Illustrator 16.0.4, SVG Export Plug-In . SVG Version: 6.00 Build 0)  -->
<!DOCTYPE svg PUBLIC "-//W3C//DTD SVG 1.1//EN" "http://www.w3.org/Graphics/SVG/1.1/DTD/svg11.dtd">
<svg version="1.1" id="Layer_1" xmlns="http://www.w3.org/2000/svg" xmlns:xlink="http://www.w3.org/1999/xlink" x="0px" y="0px"
	 width="530.231px" height="476.977px" viewBox="0 0 530.231 476.977" enable-background="new 0 0 530.231 476.977"
	 xml:space="preserve">
<ellipse fill="#B7E5CF" cx="265.06" cy="252.232" rx="231.887" ry="226.843"/>
<g>
	<g>
		<path fill="none" stroke="#F7F7F7" stroke-miterlimit="10" d="M-1188.341-240.854"/>
	</g>
</g>
<g>
	<g>
		<path fill="none" stroke="#FFFFFF" stroke-miterlimit="10" d="M-1190.091-205.604"/>
	</g>
</g>
<g>
	<g>
		<path fill="none" stroke="#FFFFFF" stroke-miterlimit="10" d="M-1218.841-194.354"/>
	</g>
</g>
<g>
	<g>
		<path fill="none" stroke="#FFFFFF" stroke-miterlimit="10" d="M-1179.591-219.104"/>
	</g>
</g>
<g>
	<g>
		<path fill="none" stroke="#FFFFFF" stroke-width="7" stroke-miterlimit="10" d="M-1194.841-226.104"/>
	</g>
</g>
<g>
	<g>
		<path fill="none" stroke="#FFFFFF" stroke-width="7" stroke-miterlimit="10" d="M-1194.841-226.104"/>
	</g>
</g>
<g>
	<g>
		<path fill="none" stroke="#FFFFFF" stroke-width="7" stroke-miterlimit="10" d="M-1194.841-226.104"/>
	</g>
</g>
<g>
	<g>
		<path fill="none" stroke="#FFFFFF" stroke-width="7" stroke-miterlimit="10" d="M-1194.841-226.104"/>
	</g>
</g>
<g>
	<g>
		<path fill="#FFFFFF" d="M-1177.841-188.354c3.225,0,3.225-5,0-5C-1181.066-193.354-1181.065-188.354-1177.841-188.354
			L-1177.841-188.354z"/>
	</g>
</g>
<g>
	<path fill="#6D5D47" stroke="#132B3F" stroke-width="7.2806" stroke-miterlimit="10" d="M100.567,74.181
		c-19.13,0-34.638,15.507-34.638,34.638c0,19.13,15.507,34.639,34.638,34.639c19.13,0,34.639-15.508,34.639-34.639
		C135.206,89.688,119.698,74.181,100.567,74.181z M100.567,119.232c-5.751,0-10.414-4.661-10.414-10.413
		c0-5.751,4.662-10.413,10.414-10.413c5.751,0,10.414,4.662,10.414,10.413C110.981,114.571,106.318,119.232,100.567,119.232z"/>
	<g>
		<g>
			<path fill="#FFFFFF" d="M86.044,87.026c1.197,0,1.197-1.855,0-1.855C84.848,85.171,84.849,87.026,86.044,87.026L86.044,87.026z"
				/>
		</g>
	</g>
	<g>
		<g>
			<path fill="#FFFFFF" d="M85.055,93.704c1.196,0,1.196-1.854,0-1.854C83.858,91.849,83.859,93.704,85.055,93.704L85.055,93.704z"
				/>
		</g>
	</g>
	<g>
		<g>
			<path fill="#FFFFFF" d="M103.852,88.511c1.196,0,1.196-1.855,0-1.855S102.657,88.511,103.852,88.511L103.852,88.511z"/>
		</g>
	</g>
	<g>
		<g>
			<path fill="#FFFFFF" d="M92.228,93.209c1.196,0,1.196-1.855,0-1.855C91.032,91.354,91.032,93.209,92.228,93.209L92.228,93.209z"
				/>
		</g>
	</g>
	<g>
		<g>
			<path fill="#FFFFFF" d="M92.228,88.015c1.196,0,1.196-1.854,0-1.854C91.032,86.16,91.032,88.015,92.228,88.015L92.228,88.015z"/>
		</g>
	</g>
	<g>
		<g>
			<path fill="#FFFFFF" d="M100.39,81.338c1.197,0,1.197-1.854,0-1.854C99.193,79.483,99.194,81.338,100.39,81.338L100.39,81.338z"
				/>
		</g>
	</g>
	<g>
		<g>
			<path fill="#FFFFFF" d="M94.701,81.584c1.196,0,1.196-1.855,0-1.855C93.504,79.729,93.505,81.584,94.701,81.584L94.701,81.584z"
				/>
		</g>
	</g>
	<g>
		<g>
			<path fill="#FFFFFF" d="M99.153,85.789c1.197,0,1.197-1.855,0-1.855C97.958,83.934,97.958,85.789,99.153,85.789L99.153,85.789z"
				/>
		</g>
	</g>
	<g>
		<g>
			<path fill="#FFFFFF" d="M98.411,91.478c1.196,0,1.196-1.854,0-1.854S97.215,91.478,98.411,91.478L98.411,91.478z"/>
		</g>
	</g>
	<g>
		<g>
			<path fill="#FFFFFF" d="M81.346,90.489c1.196,0,1.196-1.855,0-1.855C80.149,88.634,80.149,90.489,81.346,90.489L81.346,90.489z"
				/>
		</g>
	</g>
	<g>
		<g>
			<path fill="#FFFFFF" d="M78.624,98.403c1.197,0,1.197-1.854,0-1.854C77.428,96.549,77.428,98.403,78.624,98.403L78.624,98.403z"
				/>
		</g>
	</g>
	<g>
		<g>
			<path fill="#FFFFFF" d="M84.312,100.876c1.197,0,1.197-1.855,0-1.855C83.117,99.021,83.117,100.876,84.312,100.876
				L84.312,100.876z"/>
		</g>
	</g>
	<g>
		<g>
			<path fill="#FFFFFF" d="M74.172,107.555c1.197,0,1.197-1.854,0-1.854C72.976,105.7,72.977,107.555,74.172,107.555L74.172,107.555
				z"/>
		</g>
	</g>
	<g>
		<g>
			<path fill="#FFFFFF" d="M78.872,105.328c1.196,0,1.196-1.854,0-1.854S77.675,105.328,78.872,105.328L78.872,105.328z"/>
		</g>
	</g>
	<g>
		<g>
			<path fill="#FFFFFF" d="M73.925,101.866c1.196,0,1.196-1.854,0-1.854C72.728,100.012,72.729,101.866,73.925,101.866
				L73.925,101.866z"/>
		</g>
	</g>
	<g>
		<g>
			<path fill="#FFFFFF" d="M77.635,94.198c1.196,0,1.196-1.854,0-1.854S76.438,94.198,77.635,94.198L77.635,94.198z"/>
		</g>
	</g>
	<g>
		<g>
			<path fill="#FFFFFF" d="M83.818,107.802c1.196,0,1.196-1.854,0-1.854S82.623,107.802,83.818,107.802L83.818,107.802z"/>
		</g>
	</g>
	<g>
		<g>
			<path fill="#FFFFFF" d="M80.85,113.738c1.197,0,1.197-1.855,0-1.855C79.654,111.883,79.655,113.738,80.85,113.738L80.85,113.738z
				"/>
		</g>
	</g>
	<g>
		<g>
			<path fill="#FFFFFF" d="M75.408,112.501c1.197,0,1.197-1.854,0-1.854C74.212,110.646,74.212,112.501,75.408,112.501
				L75.408,112.501z"/>
		</g>
	</g>
	<g>
		<g>
			<path fill="#FFFFFF" d="M74.667,119.427c1.197,0,1.197-1.855,0-1.855C73.47,117.572,73.471,119.427,74.667,119.427
				L74.667,119.427z"/>
		</g>
	</g>
	<g>
		<g>
			<path fill="#FFFFFF" d="M79.119,119.427c1.197,0,1.197-1.855,0-1.855C77.923,117.572,77.923,119.427,79.119,119.427
				L79.119,119.427z"/>
		</g>
	</g>
	<g>
		<g>
			<path fill="#FFFFFF" d="M85.55,119.427c1.197,0,1.197-1.855,0-1.855C84.354,117.572,84.354,119.427,85.55,119.427L85.55,119.427z
				"/>
		</g>
	</g>
	<g>
		<g>
			<path fill="#FFFFFF" d="M84.066,115.221c1.196,0,1.196-1.854,0-1.854S82.87,115.221,84.066,115.221L84.066,115.221z"/>
		</g>
	</g>
	<g>
		<g>
			<path fill="#FFFFFF" d="M82.334,126.6c1.196,0,1.196-1.854,0-1.854C81.138,124.745,81.139,126.6,82.334,126.6L82.334,126.6z"/>
		</g>
	</g>
	<g>
		<g>
			<path fill="#FFFFFF" d="M77.388,125.609c1.196,0,1.196-1.855,0-1.855C76.191,123.754,76.191,125.609,77.388,125.609
				L77.388,125.609z"/>
		</g>
	</g>
	<g>
		<g>
			<path fill="#FFFFFF" d="M81.346,122.147c1.196,0,1.196-1.854,0-1.854C80.149,120.293,80.149,122.147,81.346,122.147
				L81.346,122.147z"/>
		</g>
	</g>
	<g>
		<g>
			<path fill="#FFFFFF" d="M86.787,124.374c1.196,0,1.196-1.855,0-1.855S85.59,124.374,86.787,124.374L86.787,124.374z"/>
		</g>
	</g>
	<g>
		<g>
			<path fill="#FFFFFF" d="M89.259,122.89c1.196,0,1.196-1.855,0-1.855S88.063,122.89,89.259,122.89L89.259,122.89z"/>
		</g>
	</g>
	<g>
		<g>
			<path fill="#FFFFFF" d="M92.475,127.094c1.197,0,1.197-1.854,0-1.854C91.279,125.239,91.279,127.094,92.475,127.094
				L92.475,127.094z"/>
		</g>
	</g>
	<g>
		<g>
			<path fill="#FFFFFF" d="M89.259,134.266c1.196,0,1.196-1.854,0-1.854S88.063,134.266,89.259,134.266L89.259,134.266z"/>
		</g>
	</g>
	<g>
		<g>
			<path fill="#FFFFFF" d="M88.765,129.567c1.196,0,1.196-1.855,0-1.855C87.569,127.712,87.569,129.567,88.765,129.567
				L88.765,129.567z"/>
		</g>
	</g>
	<g>
		<g>
			<path fill="#FFFFFF" d="M83.57,131.051c1.196,0,1.196-1.854,0-1.854S82.375,131.051,83.57,131.051L83.57,131.051z"/>
		</g>
	</g>
	<g>
		<g>
			<path fill="#FFFFFF" d="M93.216,136.988c1.196,0,1.196-1.855,0-1.855C92.021,135.133,92.021,136.988,93.216,136.988
				L93.216,136.988z"/>
		</g>
	</g>
	<g>
		<g>
			<path fill="#FFFFFF" d="M93.216,133.277c1.196,0,1.196-1.854,0-1.854C92.021,131.423,92.021,133.277,93.216,133.277
				L93.216,133.277z"/>
		</g>
	</g>
	<g>
		<g>
			<path fill="#FFFFFF" d="M99.4,133.03c1.196,0,1.196-1.854,0-1.854S98.204,133.03,99.4,133.03L99.4,133.03z"/>
		</g>
	</g>
	<g>
		<g>
			<path fill="#FFFFFF" d="M96.433,131.298c1.196,0,1.196-1.854,0-1.854C95.236,129.444,95.236,131.298,96.433,131.298
				L96.433,131.298z"/>
		</g>
	</g>
	<g>
		<g>
			<path fill="#FFFFFF" d="M99.648,128.826c1.196,0,1.196-1.855,0-1.855C98.452,126.971,98.452,128.826,99.648,128.826
				L99.648,128.826z"/>
		</g>
	</g>
	<g>
		<g>
			<path fill="#FFFFFF" d="M105.089,132.04c1.196,0,1.196-1.854,0-1.854C103.893,130.186,103.893,132.04,105.089,132.04
				L105.089,132.04z"/>
		</g>
	</g>
	<g>
		<g>
			<path fill="#FFFFFF" d="M102.616,136.988c1.197,0,1.197-1.855,0-1.855C101.419,135.133,101.42,136.988,102.616,136.988
				L102.616,136.988z"/>
		</g>
	</g>
	<g>
		<g>
			<path fill="#FFFFFF" d="M97.422,137.482c1.196,0,1.196-1.854,0-1.854C96.225,135.628,96.226,137.482,97.422,137.482
				L97.422,137.482z"/>
		</g>
	</g>
	<g>
		<g>
			<path fill="#FFFFFF" d="M103.852,128.33c1.196,0,1.196-1.854,0-1.854S102.657,128.33,103.852,128.33L103.852,128.33z"/>
		</g>
	</g>
	<g>
		<g>
			<path fill="#FFFFFF" d="M110.036,128.33c1.196,0,1.196-1.854,0-1.854S108.84,128.33,110.036,128.33L110.036,128.33z"/>
		</g>
	</g>
	<g>
		<g>
			<path fill="#FFFFFF" d="M110.036,133.03c1.196,0,1.196-1.854,0-1.854S108.84,133.03,110.036,133.03L110.036,133.03z"/>
		</g>
	</g>
	<g>
		<g>
			<path fill="#FFFFFF" d="M107.315,137.729c1.196,0,1.196-1.855,0-1.855S106.119,137.729,107.315,137.729L107.315,137.729z"/>
		</g>
	</g>
	<g>
		<g>
			<path fill="#FFFFFF" d="M112.757,135.998c1.196,0,1.196-1.855,0-1.855C111.561,134.143,111.561,135.998,112.757,135.998
				L112.757,135.998z"/>
		</g>
	</g>
	<g>
		<g>
			<path fill="#FFFFFF" d="M115.972,133.772c1.197,0,1.197-1.854,0-1.854C114.775,131.917,114.775,133.772,115.972,133.772
				L115.972,133.772z"/>
		</g>
	</g>
	<g>
		<g>
			<path fill="#FFFFFF" d="M113.746,130.557c1.196,0,1.196-1.854,0-1.854C112.55,128.702,112.551,130.557,113.746,130.557
				L113.746,130.557z"/>
		</g>
	</g>
	<g>
		<g>
			<path fill="#FFFFFF" d="M113.251,126.6c1.196,0,1.196-1.854,0-1.854S112.055,126.6,113.251,126.6L113.251,126.6z"/>
		</g>
	</g>
	<g>
		<g>
			<path fill="#FFFFFF" d="M113.746,123.631c1.196,0,1.196-1.854,0-1.854C112.55,121.777,112.551,123.631,113.746,123.631
				L113.746,123.631z"/>
		</g>
	</g>
	<g>
		<g>
			<path fill="#FFFFFF" d="M110.777,124.126c1.197,0,1.197-1.855,0-1.855C109.582,122.271,109.583,124.126,110.777,124.126
				L110.777,124.126z"/>
		</g>
	</g>
	<g>
		<g>
			<path fill="#FFFFFF" d="M106.325,125.857c1.197,0,1.197-1.854,0-1.854C105.13,124.003,105.13,125.857,106.325,125.857
				L106.325,125.857z"/>
		</g>
	</g>
	<g>
		<g>
			<path fill="#FFFFFF" d="M96.68,126.352c1.196,0,1.196-1.854,0-1.854S95.483,126.352,96.68,126.352L96.68,126.352z"/>
		</g>
	</g>
	<g>
		<g>
			<path fill="#FFFFFF" d="M89.013,99.146c1.196,0,1.196-1.855,0-1.855C87.816,97.291,87.817,99.146,89.013,99.146L89.013,99.146z"
				/>
		</g>
	</g>
	<g>
		<g>
			<path fill="#FFFFFF" d="M89.755,91.478c1.196,0,1.196-1.854,0-1.854C88.558,89.623,88.558,91.478,89.755,91.478L89.755,91.478z"
				/>
		</g>
	</g>
	<g>
		<g>
			<path fill="#FFFFFF" d="M90.002,84.305c1.196,0,1.196-1.854,0-1.854S88.806,84.305,90.002,84.305L90.002,84.305z"/>
		</g>
	</g>
	<g>
		<g>
			<path fill="#FFFFFF" d="M116.962,107.307c1.196,0,1.196-1.855,0-1.855C115.765,105.452,115.765,107.307,116.962,107.307
				L116.962,107.307z"/>
		</g>
	</g>
	<g>
		<g>
			<path fill="#FFFFFF" d="M115.725,100.876c1.196,0,1.196-1.855,0-1.855C114.529,99.021,114.529,100.876,115.725,100.876
				L115.725,100.876z"/>
		</g>
	</g>
	<g>
		<g>
			<path fill="#FFFFFF" d="M111.521,97.661c1.196,0,1.196-1.855,0-1.855C110.325,95.806,110.325,97.661,111.521,97.661
				L111.521,97.661z"/>
		</g>
	</g>
	<g>
		<g>
			<path fill="#FFFFFF" d="M106.82,95.188c1.197,0,1.197-1.855,0-1.855C105.625,93.333,105.625,95.188,106.82,95.188L106.82,95.188z
				"/>
		</g>
	</g>
	<g>
		<g>
			<path fill="#FFFFFF" d="M106.82,91.231c1.197,0,1.197-1.855,0-1.855C105.625,89.376,105.625,91.231,106.82,91.231L106.82,91.231z
				"/>
		</g>
	</g>
	<g>
		<g>
			<path fill="#FFFFFF" d="M103.358,93.951c1.196,0,1.196-1.854,0-1.854C102.163,92.097,102.163,93.951,103.358,93.951
				L103.358,93.951z"/>
		</g>
	</g>
	<g>
		<g>
			<path fill="#FFFFFF" d="M105.831,82.821c1.196,0,1.196-1.855,0-1.855S104.634,82.821,105.831,82.821L105.831,82.821z"/>
		</g>
	</g>
	<g>
		<g>
			<path fill="#FFFFFF" d="M107.81,86.778c1.196,0,1.196-1.854,0-1.854C106.613,84.923,106.613,86.778,107.81,86.778L107.81,86.778z
				"/>
		</g>
	</g>
	<g>
		<g>
			<path fill="#FFFFFF" d="M110.036,83.811c1.196,0,1.196-1.854,0-1.854S108.84,83.811,110.036,83.811L110.036,83.811z"/>
		</g>
	</g>
	<g>
		<g>
			<path fill="#FFFFFF" d="M114.24,85.294c1.197,0,1.197-1.854,0-1.854C113.044,83.44,113.044,85.294,114.24,85.294L114.24,85.294z"
				/>
		</g>
	</g>
	<g>
		<g>
			<path fill="#FFFFFF" d="M119.682,131.298c1.196,0,1.196-1.854,0-1.854C118.486,129.444,118.486,131.298,119.682,131.298
				L119.682,131.298z"/>
		</g>
	</g>
	<g>
		<g>
			<path fill="#FFFFFF" d="M119.435,128.083c1.196,0,1.196-1.855,0-1.855C118.238,126.228,118.238,128.083,119.435,128.083
				L119.435,128.083z"/>
		</g>
	</g>
	<g>
		<g>
			<path fill="#FFFFFF" d="M119.435,121.652c1.196,0,1.196-1.855,0-1.855C118.238,119.797,118.238,121.652,119.435,121.652
				L119.435,121.652z"/>
		</g>
	</g>
	<g>
		<g>
			<path fill="#FFFFFF" d="M116.962,125.609c1.196,0,1.196-1.855,0-1.855C115.765,123.754,115.765,125.609,116.962,125.609
				L116.962,125.609z"/>
		</g>
	</g>
	<g>
		<g>
			<path fill="#FFFFFF" d="M116.962,120.664c1.196,0,1.196-1.855,0-1.855C115.765,118.809,115.765,120.664,116.962,120.664
				L116.962,120.664z"/>
		</g>
	</g>
	<g>
		<g>
			<path fill="#FFFFFF" d="M116.962,115.964c1.196,0,1.196-1.855,0-1.855C115.765,114.109,115.765,115.964,116.962,115.964
				L116.962,115.964z"/>
		</g>
	</g>
	<g>
		<g>
			<path fill="#FFFFFF" d="M113.499,119.427c1.196,0,1.196-1.855,0-1.855C112.302,117.572,112.303,119.427,113.499,119.427
				L113.499,119.427z"/>
		</g>
	</g>
	<g>
		<g>
			<path fill="#FFFFFF" d="M101.132,125.609c1.196,0,1.196-1.855,0-1.855S99.936,125.609,101.132,125.609L101.132,125.609z"/>
		</g>
	</g>
	<g>
		<g>
			<path fill="#FFFFFF" d="M92.723,123.878c1.197,0,1.197-1.854,0-1.854C91.526,122.024,91.526,123.878,92.723,123.878
				L92.723,123.878z"/>
		</g>
	</g>
	<g>
		<g>
			<path fill="#FFFFFF" d="M82.829,97.414c1.196,0,1.196-1.855,0-1.855S81.633,97.414,82.829,97.414L82.829,97.414z"/>
		</g>
	</g>
	<g>
		<g>
			<path fill="#FFFFFF" d="M78.624,110.028c1.197,0,1.197-1.855,0-1.855C77.428,108.173,77.428,110.028,78.624,110.028
				L78.624,110.028z"/>
		</g>
	</g>
	<g>
		<g>
			<path fill="#FFFFFF" d="M77.141,116.706c1.196,0,1.196-1.854,0-1.854C75.944,114.852,75.944,116.706,77.141,116.706
				L77.141,116.706z"/>
		</g>
	</g>
	<g>
		<g>
			<path fill="#FFFFFF" d="M71.947,115.964c1.196,0,1.196-1.855,0-1.855C70.75,114.109,70.751,115.964,71.947,115.964
				L71.947,115.964z"/>
		</g>
	</g>
	<g>
		<g>
			<path fill="#FFFFFF" d="M71.947,110.275c1.196,0,1.196-1.854,0-1.854C70.75,108.42,70.751,110.275,71.947,110.275L71.947,110.275
				z"/>
		</g>
	</g>
	<g>
		<g>
			<path fill="#FFFFFF" d="M123.639,125.857c1.197,0,1.197-1.854,0-1.854C122.443,124.003,122.443,125.857,123.639,125.857
				L123.639,125.857z"/>
		</g>
	</g>
	<g>
		<g>
			<path fill="#FFFFFF" d="M123.639,123.136c1.197,0,1.197-1.854,0-1.854C122.443,121.282,122.443,123.136,123.639,123.136
				L123.639,123.136z"/>
		</g>
	</g>
	<g>
		<g>
			<path fill="#FFFFFF" d="M123.144,118.932c1.196,0,1.196-1.855,0-1.855S121.948,118.932,123.144,118.932L123.144,118.932z"/>
		</g>
	</g>
	<g>
		<g>
			<path fill="#FFFFFF" d="M119.929,117.942c1.196,0,1.196-1.854,0-1.854C118.733,116.087,118.733,117.942,119.929,117.942
				L119.929,117.942z"/>
		</g>
	</g>
	<g>
		<g>
			<path fill="#FFFFFF" d="M119.929,112.996c1.196,0,1.196-1.854,0-1.854C118.733,111.142,118.733,112.996,119.929,112.996
				L119.929,112.996z"/>
		</g>
	</g>
	<g>
		<g>
			<path fill="#FFFFFF" d="M116.962,110.77c1.196,0,1.196-1.855,0-1.855C115.765,108.915,115.765,110.77,116.962,110.77
				L116.962,110.77z"/>
		</g>
	</g>
	<g>
		<g>
			<path fill="#FFFFFF" d="M120.423,110.77c1.197,0,1.197-1.855,0-1.855C119.228,108.915,119.228,110.77,120.423,110.77
				L120.423,110.77z"/>
		</g>
	</g>
	<g>
		<g>
			<path fill="#FFFFFF" d="M120.423,105.576c1.197,0,1.197-1.854,0-1.854C119.228,103.722,119.228,105.576,120.423,105.576
				L120.423,105.576z"/>
		</g>
	</g>
	<g>
		<g>
			<path fill="#FFFFFF" d="M118.693,103.35c1.196,0,1.196-1.854,0-1.854C117.496,101.496,117.496,103.35,118.693,103.35
				L118.693,103.35z"/>
		</g>
	</g>
	<g>
		<g>
			<path fill="#FFFFFF" d="M115.972,97.909c1.197,0,1.197-1.855,0-1.855C114.775,96.054,114.775,97.909,115.972,97.909
				L115.972,97.909z"/>
		</g>
	</g>
	<g>
		<g>
			<path fill="#FFFFFF" d="M114.487,94.941c1.197,0,1.197-1.855,0-1.855C113.292,93.086,113.292,94.941,114.487,94.941
				L114.487,94.941z"/>
		</g>
	</g>
	<g>
		<g>
			<path fill="#FFFFFF" d="M110.531,92.962c1.197,0,1.197-1.854,0-1.854C109.334,91.108,109.334,92.962,110.531,92.962
				L110.531,92.962z"/>
		</g>
	</g>
	<g>
		<g>
			<path fill="#FFFFFF" d="M110.777,89.993c1.197,0,1.197-1.854,0-1.854C109.582,88.139,109.583,89.993,110.777,89.993
				L110.777,89.993z"/>
		</g>
	</g>
	<g>
		<g>
			<path fill="#FFFFFF" d="M114.487,89.993c1.197,0,1.197-1.854,0-1.854C113.292,88.139,113.292,89.993,114.487,89.993
				L114.487,89.993z"/>
		</g>
	</g>
	<g>
		<g>
			<path fill="#FFFFFF" d="M118.197,90.241c1.197,0,1.197-1.855,0-1.855C117.001,88.386,117.002,90.241,118.197,90.241
				L118.197,90.241z"/>
		</g>
	</g>
	<g>
		<g>
			<path fill="#FFFFFF" d="M118.197,86.531c1.197,0,1.197-1.854,0-1.854C117.001,84.677,117.002,86.531,118.197,86.531
				L118.197,86.531z"/>
		</g>
	</g>
	<g>
		<g>
			<path fill="#FFFFFF" d="M126.607,121.158c1.197,0,1.197-1.854,0-1.854C125.411,119.304,125.411,121.158,126.607,121.158
				L126.607,121.158z"/>
		</g>
	</g>
	<g>
		<g>
			<path fill="#FFFFFF" d="M126.855,117.696c1.196,0,1.196-1.855,0-1.855S125.659,117.696,126.855,117.696L126.855,117.696z"/>
		</g>
	</g>
	<g>
		<g>
			<path fill="#FFFFFF" d="M123.887,115.469c1.196,0,1.196-1.854,0-1.854C122.69,113.614,122.69,115.469,123.887,115.469
				L123.887,115.469z"/>
		</g>
	</g>
	<g>
		<g>
			<path fill="#FFFFFF" d="M123.887,111.018c1.196,0,1.196-1.854,0-1.854C122.69,109.163,122.69,111.018,123.887,111.018
				L123.887,111.018z"/>
		</g>
	</g>
	<g>
		<g>
			<path fill="#FFFFFF" d="M127.35,113.49c1.196,0,1.196-1.854,0-1.854C126.152,111.636,126.153,113.49,127.35,113.49L127.35,113.49
				z"/>
		</g>
	</g>
	<g>
		<g>
			<path fill="#FFFFFF" d="M129.081,109.286c1.195,0,1.195-1.854,0-1.854C127.885,107.431,127.885,109.286,129.081,109.286
				L129.081,109.286z"/>
		</g>
	</g>
	<g>
		<g>
			<path fill="#FFFFFF" d="M126.112,107.555c1.196,0,1.196-1.854,0-1.854C124.917,105.7,124.917,107.555,126.112,107.555
				L126.112,107.555z"/>
		</g>
	</g>
	<g>
		<g>
			<path fill="#FFFFFF" d="M122.651,107.307c1.196,0,1.196-1.855,0-1.855C121.455,105.452,121.455,107.307,122.651,107.307
				L122.651,107.307z"/>
		</g>
	</g>
	<g>
		<g>
			<path fill="#FFFFFF" d="M122.403,102.36c1.196,0,1.196-1.854,0-1.854S121.207,102.36,122.403,102.36L122.403,102.36z"/>
		</g>
	</g>
	<g>
		<g>
			<path fill="#FFFFFF" d="M119.435,99.887c1.196,0,1.196-1.854,0-1.854C118.238,98.033,118.238,99.887,119.435,99.887
				L119.435,99.887z"/>
		</g>
	</g>
	<g>
		<g>
			<path fill="#FFFFFF" d="M118.94,96.672c1.196,0,1.196-1.854,0-1.854S117.744,96.672,118.94,96.672L118.94,96.672z"/>
		</g>
	</g>
	<g>
		<g>
			<path fill="#FFFFFF" d="M118.197,94.198c1.197,0,1.197-1.854,0-1.854C117.001,92.344,117.002,94.198,118.197,94.198
				L118.197,94.198z"/>
		</g>
	</g>
	<g>
		<g>
			<path fill="#FFFFFF" d="M121.167,92.714c1.196,0,1.196-1.854,0-1.854C119.97,90.86,119.97,92.714,121.167,92.714L121.167,92.714z
				"/>
		</g>
	</g>
	<g>
		<g>
			<path fill="#FFFFFF" d="M129.081,104.834c1.195,0,1.195-1.855,0-1.855C127.885,102.979,127.885,104.834,129.081,104.834
				L129.081,104.834z"/>
		</g>
	</g>
	<g>
		<g>
			<path fill="#FFFFFF" d="M128.339,101.619c1.196,0,1.196-1.855,0-1.855S127.143,101.619,128.339,101.619L128.339,101.619z"/>
		</g>
	</g>
	<g>
		<g>
			<path fill="#FFFFFF" d="M126.855,97.909c1.196,0,1.196-1.855,0-1.855S125.659,97.909,126.855,97.909L126.855,97.909z"/>
		</g>
	</g>
	<g>
		<g>
			<path fill="#FFFFFF" d="M125.123,94.693c1.197,0,1.197-1.854,0-1.854C123.927,92.838,123.927,94.693,125.123,94.693
				L125.123,94.693z"/>
		</g>
	</g>
	<g>
		<g>
			<path fill="#FFFFFF" d="M122.651,96.919c1.196,0,1.196-1.854,0-1.854C121.455,95.064,121.455,96.919,122.651,96.919
				L122.651,96.919z"/>
		</g>
	</g>
	<g>
		<g>
			<path fill="#FFFFFF" d="M125.618,104.092c1.197,0,1.197-1.855,0-1.855C124.422,102.237,124.422,104.092,125.618,104.092
				L125.618,104.092z"/>
		</g>
	</g>
	<g>
		<g>
			<path fill="#FFFFFF" d="M124.876,100.629c1.196,0,1.196-1.854,0-1.854C123.678,98.775,123.681,100.629,124.876,100.629
				L124.876,100.629z"/>
		</g>
	</g>
	<g>
		<g>
			<path fill="#FFFFFF" d="M95.69,95.188c1.196,0,1.196-1.855,0-1.855C94.495,93.333,94.495,95.188,95.69,95.188L95.69,95.188z"/>
		</g>
	</g>
	<g>
		<g>
			<path fill="#FFFFFF" d="M95.443,89.993c1.196,0,1.196-1.854,0-1.854S94.247,89.993,95.443,89.993L95.443,89.993z"/>
		</g>
	</g>
	<g>
		<g>
			<path fill="#FFFFFF" d="M95.196,86.037c1.197,0,1.197-1.855,0-1.855C94,84.182,94,86.037,95.196,86.037L95.196,86.037z"/>
		</g>
	</g>
	<g>
		<g>
			<path fill="#FFFFFF" d="M88.271,97.167c1.196,0,1.196-1.854,0-1.854S87.074,97.167,88.271,97.167L88.271,97.167z"/>
		</g>
	</g>
	<g>
		<g>
			<path fill="#FFFFFF" d="M85.055,104.834c1.196,0,1.196-1.855,0-1.855C83.858,102.979,83.859,104.834,85.055,104.834
				L85.055,104.834z"/>
		</g>
	</g>
	<g>
		<g>
			<path fill="#FFFFFF" d="M80.603,103.103c1.196,0,1.196-1.854,0-1.854S79.408,103.103,80.603,103.103L80.603,103.103z"/>
		</g>
	</g>
	<g>
		<g>
			<path fill="#FFFFFF" d="M76.151,101.124c1.196,0,1.196-1.854,0-1.854C74.954,99.27,74.954,101.124,76.151,101.124L76.151,101.124
				z"/>
		</g>
	</g>
	<g>
		<g>
			<path fill="#FFFFFF" d="M80.109,130.557c1.196,0,1.196-1.854,0-1.854S78.913,130.557,80.109,130.557L80.109,130.557z"/>
		</g>
	</g>
	<g>
		<g>
			<path fill="#FFFFFF" d="M85.796,134.513c1.197,0,1.197-1.854,0-1.854C84.601,132.66,84.601,134.513,85.796,134.513
				L85.796,134.513z"/>
		</g>
	</g>
	<g>
		<g>
			<path fill="#FFFFFF" d="M85.796,127.836c1.197,0,1.197-1.854,0-1.854C84.601,125.982,84.601,127.836,85.796,127.836
				L85.796,127.836z"/>
		</g>
	</g>
	<g>
		<g>
			<path fill="#FFFFFF" d="M81.592,118.438c1.196,0,1.196-1.854,0-1.854C80.396,116.583,80.396,118.438,81.592,118.438
				L81.592,118.438z"/>
		</g>
	</g>
	<g>
		<g>
			<path fill="#FFFFFF" d="M83.076,111.018c1.197,0,1.197-1.854,0-1.854C81.881,109.163,81.881,111.018,83.076,111.018
				L83.076,111.018z"/>
		</g>
	</g>
	<g>
		<g>
			<path fill="#FFFFFF" d="M71.947,105.082c1.196,0,1.196-1.854,0-1.854C70.75,103.227,70.751,105.082,71.947,105.082
				L71.947,105.082z"/>
		</g>
	</g>
	<g>
		<g>
			<path fill="#FFFFFF" d="M85.796,91.478c1.197,0,1.197-1.854,0-1.854C84.601,89.623,84.601,91.478,85.796,91.478L85.796,91.478z"
				/>
		</g>
	</g>
	<g>
		<g>
			<path fill="#FFFFFF" d="M80.356,94.693c1.196,0,1.196-1.854,0-1.854C79.159,92.838,79.159,94.693,80.356,94.693L80.356,94.693z"
				/>
		</g>
	</g>
	<g>
		<g>
			<path fill="#FFFFFF" d="M74.42,97.909c1.196,0,1.196-1.855,0-1.855S73.224,97.909,74.42,97.909L74.42,97.909z"/>
		</g>
	</g>
	<g>
		<g>
			<path fill="#FFFFFF" d="M102.863,85.047c1.195,0,1.195-1.854,0-1.854C101.667,83.193,101.667,85.047,102.863,85.047
				L102.863,85.047z"/>
		</g>
	</g>
	<g>
		<g>
			<path fill="#FFFFFF" d="M101.378,91.972c1.196,0,1.196-1.854,0-1.854S100.183,91.972,101.378,91.972L101.378,91.972z"/>
		</g>
	</g>
</g>
<g>
	<path fill="#BFA27F" stroke="#132B3F" stroke-width="7.1997" stroke-miterlimit="10" d="M153.825,8.156
		c-18.917,0-34.253,15.335-34.253,34.253c0,18.917,15.336,34.253,34.253,34.253c18.917,0,34.253-15.336,34.253-34.253
		C188.078,23.491,172.742,8.156,153.825,8.156z"/>
	<ellipse fill="#EFE578" cx="175.785" cy="42.932" rx="4.131" ry="10.272"/>
</g>
<g>
	<path fill="#6D5D47" stroke="#132B3F" stroke-width="7.4682" stroke-miterlimit="10" d="M48.781,141.814
		c-19.622,0-35.529,15.908-35.529,35.531c0,19.623,15.906,35.53,35.529,35.53c19.623,0,35.531-15.907,35.531-35.53
		C84.312,157.722,68.404,141.814,48.781,141.814z M48.781,188.025c-5.899,0-10.681-4.781-10.681-10.68
		c0-5.899,4.781-10.681,10.681-10.681c5.9,0,10.681,4.781,10.681,10.681C59.462,183.244,54.68,188.025,48.781,188.025z"/>
	<g>
		<path fill="#FFFFFF" d="M76.075,200.091c1.566-1.878,2.942-3.92,4.098-6.097c-4.189,1.685-8.968,2.392-13.231,3.207
			c-7.381,1.41-14.81,2.571-22.114,4.36c-5.282,1.295-10.68,2.931-15.546,5.486c1.607,1.058,3.306,1.99,5.081,2.778
			c4.045-1.747,8.351-2.941,12.614-3.97c7.424-1.792,14.984-2.928,22.476-4.385C71.611,201.052,73.853,200.628,76.075,200.091z"/>
		<path fill="#FFFFFF" d="M69.52,183.175c-11.248,2.998-22.097,7.34-33.164,10.915c-4.688,1.515-9.447,2.979-14.32,3.78
			c-0.677,0.111-1.186,0.179-2.083,0.246c1.098,1.52,2.311,2.949,3.628,4.275c2.653-0.455,5.28-1.181,7.814-1.894
			c11.195-3.153,22.02-7.495,33.112-10.975c4.514-1.417,9.849-2.966,14.108-3.534c1.547-0.206,3.125-0.32,4.685-0.204
			c0.375-1.542,0.652-3.122,0.82-4.734C79.244,180.414,73.094,182.224,69.52,183.175z"/>
		<path fill="#FFFFFF" d="M57.884,142.995c-7.285,0.945-14.326,3.537-21.167,6.104c-5.311,1.992-10.56,4.139-15.829,6.237
			c-1.632,2.065-3.039,4.314-4.184,6.714c11.535-4.368,22.755-9.625,34.672-12.926c2.935-0.814,5.94-1.517,8.99-1.684
			c1.077-0.06,2.257-0.022,3.07,0.129c0.477,0.088,0.94,0.23,1.394,0.397c-0.333-0.123,0.824,0.575,0.694,0.431
			c0.126,0.11,0.246,0.232,0.359,0.354c0.01,0.011,0.016,0.016,0.024,0.025c0.062,0.092,0.119,0.187,0.174,0.284
			c-0.03,0.036-0.169,0.331-0.259,0.483c-0.005,0.005-0.007,0.007-0.013,0.013c-0.097,0.116-0.204,0.223-0.311,0.331
			c-0.206,0.211-0.43,0.404-0.657,0.592c0.155-0.139-0.658,0.469-0.831,0.581c-3.771,2.48-8.014,3.882-12.254,5.37
			c-5.698,2-11.479,3.763-17.232,5.601c-5.625,1.796-11.253,3.627-16.729,5.85c-1.212,0.491-2.442,0.999-3.659,1.544
			c-0.415,1.827-0.689,3.708-0.811,5.631c0.128-0.069,0.256-0.14,0.385-0.208c2.109-1.117,4.31-2.057,6.529-2.935
			c5.557-2.197,11.264-4.012,16.956-5.823c5.7-1.814,11.419-3.576,17.053-5.587c4.238-1.513,8.696-3.089,12.454-5.62
			c2.04-1.375,3.818-3.253,3.979-5.517C66.947,146.437,62.609,144.242,57.884,142.995z"/>
		<path fill="#FFFFFF" d="M46.516,168.684c-10.312,3.262-20.519,7.07-31.035,9.642c-0.729,0.178-1.462,0.34-2.197,0.494
			c0.064,1.588,0.233,3.148,0.499,4.676c3.746-0.692,7.427-1.82,11.061-2.923c5.393-1.639,10.742-3.429,16.101-5.178
			c10.13-3.305,21.089-7.162,31.335-8.519c1.89-0.25,3.802-0.395,5.708-0.302c0.324,0.016,0.65,0.045,0.974,0.081
			c-0.177-0.013,0.618,0.111,0.767,0.143c0.317,0.069,0.626,0.161,0.934,0.263c0.033,0.011,0.089,0.032,0.143,0.053
			c0.126,0.06,0.252,0.121,0.374,0.187c0.119,0.065,0.233,0.14,0.346,0.214c0.107,0.102,0.286,0.303,0.359,0.378
			c0.04,0.065,0.082,0.13,0.117,0.198c-0.038-0.046,0.064,0.234,0.141,0.472c0.007,0.071,0.016,0.173,0.023,0.272
			c-0.016,0.114-0.042,0.281-0.071,0.393c-0.051,0.1-0.106,0.197-0.164,0.293c-0.058,0.095-0.091,0.156-0.112,0.195
			c-0.03,0.022-0.09,0.079-0.208,0.206c-0.21,0.225-0.44,0.428-0.675,0.626c-0.008,0.005-0.012,0.008-0.018,0.014
			c-0.011,0.008-0.021,0.015-0.034,0.025c-0.141,0.104-0.286,0.201-0.431,0.297c-0.703,0.47-1.457,0.862-2.217,1.228
			c-1.458,0.699-3.431,1.374-5.367,1.964c-5.018,1.529-10.182,2.577-15.322,3.595c-11.046,2.191-22.319,3.813-33.094,7.172
			c-2.589,0.807-6.31,2.086-9.298,4.005c0.517,1.513,1.134,2.979,1.842,4.392c0.068-0.047,0.134-0.097,0.202-0.144
			c0.33-0.23,0.675-0.44,1.02-0.646c0.836-0.497,1.714-0.921,2.598-1.318c1.561-0.701,4.003-1.518,5.99-2.113
			c10.877-3.263,22.221-4.871,33.335-7.102c5.04-1.012,10.093-2.088,14.997-3.646c3.076-0.978,6.494-2.166,9.009-4.322
			c-0.393-4.142-1.497-8.075-3.188-11.679c-1.473-0.337-3.033-0.416-4.427-0.405c-4.582,0.037-9.19,1.045-13.625,2.113
			C57.38,165.306,51.934,166.97,46.516,168.684z"/>
	</g>
	<path fill="none" stroke="#132B3F" stroke-width="7.4682" stroke-miterlimit="10" d="M48.781,141.814
		c-19.622,0-35.529,15.908-35.529,35.531c0,19.623,15.906,35.53,35.529,35.53c19.623,0,35.531-15.907,35.531-35.53
		C84.312,157.722,68.404,141.814,48.781,141.814z"/>
	<circle fill="none" stroke="#132B3F" stroke-width="7.4682" stroke-miterlimit="10" cx="48.781" cy="177.344" r="10.681"/>
	<circle fill="#132B3F" cx="48.781" cy="177.344" r="10.681"/>
</g>
<g>
	<path fill="#BFA27F" stroke="#132B3F" stroke-width="7.4099" stroke-miterlimit="10" d="M144.482,223.142
		c19.469,0,35.251-15.783,35.251-35.253c0-19.471-15.782-35.254-35.251-35.254c-19.471,0-35.254,15.782-35.254,35.254
		C109.228,207.359,125.011,223.142,144.482,223.142z"/>
	<g>
		<g>
			<path fill="#EFE578" d="M133.134,172.982c-1.22,1.333-2.162,2.945-2.859,4.731c-0.65,1.67-1.085,3.493-1.334,5.382
				c-0.238,1.812-0.305,3.687-0.219,5.55c0.084,1.875,0.32,3.738,0.685,5.513c0.392,1.907,0.931,3.712,1.588,5.321
				c0.786,1.922,1.74,3.563,2.812,4.763c1.368,1.53,3.306,2.688,5.581,3.49c1.966,0.694,4.184,1.122,6.502,1.294
				c2.166,0.162,4.421,0.102,6.638-0.173c2.238-0.277,4.438-0.77,6.475-1.474c2.212-0.764,4.233-1.773,5.897-3.016
				c1.897-1.417,3.333-3.138,4.065-5.145c0.592-1.62,1.119-3.308,1.548-5.03c0.424-1.707,0.75-3.445,0.939-5.175
				c0.195-1.772,0.248-3.538,0.12-5.256c-0.132-1.782-0.458-3.515-1.02-5.15c-0.569-1.652-1.38-3.208-2.477-4.618
				c-1.025-1.318-2.301-2.511-3.864-3.541c-1.513-0.996-3.208-1.807-5.015-2.425c-1.729-0.594-3.561-1.013-5.434-1.252
				c-1.838-0.236-3.716-0.298-5.574-0.184c-1.876,0.115-3.731,0.409-5.505,0.887c-1.833,0.495-3.577,1.186-5.169,2.078
				C135.863,170.479,134.378,171.62,133.134,172.982z"/>
		</g>
	</g>
	<ellipse fill="#FFFFFF" cx="121.881" cy="187.349" rx="4.251" ry="10.573"/>
</g>
<g>
	<path fill="#EFCC9A" stroke="#132B3F" stroke-width="6.7794" stroke-miterlimit="10" d="M184.021,85.391
		c-17.813,0-32.253,14.44-32.253,32.254c0,17.813,14.44,32.253,32.253,32.253s32.253-14.44,32.253-32.253
		C216.273,99.831,201.834,85.391,184.021,85.391z M184.021,127.341c-5.355,0-9.696-4.341-9.696-9.696
		c0-5.355,4.341-9.696,9.696-9.696c5.356,0,9.696,4.34,9.696,9.696C193.717,123,189.377,127.341,184.021,127.341z"/>
	<path fill="#6D5D47" stroke="#132B3F" stroke-width="6.7794" stroke-miterlimit="10" d="M184.021,85.391
		c-17.813,0-32.253,14.44-32.253,32.254c0,17.813,14.44,32.253,32.253,32.253s32.253-14.44,32.253-32.253
		C216.273,99.831,201.834,85.391,184.021,85.391z"/>
	<g opacity="0.3">
		<g>
			<path fill="#FFFFFF" d="M200.556,97.036c-1.822-1.199-3.245-3.436-5.421-4.181c-2.083-0.714-4.608,0.152-6.861-0.137
				c-2.216-0.283-4.43-1.766-6.668-1.63c-2.259,0.139-4.266,1.883-6.402,2.458c-2.207,0.597-4.839,0.128-6.755,1.202
				c-1.989,1.114-2.909,3.581-4.408,5.221c-1.468,1.607-3.784,2.814-4.622,4.965c-0.785,2.011,0.05,4.555-0.249,6.832
				c-0.287,2.183-1.773,4.379-1.672,6.623c0.102,2.258,1.786,4.327,2.225,6.463c0.471,2.297-0.227,4.882,0.564,6.82
				c0.946,2.314,3.277,3.553,4.569,4.998c1.647,1.843,3.218,4.375,5.957,5.34c2.369,0.835,5.328-0.021,8.12,0.188
				c2.61,0.195,5.358,1.528,8.028,1.198c2.694-0.333,5.026-2.299,7.479-3.145c2.666-0.919,5.752-0.899,7.756-2.396
				c2.286-1.705,2.926-4.587,3.81-7.004c0.712-1.951,2.699-3.572,3.213-5.643c0.512-2.056-0.487-4.397-0.258-6.482
				c0.234-2.134,1.707-4.236,1.553-6.305c-0.158-2.146-1.925-3.95-2.603-5.919c-0.685-1.99-0.435-4.527-1.755-6.226
				C204.923,98.687,202.438,98.275,200.556,97.036z M184.021,125.972c-0.681,0-1.158-1.479-1.787-1.649
				c-0.649-0.174-1.803,0.862-2.373,0.532c-0.576-0.334-0.251-1.853-0.72-2.322c-0.469-0.468-1.989-0.143-2.323-0.719
				c-0.33-0.57,0.707-1.723,0.533-2.373c-0.169-0.628-1.649-1.105-1.649-1.787c0-0.681,1.48-1.159,1.649-1.787
				c0.174-0.649-0.862-1.803-0.533-2.372c0.334-0.577,1.854-0.251,2.323-0.72c0.469-0.468,0.144-1.989,0.72-2.323
				c0.57-0.33,1.724,0.707,2.373,0.533c0.629-0.169,1.106-1.65,1.787-1.65s1.159,1.481,1.787,1.65
				c0.649,0.174,1.802-0.862,2.372-0.533c0.576,0.335,0.251,1.854,0.72,2.323c0.468,0.469,1.988,0.144,2.322,0.72
				c0.33,0.569-0.707,1.724-0.532,2.372c0.168,0.628,1.648,1.106,1.648,1.787c0,0.681-1.48,1.159-1.648,1.787
				c-0.175,0.65,0.862,1.802,0.532,2.373c-0.334,0.576-1.854,0.251-2.322,0.719c-0.469,0.469-0.144,1.988-0.72,2.322
				c-0.57,0.33-1.723-0.707-2.373-0.532C185.178,124.492,184.701,125.972,184.021,125.972z"/>
		</g>
	</g>
	<circle fill="#1A3F6D" stroke="#132B3F" stroke-width="6.7794" stroke-miterlimit="10" cx="184.021" cy="117.645" r="9.696"/>
</g>
<path fill="#EFCC9A" stroke="#1E416B" stroke-width="15" stroke-miterlimit="10" d="M319.116,82.356
	c-54.738,0-99.113,44.373-99.113,99.113c0,54.738,44.375,99.113,99.113,99.113c54.74,0,99.113-44.375,99.113-99.113
	C418.229,126.729,373.856,82.356,319.116,82.356z M319.116,211.262c-16.455,0-29.795-13.338-29.795-29.792
	c0-16.457,13.34-29.795,29.795-29.795c16.457,0,29.797,13.338,29.797,29.795C348.913,197.924,335.573,211.262,319.116,211.262z"/>
<g>
	<path fill="#F288A9" d="M257.296,127.692c-4.679,5.119-14.972,7.153-17.644,14.008c-2.498,6.408,3.52,15.376,2.565,22.63
		c-0.913,6.952-9.126,13.804-8.804,20.949c0.325,7.195,9.146,13.359,10.543,20.167c1.502,7.317-4.052,16.561-1.529,22.733
		c3.014,7.377,13.361,9.499,17.479,14.105c5.247,5.871,8.37,16.751,17.097,19.83c7.547,2.662,17.688-3.458,26.584-2.794
		c8.312,0.621,17.153,8.347,25.663,7.293c8.583-1.062,15.231-10.709,23.047-13.404c8.492-2.929,19.941,0.187,26.33-4.584
		c7.279-5.436,6.637-16.614,9.45-24.317c2.271-6.215,11.936-10.36,13.575-16.962c1.628-6.55-4.983-14.62-4.253-21.263
		c0.746-6.801,8.916-13.434,8.429-20.026c-0.506-6.84-9.527-11.888-11.688-18.165c-2.183-6.341,1.646-16.065-2.564-21.478
		c-3.936-5.06-14.189-3.839-20.187-7.788c-5.805-3.822-8.812-14.055-15.744-16.432c-6.637-2.276-15.472,3.87-22.654,2.951
		c-7.057-0.903-13.998-9.104-21.125-8.669c-7.198,0.44-13.031,9.425-19.837,11.262c-7.032,1.897-16.727-2.804-22.833,0.617
		C262.862,111.903,262.072,122.468,257.296,127.692z"/>
</g>
<line fill="none" stroke="#F8CACD" stroke-width="13" stroke-linecap="round" stroke-miterlimit="10" x1="256.213" y1="192.674" x2="248.231" y2="177.795"/>
<line fill="none" stroke="#1ACFE2" stroke-width="13" stroke-linecap="round" stroke-miterlimit="10" x1="310.172" y1="110.258" x2="295.118" y2="117.905"/>
<line fill="none" stroke="#FFFFFF" stroke-width="13" stroke-linecap="round" stroke-miterlimit="10" x1="373.489" y1="153.091" x2="384.963" y2="140.705"/>
<line fill="none" stroke="#B7E5CF" stroke-width="13" stroke-linecap="round" stroke-miterlimit="10" x1="302.963" y1="247.668" x2="318.926" y2="253.168"/>
<line fill="none" stroke="#EFE578" stroke-width="13" stroke-linecap="round" stroke-miterlimit="10" x1="353.655" y1="225.674" x2="346.209" y2="240.826"/>
<line fill="none" stroke="#FFFFFF" stroke-width="13" stroke-linecap="round" stroke-miterlimit="10" x1="271.59" y1="232.482" x2="282.377" y2="219.494"/>
<line fill="none" stroke="#B7E5CF" stroke-width="13" stroke-linecap="round" stroke-miterlimit="10" x1="259.668" y1="147.251" x2="271.872" y2="151.998"/>
<line fill="none" stroke="#B7E5CF" stroke-width="13" stroke-linecap="round" stroke-miterlimit="10" x1="342.713" y1="114.269" x2="354.915" y2="119.015"/>
<line fill="none" stroke="#F8CACD" stroke-width="13" stroke-linecap="round" stroke-miterlimit="10" x1="377.577" y1="190.848" x2="389.936" y2="202.35"/>
<path fill="none" stroke="#1E416B" stroke-width="16.2285" stroke-linecap="round" stroke-miterlimit="10" d="M353.5,189.729
	c0,17.814-16.903,32.254-37.758,32.254c-20.852,0-37.758-14.439-37.758-32.254"/>
<circle fill="#EFEFEF" stroke="#1E416B" stroke-width="15" stroke-miterlimit="10" cx="300.2" cy="140.003" r="11.795"/>
<circle fill="#EFEFEF" stroke="#1E416B" stroke-width="15" stroke-miterlimit="10" cx="340.434" cy="151.691" r="11.795"/>
<path fill="none" stroke="#1E416B" stroke-width="15" stroke-miterlimit="10" d="M222.084,201.757
	c-15.379,43.984-52.469,50.231-87.948,62.837"/>
<path fill="none" stroke="#1E416B" stroke-width="15" stroke-miterlimit="10" d="M413.485,215.471
	c45.447,0,36.447,36.072,36.447,120.072"/>
<line fill="none" stroke="#1E416B" stroke-width="15" stroke-miterlimit="10" x1="286.956" y1="275.244" x2="286.956" y2="406.541"/>
<line fill="none" stroke="#1E416B" stroke-width="15" stroke-miterlimit="10" x1="343.073" y1="277.66" x2="343.073" y2="404.541"/>
<g>
	<path fill="#FFFFFF" d="M245.475,443.477c-13.078,0-23.717-10.64-23.717-23.717s10.639-23.717,23.717-23.717h20.554l0.232-11.879
		c0.08-4.085,3.414-7.354,7.499-7.354h24.891c1.995,0,3.909,0.795,5.316,2.21c1.407,1.414,2.193,3.332,2.184,5.327l-0.096,19.232
		v32.396c0,4.143-3.357,7.5-7.5,7.5H245.475z"/>
	<path fill="#1E416B" d="M298.651,384.311l-0.096,19.232v32.434h-53.08c-8.957,0-16.217-7.26-16.217-16.217
		s7.26-16.217,16.217-16.217h27.908l0.377-19.232H298.651 M298.651,369.311H273.76c-8.17,0-14.837,6.538-14.997,14.706l-0.089,4.526
		h-13.199c-17.213,0-31.217,14.004-31.217,31.217s14.004,31.217,31.217,31.217h53.08c8.284,0,15-6.716,15-15v-32.396l0.096-19.196
		c0.02-3.99-1.552-7.825-4.367-10.654S302.642,369.311,298.651,369.311L298.651,369.311z"/>
</g>
<g>
	<path fill="#EFCC9A" d="M94.532,308.357c-7.286,0-13.998-3.647-17.956-9.758c-6.407-9.891-3.572-23.152,6.319-29.562l8.288-5.368
		c-1.913-1.301-3.507-3.041-4.661-5.123c-1.941-3.502-2.402-7.55-1.298-11.398c1.835-6.393,7.757-10.857,14.401-10.857
		c1.396,0,2.788,0.196,4.137,0.583l21.913,6.285c2.25,0.175,4.395,1.36,5.715,3.399l15.089,23.293c1.082,1.67,1.456,3.7,1.04,5.646
		c-0.416,1.945-1.587,3.646-3.257,4.728l-38.122,24.695C102.668,307.169,98.654,308.357,94.532,308.357z"/>
	<path fill="#1E416B" d="M99.625,243.792c0.684,0,1.378,0.094,2.068,0.292l9.398,2.695l13.833,3.968l0.17-0.109l15.089,23.293
		l-38.122,24.695c-2.332,1.51-4.946,2.231-7.531,2.231c-4.548,0-9.004-2.233-11.661-6.335c-4.167-6.433-2.329-15.022,4.103-19.19
		l15.209-9.851l6.075-3.938l-10.69-3.064c-3.976-1.141-6.274-5.288-5.134-9.262C93.376,245.932,96.371,243.792,99.625,243.792
		 M99.625,228.792c-9.971,0-18.857,6.698-21.61,16.288c-1.644,5.726-0.978,11.746,1.874,16.971l-1.069,0.692
		c-13.364,8.66-17.193,26.574-8.538,39.936c5.346,8.253,14.412,13.18,24.25,13.18c5.573,0,10.996-1.604,15.684-4.641l38.125-24.697
		c3.339-2.162,5.682-5.563,6.513-9.453c0.832-3.891,0.084-7.952-2.079-11.291l-15.089-23.293c-2.468-3.81-6.375-6.129-10.545-6.705
		l-11.912-3.417l-9.398-2.696C103.809,229.086,101.722,228.792,99.625,228.792L99.625,228.792z"/>
</g>
<g>
	<path fill="#EFCC9A" d="M447.354,371.418c-11.787,0-21.377-9.59-21.377-21.377v-9.88c-1.822,0.766-3.793,1.169-5.801,1.169
		c-0.001,0-0.001,0-0.001,0c-4.337,0-8.457-1.874-11.303-5.143c-2.63-3.019-3.927-6.88-3.652-10.873
		c0.274-3.994,2.089-7.643,5.108-10.272l17.188-14.975c1.371-1.791,3.53-2.946,5.96-2.946h27.754c4.143,0,7.5,3.357,7.5,7.5v45.42
		C468.731,361.828,459.141,371.418,447.354,371.418z"/>
	<path fill="#1E416B" d="M461.231,304.621v45.42c0,7.666-6.213,13.877-13.877,13.877c-7.666,0-13.877-6.211-13.877-13.877v-18.119
		v-7.24l-8.387,7.307c-1.418,1.236-3.17,1.842-4.915,1.842c-2.089,0-4.168-0.869-5.647-2.568c-2.717-3.119-2.393-7.848,0.727-10.564
		l7.371-6.422l10.852-9.453v-0.201H461.231 M461.231,289.621h-27.754c-4.54,0-8.608,2.017-11.358,5.203l-9.346,8.141l-7.372,6.423
		c-9.349,8.143-10.329,22.375-2.185,31.726c3.897,4.476,9.387,7.209,15.261,7.653v1.274c0,15.923,12.954,28.877,28.877,28.877
		s28.877-12.954,28.877-28.877v-45.42C476.231,296.337,469.515,289.621,461.231,289.621L461.231,289.621z"/>
</g>
<circle fill="#F288A9" cx="282.556" cy="412.541" r="7.798"/>
<line fill="#FFFFFF" stroke="#D8D6D6" stroke-width="15" stroke-linejoin="round" stroke-miterlimit="10" x1="302.055" y1="432.541" x2="224.555" y2="432.541"/>
<g>
	<path fill="#1E416B" d="M298.651,384.311l-0.096,19.232v32.434h-53.08c-8.957,0-16.217-7.26-16.217-16.217
		s7.26-16.217,16.217-16.217h27.908l0.377-19.232H298.651 M298.651,369.311H273.76c-8.17,0-14.837,6.538-14.997,14.706l-0.089,4.526
		h-13.199c-17.213,0-31.217,14.004-31.217,31.217s14.004,31.217,31.217,31.217h53.08c8.284,0,15-6.716,15-15v-32.396l0.096-19.196
		c0.02-3.99-1.552-7.825-4.367-10.654S302.642,369.311,298.651,369.311L298.651,369.311z"/>
</g>
<g>
	<path fill="#FFFFFF" d="M331.555,443.477c-4.143,0-7.5-3.357-7.5-7.5v-32.434l-0.096-19.195c-0.01-1.995,0.776-3.912,2.184-5.327
		s3.321-2.21,5.316-2.21h24.891c4.085,0,7.419,3.269,7.499,7.354l0.232,11.879h20.556c13.077,0,23.717,10.64,23.717,23.717
		s-10.64,23.717-23.717,23.717H331.555z"/>
	<path fill="#1E416B" d="M356.35,384.311l0.377,19.232h27.91c8.957,0,16.217,7.26,16.217,16.217s-7.26,16.217-16.217,16.217h-53.082
		v-32.434l-0.096-19.232H356.35 M356.35,369.311h-24.891c-3.991,0-7.817,1.591-10.633,4.42s-4.387,6.664-4.367,10.654l0.096,19.196
		v32.396c0,8.284,6.716,15,15,15h53.082c17.213,0,31.217-14.004,31.217-31.217s-14.004-31.217-31.217-31.217h-13.201l-0.089-4.526
		C371.187,375.849,364.52,369.311,356.35,369.311L356.35,369.311z"/>
</g>
<circle fill="#F288A9" cx="347.556" cy="412.541" r="7.798"/>
<line fill="#FFFFFF" stroke="#D8D6D6" stroke-width="15" stroke-linejoin="round" stroke-miterlimit="10" x1="328.055" y1="432.541" x2="405.555" y2="432.541"/>
<g>
	<path fill="#1E416B" d="M356.35,384.311l0.377,19.232h27.91c8.957,0,16.217,7.26,16.217,16.217s-7.26,16.217-16.217,16.217h-53.082
		v-32.434l-0.096-19.232H356.35 M356.35,369.311h-24.891c-3.991,0-7.817,1.591-10.633,4.42s-4.387,6.664-4.367,10.654l0.096,19.196
		v32.396c0,8.284,6.716,15,15,15h53.082c17.213,0,31.217-14.004,31.217-31.217s-14.004-31.217-31.217-31.217h-13.201l-0.089-4.526
		C371.187,375.849,364.52,369.311,356.35,369.311L356.35,369.311z"/>
</g>
<ellipse transform="matrix(-0.9931 -0.1172 0.1172 -0.9931 546.546 401.2623)" fill="#ED6262" stroke="#1E416B" stroke-width="15" stroke-miterlimit="10" cx="285.073" cy="184.559" rx="12.088" ry="18.234"/>
</svg>
