<?xml version="1.0" encoding="utf-8"?>
<!-- Generator: Adobe Illustrator 16.0.4, SVG Export Plug-In . SVG Version: 6.00 Build 0)  -->
<!DOCTYPE svg PUBLIC "-//W3C//DTD SVG 1.1//EN" "http://www.w3.org/Graphics/SVG/1.1/DTD/svg11.dtd">
<svg version="1.1" id="Layer_1" xmlns="http://www.w3.org/2000/svg" xmlns:xlink="http://www.w3.org/1999/xlink" x="0px" y="0px"
	 width="530.231px" height="476.977px" viewBox="0 0 530.231 476.977" enable-background="new 0 0 530.231 476.977"
	 xml:space="preserve">
<g>
	<path fill="#B7E5CF" d="M265.06,25.389c128.067,0,231.888,101.561,231.888,226.843c0,125.281-103.82,226.843-231.888,226.843
		c-128.068,0-231.887-101.562-231.887-226.843C33.173,126.95,136.992,25.389,265.06,25.389"/>
	<path fill="#A09F9F" d="M416.616,345.988c0,0,19-18,29-31s14-42-8-61s-29-37-30-50s7-43,24-50c0,0,16-9,22,6s0,14-12,21
		s-17,15-5,31s56,26,46,80s-65,90-69,95"/>
	<path fill="#1E416B" d="M421.774,351.433c0.045-0.043,4.851-4.596,10.949-10.821c3.051-3.113,6.424-6.646,9.699-10.257
		c3.276-3.615,6.45-7.301,9.138-10.793c2.965-3.865,5.312-8.517,6.979-13.714c1.659-5.195,2.623-10.943,2.625-16.967
		c0-6.838-1.255-14.047-4.237-21.043c-2.975-6.992-7.702-13.741-14.408-19.525c-10.413-8.995-17.047-17.546-21.189-25.159
		c-4.141-7.617-5.814-14.31-6.235-19.741c-0.038-0.504-0.062-1.091-0.061-1.742c-0.006-2.777,0.423-6.65,1.333-10.808
		c1.352-6.251,3.798-13.206,7.058-18.79c1.623-2.795,3.44-5.243,5.326-7.136c1.89-1.901,3.818-3.231,5.722-4.014l0.423-0.174
		l0.398-0.224l-1.69-3.005l1.645,3.031l0.046-0.026l-1.69-3.005l1.645,3.031c0.005-0.005,0.928-0.496,2.212-0.937
		c1.281-0.451,2.919-0.815,4.219-0.804c0.58,0,1.089,0.062,1.511,0.169c0.641,0.172,1.076,0.383,1.604,0.845
		c0.517,0.47,1.186,1.277,1.86,2.949c0.725,1.808,1.209,3.259,1.484,4.324c0.279,1.065,0.337,1.73,0.333,1.964l-0.002,0.086
		l-0.002,0.021l1.191,0.15l-1.092-0.473c-0.071,0.16-0.101,0.314-0.1,0.322l1.191,0.15l-1.092-0.473l1.436,0.621l-1.242-0.958
		c-0.048,0.061-0.134,0.196-0.193,0.336l1.436,0.621l-1.242-0.958l0.443,0.342l-0.409-0.383l-0.034,0.041l0.443,0.342l-0.409-0.383
		c0,0-0.048,0.05-0.162,0.142c-0.198,0.161-0.605,0.442-1.211,0.791c-0.906,0.527-2.243,1.201-3.878,2.031
		c-1.635,0.833-3.568,1.831-5.705,3.077c-2.004,1.17-3.91,2.406-5.693,3.779c-2.664,2.059-5.097,4.443-6.944,7.451
		c-0.919,1.5-1.675,3.152-2.187,4.918c-0.514,1.764-0.778,3.634-0.776,5.521c0,3.369,0.818,6.734,2.245,10.064
		c1.433,3.339,3.474,6.691,6.135,10.244c1.846,2.454,4.002,4.526,6.301,6.471c4.027,3.388,8.548,6.421,13.063,9.699
		c6.78,4.898,13.474,10.282,18.361,17.149c2.451,3.438,4.479,7.243,5.926,11.667c1.443,4.425,2.312,9.489,2.314,15.493
		c0,4.095-0.409,8.625-1.341,13.655l0,0c-2.3,12.43-7.228,23.98-13.494,34.43c-9.391,15.673-21.79,28.789-32.253,38.396
		c-5.232,4.809-9.967,8.739-13.633,11.74c-1.836,1.504-3.401,2.771-4.683,3.848c-0.643,0.541-1.214,1.033-1.749,1.524
		c-0.269,0.247-0.528,0.494-0.798,0.767c-0.27,0.276-0.545,0.569-0.872,0.976l11.713,9.371l-2.367-1.895l2.217,2.07
		c0.013-0.014,0.058-0.061,0.15-0.176l-2.367-1.895l2.217,2.07l-0.235-0.22l0.232,0.223l0.003-0.003l-0.235-0.22l0.232,0.223
		c0.009-0.009,0.13-0.13,0.319-0.302c0.37-0.338,0.997-0.875,1.789-1.531c1.49-1.237,3.572-2.915,6.042-4.956
		c4.328-3.579,9.863-8.289,15.854-14.02c8.986-8.602,19.017-19.503,27.646-32.509c8.62-13.001,15.864-28.149,19.022-45.182l0,0
		c1.081-5.841,1.591-11.29,1.591-16.386c0.015-11.376-2.591-21.003-6.754-28.927c-3.112-5.948-7.048-10.927-11.222-15.165
		c-6.266-6.356-13.064-11.114-18.782-15.197c-2.859-2.035-5.448-3.898-7.551-5.616c-2.106-1.712-3.7-3.287-4.657-4.574
		c-2.139-2.847-3.538-5.255-4.346-7.148c-0.812-1.902-1.035-3.24-1.034-4.16c0.005-0.699,0.109-1.197,0.32-1.745
		c0.162-0.408,0.396-0.847,0.761-1.35c0.541-0.751,1.386-1.638,2.576-2.595c1.187-0.958,2.706-1.978,4.502-3.024
		c1.976-1.153,3.809-2.086,5.564-2.978c1.318-0.67,2.596-1.313,3.882-2.052c0.964-0.556,1.938-1.166,2.923-1.927
		c0.737-0.571,1.48-1.23,2.188-2.018c1.062-1.172,2.026-2.67,2.639-4.333c0.621-1.662,0.883-3.422,0.879-5.098
		c-0.004-1.95-0.319-3.812-0.814-5.732c-0.5-1.921-1.192-3.916-2.075-6.126c-0.919-2.297-2.084-4.351-3.49-6.118
		c-2.1-2.657-4.773-4.606-7.507-5.741c-2.738-1.149-5.467-1.534-7.905-1.534c-3.915,0.014-7.175,0.932-9.567,1.785
		c-2.388,0.865-3.909,1.711-4.171,1.856l3.677,6.537l-2.855-6.935c-2.742,1.129-5.23,2.663-7.468,4.448
		c-3.917,3.133-7.088,7.016-9.735,11.212c-3.959,6.304-6.764,13.358-8.658,20.156c-0.944,3.4-1.653,6.736-2.134,9.897
		c-0.479,3.164-0.731,6.146-0.732,8.904c0,0.99,0.033,1.953,0.105,2.893c0.578,7.569,2.905,16.376,8.015,25.759
		c5.106,9.387,12.974,19.336,24.561,29.341c4.995,4.322,8.292,9.093,10.415,14.058c2.116,4.961,3.034,10.146,3.035,15.159l0,0
		c0.002,4.407-0.719,8.67-1.912,12.399c-1.187,3.728-2.864,6.914-4.58,9.135c-2.312,3.008-5.264,6.447-8.362,9.863
		c-4.65,5.131-9.639,10.225-13.445,14.014c-1.904,1.896-3.515,3.467-4.644,4.56c-0.565,0.546-1.01,0.974-1.312,1.262
		c-0.15,0.145-0.266,0.254-0.342,0.326l-0.085,0.081l-0.024,0.023L421.774,351.433z"/>
	<path fill="#A09F9F" d="M319.226,424.145c13.685,0,26.722-2.773,38.579-7.789c6.94-2.936,3.134,14.416,9.811,22.633
		c7.255,8.928,24.905,8.692,30.11,2.523c14.558-17.252,20.613-92.139,20.613-116.48c0-28.96-12.42-55.018-32.225-73.141
		c-17.629-16.131-41.109-25.972-66.889-25.972c-21.989,0-42.306,7.16-58.745,19.277c-24.484,18.047-40.368,47.086-40.368,79.836
		c0,16.328-1.38,99.899,5.613,113.48c4.049,7.862,22.642,12.055,29.89,1.477c7.248-10.577,3.148-35.924,10.58-31.209
		C281.531,418.51,299.72,424.145,319.226,424.145z"/>
	<path fill="#1E416B" d="M319.226,424.145v7.5c14.699,0.001,28.742-2.983,41.501-8.382l-1.507-3.562v3.823
		c0.872-0.005,1.368-0.206,1.507-0.262l-1.507-3.562v3.823v-5.422l-2.21,4.943c0.729,0.333,1.565,0.485,2.21,0.479v-5.422
		l-2.21,4.943l2.167-4.847l-3.77,3.749c0.357,0.364,0.916,0.793,1.603,1.098l2.167-4.847l-3.77,3.749l2.909-2.894l-3.537,2.098
		c0.101,0.17,0.287,0.451,0.628,0.796l2.909-2.894l-3.537,2.098l2.009-1.191l-2.104,1.018l0.095,0.174l2.009-1.191l-2.104,1.018
		l1.03-0.498l-1.047,0.462l0.017,0.036l1.03-0.498l-1.047,0.462l0.212-0.094l-0.215,0.087l0.003,0.007l0.212-0.094l-0.215,0.087
		c0.011,0.021,0.116,0.323,0.223,0.801c0.196,0.842,0.41,2.199,0.642,3.796c0.357,2.407,0.764,5.364,1.604,8.502
		c0.424,1.571,0.961,3.195,1.702,4.833c0.741,1.635,1.691,3.289,2.96,4.851c1.487,1.831,3.217,3.354,5.056,4.597
		c2.763,1.865,5.765,3.122,8.802,3.939c3.041,0.813,6.129,1.188,9.149,1.19c3.457-0.006,6.823-0.483,9.988-1.536
		c1.582-0.53,3.118-1.209,4.584-2.104c1.462-0.896,2.864-2.013,4.084-3.455c1.298-1.541,2.412-3.227,3.437-5.047
		c1.912-3.411,3.516-7.312,4.979-11.656c2.547-7.593,4.633-16.549,6.396-26.128c2.637-14.356,4.517-30.083,5.75-44.169
		c0.617-7.041,1.07-13.669,1.371-19.507c0.3-5.841,0.448-10.88,0.448-14.811c0.001-15.554-3.341-30.371-9.347-43.712
		c-6.006-13.344-14.668-25.219-25.314-34.962l0,0c-18.942-17.342-44.247-27.943-71.952-27.939
		c-23.627-0.003-45.524,7.708-63.195,20.74c-13.164,9.704-24.013,22.355-31.579,36.999c-7.566,14.64-11.841,31.283-11.839,48.874
		c0,2.256-0.027,5.918-0.055,10.535c-0.028,4.62-0.055,10.207-0.055,16.369c0,15.62,0.176,34.911,0.99,51.669
		c0.409,8.387,0.973,16.131,1.782,22.582c0.407,3.23,0.872,6.136,1.445,8.715c0.288,1.292,0.603,2.503,0.972,3.66
		c0.373,1.159,0.791,2.261,1.366,3.384c1.129,2.184,2.662,3.936,4.353,5.387c2.549,2.171,5.494,3.718,8.662,4.808
		c3.17,1.077,6.578,1.681,10.09,1.685c3.475-0.004,7.077-0.598,10.533-2.108c1.724-0.756,3.403-1.746,4.953-2.996
		c1.55-1.247,2.965-2.757,4.153-4.492c1.276-1.866,2.196-3.821,2.925-5.785c1.266-3.438,1.966-6.944,2.487-10.307
		c0.386-2.519,0.658-4.954,0.905-7.153c0.185-1.648,0.356-3.163,0.536-4.444c0.134-0.96,0.273-1.788,0.408-2.408
		c0.099-0.465,0.197-0.812,0.256-0.981l0.04-0.112l0.001-0.001l-1.911-0.824l1.744,1.122c0.125-0.197,0.163-0.292,0.167-0.298
		l-1.911-0.824l1.744,1.122l-3.583-2.305l3.114,2.902c0.229-0.247,0.375-0.452,0.47-0.598l-3.583-2.305l3.114,2.902l-4.008-3.735
		l2.344,4.94c0.768-0.363,1.324-0.838,1.664-1.205l-4.008-3.735l2.344,4.94l-2.501-5.272v5.838c0.796,0.008,1.743-0.197,2.501-0.565
		l-2.501-5.272v5.838v-5.182l-1.716,4.901c0.385,0.135,0.977,0.28,1.716,0.28v-5.182l-1.716,4.901l1.061-3.029l-1.726,2.721
		c0.074,0.046,0.275,0.17,0.665,0.309l1.061-3.029l-1.726,2.721c16.488,10.467,36.092,16.535,57.048,16.532V424.145v-7.5
		c-18.056-0.003-34.831-5.204-49.012-14.198c-0.696-0.44-1.479-0.854-2.413-1.183c-0.93-0.326-2.028-0.562-3.242-0.562
		c-0.827-0.002-1.698,0.114-2.529,0.354c-1.627,0.459-3.007,1.379-3.95,2.313c-0.898,0.883-1.486,1.768-1.934,2.58
		c-0.824,1.53-1.219,2.87-1.556,4.202c-0.285,1.163-0.491,2.318-0.671,3.503c-0.312,2.066-0.542,4.225-0.79,6.415
		c-0.367,3.275-0.782,6.624-1.416,9.47c-0.314,1.42-0.681,2.708-1.08,3.771c-0.397,1.064-0.828,1.896-1.204,2.439
		c-0.357,0.52-0.745,0.93-1.193,1.293c-0.669,0.539-1.498,0.978-2.529,1.293c-1.026,0.314-2.245,0.49-3.543,0.489
		c-2.324,0.012-4.886-0.594-6.773-1.498c-0.945-0.443-1.716-0.952-2.223-1.389c-0.514-0.436-0.741-0.788-0.772-0.859
		c-0.052-0.095-0.227-0.49-0.415-1.087c-0.364-1.125-0.788-2.939-1.167-5.181c-0.672-3.937-1.243-9.204-1.688-15.197
		c-0.672-9.002-1.082-19.673-1.318-30.453c-0.237-10.784-0.304-21.688-0.304-31.225c0-6.117,0.027-11.672,0.055-16.279
		c0.027-4.61,0.055-8.261,0.055-10.625c0.002-15.159,3.669-29.41,10.166-41.989c6.497-12.575,15.833-23.467,27.152-31.81
		c15.208-11.203,33.944-17.811,54.295-17.814c23.854,0.004,45.51,9.086,61.825,24.005l0,0c9.158,8.38,16.607,18.596,21.764,30.052
		c5.154,11.458,8.023,24.149,8.024,37.556c0.002,5.792-0.368,14.926-1.153,25.488c-1.174,15.853-3.29,35.028-6.411,51.586
		c-1.556,8.271-3.37,15.894-5.37,22.007c-0.996,3.055-2.04,5.728-3.07,7.877c-1.023,2.148-2.054,3.764-2.841,4.686l-0.001,0.001
		c-0.017,0.021-0.188,0.187-0.544,0.391c-0.528,0.311-1.458,0.691-2.626,0.953c-1.166,0.267-2.563,0.426-4.021,0.425
		c-2.341,0.005-4.83-0.416-6.865-1.192c-1.021-0.385-1.928-0.852-2.682-1.362c-0.756-0.511-1.354-1.06-1.819-1.631
		c-0.292-0.358-0.613-0.87-0.925-1.553c-0.55-1.189-1.034-2.889-1.403-4.802c-0.281-1.436-0.508-2.983-0.738-4.556
		c-0.174-1.182-0.349-2.375-0.575-3.588c-0.173-0.912-0.372-1.834-0.655-2.805c-0.216-0.729-0.477-1.487-0.853-2.302
		c-0.283-0.609-0.633-1.255-1.105-1.926c-0.355-0.503-0.782-1.021-1.307-1.523c-0.781-0.754-1.806-1.473-2.987-1.958
		c-1.179-0.492-2.48-0.728-3.667-0.723c-1.702,0.005-3.135,0.418-4.337,0.924c-10.956,4.633-22.987,7.195-35.657,7.196V424.145z"/>
	<path fill="#E1E6E8" d="M226.524,322.988c1.091-16-16.063-26-35.879-26c-10.415,0-9.203,15.5-0.03,15.5c8.5,0,21.846,1.5,21.5,11.5
		c-0.346,9.995-18.5,12-26.5,12c-8.441,0-4.877,13,5.03,13C210.461,348.988,225.547,337.313,226.524,322.988z"/>
	<path fill="#132B3F" d="M226.524,322.988l3.971,0.271c0.039-0.573,0.059-1.144,0.059-1.708c0.007-4.524-1.274-8.737-3.508-12.33
		c-1.673-2.699-3.862-5.061-6.408-7.076c-3.824-3.024-8.45-5.289-13.546-6.818c-5.098-1.527-10.676-2.317-16.446-2.318
		c-1.739-0.001-3.392,0.319-4.859,0.954c-2.212,0.945-3.928,2.606-4.973,4.476c-1.057,1.875-1.513,3.934-1.515,5.951
		c0,1.432,0.231,2.854,0.69,4.219c0.689,2.039,1.902,3.981,3.724,5.462c0.908,0.737,1.967,1.348,3.138,1.764
		c1.17,0.417,2.447,0.637,3.766,0.636c1.981,0,4.228,0.088,6.428,0.352c1.649,0.196,3.272,0.492,4.724,0.902
		c1.088,0.307,2.079,0.677,2.912,1.094c1.259,0.628,2.125,1.342,2.642,2.057c0.263,0.362,0.454,0.73,0.593,1.162
		c0.138,0.433,0.226,0.936,0.227,1.575l-0.004,0.242v-0.002c-0.027,0.649-0.169,1.13-0.436,1.635
		c-0.236,0.438-0.587,0.892-1.098,1.36c-0.885,0.821-2.267,1.651-3.966,2.343c-2.545,1.047-5.757,1.785-8.845,2.222
		c-3.088,0.442-6.069,0.599-8.178,0.598c-1.21,0-2.388,0.181-3.492,0.586c-0.826,0.304-1.606,0.737-2.286,1.285
		c-1.024,0.82-1.797,1.895-2.267,3.018c-0.475,1.128-0.669,2.295-0.669,3.423c0.003,1.594,0.376,3.127,1.016,4.569
		c0.964,2.156,2.548,4.138,4.713,5.633c2.158,1.493,4.931,2.453,8.015,2.447c10.689-0.004,20.232-3.138,27.37-8.408
		c3.566-2.637,6.533-5.816,8.692-9.422c2.159-3.602,3.5-7.639,3.788-11.88L226.524,322.988l-3.971-0.271
		c-0.201,2.921-1.111,5.716-2.676,8.332c-2.341,3.918-6.192,7.418-11.211,9.93c-5.015,2.514-11.176,4.029-18.021,4.028
		c-0.984-0.001-1.799-0.191-2.513-0.498c-1.063-0.456-1.914-1.208-2.481-2.036c-0.574-0.82-0.803-1.707-0.79-2.154
		c0-0.189,0.03-0.295,0.04-0.32l0.003-0.008l-0.2-0.09l0.162,0.144l0.038-0.054l-0.2-0.09l0.162,0.144l-0.199-0.178l0.152,0.221
		l0.047-0.043l-0.199-0.178l0.152,0.221l-0.014-0.02l0.012,0.021l0.001-0.001l-0.014-0.02l0.012,0.021
		c0.008-0.004,0.208-0.118,0.798-0.12c2.164-0.001,4.935-0.133,7.947-0.499c2.258-0.274,4.648-0.68,7.013-1.273
		c3.545-0.902,7.045-2.182,9.998-4.327c1.469-1.077,2.809-2.4,3.815-4.048c1.009-1.639,1.64-3.613,1.705-5.695v-0.002
		c0.006-0.171,0.009-0.343,0.009-0.514c0.002-1.656-0.287-3.25-0.851-4.694c-0.49-1.264-1.185-2.403-2.006-3.386
		c-1.443-1.724-3.238-2.964-5.123-3.893c-2.838-1.387-5.932-2.123-8.963-2.567c-3.029-0.438-6-0.562-8.544-0.562
		c-0.604-0.003-1.019-0.12-1.381-0.295c-0.532-0.263-1.003-0.717-1.38-1.406c-0.374-0.68-0.599-1.572-0.595-2.418
		c0-0.53,0.084-1.035,0.229-1.458c0.224-0.642,0.54-1.07,0.957-1.378c0.425-0.3,1.018-0.573,2.201-0.584
		c4.479-0.001,8.797,0.55,12.711,1.576c5.878,1.534,10.816,4.155,14.129,7.414c1.662,1.631,2.928,3.409,3.787,5.323
		c0.856,1.917,1.318,3.975,1.321,6.269c0,0.382-0.013,0.771-0.04,1.167L226.524,322.988"/>
	<path fill="#FFFFFF" d="M-1177.841-188.354c3.225,0,3.225-5,0-5C-1181.066-193.354-1181.065-188.354-1177.841-188.354z"/>
	<path fill="#6D5D47" d="M84.748,105.018c-19.13,0-34.638,15.507-34.638,34.638s15.507,34.639,34.638,34.639
		c19.13,0,34.639-15.508,34.639-34.639S103.879,105.018,84.748,105.018z M84.748,150.068c-5.751,0-10.414-4.661-10.414-10.413
		c0-5.751,4.662-10.413,10.414-10.413c5.751,0,10.414,4.662,10.414,10.413C95.162,145.407,90.499,150.068,84.748,150.068z"/>
	<path fill="#132B3F" d="M84.748,105.018v-3.64c-10.559-0.002-20.151,4.29-27.066,11.211c-6.921,6.915-11.213,16.508-11.211,27.067
		c-0.002,10.559,4.29,20.152,11.211,27.067c6.915,6.921,16.508,11.213,27.067,11.211c10.559,0.002,20.151-4.29,27.067-11.211
		c6.921-6.916,11.214-16.508,11.212-27.067c0.002-10.559-4.29-20.152-11.211-27.067c-6.916-6.921-16.509-11.213-27.068-11.211
		V105.018v3.64c8.572,0.002,16.299,3.464,21.92,9.079c5.615,5.621,9.077,13.347,9.079,21.919c-0.002,8.572-3.464,16.298-9.08,21.919
		c-5.622,5.615-13.348,9.077-21.919,9.079c-8.572-0.002-16.298-3.464-21.919-9.079c-5.615-5.621-9.077-13.348-9.079-21.919
		c0.002-8.572,3.464-16.298,9.079-21.919c5.621-5.615,13.347-9.077,21.918-9.079V105.018z M84.748,150.068v-3.64
		c-1.882-0.002-3.553-0.752-4.79-1.984c-1.231-1.237-1.982-2.907-1.984-4.789c0.002-1.882,0.752-3.552,1.984-4.789
		c1.237-1.231,2.908-1.982,4.79-1.984c1.882,0.002,3.553,0.752,4.79,1.984c1.231,1.237,1.982,2.907,1.984,4.789
		c-0.002,1.882-0.752,3.552-1.984,4.789c-1.237,1.231-2.908,1.982-4.79,1.984V150.068v3.64c3.869,0.002,7.405-1.578,9.938-4.115
		c2.538-2.532,4.119-6.068,4.117-9.938c0.002-3.87-1.579-7.406-4.117-9.938c-2.532-2.537-6.068-4.117-9.938-4.115
		c-3.87-0.002-7.406,1.578-9.938,4.116c-2.538,2.531-4.118,6.068-4.116,9.937c-0.002,3.87,1.579,7.406,4.117,9.938
		c2.532,2.537,6.068,4.117,9.938,4.115V150.068z"/>
	<path fill="#FFFFFF" d="M70.225,117.862c1.197,0,1.197-1.855,0-1.855C69.029,116.007,69.03,117.862,70.225,117.862z"/>
	<path fill="#FFFFFF" d="M69.236,124.541c1.196,0,1.196-1.854,0-1.854C68.039,122.686,68.04,124.541,69.236,124.541z"/>
	<path fill="#FFFFFF" d="M88.033,119.347c1.196,0,1.196-1.854,0-1.854C86.836,117.493,86.838,119.347,88.033,119.347z"/>
	<path fill="#FFFFFF" d="M76.409,124.045c1.196,0,1.196-1.855,0-1.855S75.213,124.045,76.409,124.045z"/>
	<path fill="#FFFFFF" d="M76.409,118.852c1.196,0,1.196-1.854,0-1.854C75.213,116.997,75.213,118.852,76.409,118.852z"/>
	<path fill="#FFFFFF" d="M84.571,112.174c1.197,0,1.197-1.854,0-1.854C83.374,110.319,83.375,112.174,84.571,112.174z"/>
	<path fill="#FFFFFF" d="M78.882,112.42c1.196,0,1.196-1.855,0-1.855C77.685,110.565,77.686,112.42,78.882,112.42z"/>
	<path fill="#FFFFFF" d="M83.333,116.625c1.197,0,1.197-1.855,0-1.855C82.139,114.771,82.139,116.625,83.333,116.625z"/>
	<path fill="#FFFFFF" d="M82.592,122.314c1.196,0,1.196-1.854,0-1.854C81.396,120.46,81.396,122.314,82.592,122.314z"/>
	<path fill="#FFFFFF" d="M65.527,121.326c1.196,0,1.196-1.855,0-1.855C64.33,119.47,64.33,121.326,65.527,121.326z"/>
	<path fill="#FFFFFF" d="M62.805,129.239c1.197,0,1.197-1.854,0-1.854C61.609,127.385,61.609,129.239,62.805,129.239z"/>
	<path fill="#FFFFFF" d="M68.493,131.712c1.197,0,1.197-1.855,0-1.855C67.298,129.857,67.298,131.712,68.493,131.712z"/>
	<path fill="#FFFFFF" d="M58.353,138.392c1.197,0,1.197-1.854,0-1.854C57.157,136.537,57.158,138.392,58.353,138.392z"/>
	<path fill="#FFFFFF" d="M63.053,136.165c1.196,0,1.196-1.854,0-1.854C61.856,134.311,61.855,136.165,63.053,136.165z"/>
	<path fill="#FFFFFF" d="M58.105,132.703c1.196,0,1.196-1.854,0-1.854C56.909,130.849,56.91,132.703,58.105,132.703z"/>
	<path fill="#FFFFFF" d="M61.815,125.035c1.196,0,1.196-1.854,0-1.854C60.62,123.18,60.619,125.035,61.815,125.035z"/>
	<path fill="#FFFFFF" d="M67.999,138.638c1.196,0,1.196-1.854,0-1.854C66.803,136.785,66.804,138.638,67.999,138.638z"/>
	<path fill="#FFFFFF" d="M65.031,144.574c1.197,0,1.197-1.854,0-1.854C63.834,142.72,63.835,144.574,65.031,144.574z"/>
	<path fill="#FFFFFF" d="M59.589,143.337c1.197,0,1.197-1.854,0-1.854C58.393,141.482,58.393,143.337,59.589,143.337z"/>
	<path fill="#FFFFFF" d="M58.848,150.263c1.197,0,1.197-1.854,0-1.854S57.652,150.263,58.848,150.263z"/>
	<path fill="#FFFFFF" d="M63.3,150.263c1.197,0,1.197-1.854,0-1.854C62.104,148.408,62.104,150.263,63.3,150.263z"/>
	<path fill="#FFFFFF" d="M69.73,150.263c1.197,0,1.197-1.854,0-1.854C68.535,148.408,68.535,150.263,69.73,150.263z"/>
	<path fill="#FFFFFF" d="M68.247,146.058c1.196,0,1.196-1.854,0-1.854C67.051,144.204,67.051,146.058,68.247,146.058z"/>
	<path fill="#FFFFFF" d="M66.515,157.437c1.196,0,1.196-1.854,0-1.854C65.319,155.581,65.32,157.437,66.515,157.437z"/>
	<path fill="#FFFFFF" d="M61.569,156.445c1.196,0,1.196-1.854,0-1.854C60.372,154.591,60.372,156.445,61.569,156.445z"/>
	<path fill="#FFFFFF" d="M65.527,152.983c1.196,0,1.196-1.854,0-1.854C64.33,151.13,64.33,152.983,65.527,152.983z"/>
	<path fill="#FFFFFF" d="M70.968,155.21c1.196,0,1.196-1.854,0-1.854C69.771,153.355,69.771,155.21,70.968,155.21z"/>
	<path fill="#FFFFFF" d="M73.439,153.727c1.196,0,1.196-1.854,0-1.854C72.244,151.872,72.244,153.727,73.439,153.727z"/>
	<path fill="#FFFFFF" d="M76.656,157.931c1.197,0,1.197-1.854,0-1.854C75.459,156.075,75.459,157.931,76.656,157.931z"/>
	<path fill="#FFFFFF" d="M73.439,165.103c1.196,0,1.196-1.854,0-1.854C72.244,163.249,72.244,165.103,73.439,165.103z"/>
	<path fill="#FFFFFF" d="M72.946,160.403c1.196,0,1.196-1.855,0-1.855C71.75,158.548,71.75,160.403,72.946,160.403z"/>
	<path fill="#FFFFFF" d="M67.75,161.888c1.196,0,1.196-1.854,0-1.854C66.555,160.033,66.556,161.888,67.75,161.888z"/>
	<path fill="#FFFFFF" d="M77.396,167.824c1.196,0,1.196-1.854,0-1.854C76.202,165.97,76.202,167.824,77.396,167.824z"/>
	<path fill="#FFFFFF" d="M77.396,164.113c1.196,0,1.196-1.854,0-1.854C76.202,162.259,76.202,164.113,77.396,164.113z"/>
	<path fill="#FFFFFF" d="M83.581,163.866c1.196,0,1.196-1.854,0-1.854C82.385,162.013,82.385,163.866,83.581,163.866z"/>
	<path fill="#FFFFFF" d="M80.614,162.134c1.196,0,1.196-1.854,0-1.854C79.417,160.28,79.417,162.134,80.614,162.134z"/>
	<path fill="#FFFFFF" d="M83.829,159.663c1.196,0,1.196-1.855,0-1.855C82.633,157.808,82.633,159.663,83.829,159.663z"/>
	<path fill="#FFFFFF" d="M89.27,162.876c1.196,0,1.196-1.854,0-1.854C88.074,161.022,88.074,162.876,89.27,162.876z"/>
	<path fill="#FFFFFF" d="M86.797,167.824c1.197,0,1.197-1.854,0-1.854C85.6,165.97,85.601,167.824,86.797,167.824z"/>
	<path fill="#FFFFFF" d="M81.603,168.318c1.196,0,1.196-1.854,0-1.854C80.406,166.464,80.407,168.318,81.603,168.318z"/>
	<path fill="#FFFFFF" d="M88.033,159.167c1.196,0,1.196-1.854,0-1.854C86.836,157.312,86.838,159.167,88.033,159.167z"/>
	<path fill="#FFFFFF" d="M94.217,159.167c1.196,0,1.196-1.854,0-1.854C93.021,157.312,93.021,159.167,94.217,159.167z"/>
	<path fill="#FFFFFF" d="M94.217,163.866c1.196,0,1.196-1.854,0-1.854C93.021,162.013,93.021,163.866,94.217,163.866z"/>
	<path fill="#FFFFFF" d="M91.496,168.565c1.196,0,1.196-1.855,0-1.855C90.3,166.71,90.3,168.565,91.496,168.565z"/>
	<path fill="#FFFFFF" d="M96.938,166.835c1.196,0,1.196-1.855,0-1.855C95.742,164.979,95.742,166.835,96.938,166.835z"/>
	<path fill="#FFFFFF" d="M100.153,164.608c1.197,0,1.197-1.854,0-1.854C98.956,162.753,98.956,164.608,100.153,164.608z"/>
	<path fill="#FFFFFF" d="M97.927,161.394c1.196,0,1.196-1.854,0-1.854C96.73,159.538,96.731,161.394,97.927,161.394z"/>
	<path fill="#FFFFFF" d="M97.432,157.437c1.196,0,1.196-1.854,0-1.854S96.236,157.437,97.432,157.437z"/>
	<path fill="#FFFFFF" d="M97.927,154.468c1.196,0,1.196-1.854,0-1.854C96.73,152.613,96.731,154.468,97.927,154.468z"/>
	<path fill="#FFFFFF" d="M94.958,154.962c1.197,0,1.197-1.854,0-1.854C93.763,153.107,93.764,154.962,94.958,154.962z"/>
	<path fill="#FFFFFF" d="M90.506,156.693c1.197,0,1.197-1.854,0-1.854C89.311,154.839,89.311,156.693,90.506,156.693z"/>
	<path fill="#FFFFFF" d="M80.861,157.188c1.196,0,1.196-1.854,0-1.854C79.665,155.335,79.664,157.188,80.861,157.188z"/>
	<path fill="#FFFFFF" d="M73.194,129.982c1.196,0,1.196-1.855,0-1.855C71.997,128.127,71.998,129.982,73.194,129.982z"/>
	<path fill="#FFFFFF" d="M73.936,122.314c1.196,0,1.196-1.854,0-1.854C72.739,120.459,72.739,122.314,73.936,122.314z"/>
	<path fill="#FFFFFF" d="M74.183,115.142c1.196,0,1.196-1.854,0-1.854C72.987,113.288,72.987,115.142,74.183,115.142z"/>
	<path fill="#FFFFFF" d="M101.143,138.144c1.196,0,1.196-1.855,0-1.855C99.946,136.289,99.946,138.144,101.143,138.144z"/>
	<path fill="#FFFFFF" d="M99.906,131.712c1.196,0,1.196-1.855,0-1.855C98.709,129.857,98.709,131.712,99.906,131.712z"/>
	<path fill="#FFFFFF" d="M95.702,128.498c1.196,0,1.196-1.855,0-1.855S94.506,128.498,95.702,128.498z"/>
	<path fill="#FFFFFF" d="M91,126.024c1.197,0,1.197-1.855,0-1.855C89.806,124.169,89.806,126.024,91,126.024z"/>
	<path fill="#FFFFFF" d="M91,122.067c1.197,0,1.197-1.855,0-1.855C89.806,120.212,89.806,122.067,91,122.067z"/>
	<path fill="#FFFFFF" d="M87.539,124.788c1.196,0,1.196-1.854,0-1.854C86.344,122.934,86.344,124.788,87.539,124.788z"/>
	<path fill="#FFFFFF" d="M90.012,113.657c1.196,0,1.196-1.855,0-1.855C88.815,111.802,88.814,113.657,90.012,113.657z"/>
	<path fill="#FFFFFF" d="M91.991,117.614c1.196,0,1.196-1.854,0-1.854C90.793,115.759,90.793,117.614,91.991,117.614z"/>
	<path fill="#FFFFFF" d="M94.217,114.647c1.196,0,1.196-1.854,0-1.854C93.021,112.793,93.021,114.647,94.217,114.647z"/>
	<path fill="#FFFFFF" d="M98.421,116.13c1.197,0,1.197-1.854,0-1.854C97.225,114.276,97.225,116.13,98.421,116.13z"/>
	<path fill="#FFFFFF" d="M103.863,162.134c1.196,0,1.196-1.854,0-1.854C102.667,160.28,102.667,162.134,103.863,162.134z"/>
	<path fill="#FFFFFF" d="M103.616,158.919c1.196,0,1.196-1.854,0-1.854C102.418,157.064,102.418,158.919,103.616,158.919z"/>
	<path fill="#FFFFFF" d="M103.616,152.488c1.196,0,1.196-1.854,0-1.854C102.418,150.634,102.418,152.488,103.616,152.488z"/>
	<path fill="#FFFFFF" d="M101.143,156.445c1.196,0,1.196-1.854,0-1.854C99.946,154.591,99.946,156.445,101.143,156.445z"/>
	<path fill="#FFFFFF" d="M101.143,151.501c1.196,0,1.196-1.855,0-1.855C99.946,149.646,99.946,151.501,101.143,151.501z"/>
	<path fill="#FFFFFF" d="M101.143,146.8c1.196,0,1.196-1.854,0-1.854C99.946,144.945,99.946,146.8,101.143,146.8z"/>
	<path fill="#FFFFFF" d="M97.68,150.263c1.196,0,1.196-1.854,0-1.854C96.482,148.408,96.484,150.263,97.68,150.263z"/>
	<path fill="#FFFFFF" d="M85.312,156.445c1.196,0,1.196-1.854,0-1.854C84.117,154.591,84.117,156.445,85.312,156.445z"/>
	<path fill="#FFFFFF" d="M76.904,154.714c1.197,0,1.197-1.854,0-1.854C75.707,152.86,75.707,154.714,76.904,154.714z"/>
	<path fill="#FFFFFF" d="M67.01,128.25c1.196,0,1.196-1.855,0-1.855C65.813,126.396,65.813,128.25,67.01,128.25z"/>
	<path fill="#FFFFFF" d="M62.805,140.864c1.197,0,1.197-1.855,0-1.855C61.609,139.009,61.609,140.864,62.805,140.864z"/>
	<path fill="#FFFFFF" d="M61.322,147.542c1.196,0,1.196-1.854,0-1.854C60.125,145.688,60.125,147.542,61.322,147.542z"/>
	<path fill="#FFFFFF" d="M56.127,146.8c1.196,0,1.196-1.854,0-1.854C54.931,144.945,54.932,146.8,56.127,146.8z"/>
	<path fill="#FFFFFF" d="M56.127,141.111c1.196,0,1.196-1.854,0-1.854C54.931,139.256,54.932,141.111,56.127,141.111z"/>
	<path fill="#FFFFFF" d="M107.82,156.693c1.197,0,1.197-1.854,0-1.854C106.624,154.839,106.624,156.693,107.82,156.693z"/>
	<path fill="#FFFFFF" d="M107.82,153.973c1.197,0,1.197-1.854,0-1.854C106.624,152.118,106.624,153.973,107.82,153.973z"/>
	<path fill="#FFFFFF" d="M107.325,149.769c1.196,0,1.196-1.855,0-1.855S106.129,149.769,107.325,149.769z"/>
	<path fill="#FFFFFF" d="M104.11,148.778c1.196,0,1.196-1.854,0-1.854C102.914,146.923,102.914,148.778,104.11,148.778z"/>
	<path fill="#FFFFFF" d="M104.11,143.833c1.196,0,1.196-1.854,0-1.854C102.914,141.979,102.914,143.833,104.11,143.833z"/>
	<path fill="#FFFFFF" d="M101.143,141.606c1.196,0,1.196-1.855,0-1.855C99.946,139.751,99.946,141.606,101.143,141.606z"/>
	<path fill="#FFFFFF" d="M104.604,141.606c1.197,0,1.197-1.855,0-1.855C103.409,139.751,103.409,141.606,104.604,141.606z"/>
	<path fill="#FFFFFF" d="M104.604,136.413c1.197,0,1.197-1.854,0-1.854C103.409,134.559,103.409,136.413,104.604,136.413z"/>
	<path fill="#FFFFFF" d="M102.874,134.187c1.196,0,1.196-1.854,0-1.854C101.677,132.333,101.677,134.187,102.874,134.187z"/>
	<path fill="#FFFFFF" d="M100.153,128.746c1.197,0,1.197-1.855,0-1.855C98.956,126.891,98.956,128.746,100.153,128.746z"/>
	<path fill="#FFFFFF" d="M98.667,125.777c1.197,0,1.197-1.855,0-1.855C97.473,123.922,97.473,125.777,98.667,125.777z"/>
	<path fill="#FFFFFF" d="M94.711,123.798c1.197,0,1.197-1.854,0-1.854C93.515,121.944,93.515,123.798,94.711,123.798z"/>
	<path fill="#FFFFFF" d="M94.958,120.83c1.197,0,1.197-1.854,0-1.854C93.763,118.976,93.764,120.83,94.958,120.83z"/>
	<path fill="#FFFFFF" d="M98.667,120.83c1.197,0,1.197-1.854,0-1.854C97.473,118.976,97.473,120.83,98.667,120.83z"/>
	<path fill="#FFFFFF" d="M102.377,121.078c1.197,0,1.197-1.855,0-1.855C101.182,119.222,101.183,121.078,102.377,121.078z"/>
	<path fill="#FFFFFF" d="M102.377,117.368c1.197,0,1.197-1.854,0-1.854C101.182,115.513,101.183,117.368,102.377,117.368z"/>
	<path fill="#FFFFFF" d="M110.788,151.995c1.197,0,1.197-1.854,0-1.854C109.592,150.141,109.592,151.995,110.788,151.995z"/>
	<path fill="#FFFFFF" d="M111.036,148.532c1.196,0,1.196-1.855,0-1.855S109.84,148.532,111.036,148.532z"/>
	<path fill="#FFFFFF" d="M108.068,146.306c1.196,0,1.196-1.854,0-1.854C106.871,144.45,106.871,146.306,108.068,146.306z"/>
	<path fill="#FFFFFF" d="M108.068,141.854c1.196,0,1.196-1.854,0-1.854C106.871,140,106.871,141.854,108.068,141.854z"/>
	<path fill="#FFFFFF" d="M111.531,144.327c1.196,0,1.196-1.854,0-1.854C110.333,142.473,110.333,144.327,111.531,144.327z"/>
	<path fill="#FFFFFF" d="M113.262,140.123c1.195,0,1.195-1.854,0-1.854C112.065,138.268,112.065,140.123,113.262,140.123z"/>
	<path fill="#FFFFFF" d="M110.292,138.392c1.196,0,1.196-1.854,0-1.854C109.098,136.537,109.098,138.392,110.292,138.392z"/>
	<path fill="#FFFFFF" d="M106.832,138.144c1.196,0,1.196-1.855,0-1.855C105.636,136.289,105.636,138.144,106.832,138.144z"/>
	<path fill="#FFFFFF" d="M106.583,133.196c1.196,0,1.196-1.854,0-1.854C105.388,131.342,105.388,133.196,106.583,133.196z"/>
	<path fill="#FFFFFF" d="M103.616,130.724c1.196,0,1.196-1.854,0-1.854C102.418,128.87,102.418,130.724,103.616,130.724z"/>
	<path fill="#FFFFFF" d="M103.121,127.508c1.196,0,1.196-1.854,0-1.854C101.925,125.654,101.925,127.508,103.121,127.508z"/>
	<path fill="#FFFFFF" d="M102.377,125.035c1.197,0,1.197-1.854,0-1.854C101.182,123.18,101.183,125.035,102.377,125.035z"/>
	<path fill="#FFFFFF" d="M105.348,123.55c1.196,0,1.196-1.854,0-1.854C104.151,121.696,104.151,123.55,105.348,123.55z"/>
	<path fill="#FFFFFF" d="M113.262,135.67c1.195,0,1.195-1.855,0-1.855C112.065,133.815,112.065,135.67,113.262,135.67z"/>
	<path fill="#FFFFFF" d="M112.52,132.456c1.196,0,1.196-1.855,0-1.855C111.324,130.601,111.324,132.456,112.52,132.456z"/>
	<path fill="#FFFFFF" d="M111.036,128.746c1.196,0,1.196-1.855,0-1.855S109.84,128.746,111.036,128.746z"/>
	<path fill="#FFFFFF" d="M109.304,125.529c1.197,0,1.197-1.854,0-1.854C108.107,123.674,108.107,125.529,109.304,125.529z"/>
	<path fill="#FFFFFF" d="M106.832,127.755c1.196,0,1.196-1.854,0-1.854C105.636,125.9,105.636,127.755,106.832,127.755z"/>
	<path fill="#FFFFFF" d="M109.799,134.928c1.197,0,1.197-1.855,0-1.855C108.603,133.073,108.603,134.928,109.799,134.928z"/>
	<path fill="#FFFFFF" d="M109.057,131.465c1.196,0,1.196-1.854,0-1.854C107.859,129.611,107.862,131.465,109.057,131.465z"/>
	<path fill="#FFFFFF" d="M79.871,126.024c1.196,0,1.196-1.855,0-1.855C78.676,124.169,78.676,126.024,79.871,126.024z"/>
	<path fill="#FFFFFF" d="M79.624,120.83c1.196,0,1.196-1.854,0-1.854C78.428,118.976,78.428,120.83,79.624,120.83z"/>
	<path fill="#FFFFFF" d="M79.376,116.874c1.197,0,1.197-1.855,0-1.855C78.181,115.019,78.181,116.874,79.376,116.874z"/>
	<path fill="#FFFFFF" d="M72.452,128.003c1.196,0,1.196-1.854,0-1.854S71.255,128.003,72.452,128.003z"/>
	<path fill="#FFFFFF" d="M69.236,135.67c1.196,0,1.196-1.855,0-1.855C68.039,133.815,68.04,135.67,69.236,135.67z"/>
	<path fill="#FFFFFF" d="M64.784,133.939c1.196,0,1.196-1.854,0-1.854S63.589,133.939,64.784,133.939z"/>
	<path fill="#FFFFFF" d="M60.332,131.96c1.196,0,1.196-1.854,0-1.854C59.135,130.106,59.135,131.96,60.332,131.96z"/>
	<path fill="#FFFFFF" d="M64.29,161.394c1.196,0,1.196-1.854,0-1.854C63.094,159.54,63.094,161.394,64.29,161.394z"/>
	<path fill="#FFFFFF" d="M69.977,165.35c1.197,0,1.197-1.854,0-1.854C68.782,163.497,68.782,165.35,69.977,165.35z"/>
	<path fill="#FFFFFF" d="M69.977,158.673c1.197,0,1.197-1.854,0-1.854C68.782,156.818,68.782,158.673,69.977,158.673z"/>
	<path fill="#FFFFFF" d="M65.772,149.274c1.196,0,1.196-1.854,0-1.854C64.577,147.419,64.577,149.274,65.772,149.274z"/>
	<path fill="#FFFFFF" d="M67.257,141.854c1.197,0,1.197-1.854,0-1.854C66.062,140,66.062,141.854,67.257,141.854z"/>
	<path fill="#FFFFFF" d="M56.127,135.918c1.196,0,1.196-1.854,0-1.854C54.931,134.063,54.932,135.918,56.127,135.918z"/>
	<path fill="#FFFFFF" d="M69.977,122.314c1.197,0,1.197-1.854,0-1.854C68.782,120.459,68.782,122.314,69.977,122.314z"/>
	<path fill="#FFFFFF" d="M64.537,125.529c1.196,0,1.196-1.854,0-1.854C63.34,123.674,63.34,125.529,64.537,125.529z"/>
	<path fill="#FFFFFF" d="M58.601,128.746c1.196,0,1.196-1.855,0-1.855C57.405,126.891,57.405,128.746,58.601,128.746z"/>
	<path fill="#FFFFFF" d="M87.043,115.883c1.195,0,1.195-1.854,0-1.854C85.848,114.029,85.848,115.883,87.043,115.883z"/>
	<path fill="#FFFFFF" d="M85.559,122.809c1.196,0,1.196-1.854,0-1.854C84.363,120.955,84.364,122.809,85.559,122.809z"/>
	<circle fill="#BFA27F" cx="181.325" cy="41.409" r="34.253"/>
	<path fill="#132B3F" d="M181.325,7.156v-3.6c-10.441-0.002-19.927,4.242-26.766,11.086c-6.845,6.838-11.089,16.324-11.087,26.766
		c-0.002,10.441,4.243,19.927,11.087,26.766c6.839,6.845,16.325,11.089,26.766,11.087c10.441,0.002,19.927-4.242,26.766-11.087
		c6.845-6.838,11.089-16.324,11.087-26.766c0.002-10.442-4.242-19.928-11.087-26.766c-6.838-6.844-16.325-11.088-26.766-11.086
		V7.156v3.6c8.476,0.002,16.116,3.425,21.675,8.978c5.553,5.559,8.977,13.199,8.978,21.675c-0.001,8.476-3.425,16.116-8.978,21.675
		c-5.559,5.553-13.199,8.977-21.675,8.979c-8.476-0.002-16.117-3.426-21.675-8.979c-5.553-5.559-8.977-13.199-8.979-21.675
		c0.002-8.476,3.426-16.117,8.979-21.675c5.559-5.553,13.199-8.976,21.675-8.978V7.156z"/>
	<ellipse fill="#EFE578" cx="203.285" cy="41.932" rx="4.131" ry="10.272"/>
	<path fill="#6D5D47" d="M76.781,205.814c-19.622,0-35.529,15.908-35.529,35.532c0,19.622,15.906,35.529,35.529,35.529
		c19.623,0,35.531-15.907,35.531-35.529C112.312,221.722,96.404,205.814,76.781,205.814z M76.781,252.025
		c-5.899,0-10.681-4.781-10.681-10.68c0-5.9,4.781-10.682,10.681-10.682c5.9,0,10.681,4.781,10.681,10.682
		C87.462,247.244,82.68,252.025,76.781,252.025z"/>
	<path fill="#132B3F" d="M76.781,205.814v-3.734c-10.83-0.002-20.669,4.401-27.763,11.5c-7.099,7.094-11.501,16.934-11.5,27.765
		c-0.002,10.83,4.4,20.67,11.5,27.764c7.093,7.099,16.933,11.502,27.763,11.5c10.831,0.002,20.671-4.4,27.765-11.5
		c7.1-7.094,11.502-16.934,11.5-27.764c0.002-10.831-4.401-20.671-11.5-27.765c-7.094-7.1-16.934-11.502-27.765-11.5V205.814v3.734
		c8.792,0.002,16.718,3.553,22.484,9.313c5.76,5.766,9.312,13.692,9.313,22.484c-0.002,8.792-3.553,16.717-9.313,22.482
		c-5.766,5.76-13.691,9.311-22.484,9.312c-8.792-0.002-16.717-3.553-22.482-9.312c-5.759-5.766-9.311-13.69-9.312-22.482
		c0.002-8.792,3.553-16.718,9.313-22.484c5.766-5.76,13.69-9.312,22.482-9.313V205.814z M76.781,252.025v-3.734
		c-1.93-0.002-3.644-0.771-4.912-2.034c-1.263-1.269-2.033-2.981-2.035-4.911c0.002-1.931,0.772-3.644,2.035-4.913
		c1.269-1.263,2.981-2.033,4.912-2.035c1.932,0.002,3.644,0.772,4.913,2.035c1.263,1.269,2.033,2.981,2.035,4.913
		c-0.002,1.93-0.772,3.643-2.035,4.911c-1.269,1.263-2.982,2.032-4.913,2.034V252.025v3.734c3.969,0.002,7.596-1.619,10.193-4.222
		c2.603-2.597,4.224-6.224,4.222-10.192c0.002-3.969-1.619-7.597-4.221-10.194c-2.597-2.603-6.225-4.224-10.194-4.222
		c-3.969-0.002-7.597,1.619-10.193,4.222c-2.603,2.597-4.223,6.225-4.221,10.193c-0.002,3.969,1.619,7.596,4.222,10.192
		c2.597,2.603,6.224,4.224,10.193,4.222V252.025z"/>
	<path fill="#FFFFFF" d="M104.075,264.091c1.566-1.878,2.942-3.92,4.098-6.097c-4.189,1.686-8.968,2.393-13.231,3.207
		c-7.381,1.41-14.81,2.57-22.114,4.359c-5.282,1.295-10.68,2.932-15.546,5.486c1.607,1.059,3.306,1.99,5.081,2.778
		c4.045-1.747,8.351-2.941,12.614-3.97c7.424-1.793,14.984-2.929,22.476-4.385C99.611,265.052,101.853,264.628,104.075,264.091z"/>
	<path fill="#FFFFFF" d="M97.52,247.175c-11.248,2.998-22.097,7.341-33.164,10.915c-4.688,1.516-9.447,2.979-14.32,3.78
		c-0.677,0.11-1.186,0.179-2.083,0.246c1.098,1.521,2.311,2.948,3.628,4.274c2.653-0.455,5.28-1.181,7.814-1.894
		c11.195-3.153,22.02-7.495,33.112-10.976c4.514-1.416,9.849-2.965,14.108-3.533c1.547-0.206,3.125-0.32,4.685-0.204
		c0.375-1.542,0.652-3.122,0.82-4.734C107.244,244.414,101.094,246.225,97.52,247.175z"/>
	<path fill="#FFFFFF" d="M85.884,206.995c-7.285,0.945-14.326,3.537-21.167,6.104c-5.311,1.992-10.56,4.139-15.829,6.237
		c-1.632,2.065-3.039,4.314-4.184,6.714c11.535-4.368,22.755-9.625,34.672-12.926c2.935-0.814,5.94-1.517,8.99-1.684
		c1.077-0.06,2.257-0.022,3.07,0.129c0.477,0.088,0.94,0.23,1.394,0.397c-0.333-0.123,0.824,0.575,0.694,0.431
		c0.126,0.11,0.246,0.232,0.359,0.354l0.024,0.025c0.062,0.092,0.119,0.187,0.174,0.284c-0.03,0.036-0.169,0.331-0.259,0.483
		l-0.013,0.013c-0.097,0.116-0.204,0.223-0.311,0.331c-0.206,0.211-0.43,0.404-0.657,0.592c0.155-0.139-0.658,0.469-0.831,0.581
		c-3.771,2.48-8.014,3.882-12.254,5.37c-5.698,2-11.479,3.763-17.232,5.601c-5.625,1.796-11.253,3.627-16.729,5.85
		c-1.212,0.491-2.442,0.999-3.659,1.544c-0.415,1.827-0.689,3.708-0.811,5.632c0.128-0.07,0.256-0.141,0.385-0.208
		c2.109-1.117,4.31-2.057,6.529-2.935c5.557-2.197,11.264-4.012,16.956-5.823c5.7-1.814,11.419-3.576,17.053-5.587
		c4.238-1.513,8.696-3.089,12.454-5.62c2.04-1.375,3.818-3.253,3.979-5.517C94.947,210.437,90.609,208.242,85.884,206.995z"/>
	<path fill="#FFFFFF" d="M74.516,232.684c-10.312,3.262-20.519,7.07-31.035,9.642c-0.729,0.178-1.462,0.34-2.197,0.494
		c0.064,1.588,0.233,3.147,0.499,4.676c3.746-0.691,7.427-1.82,11.061-2.923c5.393-1.64,10.742-3.429,16.101-5.179
		c10.13-3.305,21.089-7.162,31.335-8.519c1.89-0.25,3.802-0.395,5.708-0.302c0.324,0.016,0.65,0.045,0.974,0.081
		c-0.177-0.013,0.618,0.111,0.767,0.143c0.317,0.069,0.626,0.161,0.934,0.263l0.143,0.053c0.126,0.06,0.252,0.121,0.374,0.187
		c0.119,0.065,0.233,0.14,0.346,0.214c0.107,0.102,0.286,0.303,0.359,0.378l0.117,0.198c-0.038-0.046,0.064,0.234,0.141,0.472
		c0.007,0.071,0.016,0.173,0.023,0.272c-0.016,0.114-0.042,0.281-0.071,0.393c-0.051,0.1-0.106,0.197-0.164,0.293
		c-0.058,0.095-0.091,0.156-0.112,0.195c-0.03,0.022-0.09,0.079-0.208,0.206c-0.21,0.225-0.44,0.428-0.675,0.626l-0.018,0.014
		l-0.034,0.025c-0.141,0.104-0.286,0.201-0.431,0.297c-0.703,0.47-1.457,0.862-2.217,1.228c-1.458,0.699-3.431,1.374-5.367,1.964
		c-5.018,1.529-10.182,2.576-15.322,3.595c-11.046,2.19-22.319,3.813-33.094,7.172c-2.589,0.808-6.31,2.087-9.298,4.005
		c0.517,1.514,1.134,2.979,1.842,4.393l0.202-0.145c0.33-0.229,0.675-0.439,1.02-0.646c0.836-0.497,1.714-0.921,2.598-1.318
		c1.561-0.7,4.003-1.518,5.99-2.112c10.877-3.264,22.221-4.871,33.335-7.103c5.04-1.012,10.093-2.088,14.997-3.646
		c3.076-0.979,6.494-2.166,9.009-4.322c-0.393-4.142-1.497-8.075-3.188-11.679c-1.473-0.337-3.033-0.416-4.427-0.405
		c-4.582,0.037-9.19,1.045-13.625,2.113C85.38,229.306,79.934,230.97,74.516,232.684z"/>
	<path fill="#132B3F" d="M76.781,205.814v-3.734c-10.83-0.002-20.669,4.401-27.763,11.5c-7.099,7.094-11.501,16.934-11.5,27.765
		c-0.002,10.83,4.4,20.67,11.5,27.764c7.093,7.099,16.933,11.502,27.763,11.5c10.831,0.002,20.671-4.4,27.765-11.5
		c7.1-7.094,11.502-16.934,11.5-27.764c0.002-10.831-4.401-20.671-11.5-27.765c-7.094-7.1-16.934-11.502-27.765-11.5V205.814v3.734
		c8.792,0.002,16.718,3.553,22.484,9.313c5.76,5.766,9.312,13.692,9.313,22.484c-0.002,8.792-3.553,16.717-9.313,22.482
		c-5.766,5.76-13.691,9.311-22.484,9.312c-8.792-0.002-16.717-3.553-22.482-9.312c-5.759-5.766-9.311-13.69-9.312-22.482
		c0.002-8.792,3.553-16.718,9.313-22.484c5.766-5.76,13.69-9.312,22.482-9.313V205.814z"/>
	<path fill="#132B3F" d="M76.781,230.663v3.734c1.931,0.002,3.644,0.772,4.913,2.035c1.263,1.269,2.033,2.981,2.035,4.912
		c-0.002,1.931-0.772,3.644-2.035,4.913c-1.269,1.263-2.982,2.032-4.913,2.034c-1.93-0.002-3.643-0.771-4.912-2.034
		c-1.263-1.27-2.033-2.982-2.035-4.913c0.002-1.931,0.772-3.643,2.035-4.912c1.269-1.263,2.982-2.033,4.912-2.035V230.663v-3.734
		c-3.969-0.002-7.596,1.619-10.193,4.222c-2.603,2.597-4.224,6.224-4.222,10.193c-0.002,3.969,1.619,7.597,4.222,10.193
		c2.597,2.603,6.224,4.225,10.193,4.223c3.969,0.002,7.597-1.619,10.193-4.223c2.603-2.597,4.224-6.225,4.222-10.193
		c0.002-3.969-1.619-7.596-4.222-10.193c-2.597-2.603-6.225-4.224-10.193-4.222V230.663z"/>
	<circle fill="#132B3F" cx="76.781" cy="241.344" r="10.681"/>
	<circle fill="#BFA27F" cx="151.982" cy="204.389" r="35.254"/>
	<path fill="#132B3F" d="M151.982,239.643v3.705c10.746,0.002,20.508-4.367,27.546-11.411c7.044-7.038,11.411-16.801,11.41-27.547
		c0.002-10.747-4.366-20.51-11.41-27.548c-7.038-7.045-16.8-11.413-27.546-11.411c-10.747-0.002-20.51,4.366-27.548,11.41
		c-7.044,7.039-11.413,16.802-11.411,27.549c-0.002,10.746,4.366,20.509,11.411,27.548c7.039,7.044,16.802,11.413,27.548,11.411
		V239.643v-3.705c-8.724-0.002-16.588-3.525-22.309-9.24c-5.715-5.721-9.238-13.584-9.24-22.308
		c0.002-8.725,3.525-16.589,9.24-22.31c5.721-5.715,13.584-9.238,22.309-9.24c8.723,0.002,16.586,3.525,22.307,9.24
		c5.714,5.721,9.237,13.584,9.239,22.309c-0.002,8.724-3.525,16.587-9.239,22.308c-5.721,5.715-13.583,9.238-22.307,9.24V239.643z"
		/>
	<path fill="#EFE578" d="M140.634,189.482c-1.22,1.333-2.162,2.945-2.859,4.731c-0.65,1.67-1.085,3.493-1.334,5.382
		c-0.238,1.812-0.305,3.687-0.219,5.55c0.084,1.875,0.32,3.738,0.685,5.513c0.392,1.907,0.931,3.712,1.588,5.321
		c0.786,1.922,1.74,3.563,2.812,4.763c1.368,1.53,3.306,2.688,5.581,3.49c1.966,0.694,4.184,1.122,6.502,1.294
		c2.166,0.162,4.421,0.102,6.638-0.173c2.238-0.277,4.438-0.77,6.475-1.474c2.212-0.764,4.233-1.773,5.897-3.016
		c1.897-1.417,3.333-3.138,4.065-5.145c0.592-1.62,1.119-3.308,1.548-5.03c0.424-1.707,0.75-3.445,0.939-5.175
		c0.195-1.772,0.248-3.538,0.12-5.256c-0.132-1.782-0.458-3.515-1.02-5.15c-0.569-1.652-1.38-3.208-2.477-4.618
		c-1.025-1.318-2.301-2.511-3.864-3.541c-1.513-0.996-3.208-1.807-5.015-2.425c-1.729-0.594-3.561-1.013-5.434-1.252
		c-1.838-0.236-3.716-0.298-5.574-0.184c-1.876,0.115-3.731,0.409-5.505,0.887c-1.833,0.495-3.577,1.186-5.169,2.078
		C143.363,186.979,141.878,188.12,140.634,189.482z"/>
	<ellipse fill="#FFFFFF" cx="129.381" cy="203.849" rx="4.251" ry="10.573"/>
	<path fill="#EFCC9A" d="M164.521,86.891c-17.813,0-32.253,14.44-32.253,32.254c0,17.813,14.44,32.253,32.253,32.253
		s32.253-14.44,32.253-32.253C196.773,101.331,182.334,86.891,164.521,86.891 M164.521,128.841c-5.355,0-9.696-4.341-9.696-9.696
		s4.341-9.696,9.696-9.696c5.356,0,9.696,4.34,9.696,9.696C174.217,124.5,169.877,128.841,164.521,128.841"/>
	<path fill="#132B3F" d="M164.521,86.891v-3.39c-9.832-0.001-18.764,3.995-25.203,10.439c-6.445,6.439-10.441,15.372-10.439,25.204
		c-0.002,9.832,3.995,18.764,10.439,25.203c6.439,6.445,15.372,10.441,25.203,10.439c9.832,0.001,18.764-3.995,25.203-10.439
		c6.445-6.439,10.441-15.371,10.439-25.203c0.001-9.833-3.995-18.765-10.44-25.204c-6.439-6.445-15.371-10.441-25.203-10.439V86.891
		v3.39c7.981,0.002,15.175,3.225,20.409,8.454c5.228,5.234,8.452,12.429,8.454,20.411c-0.002,7.981-3.225,15.175-8.454,20.41
		c-5.234,5.229-12.428,8.452-20.409,8.454c-7.981-0.002-15.176-3.225-20.41-8.454c-5.228-5.234-8.452-12.429-8.454-20.41
		c0.001-7.982,3.226-15.176,8.454-20.411c5.233-5.229,12.428-8.452,20.409-8.454V86.891 M164.521,128.841v-3.39
		c-1.752-0.002-3.308-0.701-4.459-1.847c-1.146-1.152-1.845-2.707-1.847-4.459c0.002-1.752,0.701-3.308,1.847-4.459
		c1.152-1.146,2.707-1.845,4.459-1.847c1.753,0.002,3.308,0.701,4.459,1.847c1.146,1.151,1.845,2.706,1.847,4.459
		c-0.002,1.752-0.7,3.308-1.847,4.459c-1.152,1.146-2.707,1.845-4.459,1.847V128.841v3.39c3.603,0.002,6.896-1.47,9.253-3.833
		c2.363-2.358,3.834-5.65,3.832-9.253c0.002-3.603-1.469-6.896-3.832-9.253c-2.357-2.363-5.65-3.834-9.253-3.832
		c-3.603-0.002-6.896,1.47-9.253,3.833c-2.363,2.357-3.834,5.65-3.833,9.253c-0.001,3.603,1.47,6.896,3.833,9.253
		c2.357,2.363,5.65,3.834,9.253,3.833V128.841"/>
	<path fill="#6D5D47" d="M164.521,86.891c-17.813,0-32.253,14.44-32.253,32.254c0,17.813,14.44,32.253,32.253,32.253
		s32.253-14.44,32.253-32.253C196.773,101.331,182.334,86.891,164.521,86.891"/>
	<path fill="#132B3F" d="M164.521,86.891v-3.39c-9.832-0.001-18.764,3.995-25.203,10.439c-6.445,6.439-10.441,15.372-10.439,25.204
		c-0.002,9.832,3.995,18.764,10.439,25.203c6.439,6.445,15.372,10.441,25.203,10.439c9.832,0.001,18.764-3.995,25.203-10.439
		c6.445-6.439,10.441-15.371,10.439-25.203c0.001-9.833-3.995-18.765-10.44-25.204c-6.439-6.445-15.371-10.441-25.203-10.439V86.891
		v3.39c7.981,0.002,15.175,3.225,20.409,8.454c5.228,5.234,8.452,12.429,8.454,20.411c-0.002,7.981-3.225,15.175-8.454,20.41
		c-5.234,5.229-12.428,8.452-20.409,8.454c-7.981-0.002-15.176-3.225-20.41-8.454c-5.228-5.234-8.452-12.429-8.454-20.41
		c0.001-7.982,3.226-15.176,8.454-20.411c5.233-5.229,12.428-8.452,20.409-8.454V86.891"/>
	<path fill="#998E7F" d="M162.572,112.505c0.057,0,0.111-0.006,0.162-0.02c0.629-0.169,1.106-1.65,1.787-1.65
		s1.159,1.481,1.787,1.65c0.051,0.014,0.105,0.02,0.162,0.02c0.282,0,0.628-0.154,0.974-0.309c0.346-0.154,0.69-0.309,0.968-0.309
		c0.099,0,0.189,0.02,0.268,0.065c0.576,0.335,0.251,1.854,0.72,2.323c0.468,0.469,1.988,0.144,2.322,0.72
		c0.33,0.569-0.707,1.724-0.532,2.372c0.168,0.628,1.648,1.106,1.648,1.787c0,0.681-1.48,1.159-1.648,1.787
		c-0.175,0.65,0.862,1.802,0.532,2.373c-0.334,0.576-1.854,0.251-2.322,0.719c-0.469,0.469-0.144,1.988-0.72,2.322
		c-0.079,0.046-0.17,0.065-0.269,0.065c-0.278,0-0.623-0.154-0.968-0.309s-0.692-0.309-0.975-0.309c-0.057,0-0.111,0.006-0.162,0.02
		c-0.629,0.169-1.106,1.649-1.786,1.649c-0.681,0-1.158-1.479-1.787-1.649c-0.051-0.014-0.105-0.02-0.162-0.02
		c-0.282,0-0.629,0.154-0.975,0.309c-0.345,0.154-0.689,0.309-0.968,0.309c-0.099,0-0.189-0.02-0.269-0.065
		c-0.576-0.334-0.251-1.853-0.72-2.322c-0.469-0.468-1.989-0.143-2.323-0.719c-0.33-0.57,0.707-1.723,0.533-2.373
		c-0.169-0.628-1.649-1.105-1.649-1.787c0-0.681,1.48-1.159,1.649-1.787c0.174-0.649-0.862-1.803-0.533-2.372
		c0.334-0.577,1.854-0.251,2.323-0.72c0.469-0.468,0.144-1.989,0.72-2.323c0.079-0.046,0.169-0.065,0.269-0.065
		c0.278,0,0.623,0.155,0.968,0.309S162.29,112.505,162.572,112.505 M162.399,92.579c-0.098,0-0.195,0.003-0.293,0.009
		c-2.259,0.139-4.266,1.883-6.402,2.458c-2.207,0.597-4.839,0.128-6.755,1.202c-1.989,1.114-2.909,3.581-4.408,5.221
		c-1.468,1.607-3.784,2.814-4.622,4.965c-0.785,2.011,0.05,4.555-0.249,6.832c-0.287,2.183-1.773,4.379-1.672,6.623
		c0.102,2.258,1.786,4.327,2.225,6.463c0.471,2.297-0.227,4.882,0.564,6.82c0.946,2.314,3.277,3.553,4.569,4.998
		c1.647,1.843,3.218,4.375,5.957,5.34c0.812,0.286,1.692,0.374,2.612,0.374c0.728,0,1.479-0.055,2.241-0.11
		c0.761-0.055,1.532-0.109,2.297-0.109c0.325,0,0.649,0.01,0.971,0.034c2.325,0.173,4.759,1.25,7.15,1.25
		c0.293,0,0.586-0.016,0.878-0.052c2.694-0.333,5.026-2.299,7.479-3.145c2.666-0.919,5.752-0.899,7.756-2.396
		c2.286-1.705,2.926-4.587,3.81-7.004c0.712-1.951,2.699-3.572,3.213-5.643c0.512-2.056-0.487-4.397-0.258-6.482
		c0.234-2.134,1.707-4.236,1.553-6.305c-0.158-2.146-1.925-3.95-2.603-5.919c-0.685-1.99-0.435-4.527-1.755-6.226
		c-1.233-1.589-3.718-2.001-5.6-3.24c-1.822-1.199-3.245-3.436-5.421-4.181c-0.642-0.22-1.326-0.29-2.031-0.29
		c-0.617,0-1.25,0.053-1.885,0.107c-0.634,0.053-1.271,0.107-1.896,0.107c-0.354,0-0.705-0.017-1.049-0.062
		C166.655,93.947,164.537,92.58,162.399,92.579"/>
	<circle fill="#1A3F6D" cx="164.521" cy="119.145" r="9.696"/>
	<path fill="#132B3F" d="M164.521,109.449v3.39c1.752,0.002,3.307,0.701,4.459,1.847c1.146,1.152,1.845,2.707,1.847,4.459
		c-0.002,1.752-0.701,3.307-1.847,4.459c-1.152,1.146-2.707,1.845-4.459,1.847c-1.752-0.002-3.307-0.701-4.459-1.847
		c-1.146-1.152-1.845-2.707-1.847-4.459c0.002-1.752,0.701-3.307,1.847-4.459c1.152-1.146,2.707-1.845,4.459-1.847V109.449v-3.39
		c-3.603-0.002-6.896,1.47-9.253,3.833c-2.363,2.357-3.834,5.65-3.833,9.253c-0.002,3.603,1.47,6.896,3.833,9.253
		c2.357,2.363,5.65,3.834,9.253,3.833c3.603,0.002,6.896-1.47,9.253-3.833c2.363-2.357,3.834-5.65,3.833-9.253
		c0.002-3.603-1.47-6.896-3.833-9.253c-2.357-2.363-5.65-3.834-9.253-3.833V109.449z"/>
	<path fill="#A09F9F" d="M322.116,80.356c-13.685,0-26.722,2.773-38.579,7.789c-14.482,6.125-29.925-37.001-39.921-25.156
		c-14.558,17.252-20.613,92.139-20.613,116.48c0,28.96,12.42,55.019,32.225,73.141c17.629,16.131,41.109,25.973,66.889,25.973
		c21.989,0,42.306-7.16,58.745-19.277c24.484-18.046,40.368-47.086,40.368-79.836c0-16.328,1.38-99.899-5.613-113.48
		c-8.098-15.725-25.606,39.163-40.47,29.732C359.811,85.99,341.622,80.356,322.116,80.356z"/>
	<path fill="#1E416B" d="M322.116,80.356l0.094-7.5l-0.098,0c-14.698-0.001-28.739,2.983-41.497,8.381l-0.029,0.011l0.029,0.096
		l-0.015-0.099l-0.015,0.003l0.029,0.096l-0.015-0.099l0.018,0.12v-0.122l-0.018,0.002l0.018,0.12v-0.122
		c-0.002,0-0.064,0.001-0.232-0.044c-0.31-0.079-0.993-0.369-1.889-0.994c-0.782-0.541-1.715-1.316-2.71-2.273
		c-1.75-1.674-3.686-3.889-5.658-6.281c-1.482-1.795-2.994-3.69-4.53-5.556c-2.317-2.802-4.635-5.526-7.287-7.869
		c-1.337-1.169-2.769-2.26-4.499-3.167c-0.866-0.451-1.813-0.853-2.867-1.152c-1.051-0.298-2.214-0.49-3.447-0.49
		c-1.831-0.011-3.793,0.461-5.461,1.341c-1.68,0.875-3.049,2.081-4.154,3.392c-1.298,1.541-2.413,3.227-3.437,5.047
		c-1.912,3.411-3.516,7.312-4.979,11.656c-2.547,7.593-4.633,16.549-6.396,26.127c-2.637,14.357-4.517,30.084-5.751,44.169
		c-0.616,7.042-1.07,13.669-1.37,19.507c-0.3,5.84-0.448,10.879-0.449,14.811c-0.001,15.554,3.34,30.371,9.346,43.712
		c6.006,13.344,14.669,25.219,25.315,34.961c18.942,17.343,44.247,27.943,71.952,27.939c23.627,0.003,45.524-7.709,63.195-20.74
		c13.164-9.703,24.013-22.355,31.579-36.999c7.565-14.64,11.841-31.284,11.839-48.875c0-2.256,0.027-5.918,0.055-10.535
		c0.028-4.62,0.056-10.207,0.056-16.369c-0.001-15.62-0.176-34.911-0.99-51.669c-0.409-8.387-0.973-16.131-1.782-22.582
		c-0.407-3.23-0.872-6.136-1.444-8.715c-0.288-1.291-0.604-2.502-0.973-3.66c-0.373-1.159-0.791-2.261-1.366-3.384
		c-0.424-0.821-0.908-1.621-1.501-2.399c-0.884-1.159-2.04-2.301-3.564-3.167c-0.757-0.43-1.599-0.78-2.473-1.01
		c-0.873-0.232-1.774-0.342-2.636-0.341c-1.812,0.001-3.39,0.464-4.669,1.04c-1.207,0.547-2.198,1.201-3.091,1.888
		c-1.662,1.294-3.015,2.731-4.339,4.285c-2.292,2.715-4.455,5.832-6.658,9.036c-1.645,2.398-3.295,4.835-4.925,7.107
		c-2.43,3.405-4.87,6.448-6.868,8.295c-0.987,0.927-1.851,1.537-2.377,1.811c-0.263,0.14-0.437,0.2-0.503,0.218l-0.031,0.008
		l0.004,0.017l-0.003-0.017h-0.001l0.004,0.017l-0.003-0.017l0.109,0.665v-0.672l-0.109,0.007l0.109,0.665v-0.672v1.154l0.33-1.105
		c-0.094-0.03-0.235-0.05-0.33-0.048v1.154l0.33-1.105l-0.206,0.689l0.303-0.654l-0.097-0.035l-0.206,0.689l0.303-0.654
		l-0.041,0.087l0.047-0.084l-0.006-0.002l-0.041,0.087l0.047-0.084l-0.027-0.017c-16.489-10.467-36.093-16.535-57.049-16.532V80.356
		l0.094-7.5L322.116,80.356v7.5c18.056,0.003,34.831,5.204,49.012,14.197c1.129,0.717,2.367,1.297,3.667,1.685
		c1.299,0.39,2.652,0.582,3.965,0.58c1.629,0,3.182-0.288,4.586-0.744c2.643-0.868,4.788-2.255,6.708-3.801
		c1.678-1.362,3.191-2.881,4.634-4.494c2.516-2.822,4.817-5.948,7.004-9.058c1.637-2.33,3.201-4.649,4.676-6.787
		c1.105-1.603,2.162-3.104,3.142-4.416c1.456-1.965,2.796-3.515,3.617-4.247c0.201-0.183,0.363-0.313,0.467-0.389l0.117-0.081
		l-0.953-1.627l0.572,1.785c0.264-0.085,0.377-0.155,0.381-0.157l-0.953-1.627l0.572,1.785l-1.219-3.805v3.984
		c0.534,0,0.958-0.096,1.219-0.18l-1.219-3.805v3.984v-4.691l-1.591,4.412c0.51,0.187,1.094,0.282,1.591,0.279v-4.691l-1.591,4.412
		l1.334-3.698l-2.859,2.75c0.211,0.226,0.747,0.671,1.525,0.948l1.334-3.698l-2.859,2.75l1.047-1.007l-1.202,0.825
		c0,0,0.045,0.066,0.155,0.182l1.047-1.007l-1.202,0.825c0,0,0.042,0.063,0.109,0.194c0.052,0.095,0.227,0.491,0.415,1.086
		c0.363,1.125,0.787,2.94,1.166,5.181c0.673,3.937,1.243,9.204,1.688,15.198c0.672,9.001,1.081,19.672,1.318,30.453
		c0.236,10.784,0.304,21.688,0.304,31.224c0,6.117-0.027,11.672-0.055,16.279c-0.028,4.61-0.056,8.26-0.056,10.625
		c-0.002,15.159-3.669,29.41-10.166,41.989c-6.496,12.576-15.832,23.467-27.152,31.81c-15.208,11.203-33.943,17.811-54.295,17.814
		c-23.854-0.004-45.51-9.087-61.826-24.006c-9.158-8.38-16.607-18.595-21.763-30.051c-5.155-11.458-8.023-24.151-8.025-37.557
		c-0.001-5.792,0.368-14.926,1.153-25.488c1.174-15.853,3.29-35.029,6.411-51.586c1.556-8.272,3.37-15.894,5.371-22.008
		c0.997-3.054,2.04-5.728,3.07-7.876c1.023-2.148,2.054-3.764,2.84-4.686l0.041-0.046l-0.77-0.767l0.627,0.882
		c0.097-0.069,0.143-0.115,0.143-0.115l-0.77-0.767l0.627,0.882l-1.588-2.233l0.848,2.595c0.329-0.106,0.597-0.258,0.74-0.362
		l-1.588-2.233l0.848,2.595l-1.007-3.081v3.243c0.303,0.002,0.681-0.053,1.007-0.162l-1.007-3.081v3.243v-2.12l-0.696,2.025
		c0.055,0.02,0.307,0.096,0.696,0.095v-2.12l-0.696,2.025l0.148-0.43l-0.162,0.425l0.014,0.005l0.148-0.43l-0.162,0.425l0.015,0.006
		c0.111,0.039,0.737,0.403,1.544,1.116c1.439,1.238,3.412,3.441,5.523,6.011c1.594,1.93,3.294,4.071,5.084,6.226
		c2.7,3.235,5.554,6.502,8.888,9.258c1.676,1.374,3.487,2.632,5.584,3.619c2.085,0.979,4.519,1.689,7.19,1.689
		c1.946,0.005,3.977-0.397,5.84-1.191c10.956-4.633,22.986-7.195,35.654-7.196v-7.208l-0.09,7.208l0.09,0v-7.208l-0.09,7.208
		l0.047,0h0.047V80.356z"/>
	<circle fill="#EFEFEF" cx="277.2" cy="143.003" r="11.795"/>
	<path fill="#1E416B" d="M277.2,131.208v7.5c0.614,0.001,1.16,0.12,1.67,0.334c0.761,0.32,1.432,0.875,1.896,1.564
		c0.465,0.695,0.727,1.481,0.729,2.396c-0.001,0.614-0.12,1.16-0.334,1.669c-0.32,0.761-0.875,1.432-1.564,1.896
		c-0.694,0.464-1.48,0.726-2.396,0.729c-0.613-0.001-1.159-0.12-1.669-0.334c-0.762-0.32-1.433-0.875-1.896-1.564
		c-0.465-0.695-0.727-1.481-0.729-2.396c0.001-0.614,0.12-1.16,0.334-1.669c0.32-0.761,0.875-1.432,1.565-1.896
		c0.694-0.464,1.48-0.726,2.396-0.729V131.208v-7.5c-2.644-0.001-5.2,0.54-7.513,1.52c-3.472,1.47-6.403,3.907-8.482,6.982
		c-2.08,3.07-3.303,6.823-3.3,10.793c-0.001,2.644,0.54,5.2,1.52,7.513c1.47,3.473,3.907,6.403,6.982,8.482
		c3.07,2.08,6.823,3.303,10.793,3.3c2.644,0.001,5.2-0.54,7.513-1.52c3.473-1.47,6.403-3.907,8.482-6.982
		c2.08-3.07,3.303-6.823,3.3-10.793c0.001-2.643-0.54-5.2-1.52-7.513c-1.47-3.472-3.906-6.403-6.982-8.482
		c-3.07-2.08-6.822-3.303-10.793-3.3V131.208z"/>
	<circle fill="#EFEFEF" cx="359.434" cy="143.691" r="11.795"/>
	<path fill="#1E416B" d="M359.434,131.896v7.5c0.613,0.001,1.159,0.12,1.669,0.334c0.762,0.32,1.433,0.875,1.896,1.564
		c0.465,0.695,0.727,1.48,0.729,2.396c-0.001,0.614-0.12,1.16-0.334,1.669c-0.32,0.761-0.875,1.432-1.565,1.896
		c-0.694,0.464-1.48,0.726-2.396,0.729c-0.613-0.001-1.159-0.12-1.669-0.334c-0.762-0.32-1.433-0.875-1.896-1.564
		c-0.465-0.695-0.727-1.481-0.729-2.396c0.001-0.614,0.12-1.16,0.334-1.669c0.32-0.761,0.875-1.432,1.565-1.896
		c0.694-0.464,1.48-0.726,2.396-0.729V131.896v-7.5c-2.644-0.001-5.2,0.54-7.513,1.52c-3.472,1.47-6.403,3.907-8.482,6.982
		c-2.079,3.07-3.303,6.823-3.3,10.793c-0.001,2.644,0.54,5.201,1.52,7.513c1.471,3.473,3.907,6.403,6.982,8.482
		c3.07,2.08,6.823,3.303,10.793,3.3c2.644,0.001,5.2-0.54,7.513-1.52c3.472-1.47,6.403-3.907,8.482-6.982
		c2.079-3.07,3.303-6.823,3.3-10.793c0.001-2.644-0.54-5.201-1.52-7.513c-1.471-3.473-3.907-6.403-6.982-8.482
		c-3.07-2.08-6.823-3.303-10.793-3.3V131.896z"/>
	<path fill="#E9E8E9" d="M323.616,200.488h50.965l20.268,20.268c0.977,0.977,2.559,0.977,3.535,0c0.977-0.976,0.977-2.559,0-3.535
		l-21.732-21.732h-53.035c-1.381,0-2.5,1.119-2.5,2.5S322.235,200.488,323.616,200.488z"/>
	<path fill="#E9E8E9" d="M287.616,192.488h-42.225l-17.382,14.585c-1.058,0.887-1.196,2.464-0.308,3.522
		c0.887,1.058,2.464,1.196,3.522,0.308l15.988-13.415h40.405c1.381,0,2.5-1.119,2.5-2.5S288.997,192.488,287.616,192.488z"/>
	<polyline fill="#1E416B" points="301.248,189.244 301.248,240.988 310.664,240.988 310.664,189.244 	"/>
	<path fill="#E788B2" d="M307.411,165.193c6.514,0,15.205,3.281,15.205,9.795s-10.486,20-17,20s-15-13.486-15-20
		S300.897,165.193,307.411,165.193z"/>
	<path fill="#707179" d="M409.616,82.988c0,0-8,30-14,31s4-1,11,7S409.616,82.988,409.616,82.988z"/>
	<path fill="#707179" d="M248.914,68.988c0,0,8,30,14,31s-4-1-11,7S248.914,68.988,248.914,68.988z"/>
	<path fill="#E9E8E9" d="M322.116,217.488h45.87l18.25,22.092c0.88,1.064,2.455,1.215,3.52,0.336c1.064-0.88,1.215-2.456,0.336-3.52
		l-19.75-23.908h-48.226c-1.381,0-2.5,1.119-2.5,2.5S320.735,217.488,322.116,217.488z"/>
	<path fill="#E9E8E9" d="M291.616,207.988h-36.935l-15.128,22.087c-0.78,1.139-0.489,2.695,0.65,3.475s2.695,0.489,3.475-0.65
		l13.639-19.913h34.299c1.381,0,2.5-1.119,2.5-2.5S292.997,207.988,291.616,207.988z"/>
	<path fill="#E9E8E9" d="M273.284,355.656c-6.809,17.8-10.168,41.332,6.666,49.333c6.88,3.27,9.166,5.499,24.166,8.499
		c9.886,1.978,18.527,1.257,27.834-0.832c34.166-7.668,30.959-34.498,25.666-55.668c-4-16-3.896-37.817-41-40
		C291.116,315.488,280.616,336.488,273.284,355.656z"/>
	<path fill="#E788B2" d="M322.319,223.423c4.871-4.325,13.549-7.642,17.874-2.771c4.324,4.871,5.437,21.918,0.566,26.242
		c-4.871,4.325-20.171-0.125-24.496-4.996C311.938,237.027,317.449,227.748,322.319,223.423z"/>
	<path fill="#1E416B" d="M352,227.988c-0.003,0.472-0.086,0.927-0.319,1.497c-0.204,0.494-0.535,1.069-1.044,1.706
		c-0.883,1.113-2.326,2.394-4.298,3.614c-2.951,1.839-7.059,3.525-11.897,4.697c-4.84,1.18-10.409,1.865-16.324,1.864
		c-5.15,0-10.038-0.518-14.412-1.432c-3.28-0.685-6.27-1.592-8.854-2.645c-3.881-1.57-6.82-3.507-8.507-5.254
		c-0.85-0.87-1.39-1.672-1.697-2.334c-0.309-0.67-0.41-1.184-0.415-1.713c0-3.654-2.962-6.617-6.616-6.617S271,224.334,271,227.988
		c-0.003,2.289,0.48,4.53,1.327,6.563c0.739,1.784,1.745,3.416,2.929,4.897c2.078,2.595,4.687,4.751,7.661,6.601
		c4.468,2.765,9.795,4.856,15.745,6.311c5.95,1.447,12.525,2.237,19.455,2.238c6.034,0,11.8-0.601,17.117-1.711
		c3.988-0.833,7.724-1.952,11.141-3.344c5.12-2.097,9.55-4.768,12.983-8.266c1.709-1.752,3.166-3.732,4.215-5.972
		c1.049-2.232,1.664-4.742,1.659-7.318c0-3.654-2.962-6.617-6.616-6.617S352,224.334,352,227.988z"/>
	<path fill="#E9E8E9" d="M104.116,288.488l5.5,69c0,0,12.5,10.5,38.5,10.5s40.5-11,40.5-11l7-68L104.116,288.488"/>
	<path fill="#132B3F" d="M100.627,288.767l5.5,69c0.075,0.932,0.522,1.8,1.238,2.401c0.228,0.191,3.655,3.021,10.418,5.807
		c6.76,2.786,16.86,5.516,30.333,5.514c13.496,0.001,24.074-2.858,31.3-5.75c7.229-2.893,11.115-5.811,11.315-5.962
		c0.776-0.589,1.267-1.46,1.366-2.43l7-68l-6.963-0.717l-7,68l3.481,0.358L186.5,354.2l0.934,1.23l-0.925-1.237L186.5,354.2
		l0.934,1.23l-0.925-1.237c-0.022,0.017-3.484,2.601-10.001,5.168c-6.52,2.567-16.083,5.126-28.392,5.127
		c-12.527-0.002-21.678-2.522-27.667-4.986c-2.994-1.233-5.195-2.453-6.621-3.343c-0.713-0.444-1.232-0.806-1.558-1.045
		c-0.164-0.119-0.278-0.208-0.346-0.261l-0.064-0.051l-0.005-0.005l-1.288,1.559l1.3-1.548l-0.012-0.011l-1.288,1.559l1.3-1.548
		l-2.251,2.68l3.489-0.278l-5.5-69L100.627,288.767"/>
	<ellipse fill="#E1E6E8" cx="149.982" cy="284.062" rx="46.75" ry="15.427"/>
	<path fill="#132B3F" d="M149.982,299.488v3.5c13.229-0.007,25.201-1.748,34.155-4.695c4.482-1.486,8.22-3.252,11.075-5.468
		c1.424-1.113,2.638-2.353,3.546-3.811c0.905-1.447,1.48-3.162,1.475-4.953c0.005-1.791-0.57-3.506-1.475-4.953
		c-0.793-1.276-1.825-2.384-3.021-3.388c-2.099-1.75-4.724-3.206-7.808-4.489c-4.624-1.915-10.298-3.419-16.733-4.469
		c-6.433-1.046-13.62-1.628-21.213-1.628c-13.229,0.007-25.203,1.748-34.157,4.694c-4.482,1.487-8.221,3.253-11.076,5.468
		c-1.424,1.113-2.639,2.353-3.546,3.811c-0.905,1.448-1.48,3.163-1.476,4.954c-0.005,1.791,0.57,3.506,1.476,4.953
		c0.793,1.276,1.824,2.385,3.021,3.388c2.099,1.75,4.724,3.206,7.808,4.489c4.625,1.915,10.299,3.419,16.734,4.469
		c6.434,1.046,13.622,1.628,21.215,1.628V299.488v-3.5c-12.593,0.007-23.997-1.705-31.964-4.343
		c-3.978-1.305-7.086-2.862-8.964-4.339c-0.942-0.732-1.564-1.431-1.902-1.98c-0.341-0.562-0.419-0.926-0.424-1.265
		c0.005-0.339,0.083-0.704,0.424-1.265c0.297-0.481,0.808-1.076,1.565-1.708c1.319-1.11,3.371-2.307,5.998-3.392
		c3.941-1.638,9.157-3.048,15.177-4.025c6.022-0.98,12.856-1.537,20.09-1.537c12.591-0.007,23.994,1.705,31.961,4.342
		c3.978,1.306,7.086,2.863,8.963,4.34c0.942,0.732,1.564,1.43,1.902,1.98c0.341,0.562,0.419,0.926,0.424,1.265
		c-0.005,0.339-0.083,0.703-0.424,1.265c-0.297,0.481-0.808,1.076-1.564,1.708c-1.319,1.109-3.371,2.306-5.998,3.392
		c-3.94,1.637-9.156,3.048-15.175,4.025c-6.022,0.98-12.855,1.537-20.089,1.537V299.488z"/>
	<path fill="#584339" d="M186.733,297.062c0-8.52-15.782-15.427-35.251-15.427c-19.471,0-35.254,6.906-35.254,15.427"/>
	<path fill="#132B3F" d="M150.482,298.988v3.5c13.229-0.007,25.201-1.748,34.155-4.695c4.482-1.486,8.22-3.252,11.075-5.468
		c1.424-1.113,2.638-2.353,3.546-3.811c0.905-1.447,1.48-3.162,1.475-4.953c0.005-1.791-0.57-3.506-1.475-4.953
		c-0.793-1.276-1.825-2.384-3.021-3.388c-2.099-1.75-4.724-3.206-7.808-4.489c-4.624-1.915-10.298-3.419-16.733-4.469
		c-6.433-1.046-13.62-1.628-21.213-1.628c-13.229,0.007-25.203,1.748-34.157,4.694c-4.482,1.487-8.221,3.253-11.076,5.468
		c-1.424,1.113-2.639,2.353-3.546,3.811c-0.905,1.448-1.48,3.163-1.476,4.954c-0.005,1.791,0.57,3.506,1.476,4.953
		c0.793,1.276,1.824,2.385,3.021,3.388c2.099,1.75,4.724,3.206,7.808,4.489c4.625,1.915,10.299,3.419,16.734,4.469
		c6.434,1.046,13.622,1.628,21.215,1.628V298.988v-3.5c-12.593,0.007-23.997-1.705-31.964-4.343
		c-3.978-1.305-7.086-2.862-8.964-4.339c-0.942-0.732-1.564-1.431-1.902-1.98c-0.341-0.562-0.419-0.926-0.424-1.265
		c0.005-0.339,0.083-0.704,0.424-1.265c0.297-0.481,0.808-1.076,1.565-1.708c1.319-1.11,3.371-2.307,5.998-3.392
		c3.941-1.638,9.157-3.048,15.177-4.025c6.022-0.98,12.856-1.537,20.09-1.537c12.591-0.007,23.994,1.705,31.961,4.342
		c3.978,1.306,7.086,2.863,8.963,4.34c0.942,0.732,1.564,1.43,1.902,1.98c0.341,0.562,0.419,0.926,0.424,1.265
		c-0.005,0.339-0.083,0.703-0.424,1.265c-0.297,0.481-0.808,1.076-1.564,1.708c-1.319,1.109-3.371,2.306-5.998,3.392
		c-3.94,1.637-9.156,3.048-15.175,4.025c-6.022,0.98-12.855,1.537-20.089,1.537V298.988z"/>
	<path fill="#FFFFFF" d="M141.19,244.99c-0.022-0.001-0.17-0.008-0.417-0.008c-0.992,0.007-3.566,0.088-6.103,1.218
		c-1.265,0.569-2.537,1.426-3.498,2.723c-0.965,1.292-1.563,3.012-1.557,5.065c0,1.168,0.201,2.186,0.632,3.048
		c0.374,0.753,0.926,1.359,1.541,1.788c1.085,0.753,2.28,1.022,3.404,1.215c0.847,0.14,1.672,0.227,2.415,0.346
		c1.123,0.173,2.013,0.444,2.524,0.852c0.262,0.205,0.46,0.434,0.633,0.787c0.17,0.354,0.31,0.848,0.354,1.559
		c0.011,0.172,0.016,0.337,0.016,0.493c-0.001,0.901-0.165,1.529-0.402,2.01c-0.211,0.421-0.484,0.747-0.852,1.046
		c-0.635,0.521-1.594,0.923-2.729,1.244c-0.849,0.242-1.783,0.444-2.726,0.673c-1.413,0.352-2.857,0.729-4.12,1.601
		c-0.626,0.437-1.201,1.023-1.596,1.771c-0.397,0.745-0.597,1.623-0.595,2.569c-0.003,0.966,0.26,1.873,0.698,2.63
		c0.776,1.333,1.973,2.214,3.218,2.951c1.876,1.093,3.989,1.9,5.509,2.806c0.759,0.446,1.351,0.907,1.699,1.337
		c0.348,0.44,0.487,0.785,0.496,1.299c0,0.183-0.022,0.391-0.08,0.634c-0.19,0.807,0.31,1.614,1.117,1.804
		c0.806,0.189,1.614-0.311,1.803-1.116c0.105-0.447,0.16-0.889,0.16-1.321c0.004-0.941-0.271-1.828-0.717-2.556
		c-0.791-1.28-1.98-2.106-3.218-2.816c-1.864-1.05-3.962-1.856-5.469-2.788c-0.753-0.459-1.34-0.938-1.694-1.398
		c-0.354-0.47-0.513-0.874-0.521-1.464c0.004-0.637,0.135-0.998,0.32-1.291c0.166-0.256,0.405-0.484,0.772-0.71
		c0.636-0.396,1.656-0.719,2.835-1.002c1.771-0.445,3.871-0.795,5.734-1.849c0.927-0.529,1.802-1.275,2.417-2.306
		c0.617-1.028,0.943-2.298,0.94-3.756c0-0.222-0.007-0.448-0.021-0.681c-0.073-1.174-0.348-2.19-0.836-3.033
		c-0.423-0.738-1.007-1.319-1.641-1.734c-1.117-0.729-2.332-0.999-3.467-1.19c-0.854-0.139-1.679-0.226-2.41-0.345
		c-0.547-0.088-1.04-0.195-1.44-0.332c-0.611-0.212-0.971-0.455-1.224-0.796c-0.25-0.343-0.475-0.896-0.479-1.976
		c0.006-1.502,0.396-2.498,0.967-3.28c0.433-0.584,0.994-1.051,1.645-1.428c0.972-0.565,2.141-0.905,3.178-1.087
		c1.037-0.183,1.937-0.212,2.367-0.211c0.096,0,0.168,0.001,0.214,0.002l0.048,0.002h0.008l0.021-0.48l-0.024,0.48h0.003l0.021-0.48
		l-0.024,0.48c0.828,0.041,1.532-0.596,1.573-1.423S142.018,245.031,141.19,244.99L141.19,244.99z"/>
	<path fill="#FFFFFF" d="M155.19,245.99c-0.022-0.001-0.17-0.008-0.417-0.008c-0.992,0.007-3.566,0.088-6.103,1.218
		c-1.265,0.569-2.537,1.426-3.498,2.723c-0.965,1.292-1.563,3.012-1.557,5.065c0,1.168,0.201,2.186,0.632,3.048
		c0.374,0.753,0.926,1.359,1.541,1.788c1.085,0.753,2.28,1.022,3.404,1.215c0.847,0.14,1.672,0.227,2.415,0.346
		c1.123,0.173,2.013,0.444,2.524,0.852c0.262,0.205,0.46,0.434,0.633,0.787c0.17,0.354,0.31,0.848,0.354,1.559
		c0.011,0.172,0.016,0.337,0.016,0.493c-0.001,0.901-0.165,1.529-0.402,2.01c-0.211,0.421-0.484,0.747-0.852,1.046
		c-0.635,0.521-1.594,0.923-2.729,1.244c-0.849,0.242-1.783,0.444-2.726,0.673c-1.413,0.352-2.857,0.729-4.12,1.601
		c-0.626,0.437-1.201,1.023-1.596,1.771c-0.397,0.745-0.597,1.623-0.595,2.569c-0.003,0.966,0.26,1.873,0.698,2.63
		c0.776,1.333,1.973,2.214,3.218,2.951c1.876,1.093,3.989,1.9,5.509,2.806c0.759,0.446,1.351,0.907,1.699,1.337
		c0.348,0.44,0.487,0.785,0.496,1.299l0,0c0,0.183-0.022,0.391-0.08,0.634c-0.19,0.807,0.31,1.614,1.117,1.804
		c0.806,0.189,1.614-0.311,1.803-1.116c0.105-0.447,0.16-0.889,0.16-1.321c0.004-0.941-0.271-1.828-0.717-2.556
		c-0.791-1.28-1.98-2.106-3.218-2.816c-1.864-1.05-3.962-1.856-5.469-2.788c-0.753-0.459-1.34-0.938-1.694-1.398
		c-0.354-0.47-0.513-0.874-0.521-1.464c0.004-0.637,0.135-0.998,0.32-1.291c0.166-0.256,0.405-0.484,0.772-0.71
		c0.636-0.396,1.656-0.719,2.835-1.002c1.771-0.445,3.871-0.795,5.734-1.849c0.927-0.529,1.802-1.275,2.417-2.306
		c0.617-1.028,0.943-2.298,0.94-3.756c0-0.222-0.007-0.448-0.021-0.681c-0.073-1.174-0.348-2.19-0.836-3.033
		c-0.423-0.738-1.007-1.319-1.641-1.734c-1.117-0.729-2.332-0.999-3.467-1.19c-0.854-0.139-1.679-0.226-2.41-0.345
		c-0.547-0.088-1.04-0.195-1.44-0.332c-0.611-0.212-0.971-0.455-1.224-0.796c-0.25-0.343-0.475-0.896-0.479-1.976
		c0.006-1.502,0.396-2.498,0.967-3.28c0.433-0.584,0.994-1.051,1.645-1.428c0.972-0.565,2.141-0.905,3.178-1.087
		c1.037-0.183,1.937-0.212,2.367-0.211c0.096,0,0.168,0.001,0.214,0.002l0.048,0.002h0.008l0.021-0.48l-0.024,0.48h0.003l0.021-0.48
		l-0.024,0.48c0.828,0.041,1.532-0.596,1.573-1.423S156.018,246.031,155.19,245.99L155.19,245.99z"/>
	<g>
		<defs>
			<path id="SVGID_1_" d="M177.116,305.885H123.5V359.5h52.651c0.12-0.046,0.238-0.093,0.356-0.139
				c0.206-0.081,0.408-0.162,0.608-0.243V305.885"/>
		</defs>
		<clipPath id="SVGID_2_">
			<use xlink:href="#SVGID_1_"  overflow="visible"/>
		</clipPath>
		<g transform="matrix(1 0 0 1 -7.629395e-06 0)" clip-path="url(#SVGID_2_)">
			
				<image overflow="visible" width="702" height="702" xlink:href="6CFD4FB90346614F.jpg"  transform="matrix(0.0766 0 0 0.0766 123.4238 305.8086)">
			</image>
		</g>
	</g>
	<g>
		<defs>
			<path id="SVGID_3_" d="M177.116,359.118c-0.2,0.081-0.402,0.162-0.608,0.243c-0.118,0.046-0.236,0.093-0.356,0.139h0.964V359.118
				"/>
		</defs>
		<clipPath id="SVGID_4_">
			<use xlink:href="#SVGID_3_"  overflow="visible"/>
		</clipPath>
		<g clip-path="url(#SVGID_4_)">
			
				<image overflow="visible" width="15" height="7" xlink:href="6CFD4FB90346614A.jpg"  transform="matrix(0.0766 0 0 0.0766 176.0435 359.04)">
			</image>
		</g>
	</g>
</g>
</svg>
