<?xml version="1.0" encoding="utf-8"?>
<!-- Generator: Adobe Illustrator 17.0.0, SVG Export Plug-In . SVG Version: 6.00 Build 0)  -->
<!DOCTYPE svg PUBLIC "-//W3C//DTD SVG 1.1//EN" "http://www.w3.org/Graphics/SVG/1.1/DTD/svg11.dtd">
<svg version="1.1" xmlns="http://www.w3.org/2000/svg" xmlns:xlink="http://www.w3.org/1999/xlink" x="0px" y="0px" width="1800px"
	 height="1200px" viewBox="0 0 1800 1200" enable-background="new 0 0 1800 1200" xml:space="preserve">
<g id="Layer_1">
	<g>
		<path fill-rule="evenodd" clip-rule="evenodd" fill="#FFFFFF" d="M993.306,694.538c-4.37,0-8.224,0.444-11.909-0.155
			c-2.457-0.4-5.889-1.786-6.655-3.647c-0.779-1.891,0.593-5.334,2.057-7.345c3.126-4.302,7.813-6.148,13.17-6.199
			c3.662-0.035,7.361,0.12,10.966-0.374c1.699-0.234,3.633-1.462,4.727-2.829c2.109-2.638,3.551-5.804,5.537-8.558
			c3.514-4.877,8.735-6.423,14.344-4.525c5.37,1.819,6.933,5.577,4.377,10.623c-0.765,1.512-1.638,2.971-2.785,5.039
			c5.328,0,9.949,0.015,14.569-0.004c5.615-0.022,7.299,2.578,4.896,7.718c-2.544,5.439-6.598,8.755-12.845,8.963
			c-4.421,0.146-8.836,0.502-13.257,0.577c-2.709,0.045-4.419,1.167-5.741,3.521c-10.242,18.226-20.622,36.369-30.81,54.622
			c-2.326,4.165-4.326,8.562-5.959,13.04c-0.652,1.789-0.672,5.051,0.404,5.912c1.359,1.09,4.415,1.113,6.249,0.376
			c7.529-3.032,13.241-8.676,18.792-14.37c4.396-4.509,8.5-9.305,12.697-14.008c3.283-3.684,7.733-4.355,11.874-1.709
			c3.527,2.254,4.455,5.378,1.903,8.663c-10.601,13.663-21.709,26.902-36.74,36c-8.49,5.139-17.943,5.622-27.457,3.844
			c-4.433-0.831-7.554-3.864-9.432-8.032c-0.394-0.878-0.771-1.764-1.343-3.082c-2.517,1.812-4.654,3.485-6.921,4.96
			c-5.083,3.305-10.187,6.38-16.598,6.694c-5.912,0.293-10.478-2.043-13.704-6.523c-2.082-2.893-3.586-1.866-5.479-0.463
			c-8.221,6.094-17.455,7.983-27.507,7.002c-6.42-0.627-10.855-3.614-13.099-9.735c-0.241-0.656-0.76-1.21-1.413-2.216
			c-2.183,1.585-4.152,3.082-6.187,4.479c-5.42,3.73-10.928,6.989-17.826,7.55c-11.605,0.946-17.949-9.787-16.802-18.527
			c1.216-9.256,5.778-17.134,10.071-25.116c3.698-6.877,7.647-13.617,11.399-20.467c0.702-1.28,0.99-2.788,1.522-4.349
			c-4.693-1.405-7.72,1.485-10.636,3.514c-5.465,3.804-10.883,7.843-15.573,12.532c-2.898,2.899-4.767,7.019-6.491,10.863
			c-5.41,12.063-10.452,24.292-15.803,36.38c-2.023,4.572-7.337,7.005-12.67,6.309c-4.696-0.615-8.556-3.457-8.999-7.863
			c-0.296-2.947,0.897-6.088,1.667-9.079c0.395-1.532,1.323-2.927,2.2-4.787c-1.438,0-2.393-0.004-3.351,0.002
			c-4.342,0.025-8.692-0.082-13.024,0.145c-1.67,0.088-3.729,0.466-4.877,1.515c-8.056,7.367-16.661,13.762-27.295,16.928
			c-10.398,3.097-22.018,2.675-29.474-5.735c-5.41-6.104-7.212-13.482-6.693-21.441c1.269-19.458,11.178-34.409,25.127-47.079
			c7.866-7.145,16.94-12.126,27.56-14.062c17.357-3.167,30.546,7.45,31.221,25.069c0.352,9.221-2.419,17.65-5.884,25.964
			c-0.231,0.557-0.465,1.113-0.854,2.041c5.098,0.958,8.629-1.881,12.327-3.964c7.032-3.965,10.192-10.878,13.307-17.824
			c4.327-9.652,8.685-19.292,13.139-28.888c1.97-4.242,5.839-4.696,9.952-4.541c4.405,0.167,8.416,1.257,10.362,5.575
			c0.687,1.528,0.109,3.625,0.109,5.733c3.467-2.276,6.888-4.862,10.614-6.891c5.117-2.788,10.432-5.351,16.497-2.574
			c8.264,3.781,12.501,14.334,8.45,23.553c-4.545,10.348-10.007,20.295-15.187,30.357c-1.786,3.47-4.005,6.715-5.859,10.154
			c-0.832,1.545-1.253,3.312-1.863,4.979c0.354,0.297,0.706,0.596,1.059,0.894c2.332-1.283,5.068-2.143,6.927-3.923
			c7.908-7.563,16.318-14.795,23.071-23.313c5.884-7.424,9.759-16.433,14.589-24.7c2.479-4.244,4.948-8.509,7.712-12.567
			c3.65-5.361,9.372-6.892,15.331-4.461c4.148,1.692,5.823,5.073,3.791,9.073c-3.932,7.736-8.274,15.261-12.4,22.898
			c-5.146,9.526-10.321,19.033-15.324,28.633c-1.616,3.101-3.852,7.099-0.876,9.825c3.064,2.807,6.658-0.002,9.554-2.001
			c9.69-6.699,17.256-15.482,23.181-25.497c6.921-11.701,13.195-23.788,19.664-35.754c3.275-6.056,9.015-9.031,15.36-7.704
			c5.335,1.115,6.97,4.17,4.474,9.111c-4.597,9.101-9.373,18.114-14.147,27.124c-4.188,7.904-8.523,15.734-12.655,23.667
			c-0.561,1.08-0.315,2.577-0.444,3.88c1.413,0.126,3.188,0.855,4.175,0.267c3.52-2.099,7.009-4.377,10.08-7.077
			c8.748-7.695,14.495-17.621,20.095-27.667c6.138-11.004,12.538-21.861,18.812-32.79
			C992.71,696.187,992.874,695.603,993.306,694.538z M765.994,731.527c0.337-0.151-1.266-7.337-3.442-9.897
			c-4.096-4.819-9.781-3.738-14.655-1.504c-13.832,6.341-22.408,17.358-25.37,32.158c-2.426,12.127,5.177,19.334,15.91,15.973
			C751.961,764.021,765.616,745.821,765.994,731.527z"/>
		<path fill-rule="evenodd" clip-rule="evenodd" fill="#FFFFFF" d="M593.013,708.861c-5.258,2.188-10.393,4.756-15.795,6.494
			c-16.903,5.443-33.546,5.934-47.708-6.6c-10.711-9.482-15.359-21.942-13.333-36.406c2.832-20.224,13.699-36.032,28.132-49.626
			c15.667-14.758,34.167-24.49,54.842-30.537c17.117-5.004,34.43-6.248,52.054-4.852c2.459,0.195,4.165-0.402,5.983-2.218
			c4.345-4.344,11.264-4.355,15.179,0.286c1.365,1.616,0.902,4.777,1.365,7.825c4.007,1.868,9.13,3.717,13.701,6.476
			c20.143,12.159,28.956,30.771,29.751,53.709c0.511,14.69-2.453,28.754-7.21,42.629c-8.175,23.845-20.744,45.012-37.619,63.621
			c-10.153,11.197-21.799,20.345-35.971,26.303c-19.052,8.008-41.837,2.65-54.565-13.531c-0.835-1.062-1.699-2.099-2.553-3.148
			c-4.818,3.97-9.106,8.051-13.92,11.369c-16.926,11.665-34.968,13.266-53.142,3.634c-13.564-7.191-19.463-20.905-16.552-35.796
			c2.208-11.298,7.482-20.392,18.123-25.413c10.893-5.139,22.181-5.61,33.897-2.388c11.101,3.056,20.543,8.663,29.013,16.22
			c0.274,0.246,0.629,0.42,0.975,0.558c0.221,0.086,0.492,0.041,1.494,0.098c4.77-9.227,9.68-18.722,14.591-28.219
			C593.5,709.188,593.257,709.024,593.013,708.861z M695.88,655.257c0.834-19.77-11.311-38.955-29.503-45.69
			c-2.461-0.913-3.88-0.898-5.161,1.567c-2.262,4.355-4.986,8.48-7.08,12.908c-8.875,18.775-17.807,37.529-26.308,56.476
			c-9.848,21.952-19.246,44.102-31.689,64.781c-4.404,7.318-4.264,7.295,0.68,14.211c8.232,11.514,20.291,13.837,32.758,8.229
			c13.647-6.136,23.489-16.764,32.369-28.359c8.906-11.632,16.148-24.277,22.303-37.566
			C690.823,687.617,695.674,672.993,695.88,655.257z M643.742,604.433c-1.105-0.331-1.459-0.508-1.824-0.532
			c-1.006-0.069-2.019-0.113-3.028-0.097c-17.605,0.256-34.526,3.901-50.602,10.983c-16.511,7.274-30.853,17.438-40.654,33.038
			c-6.427,10.23-10.308,21.337-10.244,33.51c0.036,7.014,2.227,13.329,9.074,16.671c4.974,2.429,10.332,3.013,15.872,2.146
			c11.821-1.856,22.325-6.759,31.917-13.712c7.279-5.276,14.099-11.196,18.22-19.324c9.731-19.19,19.115-38.558,28.654-57.845
			C641.881,607.745,642.745,606.271,643.742,604.433z M568.619,753.132c-6.883-4.362-12.785-8.99-19.412-12.056
			c-6.856-3.17-14.291-4.783-21.897-0.954c-7.609,3.832-11.99,11.259-10.737,19.418c1.014,6.602,7.229,11.357,15.596,12.582
			C548.309,774.485,558.409,765.394,568.619,753.132z"/>
		<path fill-rule="evenodd" clip-rule="evenodd" fill="#FFFFFF" d="M1109.883,772.626c10.608-6.218,20.033-13.632,27.687-22.837
			c16.018-19.27,31.67-38.849,47.288-58.446c4.759-5.972,14.131-4.958,18.24-0.819c2.388,2.405,3.256,5.039,0.839,8.061
			c-3.07,3.836-6,7.784-9.056,11.631c-4.932,6.207-5.656,13.005-3.053,20.332c3.882,10.947,6.599,22.018,3.149,33.726
			c0.312,0.268,0.626,0.538,0.939,0.807c3.419-2.682,7.172-5.04,10.182-8.122c4.121-4.217,7.682-8.98,11.474-13.516
			c4.545-5.436,11.575-5.174,14.297,0.643c0.439,0.936,0.344,2.42-0.073,3.415c-3.584,8.558-9.938,15.026-16.352,21.467
			c-13.189,13.244-28.982,20.404-47.735,21.281c-7.115,0.333-14.029,0.646-20.735-2.452c-5.382-2.487-9.139-6.464-11.829-11.877
			c-4.969,3.365-9.45,6.779-14.285,9.584c-7.389,4.285-15.081,8.039-22.504,12.264c-1.948,1.109-3.788,2.865-4.986,4.762
			c-4.769,7.553-8.793,15.617-13.985,22.853c-5.793,8.073-14.145,13.09-24.11,14.092c-6.136,0.617-12.229-1.04-15.867-6.823
			c-3.404-5.41-1.728-10.748,1.381-15.631c5.498-8.632,13.293-14.709,22.406-19.146c5.086-2.476,10.305-4.682,15.381-7.179
			c1.261-0.621,2.58-1.698,3.23-2.909c5.651-10.548,11.208-21.146,16.695-31.781c8.087-15.681,16.046-31.427,24.157-47.095
			c3.476-6.712,9.141-9.434,16.651-8.355c4.61,0.662,6.599,3.653,4.564,7.721c-4.055,8.108-8.468,16.036-12.727,24.041
			c-6.863,12.901-13.724,25.806-20.58,38.716C1110.299,771.542,1110.108,772.094,1109.883,772.626z M1169.933,736.291
			c-6.003,7.298-11.347,13.901-16.812,20.402c-4.003,4.758-2.712,10.39,0.561,14.452c5.186,6.44,14.057,5.807,17.657-1.458
			C1176.779,758.716,1173.93,747.992,1169.933,736.291z M1056.215,824.599c3.904-0.935,8.893-6.497,10.141-11.052
			C1060.481,815.407,1056.133,820.023,1056.215,824.599z"/>
		<path fill-rule="evenodd" clip-rule="evenodd" fill="#FFFFFF" d="M1145.026,687.27c-6.98,0.009-9.043-3.305-5.685-9.354
			c1.888-3.406,3.847-6.8,6.089-9.98c4.269-6.053,11-5.76,16.247-3.482c3.663,1.591,5.092,5.395,3.788,8.802
			C1162.576,680.814,1153.173,687.261,1145.026,687.27z"/>
		<path fill-rule="evenodd" clip-rule="evenodd" fill="#FFFFFF" d="M1040.338,790.052c-7.88-0.009-10.039-3.574-6.917-9.303
			c1.566-2.874,3.191-5.722,4.926-8.496c3.725-5.958,10.348-8.073,16.877-5.492c4.595,1.815,6.359,6.533,3.495,11.188
			C1054.261,785.194,1047.857,789.754,1040.338,790.052z"/>
	</g>
	<rect x="0" y="0" fill="#4084F2" width="1800" height="1200"/>
	
		<line opacity="0.6" fill="none" stroke="#B7E5CF" stroke-width="10" stroke-linecap="round" stroke-miterlimit="10" x1="50.308" y1="197.726" x2="96.567" y2="197.726"/>
	
		<line opacity="0.6" fill="none" stroke="#F8CACD" stroke-width="10" stroke-linecap="round" stroke-miterlimit="10" x1="191.421" y1="132.48" x2="217.361" y2="78.747"/>
	
		<line opacity="0.6" fill="none" stroke="#B7E5CF" stroke-width="10" stroke-linecap="round" stroke-miterlimit="10" x1="1257.267" y1="631.188" x2="1234.137" y2="589.498"/>
	
		<line opacity="0.6" fill="none" stroke="#FFFFFF" stroke-width="10" stroke-linecap="round" stroke-miterlimit="10" x1="177.062" y1="198.965" x2="169.651" y2="219.347"/>
	
		<line opacity="0.6" fill="none" stroke="#B7E5CF" stroke-width="10" stroke-linecap="round" stroke-miterlimit="10" x1="78.675" y1="350.688" x2="56.888" y2="397.011"/>
	
		<line opacity="0.6" fill="none" stroke="#F8CACD" stroke-width="10" stroke-linecap="round" stroke-miterlimit="10" x1="50.802" y1="302.347" x2="76.742" y2="276.406"/>
	
		<line opacity="0.6" fill="none" stroke="#B7E5CF" stroke-width="10" stroke-linecap="round" stroke-miterlimit="10" x1="76.171" y1="550.485" x2="32.597" y2="567.161"/>
	
		<line opacity="0.6" fill="none" stroke="#FFFFFF" stroke-width="10" stroke-linecap="round" stroke-miterlimit="10" x1="82.103" y1="477.152" x2="92.997" y2="514.21"/>
	
		<line opacity="0.6" fill="none" stroke="#F55489" stroke-width="10" stroke-linecap="round" stroke-miterlimit="10" x1="102.138" y1="888.841" x2="123.924" y2="922.192"/>
	
		<line opacity="0.6" fill="none" stroke="#B7E5CF" stroke-width="10" stroke-linecap="round" stroke-miterlimit="10" x1="59.957" y1="846.195" x2="83.086" y2="823.96"/>
	
		<line opacity="0.6" fill="none" stroke="#B7E5CF" stroke-width="10" stroke-linecap="round" stroke-miterlimit="10" x1="237.345" y1="682.378" x2="283.666" y2="697.203"/>
	
		<line opacity="0.6" fill="none" stroke="#F55489" stroke-width="10" stroke-linecap="round" stroke-miterlimit="10" x1="176.576" y1="501.095" x2="210.375" y2="541.857"/>
	
		<line opacity="0.6" fill="none" stroke="#EFE578" stroke-width="10" stroke-linecap="round" stroke-miterlimit="10" x1="72.177" y1="996.438" x2="28.603" y2="996.438"/>
	
		<line opacity="0.6" fill="none" stroke="#B7E5CF" stroke-width="10" stroke-linecap="round" stroke-miterlimit="10" x1="149.538" y1="1091.014" x2="132.638" y2="1059.516"/>
	
		<line opacity="0.6" fill="none" stroke="#EFE578" stroke-width="10" stroke-linecap="round" stroke-miterlimit="10" x1="327.344" y1="833.329" x2="342.167" y2="864.828"/>
	
		<line opacity="0.6" fill="none" stroke="#FFFFFF" stroke-width="10" stroke-linecap="round" stroke-miterlimit="10" x1="321.915" y1="609.457" x2="308.945" y2="602.045"/>
	
		<line opacity="0.6" fill="none" stroke="#EFE578" stroke-width="10" stroke-linecap="round" stroke-miterlimit="10" x1="157.32" y1="808.998" x2="170.289" y2="775.646"/>
	
		<line opacity="0.6" fill="none" stroke="#F8CACD" stroke-width="10" stroke-linecap="round" stroke-miterlimit="10" x1="46.44" y1="733.017" x2="91.835" y2="747.839"/>
	
		<line opacity="0.6" fill="none" stroke="#F8CACD" stroke-width="10" stroke-linecap="round" stroke-miterlimit="10" x1="1042.849" y1="473.955" x2="1088.244" y2="488.777"/>
	
		<line opacity="0.6" fill="none" stroke="#FFFFFF" stroke-width="10" stroke-linecap="round" stroke-miterlimit="10" x1="-2.759" y1="1165.181" x2="63.481" y2="1165.181"/>
	
		<line opacity="0.6" fill="none" stroke="#FFFFFF" stroke-width="10" stroke-linecap="round" stroke-miterlimit="10" x1="183.9" y1="949.1" x2="202.429" y2="897.22"/>
	
		<line opacity="0.6" fill="none" stroke="#EFE578" stroke-width="10" stroke-linecap="round" stroke-miterlimit="10" x1="504.334" y1="252.75" x2="548.803" y2="250.897"/>
	
		<line opacity="0.6" fill="none" stroke="#F55489" stroke-width="10" stroke-linecap="round" stroke-miterlimit="10" x1="134.109" y1="329.937" x2="178.577" y2="316.966"/>
	
		<line opacity="0.6" fill="none" stroke="#B7E5CF" stroke-width="10" stroke-linecap="round" stroke-miterlimit="10" x1="289.225" y1="500.536" x2="315.165" y2="485.713"/>
	
		<line opacity="0.6" fill="none" stroke="#F55489" stroke-width="10" stroke-linecap="round" stroke-miterlimit="10" x1="405.695" y1="243.233" x2="433.488" y2="222.853"/>
	
		<line opacity="0.6" fill="none" stroke="#EFE578" stroke-width="10" stroke-linecap="round" stroke-miterlimit="10" x1="224.228" y1="442.815" x2="189.023" y2="415.023"/>
	
		<line opacity="0.6" fill="none" stroke="#F8CACD" stroke-width="10" stroke-linecap="round" stroke-miterlimit="10" x1="155.571" y1="630.807" x2="222.275" y2="619.689"/>
	
		<line opacity="0.6" fill="none" stroke="#F55489" stroke-width="10" stroke-linecap="round" stroke-miterlimit="10" x1="252.725" y1="762.201" x2="265.696" y2="786.287"/>
	
		<line opacity="0.6" fill="none" stroke="#EFE578" stroke-width="10" stroke-linecap="round" stroke-miterlimit="10" x1="358.211" y1="711.081" x2="404.532" y2="727.755"/>
	
		<line opacity="0.6" fill="none" stroke="#FFFFFF" stroke-width="10" stroke-linecap="round" stroke-miterlimit="10" x1="429.511" y1="887.253" x2="490.656" y2="913.192"/>
	
		<line opacity="0.6" fill="none" stroke="#F55489" stroke-width="10" stroke-linecap="round" stroke-miterlimit="10" x1="648.434" y1="1074.11" x2="676.227" y2="1042.61"/>
	
		<line opacity="0.6" fill="none" stroke="#EFE578" stroke-width="10" stroke-linecap="round" stroke-miterlimit="10" x1="1080.278" y1="352.452" x2="1052.486" y2="337.629"/>
	
		<line opacity="0.6" fill="none" stroke="#B7E5CF" stroke-width="10" stroke-linecap="round" stroke-miterlimit="10" x1="428.605" y1="647.58" x2="445.281" y2="601.258"/>
	
		<line opacity="0.6" fill="none" stroke="#F8CACD" stroke-width="10" stroke-linecap="round" stroke-miterlimit="10" x1="381.206" y1="427.857" x2="370.089" y2="392.653"/>
	
		<line opacity="0.6" fill="none" stroke="#EFE578" stroke-width="10" stroke-linecap="round" stroke-miterlimit="10" x1="107.604" y1="113.35" x2="72.399" y2="79.998"/>
	
		<line opacity="0.6" fill="none" stroke="#F55489" stroke-width="10" stroke-linecap="round" stroke-miterlimit="10" x1="285.019" y1="1052.821" x2="229.433" y2="1047.264"/>
	
		<line opacity="0.6" fill="none" stroke="#FFFFFF" stroke-width="10" stroke-linecap="round" stroke-miterlimit="10" x1="320.027" y1="335.37" x2="360.789" y2="311.284"/>
	
		<line opacity="0.6" fill="none" stroke="#B7E5CF" stroke-width="10" stroke-linecap="round" stroke-miterlimit="10" x1="298.279" y1="245.982" x2="277.898" y2="220.043"/>
	
		<line opacity="0.6" fill="none" stroke="#F55489" stroke-width="10" stroke-linecap="round" stroke-miterlimit="10" x1="92.823" y1="645.057" x2="63.177" y2="611.706"/>
	
		<line opacity="0.6" fill="none" stroke="#B7E5CF" stroke-width="10" stroke-linecap="round" stroke-miterlimit="10" x1="465.484" y1="84.908" x2="435.838" y2="71.938"/>
	
		<line opacity="0.6" fill="none" stroke="#EFE578" stroke-width="10" stroke-linecap="round" stroke-miterlimit="10" x1="355.128" y1="146.821" x2="331.041" y2="91.235"/>
	
		<line opacity="0.6" fill="none" stroke="#F8CACD" stroke-width="10" stroke-linecap="round" stroke-miterlimit="10" x1="629.388" y1="228.811" x2="614.565" y2="176.931"/>
	
		<line opacity="0.6" fill="none" stroke="#FFFFFF" stroke-width="10" stroke-linecap="round" stroke-miterlimit="10" x1="516.095" y1="179.628" x2="477.185" y2="161.099"/>
	
		<line opacity="0.6" fill="none" stroke="#B7E5CF" stroke-width="10" stroke-linecap="round" stroke-miterlimit="10" x1="687.289" y1="119.427" x2="653.938" y2="102.751"/>
	
		<line opacity="0.6" fill="none" stroke="#B7E5CF" stroke-width="10" stroke-linecap="round" stroke-miterlimit="10" x1="450.364" y1="328.668" x2="470.746" y2="311.993"/>
	
		<line opacity="0.6" fill="none" stroke="#FFFFFF" stroke-width="10" stroke-linecap="round" stroke-miterlimit="10" x1="890.073" y1="34.616" x2="924.082" y2="61.537"/>
	
		<line opacity="0.6" fill="none" stroke="#B7E5CF" stroke-width="10" stroke-linecap="round" stroke-miterlimit="10" x1="590.232" y1="454.753" x2="571.703" y2="423.253"/>
	
		<line opacity="0.6" fill="none" stroke="#FFFFFF" stroke-width="10" stroke-linecap="round" stroke-miterlimit="10" x1="585.528" y1="342.737" x2="567" y2="303.828"/>
	
		<line opacity="0.6" fill="none" stroke="#FFFFFF" stroke-width="10" stroke-linecap="round" stroke-miterlimit="10" x1="1058.842" y1="619.849" x2="1040.314" y2="580.939"/>
	
		<line opacity="0.6" fill="none" stroke="#FFFFFF" stroke-width="10" stroke-linecap="round" stroke-miterlimit="10" x1="929.795" y1="943.724" x2="907.562" y2="904.813"/>
	
		<line opacity="0.6" fill="none" stroke="#F8CACD" stroke-width="10" stroke-linecap="round" stroke-miterlimit="10" x1="427.225" y1="1185.74" x2="447.606" y2="1161.652"/>
	
		<line opacity="0.6" fill="none" stroke="#B7E5CF" stroke-width="10" stroke-linecap="round" stroke-miterlimit="10" x1="714.536" y1="1153.146" x2="677.478" y2="1149.439"/>
	
		<line opacity="0.6" fill="none" stroke="#EFE578" stroke-width="10" stroke-linecap="round" stroke-miterlimit="10" x1="692.219" y1="983.733" x2="708.895" y2="955.941"/>
	
		<line opacity="0.6" fill="none" stroke="#F55489" stroke-width="10" stroke-linecap="round" stroke-miterlimit="10" x1="444.751" y1="819.42" x2="402.135" y2="812.01"/>
	
		<line opacity="0.6" fill="none" stroke="#B7E5CF" stroke-width="10" stroke-linecap="round" stroke-miterlimit="10" x1="566.157" y1="957.772" x2="621.743" y2="939.243"/>
	
		<line opacity="0.6" fill="none" stroke="#FFFFFF" stroke-width="10" stroke-linecap="round" stroke-miterlimit="10" x1="506.821" y1="1130.719" x2="486.439" y2="1095.513"/>
	
		<line opacity="0.6" fill="none" stroke="#B7E5CF" stroke-width="10" stroke-linecap="round" stroke-miterlimit="10" x1="413.783" y1="1022.098" x2="371.167" y2="981.336"/>
	
		<line opacity="0.6" fill="none" stroke="#F8CACD" stroke-width="10" stroke-linecap="round" stroke-miterlimit="10" x1="281.567" y1="962.574" x2="255.627" y2="927.369"/>
	
		<line opacity="0.6" fill="none" stroke="#F8CACD" stroke-width="10" stroke-linecap="round" stroke-miterlimit="10" x1="584.148" y1="1079.427" x2="565.62" y2="1033.106"/>
	
		<line opacity="0.6" fill="none" stroke="#F55489" stroke-width="10" stroke-linecap="round" stroke-miterlimit="10" x1="493.517" y1="1011.521" x2="506.487" y2="983.73"/>
	
		<line opacity="0.6" fill="none" stroke="#FFFFFF" stroke-width="10" stroke-linecap="round" stroke-miterlimit="10" x1="870.527" y1="1053.195" x2="842.733" y2="1034.667"/>
	
		<line opacity="0.6" fill="none" stroke="#B7E5CF" stroke-width="10" stroke-linecap="round" stroke-miterlimit="10" x1="1488.414" y1="792.299" x2="1536.589" y2="796.005"/>
	
		<line opacity="0.6" fill="none" stroke="#F8CACD" stroke-width="10" stroke-linecap="round" stroke-miterlimit="10" x1="210.309" y1="1161.36" x2="251.073" y2="1140.979"/>
	
		<line opacity="0.6" fill="none" stroke="#EFE578" stroke-width="10" stroke-linecap="round" stroke-miterlimit="10" x1="583.372" y1="1148.06" x2="625.989" y2="1183.263"/>
	
		<line opacity="0.6" fill="none" stroke="#FFFFFF" stroke-width="10" stroke-linecap="round" stroke-miterlimit="10" x1="1135.183" y1="1055.773" x2="1111.096" y2="1013.158"/>
	
		<line opacity="0.6" fill="none" stroke="#F8CACD" stroke-width="10" stroke-linecap="round" stroke-miterlimit="10" x1="1040.556" y1="1153.003" x2="1064.644" y2="1128.917"/>
	
		<line opacity="0.6" fill="none" stroke="#B7E5CF" stroke-width="10" stroke-linecap="round" stroke-miterlimit="10" x1="772.595" y1="920.35" x2="757.772" y2="870.322"/>
	
		<line opacity="0.6" fill="none" stroke="#F55489" stroke-width="10" stroke-linecap="round" stroke-miterlimit="10" x1="913.279" y1="1118.788" x2="931.808" y2="1074.318"/>
	
		<line opacity="0.6" fill="none" stroke="#F8CACD" stroke-width="10" stroke-linecap="round" stroke-miterlimit="10" x1="613.5" y1="527.78" x2="569.032" y2="507.398"/>
	
		<line opacity="0.6" fill="none" stroke="#F55489" stroke-width="10" stroke-linecap="round" stroke-miterlimit="10" x1="767.949" y1="1133.251" x2="793.888" y2="1098.045"/>
	
		<line opacity="0.6" fill="none" stroke="#B7E5CF" stroke-width="10" stroke-linecap="round" stroke-miterlimit="10" x1="1102.062" y1="552.218" x2="1128.003" y2="526.279"/>
	
		<line opacity="0.6" fill="none" stroke="#F8CACD" stroke-width="10" stroke-linecap="round" stroke-miterlimit="10" x1="1242.119" y1="445.216" x2="1242.119" y2="413.717"/>
	
		<line opacity="0.6" fill="none" stroke="#EFE578" stroke-width="10" stroke-linecap="round" stroke-miterlimit="10" x1="1033.058" y1="895.778" x2="971.912" y2="882.807"/>
	
		<line opacity="0.6" fill="none" stroke="#F55489" stroke-width="10" stroke-linecap="round" stroke-miterlimit="10" x1="516.081" y1="613.939" x2="495.699" y2="571.324"/>
	
		<line opacity="0.6" fill="none" stroke="#F55489" stroke-width="10" stroke-linecap="round" stroke-miterlimit="10" x1="1192.521" y1="627.795" x2="1136.934" y2="590.736"/>
	
		<line opacity="0.6" fill="none" stroke="#EFE578" stroke-width="10" stroke-linecap="round" stroke-miterlimit="10" x1="1289.49" y1="767.722" x2="1270.961" y2="719.547"/>
	
		<line opacity="0.6" fill="none" stroke="#EFE578" stroke-width="10" stroke-linecap="round" stroke-miterlimit="10" x1="834.744" y1="1163.613" x2="853.273" y2="1133.968"/>
	
		<line opacity="0.6" fill="none" stroke="#F55489" stroke-width="10" stroke-linecap="round" stroke-miterlimit="10" x1="1404.41" y1="936.442" x2="1439.613" y2="927.179"/>
	
		<line opacity="0.6" fill="none" stroke="#F8CACD" stroke-width="10" stroke-linecap="round" stroke-miterlimit="10" x1="1341.677" y1="581.572" x2="1306.472" y2="555.633"/>
	
		<line opacity="0.6" fill="none" stroke="#FFFFFF" stroke-width="10" stroke-linecap="round" stroke-miterlimit="10" x1="1161.123" y1="373.22" x2="1203.738" y2="380.631"/>
	
		<line opacity="0.6" fill="none" stroke="#B7E5CF" stroke-width="10" stroke-linecap="round" stroke-miterlimit="10" x1="1201.623" y1="854.414" x2="1260.914" y2="832.179"/>
	
		<line opacity="0.6" fill="none" stroke="#F8CACD" stroke-width="10" stroke-linecap="round" stroke-miterlimit="10" x1="1324.031" y1="401.407" x2="1366.646" y2="388.437"/>
	
		<line opacity="0.6" fill="none" stroke="#B7E5CF" stroke-width="10" stroke-linecap="round" stroke-miterlimit="10" x1="1393.739" y1="599.685" x2="1388.18" y2="557.07"/>
	
		<line opacity="0.6" fill="none" stroke="#B7E5CF" stroke-width="10" stroke-linecap="round" stroke-miterlimit="10" x1="1237.756" y1="507.284" x2="1265.55" y2="501.727"/>
	
		<line opacity="0.6" fill="none" stroke="#FFFFFF" stroke-width="10" stroke-linecap="round" stroke-miterlimit="10" x1="1139.306" y1="299.07" x2="1111.513" y2="276.835"/>
	
		<line opacity="0.6" fill="none" stroke="#F8CACD" stroke-width="10" stroke-linecap="round" stroke-miterlimit="10" x1="652.836" y1="387.942" x2="695.452" y2="376.824"/>
	
		<line opacity="0.6" fill="none" stroke="#B7E5CF" stroke-width="10" stroke-linecap="round" stroke-miterlimit="10" x1="1070.818" y1="414.784" x2="1117.14" y2="403.667"/>
	
		<line opacity="0.6" fill="none" stroke="#FFFFFF" stroke-width="10" stroke-linecap="round" stroke-miterlimit="10" x1="1473.99" y1="574.255" x2="1453.608" y2="546.461"/>
	
		<line opacity="0.6" fill="none" stroke="#B7E5CF" stroke-width="10" stroke-linecap="round" stroke-miterlimit="10" x1="1435.288" y1="335.959" x2="1409.348" y2="311.873"/>
	
		<line opacity="0.6" fill="none" stroke="#F55489" stroke-width="10" stroke-linecap="round" stroke-miterlimit="10" x1="1012.655" y1="988.863" x2="1038.595" y2="964.775"/>
	
		<line opacity="0.6" fill="none" stroke="#F8CACD" stroke-width="10" stroke-linecap="round" stroke-miterlimit="10" x1="905.827" y1="179.723" x2="937.326" y2="176.017"/>
	
		<line opacity="0.6" fill="none" stroke="#F8CACD" stroke-width="10" stroke-linecap="round" stroke-miterlimit="10" x1="829.877" y1="276.336" x2="883.61" y2="250.396"/>
	
		<line opacity="0.6" fill="none" stroke="#F55489" stroke-width="10" stroke-linecap="round" stroke-miterlimit="10" x1="506.279" y1="406.592" x2="459.957" y2="401.035"/>
	
		<line opacity="0.6" fill="none" stroke="#EFE578" stroke-width="10" stroke-linecap="round" stroke-miterlimit="10" x1="1006.849" y1="126.056" x2="966.085" y2="116.791"/>
	
		<line opacity="0.6" fill="none" stroke="#EFE578" stroke-width="10" stroke-linecap="round" stroke-miterlimit="10" x1="498.067" y1="497.361" x2="490.656" y2="467.716"/>
	
		<line opacity="0.6" fill="none" stroke="#F55489" stroke-width="10" stroke-linecap="round" stroke-miterlimit="10" x1="551.005" y1="85.614" x2="563.976" y2="52.263"/>
	
		<line opacity="0.6" fill="none" stroke="#F55489" stroke-width="10" stroke-linecap="round" stroke-miterlimit="10" x1="770.308" y1="126.779" x2="785.131" y2="74.899"/>
	
		<line opacity="0.6" fill="none" stroke="#FFFFFF" stroke-width="10" stroke-linecap="round" stroke-miterlimit="10" x1="706.157" y1="205.846" x2="726.539" y2="174.347"/>
	
		<line opacity="0.6" fill="none" stroke="#B7E5CF" stroke-width="10" stroke-linecap="round" stroke-miterlimit="10" x1="1575.103" y1="139.232" x2="1621.361" y2="139.232"/>
	
		<line opacity="0.6" fill="none" stroke="#F8CACD" stroke-width="10" stroke-linecap="round" stroke-miterlimit="10" x1="396.913" y1="557.437" x2="422.853" y2="503.704"/>
	
		<line opacity="0.6" fill="none" stroke="#B7E5CF" stroke-width="10" stroke-linecap="round" stroke-miterlimit="10" x1="1050.992" y1="71.966" x2="1027.862" y2="30.277"/>
	
		<line opacity="0.6" fill="none" stroke="#FFFFFF" stroke-width="10" stroke-linecap="round" stroke-miterlimit="10" x1="1305.778" y1="170.599" x2="1298.366" y2="190.979"/>
	
		<line opacity="0.6" fill="none" stroke="#B7E5CF" stroke-width="10" stroke-linecap="round" stroke-miterlimit="10" x1="763.1" y1="1019.61" x2="741.314" y2="1065.932"/>
	
		<line opacity="0.6" fill="none" stroke="#F8CACD" stroke-width="10" stroke-linecap="round" stroke-miterlimit="10" x1="1363.796" y1="186.296" x2="1389.735" y2="160.356"/>
	
		<line opacity="0.6" fill="none" stroke="#B7E5CF" stroke-width="10" stroke-linecap="round" stroke-miterlimit="10" x1="1044.662" y1="191.692" x2="1001.089" y2="208.368"/>
	
		<line opacity="0.6" fill="none" stroke="#FFFFFF" stroke-width="10" stroke-linecap="round" stroke-miterlimit="10" x1="662.177" y1="860.534" x2="673.07" y2="897.592"/>
	
		<line opacity="0.6" fill="none" stroke="#F55489" stroke-width="10" stroke-linecap="round" stroke-miterlimit="10" x1="1156.156" y1="451.884" x2="1177.942" y2="485.235"/>
	
		<line opacity="0.6" fill="none" stroke="#B7E5CF" stroke-width="10" stroke-linecap="round" stroke-miterlimit="10" x1="1272.693" y1="362.338" x2="1295.823" y2="340.103"/>
	
		<line opacity="0.6" fill="none" stroke="#B7E5CF" stroke-width="10" stroke-linecap="round" stroke-miterlimit="10" x1="1101.032" y1="922.042" x2="1147.353" y2="936.866"/>
	
		<line opacity="0.6" fill="none" stroke="#F55489" stroke-width="10" stroke-linecap="round" stroke-miterlimit="10" x1="1185.636" y1="1050.016" x2="1219.434" y2="1090.78"/>
	
		<line opacity="0.6" fill="none" stroke="#EFE578" stroke-width="10" stroke-linecap="round" stroke-miterlimit="10" x1="1243.245" y1="996.439" x2="1199.672" y2="996.439"/>
	
		<line opacity="0.6" fill="none" stroke="#B7E5CF" stroke-width="10" stroke-linecap="round" stroke-miterlimit="10" x1="1473.857" y1="175.23" x2="1456.957" y2="143.732"/>
	
		<line opacity="0.6" fill="none" stroke="#EFE578" stroke-width="10" stroke-linecap="round" stroke-miterlimit="10" x1="1505.769" y1="879.198" x2="1520.591" y2="910.696"/>
	
		<line opacity="0.6" fill="none" stroke="#FFFFFF" stroke-width="10" stroke-linecap="round" stroke-miterlimit="10" x1="980.602" y1="1145.594" x2="967.632" y2="1138.182"/>
	
		<line opacity="0.6" fill="none" stroke="#EFE578" stroke-width="10" stroke-linecap="round" stroke-miterlimit="10" x1="1416.678" y1="775.452" x2="1429.649" y2="742.1"/>
	
		<line opacity="0.6" fill="none" stroke="#F8CACD" stroke-width="10" stroke-linecap="round" stroke-miterlimit="10" x1="1390.289" y1="655.958" x2="1435.684" y2="670.781"/>
	
		<line opacity="0.6" fill="none" stroke="#FFFFFF" stroke-width="10" stroke-linecap="round" stroke-miterlimit="10" x1="1430.285" y1="402.469" x2="1496.524" y2="402.469"/>
	
		<line opacity="0.6" fill="none" stroke="#FFFFFF" stroke-width="10" stroke-linecap="round" stroke-miterlimit="10" x1="1489.518" y1="718.601" x2="1508.046" y2="666.722"/>
	
		<line opacity="0.6" fill="none" stroke="#EFE578" stroke-width="10" stroke-linecap="round" stroke-miterlimit="10" x1="1304.903" y1="288.858" x2="1349.371" y2="287.007"/>
	
		<line opacity="0.6" fill="none" stroke="#F55489" stroke-width="10" stroke-linecap="round" stroke-miterlimit="10" x1="808" y1="974.377" x2="852.469" y2="961.408"/>
	
		<line opacity="0.6" fill="none" stroke="#B7E5CF" stroke-width="10" stroke-linecap="round" stroke-miterlimit="10" x1="1482.857" y1="1005.438" x2="1508.796" y2="990.615"/>
	
		<line opacity="0.6" fill="none" stroke="#F55489" stroke-width="10" stroke-linecap="round" stroke-miterlimit="10" x1="1417.031" y1="250.201" x2="1444.825" y2="229.819"/>
	
		<line opacity="0.6" fill="none" stroke="#EFE578" stroke-width="10" stroke-linecap="round" stroke-miterlimit="10" x1="1252.721" y1="95.736" x2="1217.517" y2="67.944"/>
	
		<line opacity="0.6" fill="none" stroke="#F8CACD" stroke-width="10" stroke-linecap="round" stroke-miterlimit="10" x1="1187.429" y1="299.839" x2="1254.132" y2="288.722"/>
	
		<line opacity="0.6" fill="none" stroke="#F55489" stroke-width="10" stroke-linecap="round" stroke-miterlimit="10" x1="1557.631" y1="542.623" x2="1570.603" y2="566.71"/>
	
		<line opacity="0.6" fill="none" stroke="#EFE578" stroke-width="10" stroke-linecap="round" stroke-miterlimit="10" x1="1599.009" y1="634.624" x2="1645.33" y2="651.3"/>
	
		<line opacity="0.6" fill="none" stroke="#FFFFFF" stroke-width="10" stroke-linecap="round" stroke-miterlimit="10" x1="1340.977" y1="834.798" x2="1402.121" y2="860.738"/>
	
		<line opacity="0.6" fill="none" stroke="#F55489" stroke-width="10" stroke-linecap="round" stroke-miterlimit="10" x1="1017.066" y1="294.697" x2="1044.858" y2="263.197"/>
	
		<line opacity="0.6" fill="none" stroke="#EFE578" stroke-width="10" stroke-linecap="round" stroke-miterlimit="10" x1="1526.004" y1="486.227" x2="1498.21" y2="471.404"/>
	
		<line opacity="0.6" fill="none" stroke="#B7E5CF" stroke-width="10" stroke-linecap="round" stroke-miterlimit="10" x1="1343.076" y1="783.747" x2="1359.751" y2="737.426"/>
	
		<line opacity="0.6" fill="none" stroke="#F8CACD" stroke-width="10" stroke-linecap="round" stroke-miterlimit="10" x1="1514.336" y1="336.04" x2="1503.22" y2="300.834"/>
	
		<line opacity="0.6" fill="none" stroke="#EFE578" stroke-width="10" stroke-linecap="round" stroke-miterlimit="10" x1="1156.036" y1="239.092" x2="1120.831" y2="205.74"/>
	
		<line opacity="0.6" fill="none" stroke="#F55489" stroke-width="10" stroke-linecap="round" stroke-miterlimit="10" x1="1234.935" y1="164.386" x2="1179.349" y2="158.827"/>
	
		<line opacity="0.6" fill="none" stroke="#FFFFFF" stroke-width="10" stroke-linecap="round" stroke-miterlimit="10" x1="1513.393" y1="239.921" x2="1554.155" y2="215.833"/>
	
		<line opacity="0.6" fill="none" stroke="#B7E5CF" stroke-width="10" stroke-linecap="round" stroke-miterlimit="10" x1="973.5" y1="341.78" x2="953.118" y2="315.839"/>
	
		<line opacity="0.6" fill="none" stroke="#F55489" stroke-width="10" stroke-linecap="round" stroke-miterlimit="10" x1="1658.388" y1="325.737" x2="1628.742" y2="292.386"/>
	
		<line opacity="0.6" fill="none" stroke="#B7E5CF" stroke-width="10" stroke-linecap="round" stroke-miterlimit="10" x1="1753.805" y1="277.317" x2="1724.159" y2="264.347"/>
	
		<line opacity="0.6" fill="none" stroke="#EFE578" stroke-width="10" stroke-linecap="round" stroke-miterlimit="10" x1="1637.908" y1="1143.624" x2="1613.821" y2="1088.039"/>
	
		<line opacity="0.6" fill="none" stroke="#F8CACD" stroke-width="10" stroke-linecap="round" stroke-miterlimit="10" x1="1657.572" y1="236.634" x2="1642.748" y2="184.755"/>
	
		<line opacity="0.6" fill="none" stroke="#FFFFFF" stroke-width="10" stroke-linecap="round" stroke-miterlimit="10" x1="1526.905" y1="96.568" x2="1487.996" y2="78.04"/>
	
		<line opacity="0.6" fill="none" stroke="#B7E5CF" stroke-width="10" stroke-linecap="round" stroke-miterlimit="10" x1="1612.954" y1="378.646" x2="1579.603" y2="361.97"/>
	
		<line opacity="0.6" fill="none" stroke="#B7E5CF" stroke-width="10" stroke-linecap="round" stroke-miterlimit="10" x1="1298.366" y1="64.985" x2="1318.746" y2="48.309"/>
	
		<line opacity="0.6" fill="none" stroke="#FFFFFF" stroke-width="10" stroke-linecap="round" stroke-miterlimit="10" x1="1572.853" y1="445.216" x2="1613.616" y2="430.393"/>
	
		<line opacity="0.6" fill="none" stroke="#B7E5CF" stroke-width="10" stroke-linecap="round" stroke-miterlimit="10" x1="1636.119" y1="562.219" x2="1617.59" y2="530.72"/>
	
		<line opacity="0.6" fill="none" stroke="#FFFFFF" stroke-width="10" stroke-linecap="round" stroke-miterlimit="10" x1="1154.186" y1="110.489" x2="1135.657" y2="71.578"/>
	
		<line opacity="0.6" fill="none" stroke="#FFFFFF" stroke-width="10" stroke-linecap="round" stroke-miterlimit="10" x1="1715.796" y1="626.747" x2="1693.562" y2="587.836"/>
	
		<line opacity="0.6" fill="none" stroke="#F8CACD" stroke-width="10" stroke-linecap="round" stroke-miterlimit="10" x1="1410.073" y1="486.031" x2="1430.455" y2="461.943"/>
	
		<line opacity="0.6" fill="none" stroke="#B7E5CF" stroke-width="10" stroke-linecap="round" stroke-miterlimit="10" x1="1525.159" y1="613.689" x2="1488.101" y2="609.983"/>
	
		<line opacity="0.6" fill="none" stroke="#EFE578" stroke-width="10" stroke-linecap="round" stroke-miterlimit="10" x1="1698.829" y1="839.726" x2="1715.505" y2="811.934"/>
	
		<line opacity="0.6" fill="none" stroke="#F55489" stroke-width="10" stroke-linecap="round" stroke-miterlimit="10" x1="1410.1" y1="90.582" x2="1367.483" y2="83.169"/>
	
		<line opacity="0.6" fill="none" stroke="#B7E5CF" stroke-width="10" stroke-linecap="round" stroke-miterlimit="10" x1="1682.13" y1="735.025" x2="1737.716" y2="716.496"/>
	
		<line opacity="0.6" fill="none" stroke="#FFFFFF" stroke-width="10" stroke-linecap="round" stroke-miterlimit="10" x1="1615.162" y1="940.459" x2="1594.781" y2="905.253"/>
	
		<line opacity="0.6" fill="none" stroke="#B7E5CF" stroke-width="10" stroke-linecap="round" stroke-miterlimit="10" x1="1740.642" y1="931.651" x2="1698.026" y2="890.887"/>
	
		<line opacity="0.6" fill="none" stroke="#F8CACD" stroke-width="10" stroke-linecap="round" stroke-miterlimit="10" x1="1635.155" y1="843.469" x2="1609.216" y2="808.264"/>
	
		<line opacity="0.6" fill="none" stroke="#EFE578" stroke-width="10" stroke-linecap="round" stroke-miterlimit="10" x1="1749.945" y1="430.557" x2="1688.799" y2="417.587"/>
	
		<line opacity="0.6" fill="none" stroke="#F55489" stroke-width="10" stroke-linecap="round" stroke-miterlimit="10" x1="1739.257" y1="525.404" x2="1683.671" y2="488.348"/>
	
		<line opacity="0.6" fill="none" stroke="#B7E5CF" stroke-width="10" stroke-linecap="round" stroke-miterlimit="10" x1="994.403" y1="1071.614" x2="1053.696" y2="1049.377"/>
	
		<line opacity="0.6" fill="none" stroke="#F8CACD" stroke-width="10" stroke-linecap="round" stroke-miterlimit="10" x1="1666.838" y1="1029.439" x2="1709.454" y2="1018.323"/>
	
		<line opacity="0.6" fill="none" stroke="#EFE578" stroke-width="10" stroke-linecap="round" stroke-miterlimit="10" x1="1732.859" y1="157.496" x2="1692.097" y2="148.232"/>
	
		<line opacity="0.6" fill="none" stroke="#EFE578" stroke-width="10" stroke-linecap="round" stroke-miterlimit="10" x1="1574.561" y1="65.064" x2="1567.148" y2="35.418"/>
	
		<line opacity="0.6" fill="none" stroke="#F55489" stroke-width="10" stroke-linecap="round" stroke-miterlimit="10" x1="1079.319" y1="146.131" x2="1092.289" y2="112.78"/>
	
		<line opacity="0.6" fill="none" stroke="#F55489" stroke-width="10" stroke-linecap="round" stroke-miterlimit="10" x1="1664.483" y1="91.884" x2="1679.306" y2="40.003"/>
	
		<line opacity="0.6" fill="none" stroke="#FFFFFF" stroke-width="10" stroke-linecap="round" stroke-miterlimit="10" x1="1746.621" y1="70.304" x2="1767.003" y2="38.807"/>
	
		<line opacity="0.6" fill="none" stroke="#EFE578" stroke-width="10" stroke-linecap="round" stroke-miterlimit="10" x1="666.147" y1="298.973" x2="638.354" y2="278.591"/>
	
		<line opacity="0.6" fill="none" stroke="#B7E5CF" stroke-width="10" stroke-linecap="round" stroke-miterlimit="10" x1="852.494" y1="126.127" x2="878.433" y2="100.188"/>
	
		<line opacity="0.6" fill="none" stroke="#F55489" stroke-width="10" stroke-linecap="round" stroke-miterlimit="10" x1="780.064" y1="232.534" x2="757.83" y2="230.681"/>
	
		<line opacity="0.6" fill="none" stroke="#B7E5CF" stroke-width="10" stroke-linecap="round" stroke-miterlimit="10" x1="783.141" y1="325.972" x2="751.643" y2="307.443"/>
	
		<line opacity="0.6" fill="none" stroke="#EFE578" stroke-width="10" stroke-linecap="round" stroke-miterlimit="10" x1="823.568" y1="198.731" x2="788.364" y2="167.232"/>
	
		<line opacity="0.6" fill="none" stroke="#B7E5CF" stroke-width="10" stroke-linecap="round" stroke-miterlimit="10" x1="909.425" y1="1009.938" x2="955.683" y2="1009.938"/>
	
		<line opacity="0.6" fill="none" stroke="#F8CACD" stroke-width="10" stroke-linecap="round" stroke-miterlimit="10" x1="1270.847" y1="1099.245" x2="1296.787" y2="1045.512"/>
	
		<line opacity="0.6" fill="none" stroke="#B7E5CF" stroke-width="10" stroke-linecap="round" stroke-miterlimit="10" x1="1144.37" y1="1139.093" x2="1121.241" y2="1097.404"/>
	
		<line opacity="0.6" fill="none" stroke="#FFFFFF" stroke-width="10" stroke-linecap="round" stroke-miterlimit="10" x1="1209.294" y1="1156.449" x2="1201.884" y2="1176.831"/>
	
		<line opacity="0.6" fill="none" stroke="#B7E5CF" stroke-width="10" stroke-linecap="round" stroke-miterlimit="10" x1="1299.728" y1="1171.619" x2="1279.346" y2="1145.679"/>
	
		<line opacity="0.6" fill="none" stroke="#F55489" stroke-width="10" stroke-linecap="round" stroke-miterlimit="10" x1="1604.725" y1="742.904" x2="1575.078" y2="709.553"/>
	
		<line opacity="0.6" fill="none" stroke="#B7E5CF" stroke-width="10" stroke-linecap="round" stroke-miterlimit="10" x1="1332.511" y1="977.911" x2="1302.866" y2="964.941"/>
	
		<line opacity="0.6" fill="none" stroke="#EFE578" stroke-width="10" stroke-linecap="round" stroke-miterlimit="10" x1="1426.709" y1="1052.744" x2="1402.623" y2="997.157"/>
	
		<line opacity="0.6" fill="none" stroke="#FFFFFF" stroke-width="10" stroke-linecap="round" stroke-miterlimit="10" x1="1475.631" y1="1136.455" x2="1436.72" y2="1117.926"/>
	
		<line opacity="0.6" fill="none" stroke="#F55489" stroke-width="10" stroke-linecap="round" stroke-miterlimit="10" x1="1348.166" y1="1127.76" x2="1361.136" y2="1094.408"/>
	
		<line opacity="0.6" fill="none" stroke="#F55489" stroke-width="10" stroke-linecap="round" stroke-miterlimit="10" x1="1556.481" y1="1062.735" x2="1571.304" y2="1010.855"/>
	
		<line opacity="0.6" fill="none" stroke="#FFFFFF" stroke-width="10" stroke-linecap="round" stroke-miterlimit="10" x1="1742.683" y1="1158.385" x2="1763.065" y2="1126.887"/>
	
		<line opacity="0.6" fill="none" stroke="#EFE578" stroke-width="10" stroke-linecap="round" stroke-miterlimit="10" x1="378.005" y1="1117.436" x2="342.801" y2="1085.937"/>
	
		<line opacity="0.6" fill="none" stroke="#EFE578" stroke-width="10" stroke-linecap="round" stroke-miterlimit="10" x1="938.383" y1="253.976" x2="947.648" y2="231.741"/>
	
		<line opacity="0.6" fill="none" stroke="#B7E5CF" stroke-width="10" stroke-linecap="round" stroke-miterlimit="10" x1="1260.117" y1="233.728" x2="1292.733" y2="233.728"/>
	
		<line opacity="0.6" fill="none" stroke="#EFE578" stroke-width="10" stroke-linecap="round" stroke-miterlimit="10" x1="568.355" y1="874.986" x2="540.562" y2="860.164"/>
	
		<line opacity="0.6" fill="none" stroke="#F55489" stroke-width="10" stroke-linecap="round" stroke-miterlimit="10" x1="1349.314" y1="500.181" x2="1293.728" y2="463.122"/>
	
		<line opacity="0.6" fill="none" stroke="#B7E5CF" stroke-width="10" stroke-linecap="round" stroke-miterlimit="10" x1="1393.739" y1="599.685" x2="1388.18" y2="557.07"/>
	
		<line opacity="0.6" fill="none" stroke="#F8CACD" stroke-width="10" stroke-linecap="round" stroke-miterlimit="10" x1="1211.843" y1="896.465" x2="1257.239" y2="911.288"/>
	
		<line opacity="0.6" fill="none" stroke="#EFE578" stroke-width="10" stroke-linecap="round" stroke-miterlimit="10" x1="835.5" y1="854.78" x2="807.708" y2="839.958"/>
	
		<line opacity="0.6" fill="none" stroke="#F55489" stroke-width="10" stroke-linecap="round" stroke-miterlimit="10" x1="920.649" y1="718.51" x2="900.268" y2="675.895"/>
	
		<line opacity="0.6" fill="none" stroke="#FFFFFF" stroke-width="10" stroke-linecap="round" stroke-miterlimit="10" x1="635.253" y1="745.215" x2="616.726" y2="706.306"/>
	
		<line opacity="0.6" fill="none" stroke="#FFFFFF" stroke-width="10" stroke-linecap="round" stroke-miterlimit="10" x1="1122.213" y1="815.46" x2="1099.979" y2="776.549"/>
	
		<line opacity="0.6" fill="none" stroke="#F8CACD" stroke-width="10" stroke-linecap="round" stroke-miterlimit="10" x1="699.672" y1="602.468" x2="753.406" y2="576.529"/>
	
		<line opacity="0.6" fill="none" stroke="#FFFFFF" stroke-width="10" stroke-linecap="round" stroke-miterlimit="10" x1="733.024" y1="741.132" x2="720.054" y2="733.72"/>
	
		<line opacity="0.6" fill="none" stroke="#EFE578" stroke-width="10" stroke-linecap="round" stroke-miterlimit="10" x1="830.868" y1="694.868" x2="812.339" y2="646.694"/>
	
		<line opacity="0.6" fill="none" stroke="#FFFFFF" stroke-width="10" stroke-linecap="round" stroke-miterlimit="10" x1="897.371" y1="808.305" x2="939.986" y2="815.715"/>
	
		<line opacity="0.6" fill="none" stroke="#F55489" stroke-width="10" stroke-linecap="round" stroke-miterlimit="10" x1="867.066" y1="429.467" x2="894.858" y2="397.967"/>
	
		<line opacity="0.6" fill="none" stroke="#EFE578" stroke-width="10" stroke-linecap="round" stroke-miterlimit="10" x1="802.733" y1="427.613" x2="767.528" y2="399.821"/>
	
		<line opacity="0.6" fill="none" stroke="#F8CACD" stroke-width="10" stroke-linecap="round" stroke-miterlimit="10" x1="494.777" y1="737.804" x2="518.865" y2="713.717"/>
	
		<line opacity="0.6" fill="none" stroke="#B7E5CF" stroke-width="10" stroke-linecap="round" stroke-miterlimit="10" x1="877.255" y1="549.088" x2="871.696" y2="506.473"/>
	
		<line opacity="0.6" fill="none" stroke="#EFE578" stroke-width="10" stroke-linecap="round" stroke-miterlimit="10" x1="965.426" y1="547.396" x2="978.398" y2="514.044"/>
	
		<line opacity="0.6" fill="none" stroke="#FFFFFF" stroke-width="10" stroke-linecap="round" stroke-miterlimit="10" x1="746.92" y1="508.479" x2="719.128" y2="486.244"/>
	
		<line opacity="0.6" fill="none" stroke="#F55489" stroke-width="10" stroke-linecap="round" stroke-miterlimit="10" x1="1026.659" y1="735.951" x2="1054.453" y2="715.57"/>
</g>
<g id="Layer_2">
</g>
</svg>
