<?xml version="1.0" encoding="utf-8"?>
<!-- Generator: Adobe Illustrator 16.0.4, SVG Export Plug-In . SVG Version: 6.00 Build 0)  -->
<!DOCTYPE svg PUBLIC "-//W3C//DTD SVG 1.1//EN" "http://www.w3.org/Graphics/SVG/1.1/DTD/svg11.dtd">
<svg version="1.1" id="Layer_1" xmlns="http://www.w3.org/2000/svg" xmlns:xlink="http://www.w3.org/1999/xlink" x="0px" y="0px"
	 width="578.228px" height="484.478px" viewBox="0 0 578.228 484.478" enable-background="new 0 0 578.228 484.478"
	 xml:space="preserve">
<ellipse fill="#F8CACD" cx="325.06" cy="240.537" rx="245.887" ry="240.538"/>
<g>
	<g>
		<path fill="none" stroke="#F7F7F7" stroke-miterlimit="10" d="M-1188.341-233.353"/>
	</g>
</g>
<g>
	<g>
		<path fill="none" stroke="#FFFFFF" stroke-miterlimit="10" d="M-1190.091-198.103"/>
	</g>
</g>
<g>
	<g>
		<path fill="none" stroke="#FFFFFF" stroke-miterlimit="10" d="M-1218.841-186.853"/>
	</g>
</g>
<g>
	<g>
		<path fill="none" stroke="#FFFFFF" stroke-miterlimit="10" d="M-1179.591-211.603"/>
	</g>
</g>
<g>
	<g>
		<path fill="none" stroke="#FFFFFF" stroke-width="7" stroke-miterlimit="10" d="M-1194.841-218.603"/>
	</g>
</g>
<g>
	<g>
		<path fill="none" stroke="#FFFFFF" stroke-width="7" stroke-miterlimit="10" d="M-1194.841-218.603"/>
	</g>
</g>
<g>
	<g>
		<path fill="none" stroke="#FFFFFF" stroke-width="7" stroke-miterlimit="10" d="M-1194.841-218.603"/>
	</g>
</g>
<g>
	<g>
		<path fill="none" stroke="#FFFFFF" stroke-width="7" stroke-miterlimit="10" d="M-1194.841-218.603"/>
	</g>
</g>
<g>
	<g>
		<path fill="#FFFFFF" d="M-1177.841-180.853c3.225,0,3.225-5,0-5S-1181.065-180.853-1177.841-180.853L-1177.841-180.853z"/>
	</g>
</g>
<path fill="#EFCC9A" stroke="#1E416B" stroke-width="14.2409" stroke-miterlimit="10" d="M342.229,113.174
	c-52.543,0-95.138,41.667-95.138,93.068c0,51.4,42.595,93.067,95.138,93.067c52.544,0,95.138-41.667,95.138-93.067
	C437.366,154.841,394.772,113.174,342.229,113.174z M342.229,234.218c-15.796,0-28.601-12.524-28.601-27.976
	c0-15.453,12.805-27.978,28.601-27.978c15.797,0,28.601,12.524,28.601,27.978C370.829,221.694,358.025,234.218,342.229,234.218z"/>
<g>
	<path fill="#F288A9" d="M282.828,155.804c-4.477,4.79-14.237,6.573-16.8,12.984c-2.407,6.022,3.269,14.513,2.35,21.333
		c-0.883,6.544-8.683,12.983-8.372,19.71c0.313,6.771,8.698,12.542,10.045,18.949c1.445,6.876-3.784,15.631-1.357,21.429
		c2.889,6.901,12.701,8.768,16.642,13.081c5.046,5.522,8.16,15.85,16.556,18.742c7.223,2.486,16.879-3.355,25.388-2.731
		c7.944,0.583,16.383,7.929,24.519,6.952c8.211-0.984,14.632-10.119,22.118-12.626c8.156-2.732,19.043,0.327,25.194-4.133
		c7.073-5.128,6.64-15.773,9.362-23.066c2.183-5.845,11.368-9.678,12.944-15.887c1.565-6.169-4.691-13.804-3.993-20.059
		c0.716-6.41,8.466-12.664,7.985-18.875c-0.498-6.438-9.079-11.125-11.177-17.029c-2.109-5.936,1.436-15.164-2.615-20.229
		c-3.762-4.7-13.45-3.389-19.154-7.063c-5.579-3.594-8.568-13.308-15.231-15.542c-6.361-2.131-14.775,3.733-21.657,2.871
		c-6.755-0.846-13.404-8.634-20.227-8.229c-6.894,0.408-12.522,8.925-19.044,10.638c-6.753,1.774-15.972-2.75-21.84,0.454
		C288.345,140.82,287.436,150.873,282.828,155.804z"/>
</g>
<line fill="none" stroke="#F8CACD" stroke-width="12.3421" stroke-linecap="round" stroke-miterlimit="10" x1="281.849" y1="216.764" x2="274.187" y2="202.792"/>
<line fill="none" stroke="#1ACFE2" stroke-width="12.3421" stroke-linecap="round" stroke-miterlimit="10" x1="333.644" y1="139.375" x2="319.193" y2="146.555"/>
<line fill="none" stroke="#FFFFFF" stroke-width="12.3421" stroke-linecap="round" stroke-miterlimit="10" x1="394.419" y1="179.595" x2="405.435" y2="167.964"/>
<line fill="none" stroke="#B7E5CF" stroke-width="12.3421" stroke-linecap="round" stroke-miterlimit="10" x1="326.723" y1="268.404" x2="342.046" y2="273.568"/>
<line fill="none" stroke="#EFE578" stroke-width="12.3421" stroke-linecap="round" stroke-miterlimit="10" x1="375.382" y1="247.751" x2="368.234" y2="261.979"/>
<line fill="none" stroke="#FFFFFF" stroke-width="12.3421" stroke-linecap="round" stroke-miterlimit="10" x1="296.608" y1="254.145" x2="306.963" y2="241.948"/>
<line fill="none" stroke="#B7E5CF" stroke-width="12.3421" stroke-linecap="round" stroke-miterlimit="10" x1="285.165" y1="174.111" x2="296.879" y2="178.568"/>
<line fill="none" stroke="#B7E5CF" stroke-width="12.3421" stroke-linecap="round" stroke-miterlimit="10" x1="364.879" y1="143.141" x2="376.592" y2="147.598"/>
<line fill="none" stroke="#F8CACD" stroke-width="12.3421" stroke-linecap="round" stroke-miterlimit="10" x1="398.345" y1="215.049" x2="410.208" y2="225.85"/>
<path fill="none" stroke="#1E416B" stroke-width="14.2409" stroke-miterlimit="10" d="M432.812,238.169
	c43.624,0,53.395-23.063,59.154-93.485"/>
<line fill="none" stroke="#1E416B" stroke-width="14.2409" stroke-miterlimit="10" x1="311.358" y1="294.298" x2="311.358" y2="417.585"/>
<line fill="none" stroke="#1E416B" stroke-width="14.2409" stroke-miterlimit="10" x1="365.225" y1="296.566" x2="365.225" y2="415.708"/>
<g>
	<path fill="#FFFFFF" d="M271.54,452.347c-12.509,0-22.686-10.025-22.686-22.35c0-12.322,10.177-22.347,22.686-22.347h19.811
		l0.223-11.081c0.078-3.876,3.242-6.978,7.119-6.978h23.893c1.895,0,3.712,0.755,5.048,2.099c1.336,1.343,2.082,3.163,2.072,5.058
		l-0.093,18.059v30.42c0,3.933-3.188,7.12-7.12,7.12H271.54z"/>
	<path fill="#1E416B" d="M322.585,396.712l-0.093,18.059v30.456H271.54c-8.597,0-15.565-6.818-15.565-15.229
		c0-8.41,6.969-15.227,15.565-15.227h26.79l0.362-18.059H322.585 M322.585,382.471h-23.893c-7.754,0-14.082,6.203-14.238,13.955
		l-0.082,4.104H271.54c-16.436,0-29.807,13.22-29.807,29.468c0,16.25,13.371,29.471,29.807,29.471h50.952
		c7.865,0,14.241-6.376,14.241-14.241v-30.418l0.092-18.023c0.02-3.79-1.472-7.431-4.145-10.117S326.375,382.471,322.585,382.471
		L322.585,382.471z"/>
</g>
<path fill="#D8D6D6" stroke="#1E416B" stroke-width="14.2409" stroke-linejoin="round" stroke-miterlimit="10" d="M275.76,373.695
	c-0.481,0.924-1.638,1.292-2.582,0.82l-18.024-8.973c-0.944-0.47-1.319-1.603-0.84-2.524l34.754-66.806
	c0.482-0.924,1.638-1.294,2.581-0.822l18.024,8.973c0.945,0.472,1.322,1.602,0.84,2.525L275.76,373.695z"/>
<path fill="#FFFFFF" stroke="#1E416B" stroke-width="14.2409" stroke-linejoin="round" stroke-miterlimit="10" d="M336.532,291.481
	c-7.033,13.519-23.938,18.9-37.757,12.021c-13.819-6.879-19.32-23.416-12.288-36.935c7.033-13.518,23.938-18.9,37.756-12.021
	S343.563,277.963,336.532,291.481z"/>
<g>
	<path fill="#EFCC9A" d="M476.478,156.046c-2.278,0-4.307-1.07-5.61-2.735l-16.5-14.062c-2.92-2.488-4.673-5.953-4.935-9.757
		c-0.262-3.796,0.994-7.46,3.537-10.317c2.716-3.049,6.63-4.797,10.739-4.797c1.956,0,3.877,0.397,5.648,1.15v-9.252
		c0-11.111,9.169-20.151,20.439-20.151c5.431,0,10.544,2.076,14.398,5.846c3.897,3.812,6.043,8.892,6.043,14.305v42.65
		c0,3.933-3.188,7.121-7.12,7.121H476.478z"/>
	<path fill="#1E416B" d="M489.797,93.245c7.357,0,13.321,5.832,13.321,13.031v42.65h-26.641v-0.189l-10.417-8.877l-7.074-6.03
		c-2.994-2.551-3.306-6.992-0.698-9.92c1.421-1.595,3.416-2.412,5.421-2.412c1.675,0,3.356,0.569,4.719,1.73l8.05,6.86v-6.798
		v-17.015C476.478,99.077,482.439,93.245,489.797,93.245 M489.798,79.004c-15.197,0-27.562,12.234-27.562,27.271v1.031
		c-5.595,0.383-10.846,2.934-14.583,7.131c-3.829,4.3-5.719,9.82-5.324,15.543c0.395,5.73,3.03,10.947,7.421,14.688l7.072,6.028
		l8.975,7.647c2.609,2.957,6.427,4.821,10.681,4.821h26.641c7.865,0,14.241-6.375,14.241-14.241v-42.65
		C517.359,91.238,504.995,79.004,489.798,79.004L489.798,79.004z"/>
</g>
<path fill="none" stroke="#1E416B" stroke-width="14.2409" stroke-miterlimit="10" d="M250.434,238.169
	c-43.624,0-72.336,62.852-27.703,92.43"/>
<g>
	<path fill="#EFCC9A" d="M272.945,372.565c-3.177,0-6.238-0.711-9.097-2.113l-38.974-19.121c-1.715-0.842-3.02-2.337-3.621-4.149
		c-0.602-1.813-0.45-3.792,0.422-5.492l11.944-23.295c1.049-2.046,2.954-3.371,5.058-3.756l20.262-8.133
		c1.722-0.689,3.529-1.039,5.376-1.039c5.807,0,10.996,3.428,13.22,8.733c1.464,3.49,1.466,7.338,0.004,10.832
		c-0.859,2.053-2.16,3.837-3.803,5.253l8.327,4.085c4.939,2.423,8.604,6.604,10.32,11.772c1.695,5.106,1.274,10.561-1.186,15.357
		C287.701,368.325,280.706,372.565,272.945,372.565z"/>
	<path fill="#1E416B" d="M264.315,312.587c2.83,0,5.513,1.646,6.652,4.365c1.507,3.593-0.249,7.7-3.921,9.172l-9.878,3.963
		l6.211,3.049l15.548,7.627c6.577,3.227,9.233,11.055,5.935,17.489c-2.336,4.559-7.036,7.193-11.917,7.193
		c-2.007,0-4.044-0.445-5.961-1.386l-38.973-19.121l11.944-23.295l0.173,0.085l12.779-5.129l8.684-3.485
		C262.484,312.757,263.407,312.587,264.315,312.587 M264.316,298.346C264.315,298.346,264.315,298.346,264.316,298.346
		c-2.76,0.001-5.46,0.522-8.024,1.551l-8.688,3.487l-11.026,4.426c-3.877,0.948-7.333,3.513-9.293,7.336L215.34,338.44
		c-1.743,3.4-2.048,7.357-0.844,10.983c1.203,3.626,3.813,6.617,7.243,8.3l38.973,19.121c3.79,1.858,8.02,2.841,12.233,2.841
		c10.445,0,19.868-5.724,24.591-14.938c3.337-6.509,3.907-13.913,1.605-20.848c-2.322-6.996-7.273-12.65-13.941-15.922l-0.977-0.479
		c2.088-5.192,2.046-10.881-0.123-16.054C280.766,303.488,273,298.346,264.316,298.346L264.316,298.346z"/>
</g>
<ellipse fill="#F288A9" cx="307.134" cy="423.22" rx="7.485" ry="7.322"/>
<line fill="#FFFFFF" stroke="#D8D6D6" stroke-width="14.2409" stroke-linejoin="round" stroke-miterlimit="10" x1="325.853" y1="442" x2="251.461" y2="442"/>
<g>
	<path fill="#1E416B" d="M322.585,396.712l-0.093,18.059v30.456H271.54c-8.597,0-15.565-6.818-15.565-15.229
		c0-8.41,6.969-15.227,15.565-15.227h26.79l0.362-18.059H322.585 M322.585,382.471h-23.893c-7.754,0-14.082,6.203-14.238,13.955
		l-0.082,4.104H271.54c-16.436,0-29.807,13.22-29.807,29.468c0,16.25,13.371,29.471,29.807,29.471h50.952
		c7.865,0,14.241-6.376,14.241-14.241v-30.418l0.092-18.023c0.02-3.79-1.472-7.431-4.145-10.117S326.375,382.471,322.585,382.471
		L322.585,382.471z"/>
</g>
<g>
	<path fill="#FFFFFF" d="M354.17,452.347c-3.933,0-7.12-3.188-7.12-7.12v-30.456l-0.093-18.022c-0.01-1.895,0.736-3.715,2.072-5.058
		c1.336-1.344,3.153-2.099,5.048-2.099h23.893c3.877,0,7.041,3.102,7.119,6.978l0.223,11.081h19.811
		c12.509,0,22.686,10.024,22.686,22.347c0,12.324-10.177,22.35-22.686,22.35H354.17z"/>
	<path fill="#1E416B" d="M377.97,396.712l0.362,18.059h26.79c8.597,0,15.565,6.816,15.565,15.227
		c0,8.411-6.969,15.229-15.565,15.229H354.17v-30.456l-0.093-18.059H377.97 M377.97,382.471h-23.893
		c-3.79,0-7.423,1.511-10.096,4.197s-4.164,6.327-4.145,10.117l0.092,18.023v30.418c0,7.865,6.376,14.241,14.241,14.241h50.952
		c16.436,0,29.807-13.221,29.807-29.471c0-16.248-13.371-29.468-29.807-29.468H392.29l-0.082-4.104
		C392.052,388.674,385.724,382.471,377.97,382.471L377.97,382.471z"/>
</g>
<ellipse fill="#F288A9" cx="369.528" cy="423.22" rx="7.485" ry="7.322"/>
<line fill="#FFFFFF" stroke="#D8D6D6" stroke-width="14.2409" stroke-linejoin="round" stroke-miterlimit="10" x1="350.81" y1="442" x2="425.201" y2="442"/>
<g>
	<path fill="#1E416B" d="M377.97,396.712l0.362,18.059h26.79c8.597,0,15.565,6.816,15.565,15.227
		c0,8.411-6.969,15.229-15.565,15.229H354.17v-30.456l-0.093-18.059H377.97 M377.97,382.471h-23.893
		c-3.79,0-7.423,1.511-10.096,4.197s-4.164,6.327-4.145,10.117l0.092,18.023v30.418c0,7.865,6.376,14.241,14.241,14.241h50.952
		c16.436,0,29.807-13.221,29.807-29.471c0-16.248-13.371-29.468-29.807-29.468H392.29l-0.082-4.104
		C392.052,388.674,385.724,382.471,377.97,382.471L377.97,382.471z"/>
</g>
<ellipse fill="#EFEFEF" stroke="#1E416B" stroke-width="14.2409" stroke-miterlimit="10" cx="345.11" cy="222.853" rx="28.075" ry="20.422"/>
<line fill="#EFEFEF" stroke="#1E416B" stroke-width="14.2409" stroke-linecap="round" stroke-miterlimit="10" x1="304.633" y1="174.578" x2="332.316" y2="173.903"/>
<line fill="#EFEFEF" stroke="#1E416B" stroke-width="14.2409" stroke-linecap="round" stroke-miterlimit="10" x1="392.12" y1="174.226" x2="358.569" y2="172.846"/>
<ellipse transform="matrix(0.7964 0.6048 -0.6048 0.7964 131.658 -18.5081)" fill="#EFEFEF" stroke="#4084F2" stroke-width="14.2409" stroke-linecap="round" stroke-miterlimit="10" cx="93.314" cy="186.26" rx="19.141" ry="26.503"/>
<ellipse transform="matrix(0.7964 0.6048 -0.6048 0.7964 130.5644 -70.1682)" fill="#EFEFEF" stroke="#4084F2" stroke-width="14.2409" stroke-linecap="round" stroke-miterlimit="10" cx="169.484" cy="158.808" rx="19.141" ry="26.503"/>
<polyline fill="none" stroke="#4084F2" stroke-width="14.2406" stroke-linecap="round" stroke-linejoin="round" stroke-miterlimit="10" points="
	109.343,165.154 109.343,71.415 172.821,31.66 172.821,128.837 "/>
</svg>
