<?xml version="1.0" encoding="utf-8"?>
<!-- Generator: Adobe Illustrator 16.0.4, SVG Export Plug-In . SVG Version: 6.00 Build 0)  -->
<!DOCTYPE svg PUBLIC "-//W3C//DTD SVG 1.1//EN" "http://www.w3.org/Graphics/SVG/1.1/DTD/svg11.dtd">
<svg version="1.1" id="Layer_1" xmlns="http://www.w3.org/2000/svg" xmlns:xlink="http://www.w3.org/1999/xlink" x="0px" y="0px"
	 width="228.082px" height="224.657px" viewBox="0 0 228.082 224.657" enable-background="new 0 0 228.082 224.657"
	 xml:space="preserve">
<g>
	<path fill="#EFCC9A" stroke="#1E416B" stroke-width="15" stroke-miterlimit="10" d="M113.144,13.001
		c-54.739,0-99.113,44.373-99.113,99.113c0,54.738,44.374,99.113,99.113,99.113s99.113-44.375,99.113-99.113
		C212.257,57.374,167.883,13.001,113.144,13.001z M113.144,141.907c-16.456,0-29.796-13.338-29.796-29.793
		c0-16.457,13.34-29.795,29.796-29.795s29.796,13.338,29.796,29.795C142.939,128.569,129.6,141.907,113.144,141.907z"/>
	<g>
		<path fill="#F288A9" d="M51.324,58.337c-4.679,5.119-14.973,7.153-17.645,14.008c-2.498,6.408,3.52,15.376,2.566,22.63
			c-0.914,6.953-9.127,13.804-8.804,20.95c0.325,7.195,9.146,13.359,10.543,20.168c1.501,7.317-4.052,16.56-1.53,22.732
			c3.014,7.377,13.361,9.499,17.479,14.105c5.248,5.87,8.371,16.751,17.097,19.829c7.547,2.662,17.688-3.457,26.583-2.793
			c8.312,0.62,17.154,8.346,25.664,7.293c8.583-1.062,15.23-10.71,23.046-13.404c8.492-2.929,19.942,0.186,26.33-4.585
			c7.279-5.436,6.637-16.614,9.45-24.316c2.271-6.215,11.935-10.36,13.575-16.962c1.628-6.551-4.983-14.621-4.253-21.264
			c0.746-6.801,8.916-13.434,8.429-20.026c-0.506-6.839-9.527-11.888-11.688-18.165c-2.182-6.341,1.646-16.065-2.564-21.478
			c-3.936-5.06-14.188-3.839-20.186-7.788c-5.805-3.822-8.812-14.055-15.744-16.432c-6.637-2.276-15.472,3.87-22.655,2.951
			c-7.057-0.903-13.998-9.104-21.125-8.669c-7.199,0.44-13.031,9.425-19.837,11.261C79.025,40.28,69.33,35.579,63.223,39
			C56.889,42.548,56.099,53.113,51.324,58.337z"/>
	</g>
	
		<line fill="none" stroke="#F8CACD" stroke-width="13" stroke-linecap="round" stroke-miterlimit="10" x1="50.24" y1="123.319" x2="42.258" y2="108.44"/>
	
		<line fill="none" stroke="#1ACFE2" stroke-width="13" stroke-linecap="round" stroke-miterlimit="10" x1="104.199" y1="40.903" x2="89.146" y2="48.55"/>
	
		<line fill="none" stroke="#FFFFFF" stroke-width="13" stroke-linecap="round" stroke-miterlimit="10" x1="164.408" y1="89.563" x2="175.883" y2="77.177"/>
	
		<line fill="none" stroke="#B7E5CF" stroke-width="13" stroke-linecap="round" stroke-miterlimit="10" x1="96.99" y1="178.313" x2="112.953" y2="183.813"/>
	
		<line fill="none" stroke="#EFE578" stroke-width="13" stroke-linecap="round" stroke-miterlimit="10" x1="147.683" y1="156.319" x2="140.236" y2="171.472"/>
	
		<line fill="none" stroke="#FFFFFF" stroke-width="13" stroke-linecap="round" stroke-miterlimit="10" x1="65.617" y1="163.128" x2="76.404" y2="150.14"/>
	
		<line fill="none" stroke="#B7E5CF" stroke-width="13" stroke-linecap="round" stroke-miterlimit="10" x1="59.583" y1="80.187" x2="71.785" y2="84.933"/>
	
		<line fill="none" stroke="#B7E5CF" stroke-width="13" stroke-linecap="round" stroke-miterlimit="10" x1="136.336" y1="49.954" x2="148.538" y2="54.7"/>
	
		<line fill="none" stroke="#F8CACD" stroke-width="13" stroke-linecap="round" stroke-miterlimit="10" x1="171.604" y1="121.493" x2="183.964" y2="132.995"/>
	<path fill="#4084F2" stroke="#1E416B" stroke-width="15" stroke-miterlimit="10" d="M142.939,112.114
		c0,16.455-13.34,29.793-29.796,29.793s-29.796-13.338-29.796-29.793c0-16.457,13.34-29.795,29.796-29.795
		S142.939,95.657,142.939,112.114z"/>
</g>
</svg>
