<?xml version="1.0" encoding="UTF-8"?>
<svg width="214px" height="214px" viewBox="0 0 214 214" version="1.1" xmlns="http://www.w3.org/2000/svg" xmlns:xlink="http://www.w3.org/1999/xlink">
    <!-- Generator: Sketch 42 (36781) - http://www.bohemiancoding.com/sketch -->
    <title>logo</title>
    <desc>Created with Sketch.</desc>
    <defs></defs>
    <g id="Page-1" stroke="none" stroke-width="1" fill="none" fill-rule="evenodd">
        <g id="logo" transform="translate(8.000000, 8.000000)">
            <g id="Group">
                <path d="M99.113,0 C44.374,0 0,44.373 0,99.113 C0,153.851 44.374,198.226 99.113,198.226 C153.852,198.226 198.226,153.851 198.226,99.113 C198.226,44.373 153.852,0 99.113,0 Z M99.113,128.906 C82.657,128.906 69.317,115.568 69.317,99.113 C69.317,82.656 82.657,69.318 99.113,69.318 C115.569,69.318 128.909,82.656 128.909,99.113 C128.908,115.568 115.569,128.906 99.113,128.906 Z" id="Shape" stroke="#1E416B" stroke-width="15" fill="#EFCC9A" fill-rule="nonzero"></path>
                <path d="M36.8922768,45.2326972 C41.6672768,40.0086972 42.4572768,29.4436972 48.7912768,25.8956972 C54.8982768,22.4746972 64.5932768,27.1756972 71.6232768,25.2776972 C78.4292768,23.4416972 84.2612768,14.4566972 91.4602768,14.0166972 C98.5872768,13.5816972 105.528277,21.7826972 112.585277,22.6856972 C119.768277,23.6046972 128.603277,17.4586972 135.240277,19.7346972 C142.172277,22.1116972 145.179277,32.3446972 150.984277,36.1666972 C156.982277,40.1156972 167.234277,38.8946972 171.170277,43.9546972 C175.380277,49.3676972 171.552277,59.0916972 173.734277,65.4326972 C175.895277,71.7096972 184.916277,76.7586972 185.422277,83.5976972 C185.909277,90.1896972 177.739277,96.8226972 176.993277,103.623697 C176.263277,110.266697 182.874277,118.336697 181.246277,124.887697 C179.606277,131.489697 169.942277,135.634697 167.671277,141.849697 C164.858277,149.551697 165.500277,160.729697 158.221277,166.165697 C151.833277,170.936697 140.383277,167.821697 131.891277,170.750697 C124.075277,173.444697 117.428277,183.092697 108.845277,184.154697 C100.335277,185.207697 91.4932768,177.481697 83.1812768,176.861697 C74.2862768,176.197697 64.1452768,182.316697 56.5982768,179.654697 C47.8722768,176.576697 44.7492768,165.695697 39.5012768,159.825697 C35.3832768,155.219697 25.0362768,153.097697 22.0222768,145.720697 C19.5002768,139.548697 25.0532768,130.305697 23.5522768,122.988697 C22.1552768,116.179697 13.3342768,110.015697 13.0092768,102.820697 C12.6862768,95.6746972 20.8992768,88.8236972 21.8132768,81.8706972 C22.7672768,74.6166972 16.7492768,65.6486972 19.2472768,59.2406972 C21.9192768,52.3856972 32.2132768,50.3516972 36.8922768,45.2326972 Z M99,122 C111.702549,122 122,111.702549 122,99 C122,86.2974508 111.702549,76 99,76 C86.2974508,76 76,86.2974508 76,99 C76,111.702549 86.2974508,122 99,122 Z" id="Combined-Shape" fill="#F288A9" fill-rule="nonzero"></path>
                <path d="M36.24,110.319 L28.258,95.44" id="Shape" stroke="#F8CACD" stroke-width="13" stroke-linecap="round"></path>
                <path d="M90.199,27.903 L75.146,35.55" id="Shape" stroke="#1ACFE2" stroke-width="13" stroke-linecap="round"></path>
                <path d="M150.408,76.563 L161.883,64.177" id="Shape" stroke="#FFFFFF" stroke-width="13" stroke-linecap="round"></path>
                <path d="M82.99,165.313 L98.953,170.813" id="Shape" stroke="#B7E5CF" stroke-width="13" stroke-linecap="round"></path>
                <path d="M133.683,143.319 L126.236,158.472" id="Shape" stroke="#EFE578" stroke-width="13" stroke-linecap="round"></path>
                <path d="M51.617,150.128 L62.404,137.14" id="Shape" stroke="#FFFFFF" stroke-width="13" stroke-linecap="round"></path>
                <path d="M45.583,67.187 L57.785,71.933" id="Shape" stroke="#B7E5CF" stroke-width="13" stroke-linecap="round"></path>
                <path d="M122.336,36.954 L134.538,41.7" id="Shape" stroke="#B7E5CF" stroke-width="13" stroke-linecap="round"></path>
                <path d="M157.604,108.493 L169.964,119.995" id="Shape" stroke="#F8CACD" stroke-width="13" stroke-linecap="round"></path>
                <path d="M128.592,98.795 C128.592,115.25 115.252,128.588 98.796,128.588 C82.34,128.588 69,115.25 69,98.795 C69,82.338 82.34,69 98.796,69 C115.252,69 128.592,82.338 128.592,98.795 Z" id="Shape" stroke="#1E416B" stroke-width="15" fill-rule="nonzero"></path>
            </g>
        </g>
    </g>
</svg>