<?xml version="1.0" encoding="utf-8"?>
<!-- Generator: Adobe Illustrator 16.0.4, SVG Export Plug-In . SVG Version: 6.00 Build 0)  -->
<!DOCTYPE svg PUBLIC "-//W3C//DTD SVG 1.1//EN" "http://www.w3.org/Graphics/SVG/1.1/DTD/svg11.dtd">
<svg version="1.1" id="Layer_1" xmlns="http://www.w3.org/2000/svg" xmlns:xlink="http://www.w3.org/1999/xlink" x="0px" y="0px"
	 width="500px" height="188.542px" viewBox="0 0 500 188.542" enable-background="new 0 0 500 188.542" xml:space="preserve">
<g>
	<path fill-rule="evenodd" clip-rule="evenodd" fill="#FFFFFF" d="M336.442,88.166c-2.913,0-5.482,0.296-7.939-0.104
		c-1.638-0.267-3.926-1.19-4.437-2.432c-0.52-1.261,0.396-3.556,1.371-4.896c2.084-2.868,5.209-4.099,8.78-4.133
		c2.441-0.023,4.907,0.08,7.311-0.249c1.133-0.156,2.422-0.975,3.151-1.886c1.406-1.759,2.367-3.869,3.691-5.705
		c2.343-3.251,5.823-4.282,9.562-3.017c3.58,1.213,4.622,3.718,2.918,7.082c-0.51,1.008-1.092,1.98-1.856,3.359
		c3.552,0,6.633,0.01,9.713-0.003c3.743-0.015,4.866,1.719,3.264,5.146c-1.696,3.626-4.398,5.837-8.563,5.976
		c-2.947,0.098-5.891,0.335-8.838,0.385c-1.806,0.03-2.946,0.778-3.827,2.348c-6.828,12.15-13.748,24.246-20.54,36.415
		c-1.551,2.776-2.884,5.708-3.973,8.693c-0.435,1.192-0.448,3.367,0.27,3.941c0.906,0.727,2.943,0.742,4.166,0.251
		c5.02-2.021,8.827-5.784,12.528-9.58c2.931-3.006,5.667-6.203,8.465-9.339c2.188-2.456,5.155-2.903,7.916-1.14
		c2.352,1.503,2.97,3.585,1.269,5.775c-7.067,9.108-14.473,17.935-24.493,24c-5.66,3.426-15.372,4.291-18.305,2.562
		s-4.688-4.052-6.587-6.909c-0.379-0.57-1.031-0.186-1.242-0.031c-1.406,1.028-2.654,1.982-3.969,2.838
		c-3.389,2.203-6.791,4.253-11.065,4.463c-3.941,0.195-7.861-1.232-9.516-4.52c-0.547-1.087-1.405-1.144-2.667-0.208
		c-5.48,4.062-14.055,5.602-18.943,4.738c-4.891-0.863-7.422-5.422-8.633-7.33c-0.299-0.471-0.901-0.741-1.466-0.329
		s-2.345,1.746-3.702,2.678c-3.613,2.486-7.286,4.659-11.884,5.033c-7.736,0.631-11.966-6.524-11.201-12.352
		c0.811-6.171,3.852-11.423,6.714-16.744c2.465-4.585,5.098-9.078,7.599-13.645c0.468-0.854,1.349-1.924,0.349-2.674
		s-4.48,0.765-6.425,2.117c-3.644,2.536-7.255,5.229-10.382,8.354c-1.932,1.933-3.178,4.68-4.327,7.242
		c-3.606,8.042-6.968,16.194-10.536,24.253c-1.349,3.048-4.891,4.67-8.447,4.206c-3.13-0.41-5.704-2.305-6-5.242
		c-0.197-1.965,3.114-9.534,3.698-10.774c-3.212,1.695-7.464,2.786-12.746,2.131c-3.333,4.833-10.753,10.046-18.42,11.712
		c-5.116,1.111-16.998,1.863-21.968-3.743c-3.606-4.069-4.808-8.988-4.462-14.294c0.846-12.972,7.452-22.939,16.751-31.386
		c5.244-4.764,11.293-8.084,18.373-9.375c11.571-2.111,20.364,4.967,20.814,16.713c0.235,6.147-1.613,11.767-3.923,17.31
		c-0.154,0.371-0.31,0.742-0.569,1.36c3.398,0.639,7.564-1.358,9.9-3.002s5.113-6.893,7.189-11.523
		c2.885-6.435,5.79-12.861,8.759-19.259c1.313-2.828,3.893-3.131,6.635-3.027c2.937,0.111,5.61,0.838,6.908,3.717
		c0.458,1.019,0.073,2.417,0.073,3.822c2.312-1.518,4.592-3.241,7.076-4.594c3.412-1.858,6.955-3.567,10.998-1.716
		c5.509,2.521,8.334,9.556,5.634,15.702c-3.03,6.898-6.672,13.53-10.125,20.238c-1.191,2.313-2.67,4.477-3.906,6.77
		c-0.555,1.03-1.501,3.316-0.621,3.965c1.188,0.875,6.964-0.178,11.277-5.053c2.576-2.911,15.312-24.109,18.533-29.621
		c1.652-2.829,3.299-5.673,5.142-8.378c2.434-3.574,6.248-4.595,10.221-2.974c2.766,1.128,3.882,3.382,2.527,6.049
		c-2.621,5.157-5.516,10.174-8.267,15.266c-3.431,6.351-6.881,12.688-10.216,19.089c-1.077,2.067-2.568,4.732-0.584,6.55
		c2.042,1.871,5.275,0.103,7.206-1.23c6.46-4.466,10.667-10.425,14.617-17.102c4.614-7.801,8.797-15.858,13.109-23.836
		c2.184-4.037,6.01-6.021,10.24-5.136c3.557,0.743,4.646,2.78,2.982,6.074c-3.064,6.067-6.249,12.076-9.432,18.083
		c-2.792,5.27-5.2,10.252-7.955,15.541c-0.374,0.72-1.055,2.239-0.777,2.824c0.527,1.113,2.608,0.279,3.267-0.113
		c1.527-0.935,4.189-2.627,6.236-4.427c5.832-5.13,9.663-11.747,13.396-18.444c4.092-7.336,8.358-14.574,12.541-21.86
		C336.045,89.266,336.154,88.876,336.442,88.166z M184.901,112.825c0.225-0.101-0.844-4.892-2.295-6.598
		c-2.731-3.213-6.521-2.492-9.77-1.003c-9.222,4.228-14.938,11.572-16.913,21.438c-1.617,8.085,3.451,12.89,10.607,10.648
		C175.546,134.488,184.649,122.354,184.901,112.825z"/>
	<path fill-rule="evenodd" clip-rule="evenodd" fill="#FFFFFF" d="M69.581,97.715c-3.505,1.459-6.929,3.171-10.53,4.329
		c-11.269,3.629-22.364,3.956-31.805-4.4c-7.141-6.321-10.239-14.628-8.889-24.271c1.888-13.482,9.133-24.021,18.754-33.084
		C47.556,30.45,59.89,23.962,73.672,19.931c11.411-3.336,22.954-4.165,34.703-3.234c1.64,0.13,2.777-0.268,3.989-1.479
		c2.896-2.896,7.509-2.903,10.12,0.19c0.91,1.077,0.602,3.185,0.91,5.217c2.671,1.245,6.086,2.478,9.134,4.317
		c13.429,8.106,19.304,20.514,19.834,35.806c0.34,9.793-1.635,19.169-4.807,28.419c-5.45,15.896-13.83,30.008-25.08,42.414
		c-6.769,7.465-14.533,13.563-23.98,17.535c-12.701,5.339-27.891,1.767-36.377-9.021c-0.557-0.708-1.133-1.399-1.702-2.099
		c-3.212,2.646-6.071,5.367-9.28,7.579c-11.284,7.776-23.312,8.844-35.428,2.423c-9.043-4.794-12.975-13.937-11.035-23.864
		c1.472-7.532,4.988-13.595,12.082-16.942c7.262-3.426,14.788-3.74,22.598-1.592c7.401,2.037,13.695,5.775,19.342,10.813
		c0.183,0.164,0.419,0.28,0.65,0.372c0.147,0.058,0.328,0.027,0.996,0.065c3.18-6.151,6.454-12.481,9.727-18.812
		C69.905,97.933,69.743,97.823,69.581,97.715z M138.158,61.979c0.556-13.18-7.541-25.97-19.669-30.46
		c-1.641-0.608-2.587-0.599-3.441,1.045c-1.508,2.903-3.324,5.653-4.72,8.605c-5.917,12.517-11.872,25.02-17.539,37.65
		c-6.565,14.635-12.831,29.401-21.126,43.188c-2.936,4.879-2.843,4.863,0.453,9.474c5.488,7.676,13.527,9.225,21.838,5.486
		c9.098-4.091,15.66-11.176,21.58-18.906c5.938-7.755,10.765-16.185,14.869-25.044C134.787,83.552,138.021,73.803,138.158,61.979z
		 M103.4,28.096c-0.737-0.221-0.973-0.339-1.216-0.354c-0.671-0.046-1.346-0.075-2.019-0.064
		c-11.737,0.171-23.018,2.601-33.735,7.322c-11.007,4.85-20.569,11.625-27.103,22.025c-4.285,6.82-6.872,14.225-6.83,22.34
		c0.024,4.676,1.485,8.886,6.049,11.114c3.316,1.619,6.888,2.009,10.582,1.431c7.881-1.237,14.883-4.506,21.278-9.142
		c4.853-3.518,9.399-7.464,12.146-12.883c6.487-12.793,12.743-25.705,19.103-38.563C102.159,30.304,102.735,29.321,103.4,28.096z
		 M53.317,127.229c-4.588-2.908-8.523-5.993-12.941-8.037c-4.571-2.113-9.527-3.188-14.598-0.636
		c-5.073,2.555-7.993,7.506-7.158,12.945c0.676,4.401,4.819,7.571,10.397,8.388C39.777,141.464,46.511,135.403,53.317,127.229z"/>
	<path fill-rule="evenodd" clip-rule="evenodd" fill="#FFFFFF" d="M414.16,140.225c7.072-4.146,13.355-9.088,18.458-15.225
		c10.679-12.847,21.113-25.899,31.525-38.964c3.173-3.981,9.421-3.306,12.16-0.546c1.592,1.604,2.171,3.359,0.56,5.374
		c-2.047,2.558-4,5.189-6.037,7.754c-3.288,4.138-3.771,8.67-2.035,13.555c2.588,7.298,4.399,14.679,2.1,22.484
		c-0.183,0.426,0.545,0.9,0.942,0.593s4.705-3.409,7.207-6.284s4.386-5.172,6.914-8.196c3.03-3.624,8.321-3.395,9.296-1.77
		c1.125,1.875-0.128,4.712-0.406,5.375c-2.39,5.705-6.032,9.117-10.309,13.411c-8.793,8.829-19.321,13.603-31.823,14.188
		c-4.743,0.222-9.353,0.431-13.823-1.635c-3.588-1.658-6.093-4.31-7.886-7.918c-3.312,2.243-6.3,4.52-9.523,6.39
		c-4.926,2.856-10.054,5.359-15.003,8.176c-1.299,0.739-2.525,1.91-3.324,3.175c-3.18,5.035-5.862,10.411-9.323,15.235
		c-3.862,5.382-9.43,8.727-16.073,9.395c-4.091,0.411-8.152-0.693-10.578-4.549c-2.27-3.606-1.152-7.165,0.921-10.421
		c3.665-5.755,8.862-9.806,14.938-12.764c3.391-1.65,6.87-3.121,10.254-4.786c0.841-0.414,1.72-1.132,2.153-1.939
		c3.768-7.032,7.472-14.098,11.13-21.188c5.392-10.454,10.697-20.951,16.104-31.396c2.317-4.475,6.094-6.289,11.101-5.57
		c3.073,0.441,4.399,2.436,3.043,5.147c-2.703,5.405-5.646,10.69-8.484,16.027c-4.575,8.601-9.149,17.204-13.72,25.811
		C414.438,139.502,414.311,139.87,414.16,140.225z M454.193,116.001c-4.002,4.865-7.564,9.268-11.208,13.602
		c-2.669,3.172-1.808,6.927,0.374,9.635c3.457,4.293,9.371,3.871,11.771-0.972C458.758,130.951,456.858,123.802,454.193,116.001z
		 M378.382,174.873c2.603-0.623,5.929-4.331,6.761-7.368C381.226,168.745,378.327,171.822,378.382,174.873z"/>
	<path fill-rule="evenodd" clip-rule="evenodd" fill="#FFFFFF" d="M437.589,83.32c-4.653,0.006-6.028-2.203-3.79-6.236
		c1.259-2.271,2.564-4.533,4.06-6.653c2.846-4.035,7.333-3.84,10.831-2.321c2.442,1.061,3.395,3.597,2.525,5.868
		C449.289,79.017,443.021,83.314,437.589,83.32z"/>
	<path fill-rule="evenodd" clip-rule="evenodd" fill="#FFFFFF" d="M367.797,151.842c-5.253-0.006-6.722-2.835-4.641-6.654
		c1.044-1.916,2.03-3.619,3.188-5.469c2.483-3.972,7.024-5.125,11.377-3.404c3.063,1.21,3.22,5.395,1.311,8.498
		C376.06,149.643,372.81,151.644,367.797,151.842z"/>
</g>
</svg>
