<?xml version="1.0" encoding="utf-8"?>
<!-- Generator: Adobe Illustrator 16.0.4, SVG Export Plug-In . SVG Version: 6.00 Build 0)  -->
<!DOCTYPE svg PUBLIC "-//W3C//DTD SVG 1.1//EN" "http://www.w3.org/Graphics/SVG/1.1/DTD/svg11.dtd">
<svg version="1.1" id="Layer_1" xmlns="http://www.w3.org/2000/svg" xmlns:xlink="http://www.w3.org/1999/xlink" x="0px" y="0px"
	 width="578.229px" height="484.477px" viewBox="0 0 578.229 484.477" enable-background="new 0 0 578.229 484.477"
	 xml:space="preserve">
<ellipse transform="matrix(-0.7736 -0.6337 0.6337 -0.7736 401.0573 624.3269)" fill="#B4DCF3" cx="312.062" cy="240.516" rx="245.893" ry="240.542"/>
<g>
	<path fill="#DCDCDB" stroke="#FFFFFF" stroke-width="7" stroke-miterlimit="10" d="M337.12,77.327
		c-17.359,5.524-78.123,118.369-80.49,128.627c-2.367,10.259,198.071,149.934,202.017,154.668
		c3.944,4.734,53.66-14.206,61.552-22.096c7.893-7.892,41.035-78.124,43.401-85.226c2.367-7.102,7.104-18.15,8.682-28.409
		C573.858,214.634,354.479,71.802,337.12,77.327z"/>
	<path fill="#FFFFFF" d="M337.12,90.742c0,0,198.071,120.736,204.384,134.151c6.313,13.414,12.627,7.103,12.627,7.103
		s-7.328,20.347-24.068,16.964c-39.062-7.89,14.991,2.367-5.131,28.015c-8.406,10.719-13.144,40.447-20.517,28.409
		c-31.171-50.897,21.701,19.332-22.096,38.271c-9.083,3.928-22.097,16.572-22.097,16.572s-174-119.553-198.069-149.145
		C257.25,205.054,330.019,93.109,337.12,90.742z"/>
</g>
<path fill="#A09F9F" d="M242.402,393.678c10.587,8.675,22.429,14.791,34.779,18.425c7.229,2.128-6.711,13.139-6.753,23.728
	c-0.044,11.504,13.758,22.505,21.693,21.031c22.194-4.118,74.336-58.212,89.762-77.04c18.353-22.402,25.259-50.432,21.424-77.001
	c-3.414-23.65-15.342-46.144-35.282-62.479c-17.012-13.937-37.266-21.273-57.659-22.318c-30.377-1.555-61.067,10.842-81.822,36.174
	c-10.348,12.632-64.375,76.402-67.573,91.342c-1.851,8.646,9.875,23.674,22.185,20.085c12.308-3.59,25.2-25.795,27.961-17.438
	C216.815,365.432,227.313,381.316,242.402,393.678z"/>
<path fill="#1E416B" d="M242.402,393.678l-4.753,5.804c11.369,9.316,24.124,15.907,37.418,19.815l1.089-3.71l-2.423,2.956
	c0.681,0.549,1.19,0.709,1.334,0.754l1.09-3.712l-2.424,2.958l3.438-4.195l-4.842,2.425c0.353,0.722,0.902,1.367,1.404,1.771
	l3.438-4.195l-4.842,2.425l4.747-2.376l-5.292,0.511c0.046,0.507,0.207,1.193,0.545,1.865l4.747-2.376l-5.292,0.511l4.085-0.397
	l-4.065-0.615c-0.031,0.194-0.064,0.528-0.02,1.014l4.085-0.397l-4.065-0.614l2.307,0.352l-2.272-0.547l-0.036,0.196l2.308,0.352
	l-2.272-0.547l1.111,0.268l-1.103-0.305l-0.009,0.038l1.112,0.267l-1.103-0.305l0.225,0.061l-0.221-0.067l-0.004,0.008l0.225,0.061
	l-0.221-0.067c-0.006,0.021-0.116,0.323-0.337,0.763c-0.383,0.774-1.076,1.959-1.907,3.343c-1.252,2.089-2.809,4.634-4.148,7.594
	c-0.668,1.483-1.281,3.081-1.747,4.816c-0.462,1.735-0.776,3.616-0.783,5.628c-0.011,2.359,0.362,4.634,0.997,6.762
	c0.957,3.192,2.481,6.069,4.314,8.626c1.837,2.555,3.988,4.803,6.322,6.717c2.678,2.187,5.584,3.952,8.7,5.143
	c1.56,0.592,3.18,1.041,4.88,1.276c1.699,0.234,3.492,0.26,5.349-0.085c1.979-0.368,3.91-0.968,5.857-1.726
	c3.641-1.426,7.354-3.428,11.236-5.859c6.783-4.262,14.072-9.867,21.507-16.158c11.138-9.434,22.56-20.408,32.44-30.525
	c4.938-5.055,9.488-9.895,13.421-14.22c3.936-4.327,7.241-8.134,9.731-11.174c9.858-12.03,16.663-25.609,20.473-39.736
	c3.812-14.129,4.637-28.805,2.573-43.087c-3.66-25.418-16.521-49.656-37.952-67.211c-18.275-14.976-40.101-22.887-62.028-24.004
	c-16.332-0.836-32.743,2.076-47.875,8.608c-15.131,6.532-28.984,16.695-40.132,30.305c-1.43,1.745-3.771,4.562-6.719,8.114
	c-2.949,3.556-6.511,7.861-10.415,12.625c-9.899,12.084-21.988,27.119-31.979,40.599c-4.999,6.746-9.47,13.095-12.933,18.598
	c-1.731,2.757-3.214,5.3-4.404,7.657c-0.597,1.184-1.121,2.318-1.568,3.447c-0.444,1.132-0.821,2.25-1.088,3.483
	c-0.511,2.404-0.435,4.73-0.046,6.926c0.597,3.294,1.895,6.355,3.654,9.209c1.77,2.842,4.022,5.469,6.737,7.696
	c2.691,2.2,5.853,4.022,9.483,5.047c1.812,0.507,3.738,0.804,5.729,0.819c1.99,0.02,4.042-0.254,6.058-0.843
	c2.17-0.635,4.12-1.563,5.93-2.621c3.159-1.855,5.92-4.126,8.456-6.396c1.896-1.704,3.649-3.415,5.233-4.958
	c1.187-1.159,2.28-2.224,3.23-3.101c0.712-0.657,1.344-1.209,1.842-1.604c0.372-0.296,0.666-0.502,0.818-0.597l0.101-0.061h0.002
	l-0.955-1.85l0.636,1.974c0.222-0.072,0.312-0.122,0.319-0.124l-0.955-1.85l0.636,1.974l-1.311-4.053l0.571,4.217
	c0.333-0.045,0.576-0.112,0.743-0.165l-1.312-4.054l0.571,4.219l-0.736-5.431l-1.315,5.308c0.823,0.206,1.556,0.19,2.051,0.123
	l-0.736-5.431l-1.315,5.308l1.405-5.663l-3.7,4.517c0.612,0.512,1.474,0.953,2.294,1.147l1.404-5.663l-3.699,4.517l3.284-4.008
	l-4.431,2.702c0.21,0.351,0.577,0.837,1.148,1.305l3.284-4.008l-4.432,2.703l2.74-1.671l-3.06,1.011
	c0.027,0.083,0.104,0.305,0.32,0.66l2.738-1.669l-3.06,1.011c6.121,18.545,17.44,35.663,33.654,48.941l4.754-5.805l4.753-5.801
	c-13.967-11.446-23.647-26.1-28.917-42.044c-0.259-0.782-0.602-1.6-1.117-2.443c-0.513-0.844-1.212-1.721-2.151-2.49
	c-0.638-0.524-1.386-0.986-2.18-1.328c-1.551-0.676-3.2-0.838-4.522-0.713c-1.254,0.113-2.27,0.425-3.131,0.771
	c-1.607,0.66-2.761,1.446-3.867,2.264c-0.956,0.718-1.847,1.48-2.739,2.284c-1.549,1.398-3.097,2.925-4.676,4.46
	c-2.358,2.303-4.802,4.632-7.097,6.431c-1.142,0.898-2.242,1.663-3.225,2.231c-0.979,0.571-1.841,0.941-2.475,1.124
	c-0.606,0.178-1.167,0.246-1.743,0.244c-0.86-0.008-1.779-0.19-2.776-0.603c-0.992-0.407-2.047-1.044-3.051-1.866
	c-1.805-1.464-3.402-3.557-4.29-5.451c-0.45-0.94-0.724-1.825-0.839-2.483c-0.121-0.663-0.074-1.079-0.054-1.152
	c0.021-0.107,0.135-0.523,0.368-1.105c0.432-1.101,1.253-2.771,2.381-4.747c1.975-3.472,4.871-7.906,8.324-12.824
	c5.185-7.39,11.631-15.904,18.28-24.393c6.651-8.491,13.51-16.971,19.554-24.349c3.875-4.729,7.418-9.012,10.358-12.557
	c2.943-3.551,5.279-6.355,6.776-8.185c9.609-11.726,21.476-20.426,34.474-26.039c12.995-5.609,27.12-8.12,41.161-7.4
	c18.865,0.973,37.547,7.734,53.291,20.627c18.449,15.121,29.447,35.871,32.612,57.75c1.773,12.285,1.062,24.91-2.209,37.039
	c-3.274,12.131-9.099,23.766-17.596,34.138c-3.669,4.479-9.743,11.312-17.041,18.984c-10.956,11.521-24.744,25.014-37.651,35.844
	c-6.445,5.409-12.68,10.157-18.102,13.62c-2.707,1.73-5.209,3.139-7.366,4.147c-2.152,1.013-3.974,1.61-5.166,1.824h-0.003
	c-0.028,0.005-0.266,0.026-0.668-0.041c-0.606-0.095-1.566-0.39-2.636-0.928c-1.072-0.531-2.253-1.295-3.382-2.22
	c-1.812-1.479-3.472-3.383-4.554-5.272c-0.545-0.945-0.952-1.881-1.213-2.752c-0.26-0.876-0.374-1.681-0.372-2.414
	c0-0.462,0.077-1.062,0.268-1.789c0.329-1.269,1.032-2.889,1.96-4.604c0.692-1.29,1.497-2.63,2.316-3.992
	c0.615-1.025,1.235-2.06,1.83-3.142c0.443-0.813,0.874-1.654,1.271-2.585c0.295-0.699,0.573-1.452,0.798-2.319
	c0.167-0.649,0.306-1.372,0.367-2.19c0.045-0.614,0.041-1.285-0.046-2.006c-0.127-1.078-0.465-2.284-1.071-3.408
	c-0.599-1.128-1.454-2.135-2.378-2.883c-1.319-1.074-2.689-1.663-3.94-2.034c-11.41-3.358-22.341-9.001-32.141-17.03l-4.754,5.805
	l-0.005-0.005L242.402,393.678z"/>
<path fill="#A09F9F" d="M462.507,129.57c-10.587-8.673-22.429-14.79-34.779-18.423c-15.084-4.44,0.301-47.587-14.938-44.759
	c-22.194,4.119-74.336,58.211-89.763,77.04c-18.354,22.402-25.26,50.431-21.422,77c3.414,23.65,15.34,46.144,35.283,62.482
	c17.01,13.934,37.262,21.271,57.657,22.316c30.376,1.557,61.067-10.841,81.822-36.175c10.348-12.631,64.375-76.404,67.572-91.341
	c3.699-17.298-44.627,14.066-50.147-2.648C488.096,157.817,477.596,141.932,462.507,129.57z"/>
<path fill="#1E416B" d="M462.507,129.57l4.825-5.742l-0.076-0.062c-11.368-9.315-24.121-15.905-37.41-19.814l-0.029-0.01
	l-0.037,0.092l0.05-0.086l-0.015-0.008l-0.039,0.092l0.051-0.086l-0.061,0.106l0.077-0.094l-0.018-0.012l-0.061,0.106l0.077-0.094
	c-0.004-0.003-0.05-0.04-0.151-0.181c-0.189-0.258-0.534-0.915-0.831-1.966c-0.264-0.915-0.495-2.106-0.656-3.477
	c-0.293-2.404-0.387-5.345-0.396-8.445c-0.009-2.327,0.022-4.751,0.019-7.167c-0.018-3.637-0.085-7.213-0.649-10.705
	c-0.295-1.752-0.711-3.505-1.475-5.302c-0.384-0.897-0.861-1.809-1.488-2.708c-0.623-0.897-1.401-1.782-2.354-2.563
	c-1.409-1.168-3.227-2.047-5.073-2.423c-1.854-0.388-3.678-0.323-5.364-0.009c-1.979,0.369-3.911,0.967-5.855,1.726
	c-3.642,1.427-7.354,3.429-11.238,5.862c-6.782,4.259-14.071,9.865-21.506,16.157c-11.137,9.435-22.559,20.409-32.439,30.522
	c-4.938,5.057-9.488,9.896-13.421,14.222c-3.935,4.328-7.241,8.132-9.733,11.172c-9.857,12.032-16.664,25.61-20.473,39.737
	c-3.811,14.128-4.634,28.805-2.572,43.088c3.662,25.418,16.521,49.654,37.953,67.21c18.274,14.976,40.1,22.885,62.027,24.004
	c16.331,0.838,32.744-2.073,47.875-8.608c15.131-6.529,28.987-16.694,40.133-30.305c1.43-1.744,3.771-4.561,6.72-8.113
	c2.947-3.558,6.513-7.86,10.417-12.627c9.896-12.084,21.987-27.118,31.979-40.597c5-6.746,9.471-13.095,12.934-18.597
	c1.73-2.757,3.214-5.3,4.405-7.657c0.596-1.181,1.117-2.319,1.566-3.448c0.445-1.133,0.82-2.25,1.089-3.483
	c0.191-0.903,0.325-1.829,0.357-2.808c0.053-1.456-0.119-3.072-0.75-4.709c-0.312-0.811-0.741-1.616-1.271-2.348
	c-0.528-0.732-1.156-1.388-1.822-1.934c-1.402-1.147-2.918-1.79-4.271-2.155c-1.28-0.341-2.461-0.463-3.59-0.5
	c-2.104-0.052-4.062,0.203-6.07,0.565c-3.494,0.647-7.144,1.688-10.877,2.771c-2.792,0.813-5.612,1.652-8.314,2.376
	c-4.037,1.094-7.853,1.902-10.568,2.064c-1.352,0.091-2.405,0.016-2.985-0.105c-0.293-0.06-0.466-0.123-0.528-0.151l-0.028-0.013
	l-0.008,0.016l0.009-0.015l-0.001-0.001l-0.008,0.016l0.009-0.015l-0.337,0.583l0.427-0.52l-0.09-0.063l-0.337,0.583l0.427-0.52
	l-0.731,0.893l0.956-0.645c-0.054-0.083-0.152-0.189-0.226-0.247l-0.731,0.893l0.955-0.646l-0.597,0.401l0.648-0.313l-0.053-0.088
	l-0.597,0.401l0.648-0.313l-0.087,0.041l0.09-0.035l-0.003-0.005l-0.087,0.042l0.09-0.035l-0.01-0.029
	c-6.122-18.547-17.442-35.665-33.653-48.942L462.507,129.57l4.826-5.742L462.507,129.57l-4.754,5.802
	c13.967,11.445,23.646,26.098,28.917,42.042c0.419,1.27,1.009,2.503,1.771,3.627c0.758,1.125,1.682,2.13,2.698,2.961
	c1.261,1.032,2.646,1.794,4.02,2.331c2.596,1.003,5.133,1.289,7.598,1.31c2.162,0.01,4.294-0.207,6.435-0.539
	c3.733-0.589,7.493-1.549,11.157-2.568c2.743-0.765,5.423-1.569,7.918-2.287c1.871-0.54,3.642-1.031,5.229-1.425
	c2.372-0.598,4.391-0.948,5.49-0.993c0.271-0.014,0.479-0.011,0.606-0.005l0.143,0.012l0.294-1.863l-0.688,1.744
	c0.258,0.102,0.391,0.119,0.396,0.12l0.294-1.863l-0.688,1.744l1.47-3.716l-2.525,3.082c0.413,0.338,0.801,0.532,1.057,0.633
	l1.469-3.716l-2.524,3.082l2.975-3.629l-4.027,2.404c0.275,0.468,0.667,0.912,1.054,1.225l2.975-3.629l-4.027,2.404l3.375-2.015
	l-3.954,0.315c0.02,0.308,0.152,0.993,0.579,1.7l3.375-2.015l-3.954,0.315l1.446-0.116l-1.451-0.123c0,0-0.008,0.08,0.005,0.239
	l1.446-0.116l-1.451-0.123c0,0-0.009,0.075-0.037,0.22c-0.021,0.105-0.138,0.523-0.368,1.102c-0.433,1.1-1.255,2.773-2.382,4.747
	c-1.975,3.473-4.87,7.909-8.326,12.826c-5.186,7.389-11.629,15.903-18.278,24.393c-6.65,8.492-13.509,16.969-19.553,24.346
	c-3.876,4.732-7.417,9.014-10.358,12.559c-2.943,3.548-5.277,6.354-6.776,8.184c-9.608,11.725-21.479,20.424-34.475,26.038
	c-12.994,5.612-27.118,8.12-41.162,7.399c-18.863-0.971-37.545-7.731-53.289-20.629c-18.451-15.119-29.445-35.871-32.612-57.75
	c-1.773-12.287-1.062-24.909,2.209-37.038c3.272-12.13,9.099-23.767,17.594-34.138c3.669-4.481,9.743-11.312,17.043-18.986
	c10.956-11.519,24.744-25.012,37.651-35.842c6.445-5.413,12.681-10.158,18.103-13.621c2.707-1.73,5.209-3.137,7.366-4.147
	c2.152-1.013,3.975-1.609,5.166-1.825l0.062-0.009l-0.108-1.082l-0.075,1.08c0.119,0.008,0.185,0.002,0.185,0.002l-0.108-1.082
	l-0.075,1.08l0.188-2.734l-0.988,2.544c0.32,0.126,0.627,0.18,0.802,0.189l0.188-2.734l-0.988,2.544l1.174-3.021l-2.055,2.509
	c0.231,0.193,0.561,0.39,0.881,0.512l1.174-3.021l-2.055,2.509l1.343-1.641l-1.821,1.125c0.03,0.051,0.177,0.27,0.479,0.516
	l1.343-1.641l-1.821,1.125l0.387-0.238l-0.395,0.226l0.008,0.013l0.387-0.239l-0.395,0.226l0.009,0.015
	c0.062,0.099,0.313,0.778,0.487,1.841c0.327,1.869,0.457,4.823,0.462,8.15c0.01,2.502-0.032,5.236-0.014,8.037
	c0.039,4.213,0.176,8.549,1.011,12.795c0.425,2.125,1.026,4.245,2.024,6.338c0.992,2.079,2.425,4.17,4.49,5.862
	c1.501,1.236,3.328,2.213,5.272,2.779c11.412,3.36,22.341,9,32.14,17.028l4.568-5.576l-4.639,5.519l0.069,0.057l4.568-5.576
	l-4.639,5.519l0.037,0.03l0.037,0.03L462.507,129.57L462.507,129.57z"/>
<path fill="#E9E8E9" d="M387.536,223.45l39.425,32.297l2.833,28.522c0.139,1.377,1.361,2.379,2.734,2.239
	c1.377-0.134,2.38-1.356,2.239-2.733l-3.037-30.582l-41.024-33.608c-1.07-0.877-2.643-0.719-3.52,0.35
	C386.312,221.002,386.468,222.575,387.536,223.45z"/>
<path fill="#E9E8E9" d="M364.758,194.447l-32.663-26.759l-22.689,0.266c-1.381,0.016-2.486,1.148-2.471,2.529
	c0.016,1.38,1.147,2.486,2.529,2.47l20.869-0.246l31.256,25.606c1.068,0.875,2.643,0.718,3.518-0.35
	C365.981,196.897,365.826,195.322,364.758,194.447z"/>
<polyline fill="#1E416B" points="377.358,200.577 344.567,240.604 351.853,246.57 384.644,206.545 "/>
<path fill="#E788B2" d="M397.368,185.877c5.039,4.128,9.682,12.174,5.554,17.212c-4.127,5.039-20.784,8.826-25.823,4.698
	s-3.058-19.938,1.069-24.978C382.297,177.772,392.329,181.749,397.368,185.877z"/>
<path fill="#707179" d="M528.524,187.057c0,0-25.199,18.137-30.476,15.108c-5.274-3.029,3.729,1.761,4.072,12.385
	C502.468,225.176,528.524,187.057,528.524,187.057z"/>
<path fill="#707179" d="M413.085,74.386c0,0-12.823,28.277-8.816,32.853c4.01,4.577-2.46-3.309-12.944-1.557
	C380.839,107.435,413.085,74.386,413.085,74.386z"/>
<path fill="#E9E8E9" d="M375.603,235.649l35.482,29.068l0.116,28.655c0.008,1.382,1.13,2.496,2.511,2.491
	c1.38-0.008,2.496-1.131,2.491-2.512l-0.127-31.01l-37.306-30.562c-1.069-0.875-2.645-0.719-3.52,0.35
	C374.378,233.199,374.534,234.774,375.603,235.649z"/>
<path fill="#E9E8E9" d="M358.028,208.972l-28.57-23.407l-25.7,7.499c-1.323,0.387-2.085,1.775-1.698,3.1
	c0.387,1.325,1.773,2.086,3.101,1.7l23.17-6.761l26.532,21.737c1.068,0.875,2.644,0.719,3.519-0.349
	C359.255,211.421,359.099,209.847,358.028,208.972z"/>
<path fill="#E9E8E9" d="M250.267,311.585c-16.547,9.453-34.059,25.529-26.107,42.386c3.25,6.891,3.605,10.063,13.307,21.892
	c6.395,7.794,13.536,12.712,22.059,16.994c31.288,15.721,45.811-7.066,55.132-26.797c7.046-14.911,20.952-31.725-6.366-56.926
	C289.517,291.812,268.085,301.404,250.267,311.585z"/>
<path fill="#1E416B" d="M392.065,262.711c-0.303,0.362-0.653,0.663-1.196,0.955c-0.47,0.253-1.091,0.488-1.888,0.658
	c-1.39,0.302-3.316,0.379-5.616,0.072c-3.447-0.449-7.694-1.748-12.179-3.906c-4.492-2.154-9.232-5.152-13.81-8.902
	c-3.983-3.264-7.437-6.763-10.239-10.242c-2.103-2.607-3.842-5.205-5.174-7.657c-2.007-3.674-3.053-7.035-3.252-9.456
	c-0.105-1.212-0.016-2.174,0.166-2.882c0.186-0.714,0.434-1.176,0.766-1.587c2.315-2.826,1.901-6.996-0.922-9.31
	c-2.828-2.316-6.998-1.902-9.312,0.925c-1.454,1.768-2.5,3.808-3.135,5.917c-0.56,1.847-0.814,3.748-0.836,5.645
	c-0.037,3.325,0.613,6.646,1.742,9.961c1.704,4.972,4.5,9.963,8.182,14.86c3.683,4.891,8.268,9.668,13.63,14.062
	c4.667,3.822,9.509,7.012,14.323,9.521c3.613,1.883,7.213,3.387,10.74,4.477c5.289,1.619,10.406,2.361,15.28,1.832
	c2.433-0.272,4.813-0.881,7.044-1.947c2.227-1.062,4.293-2.614,5.921-4.611c2.315-2.826,1.902-6.994-0.925-9.311
	C398.551,259.469,394.382,259.884,392.065,262.711z"/>
<g>
	<g>
		<path fill="none" d="M324.37,511.211c-0.207-0.062-0.414-0.129-0.626-0.195c-0.12-0.041-0.239-0.078-0.363-0.117l0.747,0.61
			L324.37,511.211"/>
		<path fill="#A0254E" d="M247.614,202.738c0,0-22.491,4.902-46,22c-11,8-54.559,65.913-59.895,66.845
			c-5.336,0.935-22.721,9.832-32.36,16.206c-9.639,6.372-30.867,18.679-36.375,24.915c-5.507,6.237-19.56,45.805-20.477,49.872
			c-0.917,4.065-49.093,44.812-19.024,56.938c30.068,12.125,94.735,26.398,124,33c29.265,6.603,75,24,118,13
			c30.073-7.692,52.682-17.322,75-39c22.315-21.677,65.01-77.509,70-86c4.989-8.489,13.657-27.797,11.131-34.775
			c-2.523-6.981-42.213-6.057-60-9c-17.789-2.944-54.698-30.051-75.547-45.896C269.614,250.738,277.614,202.738,247.614,202.738z"/>
		<path fill="#600D2D" d="M318.946,356.738c-15.475-4.644,46,15,58,14s22.001-4,31.001-7s23.001-30.332,23.001-30.332
			s-1.333,26.002-44.333,73c-6.804,7.435-38.332,49.002-57.667,59c-14.625,7.562-37.465,15.109-51.333,20.334
			c-13.869,5.224-20.668,6.998-46.668,3.998s-45-11-57-13s23,5,52-1s39-6,40-10s-12-6-17-12s-4.752-3.107,18.624-2.555
			c23.375,0.554,37.375,4.555,43.375-2.445s25-16,12-24s-31-18-31-18s46,17,55,5s4-18,1-23S328.946,359.738,318.946,356.738z"/>
		<path fill="#600D2D" d="M-133.386,353.738"/>
		<path fill="#D80752" d="M655.614,509.406"/>
		<path fill="none" stroke="#1E416B" stroke-width="11" stroke-linecap="round" stroke-miterlimit="10" d="M371.114,146.488
			c-5.75,9,14.25,24.75,21.5,15.25"/>
		<path fill="none" stroke="#1E416B" stroke-width="11" stroke-linecap="round" stroke-miterlimit="10" d="M427.447,193.155
			c-5.75,9,14.25,24.75,21.5,15.25"/>
		<path fill="#FFFFFF" d="M523.948,186.072"/>
		<path fill="#FFFFFF" d="M663.614,153.072"/>
		<path fill="#1E416B" d="M142.55,33.562H92.486c-0.665,0-1.202,0.538-1.202,1.201V49.88c0,0.664,0.538,1.202,1.202,1.202h19.845
			L87.875,95.631c-0.098,0.177-0.148,0.376-0.148,0.578v2.135c0,0.664,0.538,1.201,1.201,1.201h52.11
			c0.664,0,1.202-0.538,1.202-1.201V83.137c0-0.664-0.538-1.201-1.202-1.201h-21.632l24.198-44.464
			c0.096-0.176,0.147-0.374,0.147-0.574v-2.135C143.751,34.099,143.214,33.562,142.55,33.562z"/>
		<path fill="#1E416B" d="M210.249,56.527h-50.063c-0.665,0-1.202,0.538-1.202,1.202v15.117c0,0.665,0.538,1.202,1.202,1.202h19.845
			l-24.455,44.549c-0.098,0.177-0.148,0.376-0.148,0.578v2.135c0,0.664,0.538,1.202,1.202,1.202h52.11
			c0.664,0,1.201-0.538,1.201-1.202v-15.207c0-0.664-0.538-1.202-1.201-1.202h-21.632l24.198-44.464
			c0.096-0.176,0.147-0.374,0.147-0.574v-2.135C211.451,57.065,210.914,56.527,210.249,56.527z"/>
		<path fill="#1E416B" d="M277.948,79.494h-50.063c-0.665,0-1.202,0.538-1.202,1.201v15.118c0,0.664,0.538,1.202,1.202,1.202h19.845
			l-24.455,44.549c-0.098,0.177-0.148,0.376-0.148,0.578v2.135c0,0.664,0.538,1.201,1.201,1.201h52.11
			c0.664,0,1.201-0.538,1.201-1.201V129.07c0-0.664-0.537-1.201-1.201-1.201h-21.632l24.198-44.464
			c0.096-0.176,0.147-0.374,0.147-0.574v-2.135C279.15,80.031,278.613,79.494,277.948,79.494z"/>
	</g>
</g>
<g>
	
		<linearGradient id="SVGID_1_" gradientUnits="userSpaceOnUse" x1="-22.4551" y1="-0.3008" x2="-21.4556" y2="-0.3008" gradientTransform="matrix(219.0069 59.5385 -59.5385 219.0069 4984.292 1680.6914)">
		<stop  offset="0" style="stop-color:#FFFFFF"/>
		<stop  offset="1" style="stop-color:#231F20"/>
	</linearGradient>
	<path fill="url(#SVGID_1_)" d="M243.873,347.68c-4.02,2.211-12.787,2.506-19.578,0.66L83.879,310.166
		c-6.792-1.848-9.039-5.135-5.019-7.346l64.918-35.676c4.021-2.211,12.789-2.506,19.58-0.658l140.414,38.172
		c6.793,1.848,9.04,5.137,5.018,7.346L243.873,347.68z"/>
	<path fill="#BAC3C7" d="M243.873,347.68l-1.686-3.066c-0.629,0.355-1.812,0.762-3.275,1.023c-1.465,0.268-3.215,0.416-5.047,0.416
		c-2.898,0.002-6.02-0.371-8.652-1.09L84.798,306.789c-1.979-0.531-3.406-1.207-4.1-1.707c-0.174-0.121-0.301-0.229-0.381-0.307
		l-0.107-0.113l-0.004-0.008l-0.977,0.666h1.137c0.002-0.398-0.154-0.666-0.16-0.666l-0.977,0.666h1.137h-1.605l1.505,0.562
		c0.06-0.152,0.101-0.363,0.101-0.562h-1.605l1.505,0.562l-1.116-0.416l0.989,0.67c0.034-0.051,0.083-0.137,0.127-0.254
		l-1.116-0.416l0.989,0.67l-0.401-0.273l0.357,0.332l0.044-0.059l-0.401-0.273l0.357,0.332l0.104-0.086
		c0.074-0.057,0.189-0.133,0.351-0.221l64.917-35.676c0.63-0.355,1.812-0.764,3.275-1.023c1.465-0.268,3.213-0.416,5.047-0.416
		c2.898-0.002,6.019,0.371,8.652,1.09l140.416,38.174c1.979,0.531,3.404,1.207,4.1,1.707c0.174,0.121,0.301,0.229,0.381,0.307
		l0.105,0.113l0.004,0.008l0.979-0.666h-1.139c-0.002,0.398,0.154,0.664,0.16,0.666l0.979-0.666h-1.139h1.605l-1.506-0.562
		c-0.059,0.154-0.102,0.363-0.1,0.562h1.605l-1.506-0.562l1.115,0.416l-0.988-0.668c-0.033,0.049-0.084,0.135-0.127,0.252
		l1.115,0.416l-0.988-0.668l0.402,0.271l-0.357-0.33l-0.045,0.059l0.402,0.271l-0.357-0.33l-0.104,0.084
		c-0.074,0.057-0.189,0.133-0.352,0.221l-64.916,35.676L243.873,347.68l1.688,3.066l64.917-35.676
		c0.969-0.537,1.849-1.186,2.573-2.102c0.359-0.457,0.674-0.986,0.895-1.578c0.221-0.59,0.344-1.242,0.342-1.887
		c0.004-1.287-0.471-2.443-1.084-3.32c-0.463-0.666-1.008-1.213-1.603-1.699c-0.895-0.725-1.91-1.314-3.057-1.842
		c-1.148-0.523-2.43-0.975-3.854-1.361l-140.412-38.172c-3.363-0.912-7.008-1.334-10.49-1.336c-2.203,0-4.336,0.17-6.305,0.529
		c-1.971,0.365-3.773,0.895-5.39,1.773l-64.918,35.676l0,0c-0.97,0.537-1.849,1.188-2.573,2.104
		c-0.359,0.457-0.673,0.986-0.894,1.578c-0.222,0.59-0.344,1.242-0.343,1.887c-0.002,1.287,0.472,2.443,1.084,3.32
		c0.463,0.666,1.008,1.213,1.602,1.699c0.895,0.725,1.91,1.314,3.057,1.842c1.148,0.521,2.43,0.975,3.853,1.359l140.413,38.174
		c3.363,0.912,7.01,1.334,10.49,1.336c2.203,0,4.336-0.17,6.305-0.529c1.971-0.365,3.773-0.895,5.391-1.775L243.873,347.68z"/>
	
		<linearGradient id="SVGID_2_" gradientUnits="userSpaceOnUse" x1="-22.4775" y1="-0.2812" x2="-21.4775" y2="-0.2812" gradientTransform="matrix(234.823 63.8382 -63.8382 234.823 5277.208 1731.3008)">
		<stop  offset="0" style="stop-color:#FFFFFF"/>
		<stop  offset="1" style="stop-color:#231F20"/>
	</linearGradient>
	<path fill="url(#SVGID_2_)" d="M238.099,338.809c2.146,6.74-1.863,10.73-8.957,8.914l-146.65-37.598
		c-7.094-1.816-14.586-8.758-16.735-15.5L31.08,185.776c-2.147-6.74,1.861-10.73,8.956-8.914l146.651,37.598
		c7.096,1.816,14.586,8.758,16.736,15.5L238.099,338.809z"/>
	<path fill="#D5E1E7" d="M127.51,238.325c13.929,0.391,25.872,13.074,26.679,28.333c0.805,15.256-9.832,27.309-23.76,26.918
		s-25.872-13.074-26.679-28.332C102.945,249.986,113.583,237.936,127.51,238.325z"/>
	<path fill="#1E416B" d="M127.51,238.325l-0.099,3.499c2.964,0.083,5.834,0.817,8.516,2.104c4.018,1.924,7.594,5.104,10.214,9.088
		c2.623,3.982,4.284,8.752,4.552,13.828c0.024,0.482,0.037,0.961,0.037,1.436c0,6.299-2.212,11.768-5.742,15.637
		c-1.767,1.936-3.861,3.475-6.199,4.531s-4.92,1.639-7.704,1.641c-0.187,0-0.371-0.002-0.558-0.01
		c-2.963-0.082-5.834-0.816-8.516-2.102c-4.018-1.926-7.594-5.105-10.214-9.09c-2.623-3.984-4.284-8.752-4.552-13.826
		c-0.025-0.482-0.039-0.961-0.039-1.434c0.003-6.303,2.213-11.77,5.744-15.639c1.767-1.938,3.861-3.475,6.199-4.533
		c2.338-1.056,4.92-1.638,7.705-1.639c0.184,0,0.37,0.002,0.557,0.008L127.51,238.325l0.099-3.499
		c-0.252-0.007-0.504-0.01-0.754-0.01c-3.771-0.002-7.361,0.8-10.592,2.263c-4.85,2.193-8.88,5.861-11.678,10.458
		c-2.801,4.598-4.379,10.131-4.379,16.09c0,0.596,0.017,1.197,0.049,1.803c0.453,8.492,3.982,16.234,9.365,21.955
		c2.695,2.861,5.861,5.221,9.365,6.902c3.5,1.68,7.346,2.678,11.346,2.789c0.252,0.006,0.503,0.01,0.754,0.01
		c3.771,0.002,7.359-0.801,10.59-2.262c4.85-2.193,8.88-5.861,11.678-10.459c2.801-4.598,4.379-10.129,4.377-16.088
		c0-0.598-0.016-1.199-0.048-1.805c-0.452-8.492-3.981-16.236-9.364-21.957c-2.695-2.861-5.861-5.22-9.363-6.901
		s-7.346-2.678-11.348-2.789L127.51,238.325z"/>
	<path fill="#E9E8E9" d="M128.035,241.478c3.433,0.096,6.789,11.018,7.494,24.395c0.707,13.379-1.502,24.145-4.935,24.047
		c-3.433-0.096-6.789-11.018-7.495-24.395C122.393,252.146,124.602,241.382,128.035,241.478z"/>
	<path fill="#1E416B" d="M128.035,241.478l-0.014,0.5c0.295,0.008,0.618,0.132,0.982,0.419c0.636,0.5,1.335,1.496,1.986,2.89
		c1.973,4.189,3.584,11.885,4.039,20.613c0.09,1.674,0.131,3.307,0.131,4.881c0,5.443-0.51,10.197-1.379,13.551
		c-0.432,1.676-0.957,3-1.521,3.865c-0.28,0.434-0.569,0.748-0.842,0.943c-0.275,0.197-0.522,0.277-0.778,0.279l-0.033-0.002
		c-0.293-0.008-0.617-0.131-0.981-0.418c-0.636-0.5-1.335-1.494-1.987-2.891c-1.973-4.188-3.583-11.883-4.04-20.611
		c-0.088-1.674-0.131-3.307-0.131-4.879c0-5.443,0.511-10.199,1.379-13.553c0.433-1.676,0.958-3.002,1.522-3.867
		c0.281-0.432,0.57-0.748,0.843-0.943c0.274-0.196,0.522-0.277,0.778-0.279l0.031,0.001L128.035,241.478l0.015-0.5l-0.06-0.001
		c-0.489-0.001-0.957,0.174-1.363,0.468c-0.713,0.52-1.284,1.377-1.789,2.514c-1.497,3.402-2.366,9.428-2.371,16.66
		c0,1.594,0.043,3.242,0.132,4.934c0.354,6.725,1.374,12.828,2.747,17.299c0.688,2.234,1.461,4.061,2.309,5.371
		c0.426,0.654,0.869,1.182,1.351,1.562c0.479,0.379,1.011,0.619,1.575,0.635l0.061,0.002c0.489,0,0.956-0.176,1.362-0.469
		c0.713-0.52,1.284-1.379,1.789-2.514c1.497-3.402,2.364-9.426,2.37-16.658c0-1.592-0.043-3.242-0.133-4.934
		c-0.354-6.725-1.373-12.83-2.746-17.299c-0.688-2.236-1.459-4.062-2.308-5.371c-0.425-0.655-0.868-1.183-1.35-1.565
		c-0.479-0.38-1.011-0.619-1.575-0.635L128.035,241.478z"/>
	<path fill="#E9E8E9" d="M114.119,282.641c-2.566-2.729,1.945-12.41,10.082-21.627c8.136-9.217,16.811-14.479,19.377-11.752
		c2.568,2.727-1.945,12.41-10.082,21.627C125.363,280.104,116.687,285.365,114.119,282.641z"/>
	<path fill="#1E416B" d="M114.119,282.641l0.363-0.342c-0.369-0.391-0.584-1.021-0.584-1.916c-0.008-1.904,1.01-4.846,2.867-8.193
		c1.855-3.354,4.537-7.137,7.811-10.844c3.317-3.76,6.727-6.855,9.75-8.998c1.511-1.072,2.925-1.904,4.174-2.465
		c1.248-0.562,2.332-0.844,3.156-0.84c0.721,0.002,1.211,0.195,1.56,0.561c0.369,0.391,0.584,1.021,0.584,1.916
		c0.008,1.904-1.009,4.846-2.868,8.193c-1.855,3.354-4.537,7.139-7.811,10.846c-3.316,3.758-6.725,6.854-9.748,8.996
		c-1.512,1.072-2.926,1.904-4.176,2.465c-1.248,0.561-2.332,0.842-3.155,0.84c-0.722-0.004-1.212-0.195-1.56-0.561l0,0
		L114.119,282.641l-0.364,0.344c0.571,0.607,1.387,0.879,2.287,0.875c1.042-0.002,2.235-0.334,3.565-0.928
		c3.979-1.787,9.215-5.996,14.264-11.711c3.316-3.758,6.037-7.592,7.936-11.023c1.896-3.436,2.985-6.447,2.993-8.678
		c0-1.043-0.25-1.953-0.856-2.602c-0.57-0.607-1.387-0.881-2.287-0.877c-1.041,0.004-2.235,0.334-3.564,0.93
		c-3.979,1.787-9.215,5.996-14.266,11.713c-3.316,3.758-6.037,7.592-7.936,11.021c-1.895,3.438-2.984,6.447-2.992,8.678
		c0,1.043,0.25,1.953,0.855,2.602l0,0L114.119,282.641z"/>
	<path fill="#E9E8E9" d="M145.859,283.266c-2.287,2.59-11.547-3.174-20.682-12.875c-9.133-9.701-14.686-19.664-12.398-22.256
		c2.285-2.594,11.543,3.174,20.678,12.875C142.592,270.711,148.144,280.676,145.859,283.266z"/>
	<path fill="#1E416B" d="M145.859,283.266l-0.375-0.332c-0.254,0.285-0.638,0.447-1.256,0.451c-0.792,0.004-1.91-0.305-3.23-0.918
		c-3.975-1.838-9.75-6.355-15.455-12.42c-3.852-4.09-7.062-8.229-9.301-11.818c-1.119-1.795-1.994-3.451-2.586-4.889
		s-0.894-2.658-0.891-3.537c0-0.637,0.148-1.066,0.391-1.338c0.254-0.285,0.635-0.447,1.254-0.451
		c0.791-0.004,1.91,0.305,3.229,0.92c3.974,1.838,9.749,6.354,15.455,12.418c3.853,4.092,7.063,8.229,9.302,11.82
		c1.119,1.795,1.995,3.451,2.586,4.891c0.594,1.438,0.895,2.656,0.891,3.535c0,0.635-0.148,1.064-0.389,1.336L145.859,283.266
		l0.375,0.33c0.455-0.518,0.639-1.215,0.639-1.998c-0.002-1.094-0.348-2.406-0.967-3.916c-1.86-4.516-6.244-10.811-12.084-17.016
		c-3.848-4.086-7.717-7.479-11.102-9.861c-1.693-1.191-3.264-2.131-4.66-2.779c-1.398-0.645-2.617-1.008-3.65-1.012
		c-0.795-0.004-1.519,0.234-2.004,0.789c-0.457,0.52-0.641,1.217-0.641,2c0.002,1.096,0.348,2.408,0.967,3.916
		c1.859,4.516,6.243,10.809,12.082,17.014c3.848,4.088,7.717,7.48,11.102,9.863c1.693,1.189,3.264,2.131,4.66,2.777
		c1.398,0.646,2.617,1.01,3.651,1.012c0.794,0.004,1.519-0.234,2.005-0.789L145.859,283.266z"/>
	<path fill="#1E416B" d="M128.703,258.623l-0.014,0.5c6.063,0.17,11.594,1.082,15.598,2.406c2,0.66,3.617,1.426,4.715,2.227
		c0.549,0.398,0.966,0.807,1.24,1.197c0.276,0.395,0.412,0.764,0.432,1.123l0.002,0.086c-0.001,0.334-0.1,0.656-0.312,0.998
		c-0.373,0.596-1.127,1.217-2.219,1.777c-3.273,1.697-9.447,2.834-16.691,2.828c-0.664,0-1.336-0.008-2.017-0.027
		c-6.063-0.17-11.595-1.084-15.598-2.408c-2-0.658-3.619-1.426-4.716-2.227c-0.549-0.398-0.967-0.805-1.242-1.197
		s-0.412-0.764-0.432-1.123l-0.002-0.086c0.002-0.332,0.1-0.656,0.313-0.998c0.373-0.594,1.127-1.215,2.218-1.775
		c3.273-1.697,9.448-2.834,16.692-2.828c0.664,0,1.337,0.008,2.019,0.027L128.703,258.623l0.014-0.5
		c-0.689-0.02-1.373-0.027-2.046-0.027c-5.603,0-10.57,0.652-14.181,1.764c-1.806,0.557-3.273,1.225-4.326,2.012
		c-0.525,0.396-0.948,0.822-1.248,1.295c-0.299,0.471-0.471,0.992-0.469,1.533l0.002,0.139c0.031,0.582,0.254,1.137,0.613,1.646
		c0.633,0.893,1.676,1.676,3.045,2.391c4.103,2.131,11.228,3.635,19.299,3.863c0.69,0.021,1.373,0.029,2.045,0.029
		c5.602-0.002,10.57-0.654,14.18-1.764c1.806-0.559,3.273-1.227,4.326-2.014c0.525-0.396,0.949-0.822,1.248-1.295
		c0.3-0.471,0.471-0.992,0.47-1.533l-0.003-0.139c-0.03-0.582-0.253-1.137-0.612-1.646c-0.632-0.893-1.675-1.676-3.043-2.391
		c-4.103-2.131-11.228-3.633-19.3-3.863L128.703,258.623z"/>
	<path fill="#231F20" d="M121.576,263.783c0,0,1.383-15.918,6.642-15.854c5.571,0.068,7.742,17.041,7.742,17.041
		s4.396,1.865,4.53,14.941c0.004,0.523-3.01,0.264-3.01,0.264s-1.25-7.094-1.303-6.572c-1.182,1.709-4.941,2.826-4.941,2.826
		l-0.293,3.477l-2.547,0.018l-1.164-3.955c0,0-3-1.043-4.412-2.215c-0.422-0.447-0.488,5.822-0.488,5.822l-3.512-0.184
		C118.82,279.395,117.117,265.227,121.576,263.783z"/>
	<path fill="#B84B67" d="M252.865,333.264c-1.271,1.961-3.619,3.037-5.242,2.396l-3.244-1.273c-1.625-0.639-1.91-2.746-0.639-4.709
		c1.273-1.961,3.621-3.037,5.246-2.396l3.244,1.273C253.853,329.191,254.138,331.301,252.865,333.264z"/>
	<path fill="#B84B67" d="M263.615,326.514c-1.271,1.961-3.619,3.037-5.242,2.396l-3.244-1.273c-1.625-0.639-1.91-2.746-0.639-4.709
		c1.273-1.961,3.621-3.037,5.246-2.396l3.244,1.273C264.603,322.441,264.888,324.551,263.615,326.514z"/>
	<path fill="#B84B67" d="M273.5,319.76c-1.271,1.963-3.619,3.037-5.244,2.396l-3.244-1.273c-1.625-0.639-1.91-2.746-0.639-4.709
		c1.273-1.961,3.621-3.035,5.246-2.396l3.244,1.275C274.486,315.688,274.771,317.797,273.5,319.76z"/>
	<path fill="#B84B67" d="M285.75,313.26c-1.271,1.963-3.619,3.037-5.244,2.396l-3.244-1.273c-1.623-0.639-1.908-2.746-0.637-4.709
		c1.271-1.961,3.619-3.035,5.244-2.396l3.244,1.275C286.736,309.188,287.021,311.297,285.75,313.26z"/>
	<path fill="#A06EAF" d="M241.115,329.514c-1.271,1.961-3.619,3.037-5.242,2.396l-3.244-1.273c-1.625-0.639-1.91-2.746-0.639-4.709
		c1.273-1.961,3.621-3.037,5.246-2.396l3.244,1.273C242.103,325.441,242.388,327.551,241.115,329.514z"/>
	<path fill="#A06EAF" d="M250.865,322.764c-1.271,1.961-3.619,3.037-5.242,2.396l-3.244-1.273c-1.625-0.639-1.91-2.746-0.639-4.709
		c1.273-1.961,3.621-3.037,5.246-2.396l3.244,1.273C251.853,318.691,252.138,320.801,250.865,322.764z"/>
	<path fill="#A06EAF" d="M260.75,316.01c-1.271,1.963-3.619,3.037-5.244,2.396l-3.244-1.273c-1.625-0.639-1.91-2.746-0.639-4.709
		c1.273-1.961,3.621-3.035,5.246-2.396l3.244,1.275C261.736,311.938,262.021,314.047,260.75,316.01z"/>
	<path fill="#4D7ABD" d="M239.115,317.264c-1.271,1.961-3.619,3.037-5.242,2.396l-3.244-1.273c-1.625-0.639-1.91-2.746-0.639-4.709
		c1.273-1.961,3.621-3.037,5.246-2.396l3.244,1.273C240.103,313.191,240.388,315.301,239.115,317.264z"/>
	<path fill="#4D7ABD" d="M249,310.51c-1.271,1.963-3.619,3.037-5.244,2.396l-3.244-1.273c-1.625-0.639-1.91-2.746-0.639-4.709
		c1.273-1.961,3.621-3.035,5.246-2.396l3.244,1.275C249.986,306.438,250.271,308.547,249,310.51z"/>
	<path fill="#62BB46" d="M235.75,305.01c-1.271,1.963-3.619,3.037-5.244,2.396l-3.244-1.273c-1.625-0.639-1.91-2.746-0.639-4.709
		c1.273-1.961,3.621-3.035,5.246-2.396l3.244,1.275C236.736,300.938,237.021,303.047,235.75,305.01z"/>
	<path fill="#62BB46" d="M247.5,299.51c-1.271,1.963-3.619,3.037-5.244,2.396l-3.244-1.273c-1.623-0.639-1.908-2.746-0.637-4.709
		c1.271-1.961,3.619-3.035,5.244-2.396l3.244,1.275C248.486,295.438,248.771,297.547,247.5,299.51z"/>
	<path fill="#DAE12D" d="M233.382,295.258c-1.271,1.961-3.619,3.037-5.244,2.396l-3.244-1.273c-1.623-0.639-1.908-2.746-0.637-4.709
		c1.271-1.961,3.621-3.037,5.244-2.396l3.244,1.273C234.369,291.186,234.654,293.295,233.382,295.258z"/>
	<path fill="#BFC4C6" d="M238.099,338.809l-3.812,1.213c0.287,0.902,0.393,1.643,0.391,2.189c0,0.488-0.078,0.816-0.16,1.025
		c-0.064,0.16-0.127,0.258-0.197,0.342c-0.105,0.121-0.232,0.232-0.527,0.355c-0.291,0.117-0.76,0.229-1.432,0.229
		c-0.596,0-1.346-0.088-2.227-0.314L83.443,306.238l0.041,0.012c-1.345-0.344-2.822-0.967-4.281-1.82
		c-2.194-1.275-4.345-3.07-6.061-5.043c-1.722-1.969-2.991-4.123-3.574-5.977L34.891,184.562l0,0
		c-0.288-0.901-0.391-1.644-0.39-2.188c0-0.488,0.078-0.816,0.161-1.026c0.063-0.159,0.126-0.259,0.196-0.341
		c0.106-0.121,0.233-0.232,0.528-0.354c0.292-0.118,0.759-0.229,1.432-0.229c0.595,0,1.346,0.09,2.226,0.314l146.668,37.602
		l-0.018-0.004c1.344,0.343,2.822,0.967,4.283,1.819c2.193,1.276,4.344,3.07,6.059,5.044c1.723,1.969,2.992,4.122,3.574,5.977
		l34.676,108.847L238.099,338.809l3.811-1.215l-34.676-108.849v-0.001c-0.684-2.137-1.738-4.159-3.037-6.058
		c-1.951-2.842-4.457-5.406-7.271-7.509c-2.82-2.098-5.943-3.741-9.246-4.595l0,0l-146.65-37.596l0,0
		c-1.44-0.367-2.844-0.562-4.211-0.564c-1.366,0.002-2.699,0.197-3.958,0.636c-1.885,0.646-3.6,1.899-4.72,3.593
		c-1.131,1.688-1.643,3.703-1.638,5.725c0.001,1.516,0.271,3.056,0.768,4.615l0,0L61.945,295.84c0.683,2.137,1.737,4.16,3.035,6.059
		c1.952,2.842,4.458,5.406,7.273,7.508c2.819,2.098,5.943,3.742,9.244,4.594l0,0l146.65,37.598c1.441,0.369,2.846,0.562,4.213,0.564
		c1.365,0,2.699-0.195,3.959-0.635c1.885-0.645,3.6-1.9,4.719-3.594c1.133-1.688,1.645-3.703,1.639-5.725
		c0-1.516-0.271-3.055-0.768-4.615L238.099,338.809z"/>
</g>
<path fill="#A06EAF" d="M271.749,307.01c-1.271,1.963-3.619,3.037-5.244,2.396l-3.244-1.273c-1.625-0.639-1.91-2.746-0.639-4.709
	c1.273-1.961,3.621-3.035,5.246-2.396l3.244,1.275C272.735,302.938,273.02,305.047,271.749,307.01z"/>
<path fill="#4D7ABD" d="M259.332,303.01c-1.271,1.963-3.619,3.037-5.244,2.396l-3.244-1.273c-1.625-0.639-1.91-2.746-0.639-4.709
	c1.273-1.961,3.621-3.035,5.246-2.396l3.244,1.275C260.318,298.938,260.604,301.047,259.332,303.01z"/>
</svg>
