<?xml version="1.0" encoding="utf-8"?>
<!-- Generator: Adobe Illustrator 16.0.4, SVG Export Plug-In . SVG Version: 6.00 Build 0)  -->
<!DOCTYPE svg PUBLIC "-//W3C//DTD SVG 1.1//EN" "http://www.w3.org/Graphics/SVG/1.1/DTD/svg11.dtd">
<svg version="1.1" id="Layer_1" xmlns="http://www.w3.org/2000/svg" xmlns:xlink="http://www.w3.org/1999/xlink" x="0px" y="0px"
	 width="578.229px" height="484.477px" viewBox="0 0 578.229 484.477" enable-background="new 0 0 578.229 484.477"
	 xml:space="preserve">
<ellipse transform="matrix(-0.7736 -0.6337 0.6337 -0.7736 401.0573 624.3269)" fill="#B4DCF3" cx="312.062" cy="240.516" rx="245.893" ry="240.542"/>
<g>
	<path fill="#DCDCDB" stroke="#FFFFFF" stroke-width="7" stroke-miterlimit="10" d="M337.12,77.327
		c-17.359,5.524-78.123,118.369-80.49,128.627c-2.367,10.259,198.071,149.934,202.017,154.668
		c3.944,4.734,53.66-14.206,61.552-22.096c7.893-7.892,41.035-78.124,43.401-85.226c2.367-7.102,7.104-18.15,8.682-28.409
		C573.858,214.634,354.479,71.802,337.12,77.327z"/>
	<path fill="#FFFFFF" d="M337.12,90.742c0,0,198.071,120.736,204.384,134.151c6.313,13.414,12.627,7.103,12.627,7.103
		s-7.328,20.347-24.068,16.964c-39.062-7.89,14.991,2.367-5.131,28.015c-8.406,10.719-13.144,40.447-20.517,28.409
		c-31.171-50.897,21.701,19.332-22.096,38.271c-9.083,3.928-22.097,16.572-22.097,16.572s-174-119.553-198.069-149.145
		C257.25,205.054,330.019,93.109,337.12,90.742z"/>
</g>
<path fill="#A09F9F" d="M242.402,393.678c10.587,8.675,22.429,14.791,34.779,18.425c7.229,2.128-6.711,13.139-6.753,23.728
	c-0.044,11.504,13.758,22.505,21.693,21.031c22.194-4.118,74.336-58.212,89.762-77.04c18.353-22.402,25.259-50.432,21.424-77.001
	c-3.414-23.65-15.342-46.144-35.282-62.479c-17.012-13.937-37.266-21.273-57.659-22.318c-30.377-1.555-61.067,10.842-81.822,36.174
	c-10.348,12.632-64.375,76.402-67.573,91.342c-1.851,8.646,9.875,23.674,22.185,20.085c12.308-3.59,25.2-25.795,27.961-17.438
	C216.815,365.432,227.313,381.316,242.402,393.678z"/>
<path fill="#1E416B" d="M242.402,393.678l-4.753,5.804c11.369,9.316,24.124,15.907,37.418,19.815l1.089-3.71l-2.423,2.956
	c0.681,0.549,1.19,0.709,1.334,0.754l1.09-3.712l-2.424,2.958l3.438-4.195l-4.842,2.425c0.353,0.722,0.902,1.367,1.404,1.771
	l3.438-4.195l-4.842,2.425l4.747-2.376l-5.292,0.511c0.046,0.507,0.207,1.193,0.545,1.865l4.747-2.376l-5.292,0.511l4.085-0.397
	l-4.065-0.615c-0.031,0.194-0.064,0.528-0.02,1.014l4.085-0.397l-4.065-0.614l2.307,0.352l-2.272-0.547l-0.036,0.196l2.308,0.352
	l-2.272-0.547l1.111,0.268l-1.103-0.305l-0.009,0.038l1.112,0.267l-1.103-0.305l0.225,0.061l-0.221-0.067l-0.004,0.008l0.225,0.061
	l-0.221-0.067c-0.006,0.021-0.116,0.323-0.337,0.763c-0.383,0.774-1.076,1.959-1.907,3.343c-1.252,2.089-2.809,4.634-4.148,7.594
	c-0.668,1.483-1.281,3.081-1.747,4.816c-0.462,1.735-0.776,3.616-0.783,5.628c-0.011,2.359,0.362,4.634,0.997,6.762
	c0.957,3.192,2.481,6.069,4.314,8.626c1.837,2.555,3.988,4.803,6.322,6.717c2.678,2.187,5.584,3.952,8.7,5.143
	c1.56,0.592,3.18,1.041,4.88,1.276c1.699,0.234,3.492,0.26,5.349-0.085c1.979-0.368,3.91-0.968,5.857-1.726
	c3.641-1.426,7.354-3.428,11.236-5.859c6.783-4.262,14.072-9.867,21.507-16.158c11.138-9.434,22.56-20.408,32.44-30.525
	c4.938-5.055,9.488-9.895,13.421-14.22c3.936-4.327,7.241-8.134,9.731-11.174c9.858-12.03,16.663-25.609,20.473-39.736
	c3.812-14.129,4.637-28.805,2.573-43.087c-3.66-25.418-16.521-49.656-37.952-67.211c-18.275-14.976-40.101-22.887-62.028-24.004
	c-16.332-0.836-32.743,2.076-47.875,8.608c-15.131,6.532-28.984,16.695-40.132,30.305c-1.43,1.745-3.771,4.562-6.719,8.114
	c-2.949,3.556-6.511,7.861-10.415,12.625c-9.899,12.084-21.988,27.119-31.979,40.599c-4.999,6.746-9.47,13.095-12.933,18.598
	c-1.731,2.757-3.214,5.3-4.404,7.657c-0.597,1.184-1.121,2.318-1.568,3.447c-0.444,1.132-0.821,2.25-1.088,3.483
	c-0.511,2.404-0.435,4.73-0.046,6.926c0.597,3.294,1.895,6.355,3.654,9.209c1.77,2.842,4.022,5.469,6.737,7.696
	c2.691,2.2,5.853,4.022,9.483,5.047c1.812,0.507,3.738,0.804,5.729,0.819c1.99,0.02,4.042-0.254,6.058-0.843
	c2.17-0.635,4.12-1.563,5.93-2.621c3.159-1.855,5.92-4.126,8.456-6.396c1.896-1.704,3.649-3.415,5.233-4.958
	c1.187-1.159,2.28-2.224,3.23-3.101c0.712-0.657,1.344-1.209,1.842-1.604c0.372-0.296,0.666-0.502,0.818-0.597l0.101-0.061h0.002
	l-0.955-1.85l0.636,1.974c0.222-0.072,0.312-0.122,0.319-0.124l-0.955-1.85l0.636,1.974l-1.311-4.053l0.571,4.217
	c0.333-0.045,0.576-0.112,0.743-0.165l-1.312-4.054l0.571,4.219l-0.736-5.431l-1.315,5.308c0.823,0.206,1.556,0.19,2.051,0.123
	l-0.736-5.431l-1.315,5.308l1.405-5.663l-3.7,4.517c0.612,0.512,1.474,0.953,2.294,1.147l1.404-5.663l-3.699,4.517l3.284-4.008
	l-4.431,2.702c0.21,0.351,0.577,0.837,1.148,1.305l3.284-4.008l-4.432,2.703l2.74-1.671l-3.06,1.011
	c0.027,0.083,0.104,0.305,0.32,0.66l2.738-1.669l-3.06,1.011c6.121,18.545,17.44,35.663,33.654,48.941l4.754-5.805l4.753-5.801
	c-13.967-11.446-23.647-26.1-28.917-42.044c-0.259-0.782-0.602-1.6-1.117-2.443c-0.513-0.844-1.212-1.721-2.151-2.49
	c-0.638-0.524-1.386-0.986-2.18-1.328c-1.551-0.676-3.2-0.838-4.522-0.713c-1.254,0.113-2.27,0.425-3.131,0.771
	c-1.607,0.66-2.761,1.446-3.867,2.264c-0.956,0.718-1.847,1.48-2.739,2.284c-1.549,1.398-3.097,2.925-4.676,4.46
	c-2.358,2.303-4.802,4.632-7.097,6.431c-1.142,0.898-2.242,1.663-3.225,2.231c-0.979,0.571-1.841,0.941-2.475,1.124
	c-0.606,0.178-1.167,0.246-1.743,0.244c-0.86-0.008-1.779-0.19-2.776-0.603c-0.992-0.407-2.047-1.044-3.051-1.866
	c-1.805-1.464-3.402-3.557-4.29-5.451c-0.45-0.94-0.724-1.825-0.839-2.483c-0.121-0.663-0.074-1.079-0.054-1.152
	c0.021-0.107,0.135-0.523,0.368-1.105c0.432-1.101,1.253-2.771,2.381-4.747c1.975-3.472,4.871-7.906,8.324-12.824
	c5.185-7.39,11.631-15.904,18.28-24.393c6.651-8.491,13.51-16.971,19.554-24.349c3.875-4.729,7.418-9.012,10.358-12.557
	c2.943-3.551,5.279-6.355,6.776-8.185c9.609-11.726,21.476-20.426,34.474-26.039c12.995-5.609,27.12-8.12,41.161-7.4
	c18.865,0.973,37.547,7.734,53.291,20.627c18.449,15.121,29.447,35.871,32.612,57.75c1.773,12.285,1.062,24.91-2.209,37.039
	c-3.274,12.131-9.099,23.766-17.596,34.138c-3.669,4.479-9.743,11.312-17.041,18.984c-10.956,11.521-24.744,25.014-37.651,35.844
	c-6.445,5.409-12.68,10.157-18.102,13.62c-2.707,1.73-5.209,3.139-7.366,4.147c-2.152,1.013-3.974,1.61-5.166,1.824h-0.003
	c-0.028,0.005-0.266,0.026-0.668-0.041c-0.606-0.095-1.566-0.39-2.636-0.928c-1.072-0.531-2.253-1.295-3.382-2.22
	c-1.812-1.479-3.472-3.383-4.554-5.272c-0.545-0.945-0.952-1.881-1.213-2.752c-0.26-0.876-0.374-1.681-0.372-2.414
	c0-0.462,0.077-1.062,0.268-1.789c0.329-1.269,1.032-2.889,1.96-4.604c0.692-1.29,1.497-2.63,2.316-3.992
	c0.615-1.025,1.235-2.06,1.83-3.142c0.443-0.813,0.874-1.654,1.271-2.585c0.295-0.699,0.573-1.452,0.798-2.319
	c0.167-0.649,0.306-1.372,0.367-2.19c0.045-0.614,0.041-1.285-0.046-2.006c-0.127-1.078-0.465-2.284-1.071-3.408
	c-0.599-1.128-1.454-2.135-2.378-2.883c-1.319-1.074-2.689-1.663-3.94-2.034c-11.41-3.358-22.341-9.001-32.141-17.03l-4.754,5.805
	l-0.005-0.005L242.402,393.678z"/>
<path fill="#A09F9F" d="M462.507,129.57c-10.587-8.673-22.429-14.79-34.779-18.423c-15.084-4.44,0.301-47.587-14.938-44.759
	c-22.194,4.119-74.336,58.211-89.763,77.04c-18.354,22.402-25.26,50.431-21.422,77c3.414,23.65,15.34,46.144,35.283,62.482
	c17.01,13.934,37.262,21.271,57.657,22.316c30.376,1.557,61.067-10.841,81.822-36.175c10.348-12.631,64.375-76.404,67.572-91.341
	c3.699-17.298-44.627,14.066-50.147-2.648C488.096,157.817,477.596,141.932,462.507,129.57z"/>
<path fill="#1E416B" d="M462.507,129.57l4.825-5.742l-0.076-0.062c-11.368-9.315-24.121-15.905-37.41-19.814l-0.029-0.01
	l-0.037,0.092l0.05-0.086l-0.015-0.008l-0.039,0.092l0.051-0.086l-0.061,0.106l0.077-0.094l-0.018-0.012l-0.061,0.106l0.077-0.094
	c-0.004-0.003-0.05-0.04-0.151-0.181c-0.189-0.258-0.534-0.915-0.831-1.966c-0.264-0.915-0.495-2.106-0.656-3.477
	c-0.293-2.404-0.387-5.345-0.396-8.445c-0.009-2.327,0.022-4.751,0.019-7.167c-0.018-3.637-0.085-7.213-0.649-10.705
	c-0.295-1.752-0.711-3.505-1.475-5.302c-0.384-0.897-0.861-1.809-1.488-2.708c-0.623-0.897-1.401-1.782-2.354-2.563
	c-1.409-1.168-3.227-2.047-5.073-2.423c-1.854-0.388-3.678-0.323-5.364-0.009c-1.979,0.369-3.911,0.967-5.855,1.726
	c-3.642,1.427-7.354,3.429-11.238,5.862c-6.782,4.259-14.071,9.865-21.506,16.157c-11.137,9.435-22.559,20.409-32.439,30.522
	c-4.938,5.057-9.488,9.896-13.421,14.222c-3.935,4.328-7.241,8.132-9.733,11.172c-9.857,12.032-16.664,25.61-20.473,39.737
	c-3.811,14.128-4.634,28.805-2.572,43.088c3.662,25.418,16.521,49.654,37.953,67.21c18.274,14.976,40.1,22.885,62.027,24.004
	c16.331,0.838,32.744-2.073,47.875-8.608c15.131-6.529,28.987-16.694,40.133-30.305c1.43-1.744,3.771-4.561,6.72-8.113
	c2.947-3.558,6.513-7.86,10.417-12.627c9.896-12.084,21.987-27.118,31.979-40.597c5-6.746,9.471-13.095,12.934-18.597
	c1.73-2.757,3.214-5.3,4.405-7.657c0.596-1.181,1.117-2.319,1.566-3.448c0.445-1.133,0.82-2.25,1.089-3.483
	c0.191-0.903,0.325-1.829,0.357-2.808c0.053-1.456-0.119-3.072-0.75-4.709c-0.312-0.811-0.741-1.616-1.271-2.348
	c-0.528-0.732-1.156-1.388-1.822-1.934c-1.402-1.147-2.918-1.79-4.271-2.155c-1.28-0.341-2.461-0.463-3.59-0.5
	c-2.104-0.052-4.062,0.203-6.07,0.565c-3.494,0.647-7.144,1.688-10.877,2.771c-2.792,0.813-5.612,1.652-8.314,2.376
	c-4.037,1.094-7.853,1.902-10.568,2.064c-1.352,0.091-2.405,0.016-2.985-0.105c-0.293-0.06-0.466-0.123-0.528-0.151l-0.028-0.013
	l-0.008,0.016l0.009-0.015l-0.001-0.001l-0.008,0.016l0.009-0.015l-0.337,0.583l0.427-0.52l-0.09-0.063l-0.337,0.583l0.427-0.52
	l-0.731,0.893l0.956-0.645c-0.054-0.083-0.152-0.189-0.226-0.247l-0.731,0.893l0.955-0.646l-0.597,0.401l0.648-0.313l-0.053-0.088
	l-0.597,0.401l0.648-0.313l-0.087,0.041l0.09-0.035l-0.003-0.005l-0.087,0.042l0.09-0.035l-0.01-0.029
	c-6.122-18.547-17.442-35.665-33.653-48.942L462.507,129.57l4.826-5.742L462.507,129.57l-4.754,5.802
	c13.967,11.445,23.646,26.098,28.917,42.042c0.419,1.27,1.009,2.503,1.771,3.627c0.758,1.125,1.682,2.13,2.698,2.961
	c1.261,1.032,2.646,1.794,4.02,2.331c2.596,1.003,5.133,1.289,7.598,1.31c2.162,0.01,4.294-0.207,6.435-0.539
	c3.733-0.589,7.493-1.549,11.157-2.568c2.743-0.765,5.423-1.569,7.918-2.287c1.871-0.54,3.642-1.031,5.229-1.425
	c2.372-0.598,4.391-0.948,5.49-0.993c0.271-0.014,0.479-0.011,0.606-0.005l0.143,0.012l0.294-1.863l-0.688,1.744
	c0.258,0.102,0.391,0.119,0.396,0.12l0.294-1.863l-0.688,1.744l1.47-3.716l-2.525,3.082c0.413,0.338,0.801,0.532,1.057,0.633
	l1.469-3.716l-2.524,3.082l2.975-3.629l-4.027,2.404c0.275,0.468,0.667,0.912,1.054,1.225l2.975-3.629l-4.027,2.404l3.375-2.015
	l-3.954,0.315c0.02,0.308,0.152,0.993,0.579,1.7l3.375-2.015l-3.954,0.315l1.446-0.116l-1.451-0.123c0,0-0.008,0.08,0.005,0.239
	l1.446-0.116l-1.451-0.123c0,0-0.009,0.075-0.037,0.22c-0.021,0.105-0.138,0.523-0.368,1.102c-0.433,1.1-1.255,2.773-2.382,4.747
	c-1.975,3.473-4.87,7.909-8.326,12.826c-5.186,7.389-11.629,15.903-18.278,24.393c-6.65,8.492-13.509,16.969-19.553,24.346
	c-3.876,4.732-7.417,9.014-10.358,12.559c-2.943,3.548-5.277,6.354-6.776,8.184c-9.608,11.725-21.479,20.424-34.475,26.038
	c-12.994,5.612-27.118,8.12-41.162,7.399c-18.863-0.971-37.545-7.731-53.289-20.629c-18.451-15.119-29.445-35.871-32.612-57.75
	c-1.773-12.287-1.062-24.909,2.209-37.038c3.272-12.13,9.099-23.767,17.594-34.138c3.669-4.481,9.743-11.312,17.043-18.986
	c10.956-11.519,24.744-25.012,37.651-35.842c6.445-5.413,12.681-10.158,18.103-13.621c2.707-1.73,5.209-3.137,7.366-4.147
	c2.152-1.013,3.975-1.609,5.166-1.825l0.062-0.009l-0.108-1.082l-0.075,1.08c0.119,0.008,0.185,0.002,0.185,0.002l-0.108-1.082
	l-0.075,1.08l0.188-2.734l-0.988,2.544c0.32,0.126,0.627,0.18,0.802,0.189l0.188-2.734l-0.988,2.544l1.174-3.021l-2.055,2.509
	c0.231,0.193,0.561,0.39,0.881,0.512l1.174-3.021l-2.055,2.509l1.343-1.641l-1.821,1.125c0.03,0.051,0.177,0.27,0.479,0.516
	l1.343-1.641l-1.821,1.125l0.387-0.238l-0.395,0.226l0.008,0.013l0.387-0.239l-0.395,0.226l0.009,0.015
	c0.062,0.099,0.313,0.778,0.487,1.841c0.327,1.869,0.457,4.823,0.462,8.15c0.01,2.502-0.032,5.236-0.014,8.037
	c0.039,4.213,0.176,8.549,1.011,12.795c0.425,2.125,1.026,4.245,2.024,6.338c0.992,2.079,2.425,4.17,4.49,5.862
	c1.501,1.236,3.328,2.213,5.272,2.779c11.412,3.36,22.341,9,32.14,17.028l4.568-5.576l-4.639,5.519l0.069,0.057l4.568-5.576
	l-4.639,5.519l0.037,0.03l0.037,0.03L462.507,129.57L462.507,129.57z"/>
<path fill="#E9E8E9" d="M387.536,223.45l39.425,32.297l2.833,28.522c0.139,1.377,1.361,2.379,2.734,2.239
	c1.377-0.134,2.38-1.356,2.239-2.733l-3.037-30.582l-41.024-33.608c-1.07-0.877-2.643-0.719-3.52,0.35
	C386.312,221.002,386.468,222.575,387.536,223.45z"/>
<path fill="#E9E8E9" d="M364.758,194.447l-32.663-26.759l-22.689,0.266c-1.381,0.016-2.486,1.148-2.471,2.529
	c0.016,1.38,1.147,2.486,2.529,2.47l20.869-0.246l31.256,25.606c1.068,0.875,2.643,0.718,3.518-0.35
	C365.981,196.897,365.826,195.322,364.758,194.447z"/>
<polyline fill="#1E416B" points="377.358,200.577 344.567,240.604 351.853,246.57 384.644,206.545 "/>
<path fill="#E788B2" d="M397.368,185.877c5.039,4.128,9.682,12.174,5.554,17.212c-4.127,5.039-20.784,8.826-25.823,4.698
	s-3.058-19.938,1.069-24.978C382.297,177.772,392.329,181.749,397.368,185.877z"/>
<path fill="#707179" d="M528.524,187.057c0,0-25.199,18.137-30.476,15.108c-5.274-3.029,3.729,1.761,4.072,12.385
	C502.468,225.176,528.524,187.057,528.524,187.057z"/>
<path fill="#707179" d="M413.085,74.386c0,0-12.823,28.277-8.816,32.853c4.01,4.577-2.46-3.309-12.944-1.557
	C380.839,107.435,413.085,74.386,413.085,74.386z"/>
<path fill="#E9E8E9" d="M375.603,235.649l35.482,29.068l0.116,28.655c0.008,1.382,1.13,2.496,2.511,2.491
	c1.38-0.008,2.496-1.131,2.491-2.512l-0.127-31.01l-37.306-30.562c-1.069-0.875-2.645-0.719-3.52,0.35
	C374.378,233.199,374.534,234.774,375.603,235.649z"/>
<path fill="#E9E8E9" d="M358.028,208.972l-28.57-23.407l-25.7,7.499c-1.323,0.387-2.085,1.775-1.698,3.1
	c0.387,1.325,1.773,2.086,3.101,1.7l23.17-6.761l26.532,21.737c1.068,0.875,2.644,0.719,3.519-0.349
	C359.255,211.421,359.099,209.847,358.028,208.972z"/>
<path fill="#E9E8E9" d="M250.267,311.585c-16.547,9.453-34.059,25.529-26.107,42.386c3.25,6.891,3.605,10.063,13.307,21.892
	c6.395,7.794,13.536,12.712,22.059,16.994c31.288,15.721,45.811-7.066,55.132-26.797c7.046-14.911,20.952-31.725-6.366-56.926
	C289.517,291.812,268.085,301.404,250.267,311.585z"/>
<path fill="#1E416B" d="M392.065,262.711c-0.303,0.362-0.653,0.663-1.196,0.955c-0.47,0.253-1.091,0.488-1.888,0.658
	c-1.39,0.302-3.316,0.379-5.616,0.072c-3.447-0.449-7.694-1.748-12.179-3.906c-4.492-2.154-9.232-5.152-13.81-8.902
	c-3.983-3.264-7.437-6.763-10.239-10.242c-2.103-2.607-3.842-5.205-5.174-7.657c-2.007-3.674-3.053-7.035-3.252-9.456
	c-0.105-1.212-0.016-2.174,0.166-2.882c0.186-0.714,0.434-1.176,0.766-1.587c2.315-2.826,1.901-6.996-0.922-9.31
	c-2.828-2.316-6.998-1.902-9.312,0.925c-1.454,1.768-2.5,3.808-3.135,5.917c-0.56,1.847-0.814,3.748-0.836,5.645
	c-0.037,3.325,0.613,6.646,1.742,9.961c1.704,4.972,4.5,9.963,8.182,14.86c3.683,4.891,8.268,9.668,13.63,14.062
	c4.667,3.822,9.509,7.012,14.323,9.521c3.613,1.883,7.213,3.387,10.74,4.477c5.289,1.619,10.406,2.361,15.28,1.832
	c2.433-0.272,4.813-0.881,7.044-1.947c2.227-1.062,4.293-2.614,5.921-4.611c2.315-2.826,1.902-6.994-0.925-9.311
	C398.551,259.469,394.382,259.884,392.065,262.711z"/>
<g>
	<g>
		<path fill="none" d="M324.37,511.211c-0.207-0.062-0.414-0.129-0.626-0.195c-0.12-0.041-0.239-0.078-0.363-0.117l0.747,0.61
			L324.37,511.211"/>
		<path fill="#A0254E" d="M247.614,202.738c0,0-22.491,4.902-46,22c-11,8-54.559,65.913-59.895,66.845
			c-5.336,0.935-22.721,9.832-32.36,16.206c-9.639,6.372-30.867,18.679-36.375,24.915c-5.507,6.237-19.56,45.805-20.477,49.872
			c-0.917,4.065-49.093,44.812-19.024,56.938c30.068,12.125,94.735,26.398,124,33c29.265,6.603,75,24,118,13
			c30.073-7.692,52.682-17.322,75-39c22.315-21.677,65.01-77.509,70-86c4.989-8.489,13.657-27.797,11.131-34.775
			c-2.523-6.981-42.213-6.057-60-9c-17.789-2.944-54.698-30.051-75.547-45.896C269.614,250.738,277.614,202.738,247.614,202.738z"/>
		<path fill="#600D2D" d="M318.946,356.738c-15.475-4.644,46,15,58,14s22.001-4,31.001-7s23.001-30.332,23.001-30.332
			s-1.333,26.002-44.333,73c-6.804,7.435-38.332,49.002-57.667,59c-14.625,7.562-37.465,15.109-51.333,20.334
			c-13.869,5.224-20.668,6.998-46.668,3.998s-45-11-57-13s23,5,52-1s39-6,40-10s-12-6-17-12s-4.752-3.107,18.624-2.555
			c23.375,0.554,37.375,4.555,43.375-2.445s25-16,12-24s-31-18-31-18s46,17,55,5s4-18,1-23S328.946,359.738,318.946,356.738z"/>
		<path fill="#600D2D" d="M-133.386,353.738"/>
		<path fill="#D80752" d="M655.614,509.406"/>
		<path fill="none" stroke="#1E416B" stroke-width="11" stroke-linecap="round" stroke-miterlimit="10" d="M371.114,146.488
			c-5.75,9,14.25,24.75,21.5,15.25"/>
		<path fill="none" stroke="#1E416B" stroke-width="11" stroke-linecap="round" stroke-miterlimit="10" d="M427.447,193.155
			c-5.75,9,14.25,24.75,21.5,15.25"/>
		<path fill="#FFFFFF" d="M523.948,186.072"/>
		<path fill="#FFFFFF" d="M663.614,153.072"/>
		<path fill="#C75CFF" d="M142.55,33.562H92.486c-0.665,0-1.202,0.538-1.202,1.201V49.88c0,0.664,0.538,1.202,1.202,1.202h19.845
			L87.875,95.631c-0.098,0.177-0.148,0.376-0.148,0.578v2.135c0,0.664,0.538,1.201,1.201,1.201h52.11
			c0.664,0,1.202-0.538,1.202-1.201V83.137c0-0.664-0.538-1.201-1.202-1.201h-21.632l24.198-44.464
			c0.096-0.176,0.147-0.374,0.147-0.574v-2.135C143.751,34.099,143.214,33.562,142.55,33.562z"/>
		<path fill="#823FFF" d="M210.249,56.527h-50.063c-0.665,0-1.202,0.538-1.202,1.202v15.117c0,0.665,0.538,1.202,1.202,1.202h19.845
			l-24.455,44.549c-0.098,0.177-0.148,0.376-0.148,0.578v2.135c0,0.664,0.538,1.202,1.202,1.202h52.11
			c0.664,0,1.201-0.538,1.201-1.202v-15.207c0-0.664-0.538-1.202-1.201-1.202h-21.632l24.198-44.464
			c0.096-0.176,0.147-0.374,0.147-0.574v-2.135C211.451,57.065,210.914,56.527,210.249,56.527z"/>
		<path fill="#1E416B" d="M277.948,79.494h-50.063c-0.665,0-1.202,0.538-1.202,1.201v15.118c0,0.664,0.538,1.202,1.202,1.202h19.845
			l-24.455,44.549c-0.098,0.177-0.148,0.376-0.148,0.578v2.135c0,0.664,0.538,1.201,1.201,1.201h52.11
			c0.664,0,1.201-0.538,1.201-1.201V129.07c0-0.664-0.537-1.201-1.201-1.201h-21.632l24.198-44.464
			c0.096-0.176,0.147-0.374,0.147-0.574v-2.135C279.15,80.031,278.613,79.494,277.948,79.494z"/>
	</g>
</g>
</svg>
