<?xml version="1.0" encoding="utf-8"?>
<!-- Generator: Adobe Illustrator 16.0.4, SVG Export Plug-In . SVG Version: 6.00 Build 0)  -->
<!DOCTYPE svg PUBLIC "-//W3C//DTD SVG 1.1//EN" "http://www.w3.org/Graphics/SVG/1.1/DTD/svg11.dtd">
<svg version="1.1" id="Layer_1" xmlns="http://www.w3.org/2000/svg" xmlns:xlink="http://www.w3.org/1999/xlink" x="0px" y="0px"
	 width="578.229px" height="484.477px" viewBox="0 0 578.229 484.477" enable-background="new 0 0 578.229 484.477"
	 xml:space="preserve">
<ellipse transform="matrix(0.6337 -0.7736 0.7736 0.6337 -71.7698 329.4977)" fill="#B4DCF3" cx="312.06" cy="240.537" rx="240.538" ry="245.889"/>
<g>
	<path fill="#DCDCDB" stroke="#FFFFFF" stroke-width="7" stroke-miterlimit="10" d="M337.12,77.327
		c-17.359,5.524-78.123,118.369-80.49,128.627c-2.367,10.259,198.071,149.934,202.016,154.668
		c3.945,4.734,53.661-14.206,61.552-22.096c7.893-7.891,41.035-78.123,43.402-85.225s7.103-18.15,8.681-28.409
		C573.858,214.634,354.48,71.802,337.12,77.327z"/>
	<path fill="#FFFFFF" d="M337.12,90.742c0,0,198.071,120.736,204.384,134.151c6.313,13.414,12.627,7.103,12.627,7.103
		s-7.328,20.347-24.069,16.964c-39.062-7.89,14.992,2.367-5.13,28.015c-8.407,10.718-13.144,40.447-20.517,28.409
		c-31.171-50.898,21.701,19.332-22.096,38.271c-9.083,3.928-22.096,16.573-22.096,16.573S286.222,240.675,262.154,211.083
		C257.25,205.054,330.019,93.109,337.12,90.742z"/>
</g>
<path fill="#A09F9F" d="M242.402,393.678c10.587,8.675,22.429,14.791,34.779,18.425c7.229,2.127-6.711,13.138-6.753,23.727
	c-0.044,11.504,13.758,22.505,21.693,21.031c22.194-4.118,74.336-58.212,89.762-77.04c18.352-22.402,25.259-50.431,21.424-77.001
	c-3.414-23.65-15.342-46.143-35.283-62.479c-17.012-13.937-37.265-21.273-57.659-22.318c-30.377-1.555-61.067,10.842-81.822,36.175
	c-10.348,12.631-64.375,76.402-67.573,91.341c-1.851,8.646,9.875,23.674,22.185,20.085c12.308-3.59,25.2-25.795,27.961-17.438
	C216.815,365.432,227.313,381.316,242.402,393.678z"/>
<path fill="#1E416B" d="M242.402,393.678l-4.753,5.803c11.369,9.317,24.124,15.908,37.418,19.816l1.089-3.71l-2.423,2.956
	c0.681,0.549,1.19,0.709,1.334,0.754l1.09-3.712l-2.424,2.958l3.438-4.195l-4.842,2.424c0.353,0.722,0.902,1.368,1.404,1.771
	l3.438-4.195l-4.842,2.424l4.747-2.376l-5.292,0.511c0.046,0.507,0.207,1.194,0.545,1.865l4.747-2.376l-5.292,0.511l4.085-0.397
	l-4.065-0.615c-0.031,0.194-0.064,0.528-0.02,1.013l4.085-0.397l-4.065-0.615l2.307,0.352l-2.272-0.547l-0.036,0.196l2.308,0.352
	l-2.272-0.547l1.111,0.268l-1.103-0.305l-0.009,0.038l1.112,0.267l-1.103-0.305l0.225,0.061l-0.221-0.068l-0.004,0.008l0.225,0.061
	l-0.221-0.068c-0.006,0.022-0.116,0.323-0.337,0.763c-0.383,0.774-1.076,1.959-1.907,3.343c-1.252,2.088-2.809,4.633-4.148,7.593
	c-0.668,1.484-1.281,3.081-1.747,4.817c-0.462,1.735-0.776,3.616-0.783,5.628c-0.011,2.359,0.362,4.634,0.997,6.761
	c0.957,3.193,2.481,6.07,4.314,8.626c1.837,2.555,3.988,4.803,6.322,6.717c2.678,2.187,5.584,3.952,8.7,5.143
	c1.56,0.592,3.18,1.041,4.88,1.276c1.699,0.235,3.492,0.26,5.349-0.085c1.98-0.368,3.911-0.968,5.858-1.725
	c3.64-1.426,7.354-3.428,11.236-5.86c6.783-4.261,14.073-9.867,21.507-16.158c11.138-9.434,22.56-20.408,32.44-30.525
	c4.938-5.055,9.488-9.895,13.421-14.22c3.936-4.327,7.241-8.134,9.732-11.174c9.858-12.03,16.663-25.609,20.472-39.736
	c3.812-14.129,4.637-28.805,2.574-43.087c-3.661-25.418-16.521-49.657-37.953-67.211c-18.275-14.976-40.1-22.887-62.028-24.004
	c-16.332-0.836-32.743,2.076-47.875,8.608c-15.131,6.532-28.984,16.695-40.132,30.305c-1.43,1.745-3.771,4.561-6.719,8.115
	c-2.949,3.555-6.511,7.86-10.415,12.625c-9.899,12.083-21.988,27.118-31.979,40.598c-4.999,6.746-9.47,13.095-12.933,18.598
	c-1.731,2.757-3.214,5.299-4.404,7.657c-0.597,1.183-1.121,2.318-1.568,3.447c-0.444,1.132-0.821,2.25-1.088,3.484
	c-0.511,2.404-0.435,4.73-0.046,6.925c0.597,3.294,1.895,6.356,3.654,9.209c1.77,2.842,4.022,5.469,6.737,7.697
	c2.691,2.2,5.853,4.022,9.483,5.046c1.812,0.507,3.738,0.804,5.729,0.82c1.99,0.019,4.042-0.254,6.058-0.843
	c2.17-0.635,4.12-1.563,5.93-2.621c3.159-1.856,5.92-4.126,8.456-6.397c1.896-1.704,3.649-3.415,5.233-4.958
	c1.187-1.159,2.28-2.223,3.23-3.1c0.712-0.657,1.344-1.209,1.842-1.604c0.372-0.296,0.666-0.502,0.818-0.596l0.101-0.061h0.002
	l-0.955-1.849l0.636,1.973c0.222-0.072,0.312-0.122,0.319-0.124l-0.955-1.849l0.636,1.973l-1.311-4.053l0.571,4.217
	c0.333-0.045,0.576-0.112,0.743-0.165l-1.312-4.054l0.571,4.219l-0.736-5.43l-1.315,5.307c0.823,0.206,1.556,0.191,2.051,0.123
	l-0.736-5.43l-1.315,5.307l1.405-5.663l-3.7,4.517c0.612,0.511,1.474,0.953,2.294,1.147l1.404-5.663l-3.699,4.517l3.284-4.008
	l-4.431,2.702c0.21,0.351,0.577,0.837,1.148,1.305l3.284-4.008l-4.432,2.703l2.74-1.671l-3.06,1.011
	c0.027,0.083,0.104,0.305,0.32,0.66l2.738-1.669l-3.06,1.011c6.121,18.545,17.44,35.663,33.654,48.941l4.754-5.804l4.753-5.801
	c-13.967-11.447-23.647-26.1-28.917-42.044c-0.259-0.782-0.602-1.6-1.117-2.444c-0.513-0.843-1.212-1.72-2.151-2.49
	c-0.638-0.524-1.386-0.986-2.18-1.328c-1.551-0.676-3.2-0.838-4.522-0.713c-1.254,0.113-2.27,0.425-3.131,0.771
	c-1.607,0.66-2.761,1.446-3.867,2.263c-0.956,0.718-1.847,1.481-2.739,2.285c-1.549,1.398-3.097,2.924-4.676,4.46
	c-2.358,2.302-4.802,4.631-7.097,6.43c-1.142,0.899-2.242,1.663-3.225,2.232c-0.979,0.571-1.841,0.941-2.475,1.124
	c-0.606,0.177-1.167,0.246-1.743,0.244c-0.86-0.008-1.779-0.191-2.776-0.603c-0.992-0.407-2.047-1.044-3.051-1.866
	c-1.805-1.464-3.402-3.557-4.29-5.451c-0.45-0.941-0.724-1.825-0.839-2.484c-0.121-0.663-0.074-1.079-0.054-1.152
	c0.021-0.107,0.135-0.523,0.368-1.105c0.432-1.101,1.253-2.772,2.381-4.747c1.975-3.472,4.871-7.907,8.324-12.825
	c5.185-7.389,11.631-15.904,18.28-24.392c6.651-8.492,13.51-16.971,19.554-24.349c3.875-4.729,7.418-9.012,10.358-12.556
	c2.943-3.551,5.279-6.356,6.776-8.185c9.609-11.726,21.476-20.426,34.474-26.039c12.995-5.609,27.119-8.12,41.161-7.4
	c18.865,0.973,37.547,7.734,53.29,20.628c18.45,15.12,29.448,35.87,32.613,57.749c1.773,12.286,1.061,24.911-2.209,37.04
	c-3.275,12.13-9.098,23.765-17.596,34.137c-3.668,4.48-9.743,11.313-17.041,18.985c-10.956,11.52-24.744,25.013-37.651,35.843
	c-6.445,5.41-12.68,10.158-18.101,13.62c-2.707,1.731-5.209,3.139-7.367,4.148c-2.152,1.013-3.974,1.61-5.166,1.824h-0.003
	c-0.028,0.005-0.266,0.026-0.668-0.041c-0.606-0.095-1.566-0.39-2.636-0.928c-1.072-0.531-2.253-1.295-3.382-2.219
	c-1.812-1.48-3.472-3.383-4.554-5.273c-0.545-0.945-0.952-1.881-1.213-2.752c-0.26-0.876-0.374-1.68-0.372-2.414
	c0-0.462,0.077-1.062,0.268-1.789c0.329-1.268,1.032-2.889,1.96-4.603c0.692-1.29,1.497-2.63,2.316-3.993
	c0.615-1.025,1.235-2.059,1.83-3.141c0.443-0.814,0.874-1.654,1.271-2.585c0.295-0.699,0.573-1.452,0.798-2.319
	c0.167-0.65,0.306-1.373,0.367-2.191c0.045-0.614,0.041-1.285-0.046-2.006c-0.127-1.078-0.465-2.284-1.071-3.408
	c-0.599-1.128-1.454-2.135-2.378-2.883c-1.319-1.074-2.689-1.663-3.94-2.034c-11.41-3.358-22.341-9.001-32.141-17.03l-4.754,5.804
	l-0.005-0.004L242.402,393.678z"/>
<path fill="#A09F9F" d="M462.507,129.57c-10.587-8.673-22.429-14.79-34.779-18.423c-15.084-4.44,0.3-47.587-14.939-44.759
	c-22.194,4.119-74.336,58.211-89.762,77.04c-18.354,22.402-25.26,50.431-21.423,77c3.414,23.65,15.34,46.144,35.283,62.482
	c17.01,13.934,37.263,21.271,57.658,22.317c30.376,1.556,61.067-10.841,81.822-36.175c10.348-12.631,64.375-76.404,67.573-91.341
	c3.699-17.298-44.627,14.066-50.148-2.648C488.096,157.817,477.596,141.932,462.507,129.57z"/>
<path fill="#1E416B" d="M462.507,129.57l4.825-5.742l-0.076-0.062c-11.368-9.315-24.121-15.905-37.41-19.814l-0.03-0.01
	l-0.037,0.092l0.05-0.086l-0.015-0.008l-0.039,0.092l0.051-0.086l-0.06,0.106l0.077-0.094l-0.018-0.012l-0.06,0.106l0.077-0.094
	c-0.004-0.003-0.05-0.04-0.152-0.181c-0.189-0.258-0.534-0.915-0.831-1.966c-0.263-0.915-0.495-2.106-0.656-3.477
	c-0.293-2.404-0.387-5.345-0.396-8.445c-0.009-2.327,0.022-4.751,0.018-7.167c-0.017-3.637-0.085-7.213-0.649-10.705
	c-0.295-1.752-0.711-3.505-1.475-5.302c-0.384-0.897-0.861-1.809-1.488-2.708c-0.623-0.897-1.401-1.782-2.355-2.563
	c-1.409-1.168-3.226-2.047-5.073-2.423c-1.854-0.388-3.678-0.323-5.364-0.009c-1.979,0.369-3.911,0.967-5.856,1.726
	c-3.641,1.427-7.354,3.429-11.238,5.862c-6.782,4.259-14.071,9.865-21.505,16.157c-11.138,9.435-22.559,20.409-32.44,30.522
	c-4.938,5.057-9.489,9.896-13.421,14.222c-3.934,4.328-7.241,8.132-9.733,11.172c-9.858,12.032-16.664,25.61-20.473,39.737
	c-3.81,14.128-4.634,28.805-2.573,43.088c3.663,25.418,16.521,49.654,37.954,67.21c18.274,14.976,40.1,22.885,62.027,24.004
	c16.331,0.838,32.744-2.073,47.875-8.609c15.131-6.529,28.987-16.694,40.133-30.304c1.43-1.745,3.771-4.561,6.72-8.114
	c2.947-3.557,6.512-7.86,10.417-12.627c9.896-12.084,21.987-27.117,31.978-40.596c5-6.746,9.471-13.095,12.934-18.597
	c1.73-2.757,3.214-5.3,4.405-7.657c0.596-1.181,1.117-2.319,1.566-3.448c0.446-1.133,0.821-2.25,1.089-3.483
	c0.192-0.903,0.325-1.829,0.358-2.808c0.052-1.456-0.119-3.072-0.75-4.709c-0.312-0.811-0.742-1.616-1.272-2.348
	c-0.528-0.732-1.156-1.388-1.822-1.934c-1.402-1.147-2.918-1.79-4.271-2.155c-1.28-0.341-2.461-0.463-3.589-0.5
	c-2.105-0.052-4.062,0.203-6.071,0.565c-3.494,0.647-7.143,1.688-10.877,2.771c-2.792,0.813-5.612,1.652-8.314,2.376
	c-4.037,1.094-7.853,1.902-10.568,2.064c-1.352,0.091-2.406,0.016-2.986-0.105c-0.293-0.06-0.466-0.123-0.528-0.151l-0.028-0.013
	l-0.008,0.016l0.009-0.015l-0.001-0.001l-0.008,0.016l0.009-0.015l-0.337,0.583l0.426-0.52l-0.089-0.063l-0.337,0.583l0.426-0.52
	l-0.731,0.893l0.956-0.645c-0.054-0.083-0.152-0.189-0.226-0.247l-0.731,0.893l0.955-0.646l-0.597,0.401l0.649-0.313l-0.053-0.088
	l-0.597,0.401l0.649-0.313l-0.087,0.041l0.09-0.035l-0.003-0.005l-0.087,0.042l0.09-0.035l-0.01-0.029
	c-6.122-18.547-17.442-35.665-33.653-48.942L462.507,129.57l4.826-5.742L462.507,129.57l-4.754,5.802
	c13.967,11.445,23.646,26.098,28.917,42.042c0.419,1.27,1.009,2.503,1.77,3.627c0.758,1.125,1.682,2.13,2.699,2.961
	c1.26,1.032,2.645,1.794,4.019,2.331c2.596,1.003,5.133,1.289,7.598,1.31c2.162,0.01,4.294-0.207,6.434-0.539
	c3.734-0.589,7.494-1.549,11.158-2.568c2.743-0.765,5.423-1.569,7.918-2.287c1.871-0.54,3.641-1.031,5.229-1.425
	c2.372-0.598,4.391-0.948,5.49-0.993c0.271-0.014,0.479-0.011,0.607-0.005l0.142,0.012l0.294-1.863l-0.688,1.744
	c0.258,0.102,0.39,0.119,0.395,0.12l0.294-1.863l-0.688,1.744l1.469-3.716l-2.525,3.082c0.413,0.338,0.801,0.532,1.057,0.633
	l1.469-3.716l-2.525,3.082l2.975-3.629l-4.028,2.404c0.276,0.468,0.667,0.912,1.054,1.225l2.975-3.629l-4.028,2.404l3.375-2.015
	l-3.954,0.315c0.02,0.308,0.153,0.993,0.579,1.7l3.375-2.015l-3.954,0.315l1.447-0.116l-1.452-0.123c0,0-0.007,0.08,0.005,0.239
	l1.447-0.116l-1.452-0.123c0,0-0.008,0.075-0.037,0.22c-0.021,0.105-0.137,0.523-0.368,1.102c-0.433,1.1-1.255,2.773-2.382,4.747
	c-1.974,3.473-4.87,7.909-8.326,12.826c-5.185,7.389-11.629,15.903-18.278,24.393c-6.651,8.492-13.509,16.969-19.553,24.346
	c-3.876,4.732-7.417,9.013-10.358,12.559c-2.944,3.547-5.278,6.354-6.777,8.183c-9.608,11.725-21.478,20.424-34.474,26.038
	c-12.994,5.612-27.118,8.12-41.162,7.4c-18.863-0.972-37.545-7.732-53.289-20.629c-18.451-15.12-29.446-35.871-32.613-57.75
	c-1.773-12.287-1.062-24.909,2.209-37.038c3.273-12.13,9.099-23.767,17.594-34.138c3.669-4.481,9.743-11.312,17.043-18.986
	c10.956-11.519,24.744-25.012,37.651-35.842c6.446-5.413,12.681-10.158,18.103-13.621c2.707-1.73,5.209-3.137,7.366-4.147
	c2.152-1.013,3.975-1.609,5.166-1.825l0.062-0.009l-0.109-1.082l-0.075,1.08c0.119,0.008,0.185,0.002,0.185,0.002l-0.109-1.082
	l-0.075,1.08l0.188-2.734l-0.989,2.544c0.321,0.126,0.627,0.18,0.802,0.189l0.188-2.734l-0.989,2.544l1.174-3.021l-2.055,2.509
	c0.232,0.193,0.561,0.39,0.881,0.512l1.174-3.021l-2.055,2.509l1.343-1.641l-1.821,1.125c0.03,0.051,0.177,0.27,0.479,0.516
	l1.343-1.641l-1.821,1.125l0.387-0.238l-0.395,0.226l0.008,0.013l0.387-0.239l-0.395,0.226l0.009,0.015
	c0.061,0.099,0.313,0.778,0.487,1.841c0.327,1.869,0.457,4.823,0.462,8.15c0.01,2.502-0.032,5.236-0.014,8.037
	c0.039,4.213,0.176,8.549,1.011,12.795c0.425,2.125,1.027,4.245,2.025,6.338c0.992,2.079,2.424,4.17,4.49,5.862
	c1.501,1.236,3.328,2.213,5.272,2.779c11.412,3.36,22.341,9,32.14,17.028l4.568-5.576l-4.638,5.519l0.069,0.057l4.568-5.576
	l-4.638,5.519l0.037,0.03l0.037,0.03L462.507,129.57L462.507,129.57z"/>
<path fill="#E9E8E9" d="M387.536,223.45l39.425,32.297l2.833,28.523c0.139,1.376,1.361,2.379,2.734,2.239
	c1.377-0.134,2.38-1.357,2.24-2.734l-3.038-30.582l-41.024-33.608c-1.07-0.877-2.643-0.719-3.519,0.35
	C386.312,221.002,386.468,222.575,387.536,223.45z"/>
<path fill="#E9E8E9" d="M364.758,194.447l-32.663-26.759l-22.69,0.266c-1.38,0.016-2.486,1.148-2.47,2.529
	c0.015,1.38,1.147,2.486,2.529,2.47l20.869-0.246l31.256,25.606c1.068,0.875,2.643,0.718,3.518-0.35
	C365.982,196.897,365.826,195.322,364.758,194.447z"/>
<polyline fill="#1E416B" points="377.359,200.577 344.567,240.604 351.852,246.571 384.643,206.545 "/>
<path fill="#E788B2" d="M397.368,185.877c5.039,4.128,9.682,12.174,5.554,17.212c-4.127,5.039-20.785,8.826-25.824,4.698
	c-5.038-4.128-3.057-19.938,1.07-24.978C382.297,177.772,392.329,181.749,397.368,185.877z"/>
<path fill="#707179" d="M528.524,187.057c0,0-25.199,18.137-30.475,15.108c-5.275-3.029,3.728,1.761,4.072,12.385
	C502.468,225.176,528.524,187.057,528.524,187.057z"/>
<path fill="#707179" d="M413.085,74.386c0,0-12.823,28.277-8.816,32.853c4.009,4.577-2.46-3.309-12.945-1.557
	C380.839,107.435,413.085,74.386,413.085,74.386z"/>
<path fill="#E9E8E9" d="M375.603,235.649l35.482,29.068l0.116,28.655c0.008,1.382,1.13,2.496,2.511,2.491
	c1.38-0.007,2.496-1.13,2.491-2.511l-0.127-31.01l-37.306-30.562c-1.069-0.875-2.644-0.719-3.519,0.35
	C374.378,233.199,374.534,234.774,375.603,235.649z"/>
<path fill="#E9E8E9" d="M358.029,208.972l-28.571-23.407l-25.7,7.499c-1.324,0.387-2.085,1.775-1.699,3.1
	c0.387,1.325,1.774,2.086,3.101,1.7l23.17-6.761l26.532,21.737c1.068,0.875,2.644,0.719,3.519-0.349
	C359.255,211.421,359.098,209.847,358.029,208.972z"/>
<path fill="#E9E8E9" d="M250.267,311.585c-16.547,9.453-34.059,25.529-26.107,42.386c3.25,6.89,3.605,10.063,13.307,21.891
	c6.395,7.794,13.536,12.712,22.059,16.994c31.288,15.721,45.811-7.066,55.132-26.796c7.046-14.912,20.953-31.725-6.366-56.926
	C289.517,291.813,268.085,301.404,250.267,311.585z"/>
<path fill="#1E416B" d="M392.065,262.711c-0.302,0.362-0.653,0.663-1.196,0.955c-0.47,0.253-1.091,0.488-1.888,0.658
	c-1.389,0.302-3.316,0.379-5.616,0.072c-3.447-0.448-7.694-1.747-12.179-3.906c-4.491-2.154-9.232-5.152-13.809-8.902
	c-3.983-3.264-7.436-6.763-10.24-10.242c-2.102-2.607-3.841-5.205-5.173-7.657c-2.007-3.674-3.053-7.035-3.252-9.456
	c-0.106-1.212-0.015-2.174,0.166-2.882c0.186-0.714,0.434-1.176,0.765-1.587c2.316-2.826,1.902-6.996-0.922-9.31
	c-2.828-2.316-6.997-1.902-9.312,0.925c-1.454,1.768-2.5,3.808-3.134,5.917c-0.56,1.847-0.815,3.748-0.837,5.645
	c-0.037,3.325,0.614,6.646,1.742,9.961c1.705,4.972,4.5,9.963,8.182,14.86c3.683,4.891,8.268,9.668,13.63,14.062
	c4.667,3.823,9.509,7.012,14.324,9.522c3.612,1.883,7.212,3.386,10.739,4.476c5.289,1.62,10.407,2.362,15.281,1.833
	c2.432-0.273,4.813-0.881,7.044-1.948c2.226-1.062,4.293-2.614,5.921-4.611c2.315-2.826,1.902-6.995-0.925-9.311
	C398.551,259.469,394.382,259.884,392.065,262.711z"/>
<g>
	<g>
		<defs>
			<path id="SVGID_1_" d="M324.37,511.211c-0.207-0.062-0.414-0.129-0.626-0.195c-0.12-0.041-0.239-0.078-0.363-0.118l0.747,0.611
				L324.37,511.211"/>
		</defs>
		<clipPath id="SVGID_2_">
			<use xlink:href="#SVGID_1_"  overflow="visible"/>
		</clipPath>
		<g clip-path="url(#SVGID_2_)">
			<g>
				<defs>
					
						<rect id="SVGID_3_" x="323.296" y="510.759" transform="matrix(-0.7738 -0.6335 0.6335 -0.7738 250.7276 1111.6273)" width="1.135" height="0.566"/>
				</defs>
				<clipPath id="SVGID_4_">
					<use xlink:href="#SVGID_3_"  overflow="visible"/>
				</clipPath>
				<g clip-path="url(#SVGID_4_)">
					<g>
						<defs>
							
								<rect id="SVGID_5_" x="323.296" y="510.759" transform="matrix(-0.7738 -0.6335 0.6335 -0.7738 250.7276 1111.6273)" width="1.135" height="0.566"/>
						</defs>
						<clipPath id="SVGID_6_">
							<use xlink:href="#SVGID_5_"  overflow="visible"/>
						</clipPath>
						<g transform="matrix(1 0 0 1 -3.051758e-05 0)" clip-path="url(#SVGID_6_)">
							
								<image overflow="visible" enable-background="new    " width="46" height="23" xlink:href="F9992124F487F5E6.jpg"  transform="matrix(0.0191 0.0156 -0.0156 0.0191 323.6055 510.4629)">
							</image>
						</g>
					</g>
				</g>
			</g>
		</g>
		
			<linearGradient id="SVGID_7_" gradientUnits="userSpaceOnUse" x1="-22.2778" y1="0.1973" x2="-21.2778" y2="0.1973" gradientTransform="matrix(131.683 184.847 -184.847 131.683 3017.0049 4306.8164)">
			<stop  offset="0" style="stop-color:#FFFFFF"/>
			<stop  offset="1" style="stop-color:#231F20"/>
		</linearGradient>
		<path clip-path="url(#SVGID_2_)" fill="url(#SVGID_7_)" d="M125.836,370.003c-4.512-0.839-11.48-6.166-15.564-11.898
			L25.846,239.59c-4.084-5.732-3.738-9.7,0.773-8.862l72.827,13.543c4.511,0.84,11.479,6.167,15.563,11.899l84.427,118.513
			c4.083,5.734,3.737,9.701-0.774,8.862L125.836,370.003z"/>
		<path clip-path="url(#SVGID_2_)" fill="#BAC3C7" d="M125.836,370.003l0.64-3.441c-0.713-0.125-1.886-0.56-3.183-1.285
			c-1.304-0.721-2.75-1.714-4.167-2.876c-2.244-1.834-4.421-4.102-6.003-6.326L28.697,237.561c-1.194-1.664-1.87-3.092-2.09-3.919
			c-0.057-0.203-0.087-0.367-0.1-0.479l-0.011-0.155l0.001-0.009l-1.177-0.103l0.878,0.72c0.254-0.308,0.303-0.612,0.298-0.617
			l-1.177-0.103l0.878,0.72l-1.241-1.017l0.808,1.389c0.143-0.082,0.308-0.217,0.434-0.372l-1.241-1.017l0.808,1.389l-0.6-1.029
			l0.341,1.145c0.058-0.018,0.15-0.053,0.259-0.115l-0.6-1.029l0.341,1.145l-0.138-0.466l0.067,0.483l0.071-0.018l-0.138-0.466
			l0.067,0.483l0.134-0.002c0.093,0.004,0.231,0.018,0.412,0.052l72.826,13.542c0.712,0.126,1.886,0.56,3.182,1.286
			c1.303,0.721,2.75,1.714,4.167,2.875c2.245,1.836,4.42,4.103,6.003,6.327l84.428,118.515c1.194,1.664,1.869,3.09,2.09,3.918
			c0.057,0.204,0.087,0.368,0.1,0.479l0.01,0.156l-0.001,0.008l1.179,0.104l-0.88-0.722c-0.254,0.308-0.302,0.612-0.298,0.617
			l1.179,0.104l-0.88-0.722l1.241,1.017l-0.809-1.389c-0.143,0.082-0.309,0.218-0.433,0.372l1.242,1.017l-0.809-1.389l0.599,1.029
			l-0.34-1.145c-0.058,0.018-0.151,0.052-0.258,0.115l0.599,1.029l-0.34-1.145l0.138,0.467l-0.066-0.483l-0.072,0.017l0.138,0.467
			l-0.066-0.483h-0.134c-0.092-0.004-0.23-0.018-0.412-0.052l-72.825-13.542L125.836,370.003l-0.639,3.44l72.827,13.543
			c1.09,0.198,2.182,0.255,3.322,0.005c0.568-0.127,1.146-0.337,1.692-0.655c0.545-0.316,1.054-0.742,1.461-1.242
			c0.817-0.993,1.183-2.189,1.265-3.255c0.064-0.809-0.011-1.577-0.163-2.33c-0.232-1.128-0.644-2.228-1.198-3.361
			c-0.556-1.133-1.262-2.294-2.118-3.495L117.86,254.141c-2.024-2.836-4.577-5.473-7.269-7.682
			c-1.704-1.396-3.462-2.615-5.212-3.585c-1.756-0.967-3.486-1.7-5.293-2.045L27.26,227.288l0,0c-1.09-0.2-2.183-0.254-3.323-0.005
			c-0.567,0.126-1.146,0.337-1.691,0.654c-0.546,0.317-1.054,0.744-1.462,1.243c-0.816,0.994-1.183,2.189-1.265,3.254
			c-0.064,0.81,0.011,1.577,0.163,2.329c0.231,1.129,0.644,2.229,1.197,3.362c0.557,1.132,1.262,2.294,2.118,3.494l84.426,118.514
			c2.023,2.835,4.577,5.473,7.268,7.681c1.704,1.396,3.462,2.615,5.213,3.585c1.756,0.967,3.486,1.7,5.294,2.044L125.836,370.003z"
			/>
		
			<linearGradient id="SVGID_8_" gradientUnits="userSpaceOnUse" x1="-22.3135" y1="0.1816" x2="-21.3135" y2="0.1816" gradientTransform="matrix(141.1928 198.1962 -198.1962 141.1928 3211.2393 4532.1875)">
			<stop  offset="0" style="stop-color:#FFFFFF"/>
			<stop  offset="1" style="stop-color:#231F20"/>
		</linearGradient>
		<path clip-path="url(#SVGID_2_)" fill="url(#SVGID_8_)" d="M126.991,359.479c-2.611,6.575-8.241,7.122-12.578,1.219L24.797,238.68
			c-4.336-5.902-5.732-16.02-3.123-22.596l42.157-106.177c2.611-6.574,8.24-7.121,12.577-1.22l89.616,122.021
			c4.337,5.901,5.733,16.019,3.123,22.597L126.991,359.479z"/>
		<path clip-path="url(#SVGID_2_)" fill="#BFC4C6" d="M126.991,359.479l-3.718-1.478c-0.35,0.882-0.738,1.521-1.084,1.941
			c-0.31,0.378-0.579,0.581-0.775,0.692c-0.149,0.083-0.261,0.119-0.368,0.14c-0.158,0.026-0.328,0.032-0.633-0.06
			c-0.301-0.094-0.732-0.305-1.252-0.73c-0.461-0.378-0.986-0.922-1.524-1.653l-89.64-122.056l0.025,0.034
			c-0.823-1.117-1.57-2.536-2.159-4.121c-0.888-2.378-1.416-5.128-1.491-7.742c-0.085-2.613,0.299-5.084,1.023-6.889l42.154-106.176
			l0,0c0.349-0.879,0.74-1.519,1.086-1.939c0.309-0.377,0.577-0.583,0.774-0.692c0.149-0.083,0.261-0.121,0.368-0.14
			c0.159-0.026,0.328-0.032,0.633,0.06c0.301,0.094,0.733,0.304,1.253,0.73c0.46,0.377,0.984,0.922,1.523,1.654l89.626,122.033
			l-0.011-0.014c0.823,1.117,1.57,2.537,2.16,4.121c0.888,2.379,1.416,5.129,1.491,7.743c0.084,2.614-0.298,5.084-1.022,6.889
			l-42.157,106.175L126.991,359.479l3.717,1.476l42.157-106.175l0-0.001c0.826-2.087,1.292-4.319,1.491-6.611
			c0.291-3.435-0.023-7.006-0.868-10.418c-0.851-3.408-2.226-6.66-4.24-9.412l0,0L79.633,106.319l0,0
			c-0.881-1.196-1.844-2.238-2.9-3.105c-1.058-0.864-2.213-1.558-3.464-2.017c-1.867-0.695-3.989-0.812-5.928-0.212
			c-1.945,0.589-3.618,1.823-4.895,3.39c-0.959,1.173-1.727,2.536-2.331,4.057l0,0L17.957,214.608
			c-0.826,2.086-1.293,4.319-1.491,6.609c-0.291,3.435,0.022,7.007,0.868,10.417c0.852,3.408,2.226,6.66,4.24,9.412l0,0
			l89.616,122.021c0.88,1.198,1.844,2.238,2.902,3.105c1.056,0.865,2.21,1.561,3.463,2.019c1.866,0.695,3.989,0.812,5.928,0.211
			c1.946-0.589,3.618-1.823,4.896-3.391c0.959-1.172,1.726-2.534,2.33-4.057L126.991,359.479z"/>
		<path clip-path="url(#SVGID_2_)" fill="#D5E1E7" d="M105.124,211.667c10.527,9.129,11.729,26.51,2.682,38.824
			c-9.046,12.312-24.913,14.895-35.438,5.767c-10.527-9.129-11.729-26.509-2.682-38.825
			C78.731,205.121,94.598,202.541,105.124,211.667z"/>
		<path clip-path="url(#SVGID_2_)" fill="#1E416B" d="M105.124,211.667l-2.293,2.645c2.24,1.942,3.995,4.329,5.254,7.023
			c1.889,4.035,2.639,8.76,2.142,13.502c-0.496,4.744-2.232,9.485-5.243,13.581c-0.287,0.39-0.58,0.769-0.88,1.135
			c-3.993,4.872-9.169,7.7-14.352,8.458c-2.593,0.378-5.188,0.239-7.666-0.425c-2.479-0.663-4.845-1.85-7-3.613
			c-0.144-0.117-0.286-0.236-0.426-0.36c-2.24-1.941-3.995-4.329-5.254-7.022c-1.889-4.035-2.64-8.762-2.142-13.503
			c0.496-4.745,2.232-9.486,5.241-13.582c0.287-0.39,0.58-0.768,0.879-1.134c3.996-4.873,9.169-7.701,14.354-8.458
			c2.594-0.378,5.189-0.241,7.667,0.423c2.479,0.665,4.845,1.85,7,3.614c0.143,0.117,0.285,0.236,0.427,0.359L105.124,211.667
			l2.293-2.645c-0.19-0.165-0.382-0.326-0.577-0.485c-2.916-2.391-6.201-4.045-9.627-4.961c-5.142-1.377-10.583-1.093-15.66,0.689
			c-5.082,1.782-9.808,5.062-13.584,9.672c-0.378,0.461-0.746,0.936-1.105,1.425c-5.032,6.857-7.208,15.083-6.669,22.919
			c0.271,3.92,1.225,7.752,2.87,11.273c1.644,3.519,3.985,6.727,7.009,9.348c0.191,0.165,0.383,0.327,0.577,0.486
			c2.916,2.392,6.201,4.044,9.626,4.96c5.141,1.378,10.583,1.095,15.661-0.689c5.08-1.78,9.806-5.061,13.582-9.671
			c0.378-0.462,0.748-0.938,1.106-1.426c5.032-6.856,7.209-15.083,6.671-22.92c-0.271-3.92-1.225-7.752-2.87-11.271
			c-1.644-3.519-3.985-6.728-7.01-9.349L105.124,211.667z"/>
		<path clip-path="url(#SVGID_2_)" fill="#E9E8E9" d="M103.532,214.439c2.594,2.25-1.732,12.825-9.663,23.622
			c-7.932,10.797-16.464,17.725-19.057,15.474c-2.594-2.25,1.73-12.825,9.662-23.622
			C92.406,219.117,100.937,212.189,103.532,214.439z"/>
		<path clip-path="url(#SVGID_2_)" fill="#1E416B" d="M103.532,214.439l-0.328,0.378c0.222,0.193,0.394,0.494,0.494,0.946
			c0.175,0.79,0.085,2.002-0.295,3.496c-1.129,4.491-4.759,11.463-9.938,18.503c-0.992,1.352-1.994,2.642-2.992,3.86
			c-3.449,4.21-6.857,7.563-9.654,9.607c-1.397,1.023-2.641,1.714-3.626,2.025c-0.493,0.159-0.914,0.219-1.25,0.197
			c-0.337-0.022-0.581-0.116-0.779-0.277l-0.024-0.022c-0.223-0.191-0.395-0.493-0.494-0.946c-0.176-0.788-0.086-2.001,0.294-3.494
			c1.129-4.489,4.759-11.463,9.938-18.505c0.992-1.349,1.994-2.64,2.991-3.857c3.45-4.21,6.858-7.565,9.655-9.61
			c1.396-1.022,2.643-1.714,3.627-2.026c0.492-0.156,0.916-0.217,1.25-0.195c0.337,0.022,0.581,0.117,0.779,0.276l0.023,0.021
			L103.532,214.439l0.328-0.378l-0.045-0.039c-0.378-0.311-0.851-0.472-1.351-0.502c-0.881-0.05-1.867,0.252-2.978,0.812
			c-3.314,1.683-7.805,5.793-12.393,11.385c-1.009,1.231-2.021,2.535-3.024,3.899c-3.987,5.426-7.067,10.795-8.837,15.122
			c-0.884,2.166-1.444,4.068-1.618,5.619c-0.086,0.775-0.076,1.465,0.054,2.064c0.13,0.597,0.39,1.119,0.815,1.489l0.046,0.039
			c0.377,0.312,0.851,0.471,1.351,0.501c0.88,0.051,1.866-0.252,2.977-0.81c3.314-1.684,7.803-5.793,12.39-11.384
			c1.009-1.232,2.022-2.537,3.025-3.902c3.986-5.425,7.067-10.794,8.838-15.121c0.885-2.166,1.445-4.068,1.619-5.618
			c0.086-0.776,0.077-1.466-0.053-2.066c-0.13-0.597-0.39-1.12-0.816-1.489L103.532,214.439z"/>
		<path clip-path="url(#SVGID_2_)" fill="#E9E8E9" d="M66.68,237.461c-0.255-3.736,9.37-8.366,21.504-10.339
			c12.135-1.974,22.18-0.547,22.438,3.188c0.258,3.738-9.37,8.367-21.505,10.342C76.987,242.625,66.942,241.197,66.68,237.461z"/>
		<path clip-path="url(#SVGID_2_)" fill="#1E416B" d="M66.68,237.461l0.499-0.033c-0.038-0.537,0.195-1.16,0.763-1.854
			c1.2-1.478,3.851-3.109,7.41-4.521c3.56-1.417,8.032-2.645,12.914-3.438c4.949-0.806,9.548-1.039,13.244-0.781
			c1.849,0.128,3.47,0.38,4.791,0.738c1.323,0.356,2.339,0.826,2.974,1.35c0.556,0.46,0.814,0.919,0.851,1.423
			c0.039,0.536-0.195,1.16-0.763,1.852c-1.201,1.479-3.851,3.109-7.411,4.521c-3.561,1.419-8.033,2.646-12.915,3.44
			c-4.947,0.805-9.546,1.038-13.243,0.78c-1.848-0.128-3.471-0.38-4.791-0.739c-1.322-0.357-2.339-0.826-2.974-1.35
			c-0.555-0.46-0.813-0.92-0.851-1.423l0,0L66.68,237.461l-0.499,0.035c0.056,0.832,0.515,1.561,1.214,2.127
			c0.807,0.659,1.94,1.158,3.345,1.541c4.211,1.14,10.929,1.202,18.457-0.02c4.946-0.805,9.48-2.047,13.123-3.498
			c3.645-1.457,6.396-3.096,7.814-4.815c0.662-0.808,1.045-1.67,0.987-2.555c-0.057-0.833-0.515-1.56-1.214-2.128
			c-0.807-0.658-1.939-1.16-3.345-1.541c-4.211-1.138-10.929-1.201-18.458,0.019c-4.946,0.806-9.48,2.048-13.123,3.498
			c-3.645,1.458-6.395,3.096-7.813,4.817c-0.662,0.808-1.046,1.67-0.988,2.555l0,0L66.68,237.461z"/>
		<path clip-path="url(#SVGID_2_)" fill="#E9E8E9" d="M90.837,258.06c-3.411,0.555-6.921-9.772-7.838-23.066
			c-0.918-13.291,1.102-24.518,4.513-25.073c3.411-0.558,6.918,9.77,7.836,23.063C96.267,246.277,94.247,257.504,90.837,258.06z"/>
		<path clip-path="url(#SVGID_2_)" fill="#1E416B" d="M90.837,258.06l-0.08-0.494c-0.377,0.06-0.776-0.059-1.257-0.447
			c-0.614-0.499-1.285-1.446-1.917-2.758c-1.91-3.94-3.514-11.094-4.084-19.401c-0.388-5.605-0.248-10.841,0.295-15.035
			c0.271-2.098,0.644-3.935,1.098-5.421c0.453-1.487,0.993-2.622,1.552-3.301c0.403-0.492,0.791-0.731,1.149-0.787
			c0.378-0.06,0.775,0.057,1.256,0.446c0.615,0.499,1.284,1.446,1.916,2.757c1.91,3.94,3.515,11.094,4.085,19.402
			c0.388,5.605,0.25,10.841-0.295,15.038c-0.272,2.098-0.644,3.934-1.098,5.422c-0.453,1.487-0.992,2.621-1.552,3.3
			c-0.402,0.491-0.79,0.729-1.147,0.786L90.837,258.06l0.081,0.493c0.681-0.111,1.265-0.535,1.76-1.141
			c0.693-0.849,1.257-2.082,1.735-3.641c1.422-4.673,2.02-12.32,1.436-20.82c-0.386-5.601-1.23-10.678-2.337-14.666
			c-0.555-1.994-1.175-3.717-1.845-5.102c-0.672-1.386-1.385-2.439-2.183-3.097c-0.612-0.506-1.323-0.78-2.051-0.659
			c-0.681,0.112-1.266,0.536-1.762,1.141c-0.693,0.849-1.257,2.083-1.735,3.642c-1.423,4.671-2.02,12.317-1.436,20.817
			c0.386,5.6,1.23,10.677,2.337,14.665c0.556,1.994,1.174,3.717,1.845,5.103c0.672,1.386,1.385,2.439,2.183,3.097
			c0.612,0.507,1.325,0.78,2.051,0.661L90.837,258.06z"/>
		<path clip-path="url(#SVGID_2_)" fill="#1E416B" d="M93.183,228.124l-0.328,0.378c4.583,3.974,8.284,8.185,10.541,11.746
			c1.128,1.779,1.896,3.396,2.236,4.712c0.173,0.655,0.237,1.234,0.202,1.712c-0.037,0.479-0.166,0.853-0.378,1.142l-0.054,0.068
			c-0.211,0.257-0.492,0.444-0.875,0.574c-0.666,0.224-1.643,0.227-2.842-0.031c-3.607-0.762-9.104-3.795-14.704-8.39
			c-0.514-0.421-1.028-0.854-1.542-1.301c-4.583-3.973-8.283-8.185-10.54-11.746c-1.129-1.778-1.896-3.397-2.237-4.711
			c-0.172-0.657-0.237-1.235-0.202-1.713c0.036-0.479,0.165-0.852,0.378-1.142l0.053-0.067c0.211-0.257,0.493-0.446,0.875-0.575
			c0.666-0.223,1.642-0.226,2.841,0.032c3.608,0.761,9.105,3.795,14.705,8.39c0.514,0.421,1.029,0.854,1.544,1.3L93.183,228.124
			l0.328-0.378c-0.521-0.452-1.045-0.891-1.565-1.317c-4.334-3.55-8.591-6.193-12.087-7.623c-1.75-0.713-3.309-1.126-4.622-1.185
			c-0.657-0.027-1.255,0.035-1.786,0.21c-0.53,0.176-0.992,0.47-1.334,0.889l-0.086,0.11c-0.344,0.469-0.525,1.039-0.568,1.662
			c-0.077,1.09,0.233,2.357,0.839,3.778c1.824,4.249,6.383,9.927,12.481,15.22c0.521,0.453,1.043,0.891,1.564,1.317
			c4.333,3.55,8.591,6.192,12.086,7.622c1.75,0.713,3.31,1.126,4.623,1.184c0.657,0.027,1.254-0.034,1.787-0.21
			c0.529-0.175,0.993-0.47,1.334-0.889l0.086-0.109c0.345-0.469,0.525-1.04,0.569-1.661c0.077-1.091-0.233-2.357-0.838-3.778
			c-1.824-4.248-6.383-9.926-12.481-15.22L93.183,228.124z"/>
		<path clip-path="url(#SVGID_2_)" fill="#231F20" d="M84.399,227.599c0,0,11.157-11.436,15.184-8.053
			c4.268,3.583-4.81,18.087-4.81,18.087s2.218,4.23-5.964,14.43c-0.328,0.407-2.496-1.703-2.496-1.703s3.529-6.28,3.157-5.908
			c-1.997,0.572-5.613-0.947-5.613-0.947l-2.43,2.504l-1.981-1.599l1.606-3.798c0,0-1.66-2.709-2.01-4.512
			c-0.043-0.611-4.067,4.197-4.067,4.197l-2.6-2.367C72.375,237.93,80.036,225.892,84.399,227.599z"/>
		<path clip-path="url(#SVGID_2_)" fill="#A09F9F" d="M179.583,310.02c-10.348,12.63-12.668,12.49-15.865,27.429
			c-1.85,8.647,9.875,23.675,22.185,20.086c12.309-3.589,25.201-25.795,27.961-17.438"/>
		<path clip-path="url(#SVGID_2_)" fill="#B84B67" d="M141.928,364.549c-2.227,0.712-4.725,0.055-5.575-1.47l-1.703-3.04
			c-0.852-1.523,0.263-3.335,2.491-4.048c2.227-0.71,4.725-0.054,5.576,1.471l1.702,3.042
			C145.272,362.024,144.156,363.837,141.928,364.549z"/>
		<path clip-path="url(#SVGID_2_)" fill="#B84B67" d="M154.521,366.14c-2.227,0.712-4.725,0.055-5.574-1.469l-1.703-3.041
			c-0.852-1.523,0.263-3.334,2.491-4.047c2.228-0.71,4.726-0.054,5.576,1.47l1.702,3.042
			C157.866,363.614,156.749,365.428,154.521,366.14z"/>
		<path clip-path="url(#SVGID_2_)" fill="#B84B67" d="M166.447,367.18c-2.227,0.712-4.725,0.056-5.575-1.47l-1.703-3.042
			c-0.852-1.522,0.264-3.334,2.491-4.046c2.228-0.71,4.725-0.054,5.576,1.471l1.702,3.041
			C169.791,364.654,168.674,366.467,166.447,367.18z"/>
		<path clip-path="url(#SVGID_2_)" fill="#B84B67" d="M179.022,370.371c-2.228,0.712-4.725,0.057-5.576-1.469l-1.702-3.042
			c-0.852-1.522,0.264-3.333,2.492-4.046c2.227-0.71,4.724-0.055,5.575,1.47l1.702,3.042
			C182.365,367.846,181.25,369.658,179.022,370.371z"/>
		<path clip-path="url(#SVGID_2_)" fill="#A06EAF" d="M134.442,353.568c-2.227,0.711-4.725,0.055-5.575-1.47l-1.703-3.041
			c-0.852-1.522,0.263-3.335,2.491-4.047c2.227-0.71,4.725-0.054,5.576,1.471l1.702,3.042
			C137.786,351.043,136.67,352.855,134.442,353.568z"/>
		<path clip-path="url(#SVGID_2_)" fill="#A06EAF" d="M147.035,355.159c-2.227,0.711-4.725,0.055-5.574-1.469l-1.703-3.042
			c-0.852-1.523,0.264-3.334,2.491-4.046c2.228-0.71,4.725-0.054,5.576,1.47l1.702,3.042
			C150.379,352.634,149.263,354.446,147.035,355.159z"/>
		<path clip-path="url(#SVGID_2_)" fill="#A06EAF" d="M158.96,356.199c-2.227,0.711-4.725,0.055-5.575-1.47l-1.703-3.042
			c-0.852-1.523,0.263-3.334,2.491-4.046c2.228-0.71,4.726-0.054,5.577,1.47l1.702,3.041
			C162.304,353.674,161.188,355.486,158.96,356.199z"/>
		<path clip-path="url(#SVGID_2_)" fill="#4D7ABD" d="M141.432,343.457c-2.228,0.713-4.726,0.057-5.574-1.469l-1.704-3.041
			c-0.852-1.523,0.264-3.334,2.491-4.046c2.228-0.711,4.726-0.054,5.577,1.47l1.702,3.042
			C144.775,340.934,143.659,342.745,141.432,343.457z"/>
		<path clip-path="url(#SVGID_2_)" fill="#4D7ABD" d="M153.356,344.498c-2.227,0.711-4.724,0.056-5.575-1.47l-1.703-3.041
			c-0.852-1.523,0.263-3.334,2.491-4.047c2.228-0.71,4.725-0.055,5.576,1.47l1.702,3.042
			C156.701,341.973,155.584,343.785,153.356,344.498z"/>
		<path clip-path="url(#SVGID_2_)" fill="#62BB46" d="M146.592,331.847c-2.227,0.711-4.724,0.055-5.575-1.469l-1.703-3.042
			c-0.852-1.523,0.263-3.335,2.491-4.047c2.229-0.71,4.725-0.054,5.577,1.47l1.702,3.042
			C149.937,329.321,148.82,331.134,146.592,331.847z"/>
		<path clip-path="url(#SVGID_2_)" fill="#62BB46" d="M159.167,335.038c-2.227,0.711-4.725,0.056-5.574-1.47l-1.703-3.041
			c-0.852-1.523,0.264-3.334,2.492-4.046c2.227-0.711,4.724-0.055,5.575,1.47l1.702,3.041
			C162.511,332.513,161.395,334.325,159.167,335.038z"/>
		<path clip-path="url(#SVGID_2_)" fill="#DAE12D" d="M150.942,322.803c-2.227,0.711-4.725,0.055-5.575-1.471l-1.703-3.041
			c-0.851-1.522,0.264-3.334,2.492-4.046c2.227-0.711,4.724-0.054,5.576,1.47l1.701,3.041
			C154.285,320.277,153.17,322.09,150.942,322.803z"/>
		<path clip-path="url(#SVGID_2_)" fill="#BFC4C6" d="M162.685,232.406c0.837,1.135,1.596,2.574,2.195,4.187
			c0.903,2.415,1.441,5.206,1.521,7.857c0.088,2.652-0.298,5.157-1.029,6.985l-42.625,107.662c-0.825,2.084,0.195,4.441,2.279,5.265
			c2.083,0.825,4.441-0.195,5.265-2.278l42.625-107.662c0.836-2.115,1.307-4.381,1.505-6.704c0.293-3.484-0.029-7.107-0.89-10.565
			c-0.867-3.458-2.262-6.757-4.305-9.549c-1.327-1.805-3.866-2.193-5.671-0.867C161.749,228.062,161.36,230.6,162.685,232.406z"/>
		<path clip-path="url(#SVGID_2_)" fill="#1E416B" d="M199.542,348.775c-2.376,2.287-5.78,4.041-8.102,5.817
			c-1.157,0.889-2.272,1.638-3.271,2.192c-0.998,0.558-1.879,0.912-2.529,1.082c-0.622,0.162-1.2,0.219-1.796,0.199
			c-0.889-0.031-1.844-0.245-2.887-0.693c-1.038-0.443-2.146-1.124-3.207-1.992c-1.908-1.549-3.617-3.735-4.587-5.695
			c-0.491-0.977-0.798-1.887-0.936-2.565c-0.144-0.682-0.106-1.104-0.087-1.18c0.017-0.109,0.125-0.531,0.35-1.119
			c0.416-1.113,1.219-2.801,2.331-4.789c1.945-3.495,12.781-23.229,12.781-23.229s-3.964-17.253-10.312-10.818
			c-6.348,6.434-16.328,24.004-17.494,26.383c-0.583,1.193-1.094,2.341-1.524,3.481c-0.429,1.146-0.787,2.28-1.029,3.533
			c-0.461,2.445-0.318,4.827,0.146,7.083c0.708,3.386,2.136,6.555,4.035,9.52c1.908,2.957,4.311,5.707,7.18,8.062
			c2.843,2.323,6.165,4.275,9.946,5.424c1.889,0.569,3.888,0.928,5.948,0.999c2.058,0.073,4.171-0.148,6.242-0.694
			c2.225-0.587,4.215-1.483,6.057-2.515c3.213-1.812,6.006-4.055,8.564-6.309c1.913-1.689,3.679-3.392,5.273-4.924"/>
	</g>
</g>
<path fill="#A0254E" d="M247.614,202.738c0,0-22.491,4.902-46,22c-11,8-54.559,65.912-59.895,66.845
	c-5.336,0.934-22.721,9.832-32.36,16.206c-9.639,6.372-30.867,18.679-36.375,24.915c-5.507,6.237-19.56,45.805-20.477,49.872
	c-0.917,4.066-49.093,44.812-19.024,56.938c30.068,12.125,94.735,26.398,124,33s75,24,118,13c30.072-7.693,52.682-17.323,75-39
	c22.316-21.677,65.01-77.509,70-86c4.99-8.49,13.658-27.797,11.131-34.776c-2.523-6.981-42.213-6.056-60-9
	c-17.789-2.944-54.698-30.05-75.547-45.896C269.614,250.738,277.614,202.738,247.614,202.738z"/>
<path fill="#600D2D" d="M318.947,356.738c-15.475-4.643,46,15,58,14s22-4,31-7s23.001-30.332,23.001-30.332s-1.333,26.002-44.333,73
	c-6.803,7.435-38.332,49.002-57.667,59c-14.625,7.562-37.464,15.11-51.333,20.334s-20.668,6.998-46.668,3.998s-45-11-57-13
	s23,5,52-1s39-6,40-10s-12-6-17-12s-4.752-3.107,18.624-2.554s37.376,4.554,43.376-2.446s25-16,12-24s-31-18-31-18s46,17,55,5
	s4-18,1-23S328.947,359.738,318.947,356.738z"/>
<path fill="#600D2D" d="M-133.386,353.738"/>
<path fill="#D80752" d="M655.614,509.406"/>
<path fill="none" stroke="#1E416B" stroke-width="11" stroke-linecap="round" stroke-miterlimit="10" d="M371.114,146.488
	c-5.75,9,14.25,24.75,21.5,15.25"/>
<path fill="none" stroke="#1E416B" stroke-width="11" stroke-linecap="round" stroke-miterlimit="10" d="M427.447,193.155
	c-5.75,9,14.25,24.75,21.5,15.25"/>
<path fill="#FFFFFF" d="M523.948,186.072"/>
<path fill="#FFFFFF" d="M663.614,153.072"/>
<path fill="#1E416B" d="M142.55,33.562H92.486c-0.665,0-1.202,0.538-1.202,1.201V49.88c0,0.664,0.538,1.202,1.202,1.202h19.845
	L87.875,95.631c-0.098,0.177-0.148,0.376-0.148,0.578v2.135c0,0.664,0.538,1.201,1.201,1.201h52.11c0.664,0,1.202-0.538,1.202-1.201
	V83.137c0-0.664-0.538-1.201-1.202-1.201h-21.632l24.198-44.464c0.096-0.176,0.147-0.374,0.147-0.574v-2.135
	C143.751,34.099,143.214,33.562,142.55,33.562z"/>
<path fill="#1E416B" d="M210.249,56.527h-50.063c-0.665,0-1.202,0.538-1.202,1.202v15.117c0,0.665,0.538,1.202,1.202,1.202h19.845
	l-24.455,44.549c-0.098,0.177-0.148,0.376-0.148,0.578v2.135c0,0.664,0.538,1.202,1.202,1.202h52.11
	c0.664,0,1.201-0.538,1.201-1.202v-15.207c0-0.664-0.538-1.202-1.201-1.202h-21.632l24.198-44.464
	c0.096-0.176,0.147-0.374,0.147-0.574v-2.135C211.451,57.065,210.914,56.527,210.249,56.527z"/>
<path fill="#1E416B" d="M277.948,79.494h-50.063c-0.665,0-1.202,0.538-1.202,1.201v15.118c0,0.664,0.538,1.202,1.202,1.202h19.845
	l-24.455,44.549c-0.098,0.177-0.148,0.376-0.148,0.578v2.135c0,0.664,0.538,1.201,1.201,1.201h52.11
	c0.664,0,1.201-0.538,1.201-1.201v-15.207c0-0.664-0.537-1.201-1.201-1.201h-21.632l24.198-44.464
	c0.096-0.176,0.147-0.374,0.147-0.574v-2.135C279.15,80.031,278.613,79.494,277.948,79.494z"/>
</svg>
