<?xml version="1.0" encoding="utf-8"?>
<!-- Generator: Adobe Illustrator 16.0.4, SVG Export Plug-In . SVG Version: 6.00 Build 0)  -->
<!DOCTYPE svg PUBLIC "-//W3C//DTD SVG 1.1//EN" "http://www.w3.org/Graphics/SVG/1.1/DTD/svg11.dtd">
<svg version="1.1" id="Layer_1" xmlns="http://www.w3.org/2000/svg" xmlns:xlink="http://www.w3.org/1999/xlink" x="0px" y="0px"
	 width="578.229px" height="484.477px" viewBox="0 0 578.229 484.477" enable-background="new 0 0 578.229 484.477"
	 xml:space="preserve">
<circle fill="#4084F2" cx="239.748" cy="244.485" r="236.988"/>
<path fill="#D8D6D6" stroke="#1E416B" stroke-width="15" stroke-miterlimit="10" d="M465.504,8.033
	c-57.632,0-104.352,34.788-104.352,77.701c0,23.704,14.26,44.926,36.734,59.178c-11.744,14.58-33.169,23.027-45.798,23.027
	c36.257,0,61.029-3.764,77.927-9.115c11.078,2.982,23.027,4.612,35.487,4.612c57.63,0,104.353-34.788,104.353-77.701
	C569.855,42.822,523.134,8.033,465.504,8.033z"/>
<path fill="#EFCC9A" stroke="#132B3F" stroke-width="12.044" stroke-miterlimit="10" d="M1222.948-164.373
	c-33.597,0-60.829,27.233-60.829,60.829c0,33.594,27.232,60.829,60.829,60.829c33.595,0,60.829-27.234,60.829-60.829
	C1283.777-137.14,1256.543-164.373,1222.948-164.373z M1222.948-85.259c-10.101,0-18.287-8.186-18.287-18.285
	c0-10.101,8.188-18.286,18.287-18.286c10.099,0,18.286,8.186,18.286,18.286C1241.234-93.445,1233.048-85.259,1222.948-85.259z"/>
<g>
	<path fill="#F288A9" d="M1185.007-136.549c-2.871,3.142-9.188,4.39-10.828,8.597c-1.532,3.933,2.16,9.437,1.575,13.889
		c-0.561,4.267-5.602,8.472-5.404,12.858c0.199,4.416,5.613,8.198,6.471,12.377c0.923,4.492-2.484,10.166-0.938,13.955
		c1.85,4.526,8.199,5.828,10.726,8.654c3.222,3.603,5.139,10.28,10.494,12.169c4.632,1.634,10.854-2.122,16.314-1.714
		c5.102,0.381,10.527,5.122,15.751,4.476c5.269-0.652,9.348-6.573,14.145-8.227c5.212-1.797,12.238,0.114,16.159-2.814
		c4.467-3.336,4.073-10.197,5.8-14.924c1.395-3.814,7.325-6.358,8.332-10.41c0.999-4.021-3.059-8.973-2.609-13.05
		c0.458-4.174,5.472-8.245,5.173-12.291c-0.312-4.198-5.849-7.296-7.173-11.148c-1.34-3.892,1.01-9.859-1.573-13.181
		c-2.416-3.106-8.708-2.357-12.389-4.781c-3.562-2.346-5.409-8.626-9.664-10.085c-4.073-1.396-9.495,2.375-13.903,1.811
		c-4.331-0.554-8.591-5.587-12.965-5.32c-4.418,0.27-7.998,5.784-12.175,6.911c-4.315,1.165-10.268-1.721-14.016,0.379
		C1188.423-146.239,1187.938-139.755,1185.007-136.549z"/>
</g>
<line fill="none" stroke="#F8CACD" stroke-width="7.9785" stroke-linecap="round" stroke-miterlimit="10" x1="1184.343" y1="-96.667" x2="1179.443" y2="-105.799"/>
<line fill="none" stroke="#1ACFE2" stroke-width="7.9785" stroke-linecap="round" stroke-miterlimit="10" x1="1217.459" y1="-147.249" x2="1208.22" y2="-142.556"/>
<line fill="none" stroke="#FFFFFF" stroke-width="7.9785" stroke-linecap="round" stroke-miterlimit="10" x1="1254.411" y1="-117.384" x2="1261.453" y2="-124.986"/>
<line fill="none" stroke="#B7E5CF" stroke-width="7.9785" stroke-linecap="round" stroke-miterlimit="10" x1="1213.034" y1="-62.916" x2="1222.831" y2="-59.54"/>
<line fill="none" stroke="#EFE578" stroke-width="7.9785" stroke-linecap="round" stroke-miterlimit="10" x1="1244.146" y1="-76.414" x2="1239.576" y2="-67.115"/>
<line fill="none" stroke="#FFFFFF" stroke-width="7.9785" stroke-linecap="round" stroke-miterlimit="10" x1="1193.78" y1="-72.235" x2="1200.399" y2="-80.207"/>
<line fill="none" stroke="#B7E5CF" stroke-width="7.9785" stroke-linecap="round" stroke-miterlimit="10" x1="1190.076" y1="-123.139" x2="1197.564" y2="-120.227"/>
<line fill="none" stroke="#B7E5CF" stroke-width="7.9785" stroke-linecap="round" stroke-miterlimit="10" x1="1237.182" y1="-141.694" x2="1244.671" y2="-138.781"/>
<line fill="none" stroke="#F8CACD" stroke-width="7.9785" stroke-linecap="round" stroke-miterlimit="10" x1="1258.827" y1="-97.788" x2="1266.413" y2="-90.729"/>
<g>
	<circle fill="#4084F2" cx="1222.948" cy="-103.544" r="18.287"/>
	<g>
		<path fill="#132B3F" d="M1236.632-103.544c-0.649,17.649-26.719,17.648-27.368,0c-0.281-7.674,6.433-13.417,13.686-13.683
			C1230.622-117.509,1236.365-110.797,1236.632-103.544c0.217,5.918,9.424,5.939,9.205,0c-0.47-12.789-10.101-22.419-22.889-22.889
			c-12.778-0.47-22.446,10.807-22.891,22.889c-0.47,12.778,10.81,22.444,22.891,22.888c12.776,0.469,22.444-10.806,22.889-22.888
			C1246.056-109.483,1236.849-109.462,1236.632-103.544z"/>
	</g>
</g>
<g>
	<g>
		<path fill="none" stroke="#F7F7F7" stroke-miterlimit="10" d="M-1188.341-233.353"/>
	</g>
</g>
<g>
	<g>
		<path fill="none" stroke="#FFFFFF" stroke-miterlimit="10" d="M-1190.091-198.103"/>
	</g>
</g>
<g>
	<g>
		<path fill="none" stroke="#FFFFFF" stroke-miterlimit="10" d="M-1218.841-186.853"/>
	</g>
</g>
<g>
	<g>
		<path fill="none" stroke="#FFFFFF" stroke-miterlimit="10" d="M-1179.591-211.603"/>
	</g>
</g>
<g>
	<g>
		<path fill="none" stroke="#FFFFFF" stroke-width="7" stroke-miterlimit="10" d="M-1194.841-218.603"/>
	</g>
</g>
<g>
	<g>
		<path fill="none" stroke="#FFFFFF" stroke-width="7" stroke-miterlimit="10" d="M-1194.841-218.603"/>
	</g>
</g>
<g>
	<g>
		<path fill="none" stroke="#FFFFFF" stroke-width="7" stroke-miterlimit="10" d="M-1194.841-218.603"/>
	</g>
</g>
<g>
	<g>
		<path fill="none" stroke="#FFFFFF" stroke-width="7" stroke-miterlimit="10" d="M-1194.841-218.603"/>
	</g>
</g>
<g>
	<g>
		<path fill="#FFFFFF" d="M-1177.841-180.853c3.225,0,3.225-5,0-5C-1181.066-185.853-1181.065-180.853-1177.841-180.853
			L-1177.841-180.853z"/>
	</g>
</g>
<path fill="#6D5D47" stroke="#132B3F" stroke-width="12.044" stroke-miterlimit="10" d="M1360.521-220.441
	c-31.646,0-57.301,25.653-57.301,57.3c0,31.646,25.653,57.3,57.301,57.3c31.646,0,57.3-25.654,57.3-57.3
	C1417.82-194.788,1392.166-220.441,1360.521-220.441z M1360.521-145.917c-9.516,0-17.228-7.711-17.228-17.224
	c0-9.514,7.712-17.225,17.228-17.225c9.514,0,17.226,7.711,17.226,17.225C1377.746-153.628,1370.034-145.917,1360.521-145.917z"/>
<g>
	<g>
		<path fill="#FFFFFF" d="M1336.495-199.193c1.979,0,1.979-3.068,0-3.068C1334.516-202.261,1334.517-199.193,1336.495-199.193
			L1336.495-199.193z"/>
	</g>
</g>
<g>
	<g>
		<path fill="#FFFFFF" d="M1334.858-188.146c1.979,0,1.979-3.068,0-3.068C1332.879-191.214,1332.88-188.146,1334.858-188.146
			L1334.858-188.146z"/>
	</g>
</g>
<g>
	<g>
		<path fill="#FFFFFF" d="M1365.954-196.738c1.979,0,1.979-3.068,0-3.068C1363.975-199.806,1363.976-196.738,1365.954-196.738
			L1365.954-196.738z"/>
	</g>
</g>
<g>
	<g>
		<path fill="#FFFFFF" d="M1346.725-188.964c1.979,0,1.979-3.068,0-3.068C1344.746-192.032,1344.746-188.964,1346.725-188.964
			L1346.725-188.964z"/>
	</g>
</g>
<g>
	<g>
		<path fill="#FFFFFF" d="M1346.725-197.556c1.979,0,1.979-3.068,0-3.068C1344.746-200.624,1344.746-197.556,1346.725-197.556
			L1346.725-197.556z"/>
	</g>
</g>
<g>
	<g>
		<path fill="#FFFFFF" d="M1360.227-208.603c1.979,0,1.979-3.068,0-3.068C1358.248-211.671,1358.248-208.603,1360.227-208.603
			L1360.227-208.603z"/>
	</g>
</g>
<g>
	<g>
		<path fill="#FFFFFF" d="M1350.814-208.194c1.979,0,1.979-3.068,0-3.068C1348.836-211.262,1348.837-208.194,1350.814-208.194
			L1350.814-208.194z"/>
	</g>
</g>
<g>
	<g>
		<path fill="#FFFFFF" d="M1358.181-201.238c1.979,0,1.979-3.068,0-3.068C1356.202-204.306,1356.202-201.238,1358.181-201.238
			L1358.181-201.238z"/>
	</g>
</g>
<g>
	<g>
		<path fill="#FFFFFF" d="M1356.953-191.828c1.979,0,1.979-3.068,0-3.068C1354.974-194.896,1354.975-191.828,1356.953-191.828
			L1356.953-191.828z"/>
	</g>
</g>
<g>
	<g>
		<path fill="#FFFFFF" d="M1328.722-193.465c1.979,0,1.979-3.068,0-3.068C1326.743-196.533,1326.743-193.465,1328.722-193.465
			L1328.722-193.465z"/>
	</g>
</g>
<g>
	<g>
		<path fill="#FFFFFF" d="M1324.221-180.372c1.979,0,1.979-3.068,0-3.068C1322.242-183.44,1322.242-180.372,1324.221-180.372
			L1324.221-180.372z"/>
	</g>
</g>
<g>
	<g>
		<path fill="#FFFFFF" d="M1333.631-176.28c1.979,0,1.979-3.068,0-3.068C1331.652-179.348,1331.652-176.28,1333.631-176.28
			L1333.631-176.28z"/>
	</g>
</g>
<g>
	<g>
		<path fill="#FFFFFF" d="M1316.855-165.233c1.979,0,1.979-3.068,0-3.068C1314.877-168.301,1314.878-165.233,1316.855-165.233
			L1316.855-165.233z"/>
	</g>
</g>
<g>
	<g>
		<path fill="#FFFFFF" d="M1324.63-168.916c1.979,0,1.979-3.068,0-3.068C1322.651-171.984,1322.651-168.916,1324.63-168.916
			L1324.63-168.916z"/>
	</g>
</g>
<g>
	<g>
		<path fill="#FFFFFF" d="M1316.446-174.644c1.979,0,1.979-3.068,0-3.068C1314.467-177.712,1314.468-174.644,1316.446-174.644
			L1316.446-174.644z"/>
	</g>
</g>
<g>
	<g>
		<path fill="#FFFFFF" d="M1322.584-187.327c1.979,0,1.979-3.068,0-3.068S1320.605-187.327,1322.584-187.327L1322.584-187.327z"/>
	</g>
</g>
<g>
	<g>
		<path fill="#FFFFFF" d="M1332.812-164.824c1.979,0,1.979-3.068,0-3.068C1330.834-167.892,1330.835-164.824,1332.812-164.824
			L1332.812-164.824z"/>
	</g>
</g>
<g>
	<g>
		<path fill="#FFFFFF" d="M1327.903-155.004c1.979,0,1.979-3.068,0-3.068C1325.924-158.072,1325.925-155.004,1327.903-155.004
			L1327.903-155.004z"/>
	</g>
</g>
<g>
	<g>
		<path fill="#FFFFFF" d="M1318.901-157.05c1.979,0,1.979-3.068,0-3.068C1316.922-160.118,1316.923-157.05,1318.901-157.05
			L1318.901-157.05z"/>
	</g>
</g>
<g>
	<g>
		<path fill="#FFFFFF" d="M1317.674-145.594c1.979,0,1.979-3.068,0-3.068C1315.695-148.662,1315.695-145.594,1317.674-145.594
			L1317.674-145.594z"/>
	</g>
</g>
<g>
	<g>
		<path fill="#FFFFFF" d="M1325.039-145.594c1.979,0,1.979-3.068,0-3.068C1323.06-148.662,1323.061-145.594,1325.039-145.594
			L1325.039-145.594z"/>
	</g>
</g>
<g>
	<g>
		<path fill="#FFFFFF" d="M1335.678-145.594c1.979,0,1.979-3.068,0-3.068C1333.699-148.662,1333.699-145.594,1335.678-145.594
			L1335.678-145.594z"/>
	</g>
</g>
<g>
	<g>
		<path fill="#FFFFFF" d="M1333.223-152.549c1.979,0,1.979-3.068,0-3.068C1331.244-155.617,1331.244-152.549,1333.223-152.549
			L1333.223-152.549z"/>
	</g>
</g>
<g>
	<g>
		<path fill="#FFFFFF" d="M1330.358-133.728c1.979,0,1.979-3.068,0-3.068C1328.379-136.796,1328.38-133.728,1330.358-133.728
			L1330.358-133.728z"/>
	</g>
</g>
<g>
	<g>
		<path fill="#FFFFFF" d="M1322.175-135.365c1.979,0,1.979-3.068,0-3.068C1320.196-138.433,1320.196-135.365,1322.175-135.365
			L1322.175-135.365z"/>
	</g>
</g>
<g>
	<g>
		<path fill="#FFFFFF" d="M1328.722-141.093c1.979,0,1.979-3.068,0-3.068C1326.743-144.161,1326.743-141.093,1328.722-141.093
			L1328.722-141.093z"/>
	</g>
</g>
<g>
	<g>
		<path fill="#FFFFFF" d="M1337.723-137.41c1.979,0,1.979-3.068,0-3.068C1335.744-140.478,1335.744-137.41,1337.723-137.41
			L1337.723-137.41z"/>
	</g>
</g>
<g>
	<g>
		<path fill="#FFFFFF" d="M1341.814-139.865c1.979,0,1.979-3.068,0-3.068C1339.835-142.933,1339.836-139.865,1341.814-139.865
			L1341.814-139.865z"/>
	</g>
</g>
<g>
	<g>
		<path fill="#FFFFFF" d="M1347.133-132.91c1.979,0,1.979-3.068,0-3.068C1345.154-135.978,1345.154-132.91,1347.133-132.91
			L1347.133-132.91z"/>
	</g>
</g>
<g>
	<g>
		<path fill="#FFFFFF" d="M1341.814-121.045c1.979,0,1.979-3.068,0-3.068C1339.835-124.113,1339.836-121.045,1341.814-121.045
			L1341.814-121.045z"/>
	</g>
</g>
<g>
	<g>
		<path fill="#FFFFFF" d="M1340.996-128.818c1.979,0,1.979-3.068,0-3.068C1339.017-131.886,1339.018-128.818,1340.996-128.818
			L1340.996-128.818z"/>
	</g>
</g>
<g>
	<g>
		<path fill="#FFFFFF" d="M1332.403-126.363c1.979,0,1.979-3.068,0-3.068C1330.424-129.431,1330.425-126.363,1332.403-126.363
			L1332.403-126.363z"/>
	</g>
</g>
<g>
	<g>
		<path fill="#FFFFFF" d="M1348.36-116.544c1.979,0,1.979-3.068,0-3.068C1346.381-119.612,1346.382-116.544,1348.36-116.544
			L1348.36-116.544z"/>
	</g>
</g>
<g>
	<g>
		<path fill="#FFFFFF" d="M1348.36-122.681c1.979,0,1.979-3.068,0-3.068C1346.381-125.749,1346.382-122.681,1348.36-122.681
			L1348.36-122.681z"/>
	</g>
</g>
<g>
	<g>
		<path fill="#FFFFFF" d="M1358.59-123.09c1.979,0,1.979-3.068,0-3.068C1356.611-126.158,1356.611-123.09,1358.59-123.09
			L1358.59-123.09z"/>
	</g>
</g>
<g>
	<g>
		<path fill="#FFFFFF" d="M1353.68-125.954c1.979,0,1.979-3.068,0-3.068C1351.701-129.022,1351.701-125.954,1353.68-125.954
			L1353.68-125.954z"/>
	</g>
</g>
<g>
	<g>
		<path fill="#FFFFFF" d="M1358.999-130.046c1.979,0,1.979-3.068,0-3.068S1357.021-130.046,1358.999-130.046L1358.999-130.046z"/>
	</g>
</g>
<g>
	<g>
		<path fill="#FFFFFF" d="M1368-124.728c1.979,0,1.979-3.068,0-3.068S1366.021-124.728,1368-124.728L1368-124.728z"/>
	</g>
</g>
<g>
	<g>
		<path fill="#FFFFFF" d="M1363.909-116.544c1.979,0,1.979-3.068,0-3.068C1361.93-119.612,1361.931-116.544,1363.909-116.544
			L1363.909-116.544z"/>
	</g>
</g>
<g>
	<g>
		<path fill="#FFFFFF" d="M1355.316-115.726c1.979,0,1.979-3.068,0-3.068C1353.337-118.794,1353.338-115.726,1355.316-115.726
			L1355.316-115.726z"/>
	</g>
</g>
<g>
	<g>
		<path fill="#FFFFFF" d="M1365.954-130.864c1.979,0,1.979-3.068,0-3.068C1363.975-133.932,1363.976-130.864,1365.954-130.864
			L1365.954-130.864z"/>
	</g>
</g>
<g>
	<g>
		<path fill="#FFFFFF" d="M1376.184-130.864c1.979,0,1.979-3.068,0-3.068C1374.205-133.932,1374.205-130.864,1376.184-130.864
			L1376.184-130.864z"/>
	</g>
</g>
<g>
	<g>
		<path fill="#FFFFFF" d="M1376.184-123.09c1.979,0,1.979-3.068,0-3.068C1374.205-126.158,1374.205-123.09,1376.184-123.09
			L1376.184-123.09z"/>
	</g>
</g>
<g>
	<g>
		<path fill="#FFFFFF" d="M1371.683-115.316c1.979,0,1.979-3.068,0-3.068C1369.704-118.384,1369.704-115.316,1371.683-115.316
			L1371.683-115.316z"/>
	</g>
</g>
<g>
	<g>
		<path fill="#FFFFFF" d="M1380.684-118.181c1.979,0,1.979-3.068,0-3.068C1378.705-121.249,1378.705-118.181,1380.684-118.181
			L1380.684-118.181z"/>
	</g>
</g>
<g>
	<g>
		<path fill="#FFFFFF" d="M1386.003-121.862c1.979,0,1.979-3.068,0-3.068C1384.024-124.93,1384.024-121.862,1386.003-121.862
			L1386.003-121.862z"/>
	</g>
</g>
<g>
	<g>
		<path fill="#FFFFFF" d="M1382.321-127.182c1.979,0,1.979-3.068,0-3.068C1380.342-130.25,1380.343-127.182,1382.321-127.182
			L1382.321-127.182z"/>
	</g>
</g>
<g>
	<g>
		<path fill="#FFFFFF" d="M1381.502-133.728c1.979,0,1.979-3.068,0-3.068S1379.523-133.728,1381.502-133.728L1381.502-133.728z"/>
	</g>
</g>
<g>
	<g>
		<path fill="#FFFFFF" d="M1382.321-138.638c1.979,0,1.979-3.068,0-3.068C1380.342-141.706,1380.343-138.638,1382.321-138.638
			L1382.321-138.638z"/>
	</g>
</g>
<g>
	<g>
		<path fill="#FFFFFF" d="M1377.411-137.819c1.979,0,1.979-3.068,0-3.068C1375.432-140.887,1375.433-137.819,1377.411-137.819
			L1377.411-137.819z"/>
	</g>
</g>
<g>
	<g>
		<path fill="#FFFFFF" d="M1370.046-134.955c1.979,0,1.979-3.068,0-3.068C1368.067-138.023,1368.067-134.955,1370.046-134.955
			L1370.046-134.955z"/>
	</g>
</g>
<g>
	<g>
		<path fill="#FFFFFF" d="M1354.089-134.138c1.979,0,1.979-3.068,0-3.068C1352.11-137.206,1352.11-134.138,1354.089-134.138
			L1354.089-134.138z"/>
	</g>
</g>
<g>
	<g>
		<path fill="#FFFFFF" d="M1341.405-179.144c1.979,0,1.979-3.068,0-3.068C1339.426-182.212,1339.427-179.144,1341.405-179.144
			L1341.405-179.144z"/>
	</g>
</g>
<g>
	<g>
		<path fill="#FFFFFF" d="M1342.633-191.828c1.979,0,1.979-3.068,0-3.068C1340.654-194.896,1340.654-191.828,1342.633-191.828
			L1342.633-191.828z"/>
	</g>
</g>
<g>
	<g>
		<path fill="#FFFFFF" d="M1343.042-203.693c1.979,0,1.979-3.068,0-3.068S1341.062-203.693,1343.042-203.693L1343.042-203.693z"/>
	</g>
</g>
<g>
	<g>
		<path fill="#FFFFFF" d="M1387.64-165.642c1.979,0,1.979-3.068,0-3.068C1385.661-168.71,1385.661-165.642,1387.64-165.642
			L1387.64-165.642z"/>
	</g>
</g>
<g>
	<g>
		<path fill="#FFFFFF" d="M1385.594-176.28c1.979,0,1.979-3.068,0-3.068C1383.615-179.348,1383.615-176.28,1385.594-176.28
			L1385.594-176.28z"/>
	</g>
</g>
<g>
	<g>
		<path fill="#FFFFFF" d="M1378.639-181.599c1.979,0,1.979-3.068,0-3.068C1376.66-184.667,1376.66-181.599,1378.639-181.599
			L1378.639-181.599z"/>
	</g>
</g>
<g>
	<g>
		<path fill="#FFFFFF" d="M1370.864-185.691c1.979,0,1.979-3.068,0-3.068C1368.885-188.759,1368.886-185.691,1370.864-185.691
			L1370.864-185.691z"/>
	</g>
</g>
<g>
	<g>
		<path fill="#FFFFFF" d="M1370.864-192.237c1.979,0,1.979-3.068,0-3.068C1368.885-195.305,1368.886-192.237,1370.864-192.237
			L1370.864-192.237z"/>
	</g>
</g>
<g>
	<g>
		<path fill="#FFFFFF" d="M1365.137-187.736c1.979,0,1.979-3.068,0-3.068C1363.158-190.804,1363.158-187.736,1365.137-187.736
			L1365.137-187.736z"/>
	</g>
</g>
<g>
	<g>
		<path fill="#FFFFFF" d="M1369.229-206.148c1.979,0,1.979-3.068,0-3.068C1367.249-209.216,1367.249-206.148,1369.229-206.148
			L1369.229-206.148z"/>
	</g>
</g>
<g>
	<g>
		<path fill="#FFFFFF" d="M1372.501-199.602c1.979,0,1.979-3.068,0-3.068S1370.521-199.602,1372.501-199.602L1372.501-199.602z"/>
	</g>
</g>
<g>
	<g>
		<path fill="#FFFFFF" d="M1376.184-204.512c1.979,0,1.979-3.068,0-3.068C1374.205-207.58,1374.205-204.512,1376.184-204.512
			L1376.184-204.512z"/>
	</g>
</g>
<g>
	<g>
		<path fill="#FFFFFF" d="M1383.139-202.057c1.979,0,1.979-3.068,0-3.068C1381.16-205.125,1381.16-202.057,1383.139-202.057
			L1383.139-202.057z"/>
	</g>
</g>
<g>
	<g>
		<path fill="#FFFFFF" d="M1392.141-125.954c1.979,0,1.979-3.068,0-3.068C1390.162-129.022,1390.162-125.954,1392.141-125.954
			L1392.141-125.954z"/>
	</g>
</g>
<g>
	<g>
		<path fill="#FFFFFF" d="M1391.73-131.273c1.979,0,1.979-3.068,0-3.068C1389.752-134.341,1389.753-131.273,1391.73-131.273
			L1391.73-131.273z"/>
	</g>
</g>
<g>
	<g>
		<path fill="#FFFFFF" d="M1391.73-141.911c1.979,0,1.979-3.069,0-3.069C1389.752-144.98,1389.753-141.911,1391.73-141.911
			L1391.73-141.911z"/>
	</g>
</g>
<g>
	<g>
		<path fill="#FFFFFF" d="M1387.64-135.365c1.979,0,1.979-3.068,0-3.068C1385.661-138.433,1385.661-135.365,1387.64-135.365
			L1387.64-135.365z"/>
	</g>
</g>
<g>
	<g>
		<path fill="#FFFFFF" d="M1387.64-143.548c1.979,0,1.979-3.068,0-3.068C1385.661-146.616,1385.661-143.548,1387.64-143.548
			L1387.64-143.548z"/>
	</g>
</g>
<g>
	<g>
		<path fill="#FFFFFF" d="M1387.64-151.322c1.979,0,1.979-3.068,0-3.068C1385.661-154.39,1385.661-151.322,1387.64-151.322
			L1387.64-151.322z"/>
	</g>
</g>
<g>
	<g>
		<path fill="#FFFFFF" d="M1381.911-145.594c1.979,0,1.979-3.068,0-3.068C1379.932-148.662,1379.933-145.594,1381.911-145.594
			L1381.911-145.594z"/>
	</g>
</g>
<g>
	<g>
		<path fill="#FFFFFF" d="M1361.454-135.365c1.979,0,1.979-3.068,0-3.068C1359.475-138.433,1359.476-135.365,1361.454-135.365
			L1361.454-135.365z"/>
	</g>
</g>
<g>
	<g>
		<path fill="#FFFFFF" d="M1347.543-138.229c1.979,0,1.979-3.068,0-3.068S1345.564-138.229,1347.543-138.229L1347.543-138.229z"/>
	</g>
</g>
<g>
	<g>
		<path fill="#FFFFFF" d="M1331.176-182.008c1.979,0,1.979-3.068,0-3.068C1329.197-185.076,1329.197-182.008,1331.176-182.008
			L1331.176-182.008z"/>
	</g>
</g>
<g>
	<g>
		<path fill="#FFFFFF" d="M1324.221-161.142c1.979,0,1.979-3.068,0-3.068C1322.242-164.21,1322.242-161.142,1324.221-161.142
			L1324.221-161.142z"/>
	</g>
</g>
<g>
	<g>
		<path fill="#FFFFFF" d="M1321.766-150.094c1.979,0,1.979-3.068,0-3.068C1319.787-153.162,1319.787-150.094,1321.766-150.094
			L1321.766-150.094z"/>
	</g>
</g>
<g>
	<g>
		<path fill="#FFFFFF" d="M1313.174-151.322c1.979,0,1.979-3.068,0-3.068C1311.195-154.39,1311.195-151.322,1313.174-151.322
			L1313.174-151.322z"/>
	</g>
</g>
<g>
	<g>
		<path fill="#FFFFFF" d="M1313.174-160.732c1.979,0,1.979-3.068,0-3.068C1311.195-163.8,1311.195-160.732,1313.174-160.732
			L1313.174-160.732z"/>
	</g>
</g>
<g>
	<g>
		<path fill="#FFFFFF" d="M1398.688-134.955c1.979,0,1.979-3.068,0-3.068C1396.708-138.023,1396.708-134.955,1398.688-134.955
			L1398.688-134.955z"/>
	</g>
</g>
<g>
	<g>
		<path fill="#FFFFFF" d="M1398.688-139.457c1.979,0,1.979-3.068,0-3.068C1396.708-142.525,1396.708-139.457,1398.688-139.457
			L1398.688-139.457z"/>
	</g>
</g>
<g>
	<g>
		<path fill="#FFFFFF" d="M1397.868-146.412c1.979,0,1.979-3.068,0-3.068C1395.889-149.48,1395.89-146.412,1397.868-146.412
			L1397.868-146.412z"/>
	</g>
</g>
<g>
	<g>
		<path fill="#FFFFFF" d="M1392.549-148.049c1.979,0,1.979-3.068,0-3.068C1390.57-151.117,1390.57-148.049,1392.549-148.049
			L1392.549-148.049z"/>
	</g>
</g>
<g>
	<g>
		<path fill="#FFFFFF" d="M1392.549-156.232c1.979,0,1.979-3.068,0-3.068C1390.57-159.3,1390.57-156.232,1392.549-156.232
			L1392.549-156.232z"/>
	</g>
</g>
<g>
	<g>
		<path fill="#FFFFFF" d="M1387.64-159.914c1.979,0,1.979-3.068,0-3.068C1385.661-162.982,1385.661-159.914,1387.64-159.914
			L1387.64-159.914z"/>
	</g>
</g>
<g>
	<g>
		<path fill="#FFFFFF" d="M1393.368-159.914c1.979,0,1.979-3.068,0-3.068C1391.389-162.982,1391.39-159.914,1393.368-159.914
			L1393.368-159.914z"/>
	</g>
</g>
<g>
	<g>
		<path fill="#FFFFFF" d="M1393.368-168.506c1.979,0,1.979-3.068,0-3.068C1391.389-171.574,1391.39-168.506,1393.368-168.506
			L1393.368-168.506z"/>
	</g>
</g>
<g>
	<g>
		<path fill="#FFFFFF" d="M1390.504-172.188c1.979,0,1.979-3.068,0-3.068C1388.525-175.256,1388.525-172.188,1390.504-172.188
			L1390.504-172.188z"/>
	</g>
</g>
<g>
	<g>
		<path fill="#FFFFFF" d="M1386.003-181.19c1.979,0,1.979-3.068,0-3.068C1384.024-184.258,1384.024-181.19,1386.003-181.19
			L1386.003-181.19z"/>
	</g>
</g>
<g>
	<g>
		<path fill="#FFFFFF" d="M1383.548-186.1c1.979,0,1.979-3.068,0-3.068C1381.569-189.168,1381.569-186.1,1383.548-186.1
			L1383.548-186.1z"/>
	</g>
</g>
<g>
	<g>
		<path fill="#FFFFFF" d="M1377.002-189.373c1.979,0,1.979-3.068,0-3.068S1375.023-189.373,1377.002-189.373L1377.002-189.373z"/>
	</g>
</g>
<g>
	<g>
		<path fill="#FFFFFF" d="M1377.411-194.283c1.979,0,1.979-3.068,0-3.068C1375.432-197.351,1375.433-194.283,1377.411-194.283
			L1377.411-194.283z"/>
	</g>
</g>
<g>
	<g>
		<path fill="#FFFFFF" d="M1383.548-194.283c1.979,0,1.979-3.068,0-3.068C1381.569-197.351,1381.569-194.283,1383.548-194.283
			L1383.548-194.283z"/>
	</g>
</g>
<g>
	<g>
		<path fill="#FFFFFF" d="M1389.686-193.874c1.979,0,1.979-3.068,0-3.068C1387.707-196.942,1387.707-193.874,1389.686-193.874
			L1389.686-193.874z"/>
	</g>
</g>
<g>
	<g>
		<path fill="#FFFFFF" d="M1389.686-200.011c1.979,0,1.979-3.068,0-3.068C1387.707-203.079,1387.707-200.011,1389.686-200.011
			L1389.686-200.011z"/>
	</g>
</g>
<g>
	<g>
		<path fill="#FFFFFF" d="M1403.597-142.729c1.979,0,1.979-3.068,0-3.068C1401.618-145.797,1401.618-142.729,1403.597-142.729
			L1403.597-142.729z"/>
	</g>
</g>
<g>
	<g>
		<path fill="#FFFFFF" d="M1404.006-148.458c1.979,0,1.979-3.068,0-3.068C1402.027-151.526,1402.027-148.458,1404.006-148.458
			L1404.006-148.458z"/>
	</g>
</g>
<g>
	<g>
		<path fill="#FFFFFF" d="M1399.096-152.14c1.979,0,1.979-3.068,0-3.068C1397.117-155.208,1397.117-152.14,1399.096-152.14
			L1399.096-152.14z"/>
	</g>
</g>
<g>
	<g>
		<path fill="#FFFFFF" d="M1399.096-159.505c1.979,0,1.979-3.068,0-3.068C1397.117-162.573,1397.117-159.505,1399.096-159.505
			L1399.096-159.505z"/>
	</g>
</g>
<g>
	<g>
		<path fill="#FFFFFF" d="M1404.824-155.413c1.979,0,1.979-3.068,0-3.068C1402.845-158.481,1402.846-155.413,1404.824-155.413
			L1404.824-155.413z"/>
	</g>
</g>
<g>
	<g>
		<path fill="#FFFFFF" d="M1407.688-162.369c1.979,0,1.979-3.068,0-3.068C1405.709-165.437,1405.71-162.369,1407.688-162.369
			L1407.688-162.369z"/>
	</g>
</g>
<g>
	<g>
		<path fill="#FFFFFF" d="M1402.778-165.233c1.979,0,1.979-3.068,0-3.068C1400.799-168.301,1400.8-165.233,1402.778-165.233
			L1402.778-165.233z"/>
	</g>
</g>
<g>
	<g>
		<path fill="#FFFFFF" d="M1397.051-165.642c1.979,0,1.979-3.068,0-3.068C1395.072-168.71,1395.072-165.642,1397.051-165.642
			L1397.051-165.642z"/>
	</g>
</g>
<g>
	<g>
		<path fill="#FFFFFF" d="M1396.641-173.825c1.979,0,1.979-3.068,0-3.068C1394.662-176.893,1394.662-173.825,1396.641-173.825
			L1396.641-173.825z"/>
	</g>
</g>
<g>
	<g>
		<path fill="#FFFFFF" d="M1391.73-177.917c1.979,0,1.979-3.068,0-3.068C1389.752-180.985,1389.753-177.917,1391.73-177.917
			L1391.73-177.917z"/>
	</g>
</g>
<g>
	<g>
		<path fill="#FFFFFF" d="M1390.913-183.236c1.979,0,1.979-3.068,0-3.068C1388.934-186.304,1388.936-183.236,1390.913-183.236
			L1390.913-183.236z"/>
	</g>
</g>
<g>
	<g>
		<path fill="#FFFFFF" d="M1389.686-187.327c1.979,0,1.979-3.068,0-3.068C1387.707-190.395,1387.707-187.327,1389.686-187.327
			L1389.686-187.327z"/>
	</g>
</g>
<g>
	<g>
		<path fill="#FFFFFF" d="M1394.596-189.782c1.979,0,1.979-3.068,0-3.068C1392.617-192.85,1392.617-189.782,1394.596-189.782
			L1394.596-189.782z"/>
	</g>
</g>
<g>
	<g>
		<path fill="#FFFFFF" d="M1407.688-169.734c1.979,0,1.979-3.068,0-3.068C1405.709-172.802,1405.71-169.734,1407.688-169.734
			L1407.688-169.734z"/>
	</g>
</g>
<g>
	<g>
		<path fill="#FFFFFF" d="M1406.461-175.053c1.979,0,1.979-3.068,0-3.068C1404.482-178.121,1404.482-175.053,1406.461-175.053
			L1406.461-175.053z"/>
	</g>
</g>
<g>
	<g>
		<path fill="#FFFFFF" d="M1404.006-181.19c1.979,0,1.979-3.068,0-3.068C1402.027-184.258,1402.027-181.19,1404.006-181.19
			L1404.006-181.19z"/>
	</g>
</g>
<g>
	<g>
		<path fill="#FFFFFF" d="M1401.142-186.509c1.979,0,1.979-3.068,0-3.068C1399.163-189.577,1399.163-186.509,1401.142-186.509
			L1401.142-186.509z"/>
	</g>
</g>
<g>
	<g>
		<path fill="#FFFFFF" d="M1397.051-182.827c1.979,0,1.979-3.068,0-3.068C1395.072-185.895,1395.072-182.827,1397.051-182.827
			L1397.051-182.827z"/>
	</g>
</g>
<g>
	<g>
		<path fill="#FFFFFF" d="M1401.96-170.961c1.979,0,1.979-3.068,0-3.068S1399.98-170.961,1401.96-170.961L1401.96-170.961z"/>
	</g>
</g>
<g>
	<g>
		<path fill="#FFFFFF" d="M1400.732-176.689c1.979,0,1.979-3.068,0-3.068C1398.753-179.757,1398.754-176.689,1400.732-176.689
			L1400.732-176.689z"/>
	</g>
</g>
<g>
	<g>
		<path fill="#FFFFFF" d="M1352.452-185.691c1.979,0,1.979-3.068,0-3.068C1350.473-188.759,1350.474-185.691,1352.452-185.691
			L1352.452-185.691z"/>
	</g>
</g>
<g>
	<g>
		<path fill="#FFFFFF" d="M1352.043-194.283c1.979,0,1.979-3.068,0-3.068S1350.064-194.283,1352.043-194.283L1352.043-194.283z"/>
	</g>
</g>
<g>
	<g>
		<path fill="#FFFFFF" d="M1351.634-200.83c1.979,0,1.979-3.068,0-3.068C1349.655-203.898,1349.655-200.83,1351.634-200.83
			L1351.634-200.83z"/>
	</g>
</g>
<g>
	<g>
		<path fill="#FFFFFF" d="M1340.178-182.417c1.979,0,1.979-3.068,0-3.068C1338.199-185.485,1338.199-182.417,1340.178-182.417
			L1340.178-182.417z"/>
	</g>
</g>
<g>
	<g>
		<path fill="#FFFFFF" d="M1334.858-169.734c1.979,0,1.979-3.068,0-3.068C1332.879-172.802,1332.88-169.734,1334.858-169.734
			L1334.858-169.734z"/>
	</g>
</g>
<g>
	<g>
		<path fill="#FFFFFF" d="M1327.494-172.598c1.979,0,1.979-3.068,0-3.068C1325.515-175.666,1325.516-172.598,1327.494-172.598
			L1327.494-172.598z"/>
	</g>
</g>
<g>
	<g>
		<path fill="#FFFFFF" d="M1320.129-175.871c1.979,0,1.979-3.068,0-3.068C1318.15-178.939,1318.15-175.871,1320.129-175.871
			L1320.129-175.871z"/>
	</g>
</g>
<g>
	<g>
		<path fill="#FFFFFF" d="M1326.676-127.182c1.979,0,1.979-3.068,0-3.068C1324.697-130.25,1324.697-127.182,1326.676-127.182
			L1326.676-127.182z"/>
	</g>
</g>
<g>
	<g>
		<path fill="#FFFFFF" d="M1336.086-120.636c1.979,0,1.979-3.068,0-3.068C1334.107-123.704,1334.107-120.636,1336.086-120.636
			L1336.086-120.636z"/>
	</g>
</g>
<g>
	<g>
		<path fill="#FFFFFF" d="M1336.086-131.683c1.979,0,1.979-3.068,0-3.068C1334.107-134.751,1334.107-131.683,1336.086-131.683
			L1336.086-131.683z"/>
	</g>
</g>
<g>
	<g>
		<path fill="#FFFFFF" d="M1329.131-147.23c1.979,0,1.979-3.068,0-3.068C1327.152-150.298,1327.152-147.23,1329.131-147.23
			L1329.131-147.23z"/>
	</g>
</g>
<g>
	<g>
		<path fill="#FFFFFF" d="M1331.586-159.505c1.979,0,1.979-3.068,0-3.068C1329.607-162.573,1329.607-159.505,1331.586-159.505
			L1331.586-159.505z"/>
	</g>
</g>
<g>
	<g>
		<path fill="#FFFFFF" d="M1313.174-169.324c1.979,0,1.979-3.068,0-3.068C1311.195-172.392,1311.195-169.324,1313.174-169.324
			L1313.174-169.324z"/>
	</g>
</g>
<g>
	<g>
		<path fill="#FFFFFF" d="M1336.086-191.828c1.979,0,1.979-3.068,0-3.068C1334.107-194.896,1334.107-191.828,1336.086-191.828
			L1336.086-191.828z"/>
	</g>
</g>
<g>
	<g>
		<path fill="#FFFFFF" d="M1327.085-186.509c1.979,0,1.979-3.068,0-3.068S1325.105-186.509,1327.085-186.509L1327.085-186.509z"/>
	</g>
</g>
<g>
	<g>
		<path fill="#FFFFFF" d="M1317.266-181.19c1.979,0,1.979-3.068,0-3.068C1315.287-184.258,1315.287-181.19,1317.266-181.19
			L1317.266-181.19z"/>
	</g>
</g>
<g>
	<g>
		<path fill="#FFFFFF" d="M1364.317-202.466c1.979,0,1.979-3.068,0-3.068C1362.338-205.534,1362.339-202.466,1364.317-202.466
			L1364.317-202.466z"/>
	</g>
</g>
<g>
	<g>
		<path fill="#FFFFFF" d="M1361.862-191.01c1.979,0,1.979-3.068,0-3.068C1359.883-194.078,1359.884-191.01,1361.862-191.01
			L1361.862-191.01z"/>
	</g>
</g>
<path fill="#BFA27F" stroke="#132B3F" stroke-width="12.044" stroke-miterlimit="10" d="M1349.837,26.567
	c31.646,0,57.3-25.653,57.3-57.3s-25.652-57.301-57.3-57.301c-31.646,0-57.3,25.653-57.3,57.301
	C1292.537,0.914,1318.191,26.567,1349.837,26.567z"/>
<g>
	<g>
		<path fill="#EFE578" d="M1331.395-54.962c-1.982,2.168-3.514,4.788-4.646,7.692c-1.058,2.714-1.767,5.676-2.171,8.749
			c-0.387,2.945-0.493,5.991-0.356,9.019c0.139,3.048,0.521,6.076,1.114,8.961c0.636,3.1,1.513,6.034,2.581,8.649
			c1.276,3.123,2.827,5.791,4.57,7.742c2.223,2.487,5.373,4.368,9.068,5.673c3.196,1.127,6.803,1.823,10.57,2.104
			c3.521,0.263,7.185,0.164,10.789-0.282c3.637-0.45,7.213-1.253,10.522-2.395c3.598-1.241,6.881-2.881,9.586-4.902
			c3.084-2.302,5.418-5.099,6.608-8.361c0.962-2.633,1.82-5.378,2.515-8.175c0.689-2.774,1.219-5.6,1.527-8.413
			c0.316-2.881,0.402-5.751,0.196-8.543c-0.215-2.897-0.744-5.712-1.659-8.371c-0.924-2.686-2.242-5.212-4.025-7.505
			c-1.667-2.144-3.74-4.082-6.28-5.755c-2.459-1.619-5.214-2.936-8.15-3.942c-2.812-0.965-5.789-1.645-8.832-2.034
			c-2.989-0.383-6.041-0.484-9.062-0.3c-3.049,0.187-6.063,0.665-8.946,1.443c-2.979,0.804-5.816,1.927-8.403,3.376
			C1335.83-59.029,1333.416-57.175,1331.395-54.962z"/>
	</g>
</g>
<ellipse fill="#FFFFFF" cx="1313.104" cy="-31.609" rx="6.91" ry="17.184"/>
<path fill="#EFCC9A" stroke="#1E416B" stroke-width="15" stroke-miterlimit="10" d="M224.243,68.437
	c-54.739,0-99.113,44.373-99.113,99.113c0,54.738,44.374,99.113,99.113,99.113c54.739,0,99.113-44.375,99.113-99.113
	C323.356,112.81,278.982,68.437,224.243,68.437z M224.243,197.343c-16.456,0-29.796-13.338-29.796-29.793
	c0-16.457,13.34-29.795,29.796-29.795s29.796,13.338,29.796,29.795C254.039,184.005,240.699,197.343,224.243,197.343z"/>
<g>
	<path fill="#F288A9" d="M162.423,113.773c-4.679,5.119-14.972,7.153-17.644,14.008c-2.498,6.408,3.52,15.375,2.565,22.629
		c-0.913,6.953-9.126,13.804-8.804,20.95c0.325,7.195,9.146,13.358,10.543,20.167c1.502,7.317-4.052,16.561-1.529,22.733
		c3.014,7.377,13.361,9.5,17.479,14.106c5.247,5.87,8.37,16.75,17.097,19.829c7.547,2.662,17.688-3.457,26.584-2.793
		c8.312,0.62,17.154,8.347,25.664,7.293c8.583-1.062,15.23-10.71,23.046-13.404c8.492-2.929,19.942,0.186,26.33-4.585
		c7.279-5.436,6.638-16.615,9.45-24.317c2.271-6.215,11.936-10.36,13.575-16.961c1.628-6.551-4.983-14.621-4.253-21.264
		c0.746-6.801,8.916-13.434,8.429-20.026c-0.506-6.839-9.526-11.888-11.688-18.165c-2.182-6.341,1.646-16.065-2.563-21.478
		c-3.937-5.06-14.188-3.839-20.186-7.788c-5.805-3.822-8.812-14.055-15.744-16.432c-6.637-2.276-15.472,3.87-22.655,2.951
		c-7.057-0.903-13.998-9.104-21.125-8.669c-7.198,0.44-13.03,9.425-19.837,11.262c-7.031,1.897-16.727-2.804-22.833,0.617
		C167.988,97.984,167.198,108.549,162.423,113.773z"/>
</g>
<line fill="none" stroke="#F8CACD" stroke-width="13" stroke-linecap="round" stroke-miterlimit="10" x1="161.34" y1="178.755" x2="153.357" y2="163.876"/>
<line fill="none" stroke="#1ACFE2" stroke-width="13" stroke-linecap="round" stroke-miterlimit="10" x1="215.299" y1="96.339" x2="200.245" y2="103.986"/>
<line fill="none" stroke="#FFFFFF" stroke-width="13" stroke-linecap="round" stroke-miterlimit="10" x1="278.615" y1="139.172" x2="290.09" y2="126.786"/>
<line fill="none" stroke="#B7E5CF" stroke-width="13" stroke-linecap="round" stroke-miterlimit="10" x1="208.09" y1="233.75" x2="224.053" y2="239.25"/>
<line fill="none" stroke="#EFE578" stroke-width="13" stroke-linecap="round" stroke-miterlimit="10" x1="258.782" y1="211.755" x2="251.336" y2="226.908"/>
<line fill="none" stroke="#FFFFFF" stroke-width="13" stroke-linecap="round" stroke-miterlimit="10" x1="176.717" y1="218.564" x2="187.504" y2="205.576"/>
<line fill="none" stroke="#B7E5CF" stroke-width="13" stroke-linecap="round" stroke-miterlimit="10" x1="164.796" y1="133.333" x2="176.998" y2="138.079"/>
<line fill="none" stroke="#B7E5CF" stroke-width="13" stroke-linecap="round" stroke-miterlimit="10" x1="247.84" y1="100.35" x2="260.042" y2="105.096"/>
<line fill="none" stroke="#F8CACD" stroke-width="13" stroke-linecap="round" stroke-miterlimit="10" x1="282.704" y1="176.929" x2="295.063" y2="188.431"/>
<path fill="#EFEFEF" stroke="#1E416B" stroke-width="15" stroke-miterlimit="10" d="M259.683,179.087
	c0,17.814-14.442,32.255-32.258,32.255c-17.816,0-32.258-14.44-32.258-32.255c0,0,14.139-1.003,31.954-1.003
	C244.938,178.084,259.683,179.087,259.683,179.087z"/>
<circle fill="#EFEFEF" stroke="#1E416B" stroke-width="15" stroke-miterlimit="10" cx="203.683" cy="139.829" r="11.795"/>
<circle fill="#EFEFEF" stroke="#1E416B" stroke-width="15" stroke-miterlimit="10" cx="245.562" cy="137.772" r="11.795"/>
<line fill="none" stroke="#1E416B" stroke-width="15" stroke-miterlimit="10" x1="192.083" y1="261.325" x2="192.083" y2="392.622"/>
<line fill="none" stroke="#1E416B" stroke-width="15" stroke-miterlimit="10" x1="248.2" y1="263.741" x2="248.2" y2="390.622"/>
<g>
	<path fill="#FFFFFF" d="M150.602,429.557c-13.077,0-23.717-10.641-23.717-23.717c0-13.077,10.64-23.717,23.717-23.717h20.555
		l0.232-11.879c0.08-4.084,3.414-7.354,7.499-7.354h24.891c1.995,0,3.909,0.795,5.316,2.211c1.407,1.414,2.193,3.332,2.184,5.326
		l-0.096,19.232v32.395c0,4.145-3.357,7.5-7.5,7.5h-53.081V429.557z"/>
	<path fill="#1E416B" d="M203.778,370.392l-0.096,19.231v32.434h-53.081c-8.957,0-16.217-7.26-16.217-16.217
		s7.26-16.217,16.217-16.217h27.909l0.377-19.231H203.778 M203.778,355.392h-24.891c-8.17,0-14.837,6.539-14.997,14.707
		l-0.089,4.524h-13.2c-17.213,0-31.217,14.004-31.217,31.217s14.004,31.217,31.217,31.217h53.081c8.284,0,15-6.717,15-15v-32.395
		l0.096-19.195c0.02-3.99-1.552-7.824-4.367-10.654S207.77,355.392,203.778,355.392L203.778,355.392z"/>
</g>
<path fill="none" stroke="#1E416B" stroke-width="15" stroke-miterlimit="10" d="M128.612,201.551
	c-45.447,0-36.447,36.072-36.447,120.073"/>
<g>
	<path fill="#EFCC9A" d="M94.743,357.499c-11.787,0-21.377-9.59-21.377-21.377v-45.42c0-4.143,3.358-7.5,7.5-7.5h27.754
		c2.431,0,4.592,1.156,5.962,2.949l17.187,14.973c3.019,2.631,4.833,6.277,5.107,10.271c0.275,3.994-1.021,7.855-3.652,10.873
		c-2.846,3.268-6.966,5.143-11.302,5.143c-2.008,0-3.979-0.402-5.802-1.17v9.881C116.12,347.909,106.53,357.499,94.743,357.499z"/>
	<path fill="#1E416B" d="M108.62,290.702v0.201l10.851,9.453l7.372,6.422c3.118,2.717,3.443,7.445,0.727,10.564
		c-1.48,1.699-3.559,2.568-5.647,2.568c-1.745,0-3.497-0.605-4.916-1.843l-8.386-7.308V318v18.119
		c0,7.666-6.212,13.877-13.877,13.877c-7.664,0-13.877-6.211-13.877-13.877V290.7h27.753 M108.62,275.702H80.866
		c-8.284,0-15,6.715-15,15v45.42c0,15.924,12.954,28.877,28.877,28.877c15.923,0,28.877-12.953,28.877-28.877v-1.274
		c5.874-0.443,11.362-3.179,15.261-7.652c3.944-4.526,5.89-10.321,5.478-16.313s-3.133-11.465-7.662-15.41l-7.373-6.424l-9.34-8.137
		C117.232,277.72,113.162,275.702,108.62,275.702L108.62,275.702z"/>
</g>
<circle fill="#F288A9" cx="187.683" cy="398.623" r="7.798"/>
<line fill="none" stroke="#D8D6D6" stroke-width="15" stroke-linejoin="round" stroke-miterlimit="10" x1="207.183" y1="418.622" x2="129.683" y2="418.622"/>
<g>
	<path fill="#1E416B" d="M203.778,370.392l-0.096,19.231v32.434h-53.081c-8.957,0-16.217-7.26-16.217-16.217
		s7.26-16.217,16.217-16.217h27.909l0.377-19.231H203.778 M203.778,355.392h-24.891c-8.17,0-14.837,6.539-14.997,14.707
		l-0.089,4.524h-13.2c-17.213,0-31.217,14.004-31.217,31.217s14.004,31.217,31.217,31.217h53.081c8.284,0,15-6.717,15-15v-32.395
		l0.096-19.195c0.02-3.99-1.552-7.824-4.367-10.654S207.77,355.392,203.778,355.392L203.778,355.392z"/>
</g>
<g>
	<path fill="#FFFFFF" d="M236.683,429.557c-4.143,0-7.5-3.355-7.5-7.5v-32.434l-0.096-19.194c-0.01-1.994,0.776-3.912,2.184-5.326
		c1.407-1.416,3.321-2.211,5.316-2.211h24.891c4.085,0,7.419,3.271,7.499,7.354l0.232,11.879h20.556
		c13.076,0,23.717,10.639,23.717,23.717c0,13.076-10.641,23.717-23.717,23.717h-53.082V429.557z"/>
	<path fill="#1E416B" d="M261.478,370.392l0.377,19.231h27.91c8.957,0,16.217,7.26,16.217,16.217s-7.26,16.217-16.217,16.217
		h-53.082v-32.434l-0.096-19.231H261.478 M261.478,355.392h-24.891c-3.991,0-7.817,1.592-10.633,4.42
		c-2.815,2.83-4.387,6.664-4.367,10.653l0.096,19.195v32.396c0,8.283,6.716,15,15,15h53.082c17.212,0,31.217-14.004,31.217-31.217
		s-14.005-31.217-31.217-31.217h-13.201l-0.089-4.525C276.314,361.931,269.647,355.392,261.478,355.392L261.478,355.392z"/>
</g>
<circle fill="#F288A9" cx="252.683" cy="398.623" r="7.798"/>
<line fill="none" stroke="#D8D6D6" stroke-width="15" stroke-linejoin="round" stroke-miterlimit="10" x1="233.183" y1="418.622" x2="310.683" y2="418.622"/>
<g>
	<path fill="#1E416B" d="M261.478,370.392l0.377,19.231h27.91c8.957,0,16.217,7.26,16.217,16.217s-7.26,16.217-16.217,16.217
		h-53.082v-32.434l-0.096-19.231H261.478 M261.478,355.392h-24.891c-3.991,0-7.817,1.592-10.633,4.42
		c-2.815,2.83-4.387,6.664-4.367,10.653l0.096,19.195v32.396c0,8.283,6.716,15,15,15h53.082c17.212,0,31.217-14.004,31.217-31.217
		s-14.005-31.217-31.217-31.217h-13.201l-0.089-4.525C276.314,361.931,269.647,355.392,261.478,355.392L261.478,355.392z"/>
</g>
<text transform="matrix(1 0 0 1 -40.7393 -241.4878)" font-family="'MyriadPro-Regular'" font-size="12">JS</text>
<path fill="#1A3F6D" d="M457.415,98.625c6.597-3.864,12.456-8.475,17.217-14.199c9.959-11.982,19.691-24.155,29.4-36.341
	c2.96-3.713,8.788-3.083,11.343-0.509c1.484,1.496,2.024,3.134,0.521,5.012c-1.908,2.386-3.729,4.839-5.631,7.233
	c-3.064,3.858-3.518,8.086-1.897,12.642c2.414,6.806,4.104,13.689,1.958,20.971c-0.17,0.397,0.509,0.838,0.879,0.552
	c0.372-0.286,4.39-3.178,6.724-5.86c2.332-2.682,4.091-4.824,6.448-7.646c2.825-3.379,7.761-3.167,8.67-1.65
	c1.048,1.749-0.12,4.396-0.379,5.013c-2.229,5.321-5.626,8.503-9.615,12.509c-8.201,8.233-18.02,12.686-29.681,13.233
	c-4.425,0.207-8.724,0.402-12.895-1.525c-3.345-1.546-5.682-4.02-7.354-7.385c-3.088,2.091-5.875,4.215-8.881,5.958
	c-4.598,2.665-9.379,4.999-13.996,7.625c-1.209,0.69-2.354,1.782-3.099,2.962c-2.967,4.696-5.468,9.711-8.694,14.209
	c-3.603,5.021-8.795,8.141-14.992,8.764c-3.813,0.383-7.603-0.646-9.865-4.242c-2.117-3.365-1.072-6.684,0.858-9.72
	c3.418-5.369,8.266-9.147,13.933-11.905c3.163-1.54,6.408-2.911,9.564-4.465c0.784-0.386,1.604-1.055,2.008-1.807
	c3.515-6.56,6.969-13.15,10.381-19.763c5.029-9.75,9.978-19.541,15.021-29.282c2.159-4.174,5.683-5.866,10.353-5.194
	c2.867,0.41,4.104,2.271,2.839,4.8c-2.521,5.041-5.266,9.97-7.912,14.948c-4.268,8.022-8.532,16.045-12.797,24.074
	C457.674,97.952,457.555,98.296,457.415,98.625z M494.753,76.034c-3.73,4.538-7.055,8.644-10.453,12.686
	c-2.488,2.958-1.687,6.459,0.35,8.986c3.226,4.003,8.74,3.61,10.979-0.907C499.011,89.976,497.239,83.31,494.753,76.034z
	 M424.045,130.942c2.429-0.581,5.529-4.039,6.305-6.872C426.698,125.227,423.994,128.097,424.045,130.942z"/>
<path fill="#1A3F6D" d="M479.268,45.552c-4.341,0.006-5.623-2.054-3.535-5.816c1.175-2.118,2.393-4.228,3.786-6.204
	c2.655-3.764,6.842-3.583,10.104-2.167c2.277,0.991,3.166,3.354,2.354,5.475C490.18,41.539,484.334,45.547,479.268,45.552z"/>
<path fill="none" stroke="#1E416B" stroke-width="15" stroke-miterlimit="10" d="M307.508,221.327
	c39.713,22.097,40.146,5.277,96.106,7.412"/>
<g>
	<path fill="#EFCC9A" d="M450.89,250.452c-0.294,0-0.589-0.006-0.885-0.018l-45.385-1.864c-4.139-0.171-7.356-3.663-7.187-7.802
		l1.139-27.73c0.082-1.99,0.952-3.866,2.419-5.214c0.246-0.226,0.505-0.434,0.775-0.624l15.664-16.557
		c2.817-2.978,6.785-4.687,10.887-4.687c3.846,0,7.503,1.456,10.299,4.099c4.811,4.552,5.936,11.561,3.27,17.255l9.871,0.405
		c5.705,0.234,10.979,2.676,14.847,6.875c3.868,4.2,5.869,9.655,5.636,15.36C471.769,241.446,462.391,250.452,450.89,250.452z"/>
	<path fill="#1E416B" d="M428.317,193.457c1.847,0,3.697,0.679,5.146,2.048c3.003,2.841,3.135,7.58,0.293,10.585l-7.645,8.079
		l7.232,0.297l18.105,0.743c7.658,0.314,13.61,6.776,13.296,14.434c-0.306,7.466-6.453,13.309-13.855,13.309
		c-0.192,0-0.385-0.004-0.578-0.012l-45.384-1.864l1.139-27.73l0.203,0.009l9.889-10.455l6.72-7.102
		C424.351,194.242,426.332,193.457,428.317,193.457 M428.317,178.457L428.317,178.457c-6.153,0-12.108,2.563-16.336,7.033
		l-6.719,7.101l-8.511,8.999c-0.287,0.227-0.565,0.465-0.836,0.714c-2.934,2.696-4.674,6.448-4.837,10.428l-1.139,27.73
		c-0.34,8.277,6.095,15.263,14.372,15.603l45.384,1.864c0.401,0.017,0.798,0.024,1.193,0.024c15.538,0,28.207-12.165,28.843-27.695
		c0.316-7.705-2.387-15.074-7.613-20.747c-5.226-5.673-12.348-8.972-20.055-9.288l-1.285-0.053
		c-0.196-5.705-2.545-11.337-7.007-15.56C439.575,180.641,434.088,178.457,428.317,178.457L428.317,178.457z"/>
</g>
</svg>
