<svg xmlns="http://www.w3.org/2000/svg" width="399" height="415" viewBox="0 0 399 415">
  <g fill="none" fill-rule="evenodd">
    <circle cx="188" cy="197" r="188" fill="#B2CCEB"/>
    <path fill="#EFCC9A" fill-rule="nonzero" stroke="#1E416B" stroke-width="15" d="M241.144,46.123 C186.405,46.123 142.031,90.496 142.031,145.236 C142.031,199.974 186.405,244.349 241.144,244.349 C295.883,244.349 340.257,199.974 340.257,145.236 C340.257,90.496 295.883,46.123 241.144,46.123 Z M241.144,175.029 C224.688,175.029 211.348,161.691 211.348,145.236 C211.348,128.779 224.688,115.441 241.144,115.441 C257.6,115.441 270.94,128.779 270.94,145.236 C270.939,161.691 257.6,175.029 241.144,175.029 Z"/>
    <path fill="#F288A9" d="M179.324,91.459 C174.645,96.578 164.351,98.612 161.679,105.467 C159.181,111.875 165.199,120.843 164.245,128.097 C163.331,135.05 155.118,141.901 155.441,149.047 C155.766,156.242 164.587,162.405 165.984,169.214 C167.485,176.531 161.933,185.775 164.454,191.947 C167.468,199.324 177.815,201.447 181.933,206.053 C187.181,211.923 190.304,222.803 199.03,225.882 C206.577,228.544 216.717,222.425 225.613,223.089 C233.925,223.709 242.767,231.435 251.277,230.382 C259.86,229.32 266.507,219.672 274.323,216.978 C282.815,214.049 294.265,217.164 300.653,212.393 C307.932,206.957 307.29,195.778 310.103,188.076 C312.374,181.861 322.039,177.716 323.678,171.114 C325.306,164.563 318.696,156.493 319.426,149.85 C320.173,143.049 328.341,136.417 327.854,129.824 C327.348,122.985 318.327,117.936 316.166,111.659 C313.984,105.318 317.812,95.594 313.603,90.181 C309.666,85.121 299.414,86.342 293.416,82.393 C287.611,78.571 284.604,68.338 277.672,65.961 C271.035,63.685 262.2,69.831 255.017,68.912 C247.96,68.009 241.019,59.808 233.892,60.243 C226.694,60.683 220.862,69.668 214.056,71.505 C207.024,73.402 197.329,68.701 191.223,72.122 C184.889,75.67 184.099,86.235 179.324,91.459 Z"/>
    <path stroke="#F8CACD" stroke-linecap="round" stroke-width="13" d="M178.24,156.441 L170.258,141.562"/>
    <path stroke="#1ACFE2" stroke-linecap="round" stroke-width="13" d="M232.199,74.025 L217.146,81.671"/>
    <path stroke="#FFF" stroke-linecap="round" stroke-width="13" d="M295.516,116.858 L306.99,104.471"/>
    <path stroke="#B7E5CF" stroke-linecap="round" stroke-width="13" d="M224.99,211.435 L240.953,216.935"/>
    <path stroke="#EFE578" stroke-linecap="round" stroke-width="13" d="M275.683,189.441 L268.236,204.593"/>
    <path stroke="#FFF" stroke-linecap="round" stroke-width="13" d="M193.617,196.25 L204.404,183.261"/>
    <path stroke="#B7E5CF" stroke-linecap="round" stroke-width="13" d="M181.696 111.018L193.898 115.764M264.74 78.036L276.942 82.782"/>
    <path stroke="#F8CACD" stroke-linecap="round" stroke-width="13" d="M299.604,154.615 L311.964,166.117"/>
    <path fill="#EFEFEF" stroke="#1E416B" stroke-width="15" d="M276.583,156.773 C276.583,174.587 262.141,189.028 244.325,189.028 C226.509,189.028 212.067,174.588 212.067,156.773 C212.067,156.773 226.206,155.77 244.021,155.77 C261.838,155.77 276.583,156.773 276.583,156.773 Z"/>
    <circle cx="220.583" cy="117.514" r="11.795" fill="#EFEFEF" stroke="#1E416B" stroke-width="15"/>
    <circle cx="262.462" cy="115.458" r="11.795" fill="#EFEFEF" stroke="#1E416B" stroke-width="15"/>
    <path stroke="#1E416B" stroke-width="15" d="M141.459 159.329C100.933 179.896 92.633 143.657 54.616 68.752M335.512 179.237C380.959 179.237 371.959 215.309 371.959 299.309M208.983 239.01L208.983 370.308M265.101 241.427L265.101 368.308"/>
    <g transform="translate(136 333)">
      <path fill="#FFF" d="M31.502,74.243 C18.424,74.243 7.785,63.603 7.785,50.526 C7.785,37.449 18.424,26.809 31.502,26.809 L52.057,26.809 L52.29,14.931 C52.37,10.846 55.704,7.577 59.789,7.577 L84.68,7.577 C86.675,7.577 88.589,8.372 89.996,9.787 C91.403,11.201 92.189,13.119 92.18,15.114 L92.084,34.345 L92.084,66.741 C92.084,70.884 88.727,74.241 84.584,74.241 L31.502,74.241 L31.502,74.243 Z"/>
      <path fill="#1E416B" fill-rule="nonzero" d="M84.679,15.078 L84.583,34.309 L84.583,66.743 L31.502,66.743 C22.545,66.743 15.285,59.483 15.285,50.526 C15.285,41.569 22.545,34.309 31.502,34.309 L59.411,34.309 L59.788,15.078 L84.679,15.078 Z M84.679,0.078 L59.788,0.078 C51.618,0.078 44.951,6.616 44.791,14.784 L44.702,19.309 L31.502,19.309 C14.289,19.309 0.285,33.313 0.285,50.526 C0.285,67.739 14.289,81.743 31.502,81.743 L84.583,81.743 C92.867,81.743 99.583,75.027 99.583,66.743 L99.583,34.347 L99.679,15.152 C99.699,11.162 98.127,7.327 95.312,4.498 C92.497,1.669 88.67,0.078 84.679,0.078 Z"/>
    </g>
    <path fill="#EFCC9A" d="M38.901,83.193 C36.246,83.193 33.674,81.78 32.312,79.287 L10.54,39.425 C4.89,29.079 8.71,16.066 19.054,10.417 C22.191,8.704 25.73,7.798 29.289,7.798 C37.118,7.798 44.311,12.065 48.061,18.932 L52.8,27.61 C55.599,24.114 59.894,21.959 64.515,21.959 C66.291,21.959 68.04,22.272 69.713,22.892 C73.467,24.281 76.457,27.048 78.13,30.684 C79.803,34.321 79.96,38.392 78.571,42.147 L70.665,63.526 C70.321,65.756 68.979,67.807 66.846,68.972 L42.49,82.274 C41.348,82.897 40.116,83.193 38.901,83.193 Z"/>
    <path fill="#1E416B" fill-rule="nonzero" d="M29.29,15.297 C34.201,15.297 38.96,17.911 41.48,22.526 L50.166,38.428 L53.637,44.782 L57.494,34.35 C58.612,31.328 61.473,29.457 64.517,29.457 C65.379,29.457 66.257,29.607 67.113,29.924 C70.992,31.359 72.973,35.664 71.539,39.543 L68.147,48.713 L63.155,62.21 L63.252,62.388 L38.895,75.692 L17.122,35.83 C13.448,29.102 15.923,20.673 22.649,16.999 C24.762,15.845 27.042,15.297 29.29,15.297 Z M29.291,0.297 C29.29,0.297 29.29,0.297 29.291,0.297 C24.479,0.297 19.696,1.52 15.46,3.834 C1.486,11.466 -3.674,29.044 3.957,43.019 L25.73,82.882 C28.454,87.869 33.599,90.694 38.908,90.694 C41.338,90.694 43.802,90.102 46.085,88.856 L70.442,75.552 C74.427,73.375 77.032,69.653 77.918,65.535 L82.215,53.915 L85.606,44.746 C89.907,33.116 83.945,20.156 72.315,15.854 C69.807,14.926 67.183,14.456 64.516,14.456 C61.264,14.456 58.118,15.168 55.262,16.465 L54.644,15.334 C49.579,6.061 39.864,0.298 29.291,0.297 Z"/>
    <g transform="translate(319 253)">
      <path fill="#EFCC9A" d="M50.381,82.185 C38.594,82.185 29.004,72.595 29.004,60.808 L29.004,50.927 C27.182,51.694 25.211,52.097 23.203,52.097 C23.202,52.097 23.202,52.097 23.202,52.097 C18.865,52.096 14.746,50.222 11.899,46.953 C9.269,43.935 7.972,40.074 8.247,36.08 C8.522,32.087 10.336,28.439 13.354,25.809 L30.542,10.835 C31.912,9.042 34.073,7.886 36.504,7.886 L64.258,7.886 C68.401,7.886 71.758,11.243 71.758,15.386 L71.758,60.807 C71.758,72.595 62.168,82.185 50.381,82.185 Z"/>
      <path fill="#1E416B" fill-rule="nonzero" d="M64.258,15.387 L64.258,60.808 C64.258,68.473 58.045,74.685 50.381,74.685 C42.716,74.685 36.504,68.473 36.504,60.808 L36.504,42.688 L36.504,35.449 L28.118,42.755 C26.699,43.991 24.947,44.598 23.202,44.598 C21.113,44.598 19.034,43.728 17.555,42.029 C14.838,38.911 15.163,34.182 18.282,31.466 L25.654,25.044 L36.505,15.591 L36.505,15.389 L64.258,15.389 L64.258,15.387 Z M64.258,0.387 L36.504,0.387 C31.962,0.387 27.892,2.406 25.142,5.594 L15.8,13.733 L8.429,20.154 C3.899,24.101 1.178,29.574 0.766,35.566 C0.354,41.558 2.299,47.353 6.245,51.881 C10.141,56.355 15.63,59.089 21.504,59.532 L21.504,60.807 C21.504,76.73 34.458,89.684 50.381,89.684 C66.304,89.684 79.258,76.73 79.258,60.807 L79.258,15.386 C79.258,7.103 72.542,0.387 64.258,0.387 Z"/>
    </g>
    <circle cx="204.583" cy="376.308" r="7.798" fill="#F288A9"/>
    <path fill="#FFF" stroke="#D8D6D6" stroke-linejoin="round" stroke-width="15" d="M224.083,396.308 L146.583,396.308"/>
    <path fill="#1E416B" fill-rule="nonzero" d="M220.679,348.078 L220.583,367.309 L220.583,399.743 L167.502,399.743 C158.545,399.743 151.285,392.483 151.285,383.526 C151.285,374.569 158.545,367.309 167.502,367.309 L195.411,367.309 L195.788,348.078 L220.679,348.078 Z M220.679,333.078 L195.788,333.078 C187.618,333.078 180.951,339.616 180.791,347.784 L180.702,352.309 L167.502,352.309 C150.289,352.309 136.285,366.313 136.285,383.526 C136.285,400.739 150.289,414.743 167.502,414.743 L220.583,414.743 C228.867,414.743 235.583,408.027 235.583,399.743 L235.583,367.347 L235.679,348.152 C235.699,344.162 234.127,340.327 231.312,337.498 C228.497,334.669 224.67,333.078 220.679,333.078 Z"/>
    <g transform="translate(238 333)">
      <path fill="#FFF" d="M15.583,74.243 C11.44,74.243 8.083,70.886 8.083,66.743 L8.083,34.309 L7.987,15.115 C7.977,13.12 8.763,11.202 10.171,9.788 C11.578,8.373 13.492,7.578 15.487,7.578 L40.378,7.578 C44.463,7.578 47.797,10.847 47.877,14.932 L48.109,26.81 L68.664,26.81 C81.741,26.81 92.381,37.45 92.381,50.527 C92.381,63.604 81.741,74.244 68.664,74.244 L15.583,74.244 L15.583,74.243 Z"/>
      <path fill="#1E416B" fill-rule="nonzero" d="M40.378,15.078 L40.755,34.309 L68.664,34.309 C77.621,34.309 84.881,41.569 84.881,50.526 C84.881,59.483 77.621,66.743 68.664,66.743 L15.583,66.743 L15.583,34.309 L15.487,15.078 L40.378,15.078 Z M40.378,0.078 L15.487,0.078 C11.496,0.078 7.67,1.669 4.854,4.498 C2.038,7.327 0.467,11.162 0.487,15.152 L0.583,34.347 L0.583,66.743 C0.583,75.027 7.299,81.743 15.583,81.743 L68.664,81.743 C85.877,81.743 99.881,67.739 99.881,50.526 C99.881,33.313 85.877,19.309 68.664,19.309 L55.464,19.309 L55.375,14.784 C55.215,6.616 48.548,0.078 40.378,0.078 Z"/>
    </g>
    <circle cx="269.583" cy="376.308" r="7.798" fill="#F288A9"/>
    <path fill="#FFF" stroke="#D8D6D6" stroke-linejoin="round" stroke-width="15" d="M250.083,396.308 L327.583,396.308"/>
    <path fill="#1E416B" fill-rule="nonzero" d="M278.378,348.078 L278.755,367.309 L306.664,367.309 C315.621,367.309 322.881,374.569 322.881,383.526 C322.881,392.483 315.621,399.743 306.664,399.743 L253.583,399.743 L253.583,367.309 L253.487,348.078 L278.378,348.078 Z M278.378,333.078 L253.487,333.078 C249.496,333.078 245.67,334.669 242.854,337.498 C240.038,340.327 238.467,344.162 238.487,348.152 L238.583,367.347 L238.583,399.743 C238.583,408.027 245.299,414.743 253.583,414.743 L306.664,414.743 C323.877,414.743 337.881,400.739 337.881,383.526 C337.881,366.313 323.877,352.309 306.664,352.309 L293.464,352.309 L293.375,347.784 C293.215,339.616 286.548,333.078 278.378,333.078 Z"/>
  </g>
</svg>
